<?xml version="1.0" standalone="no"?>
<!DOCTYPE svg PUBLIC "-//W3C//DTD SVG 1.1//EN" "http://www.w3.org/Graphics/SVG/1.1/DTD/svg11.dtd" >
<svg xmlns="http://www.w3.org/2000/svg" xmlns:xlink="http://www.w3.org/1999/xlink" version="1.1">
<metadata>
Created by FontForge 20170731 at Thu May 28 04:30:49 2015
 By Aleksey,,,
(c) 2015 Adobe &#38; Nathan Rutzky
</metadata>
<defs>
<font id="OfficeCodePro-BoldItalic" horiz-adv-x="600" >
  <font-face 
    font-family="Office Code Pro Bold Italic"
    font-weight="700"
    font-style="italic"
    font-stretch="normal"
    units-per-em="1000"
    panose-1="0 0 8 9 0 0 0 0 0 0"
    ascent="750"
    descent="-250"
    x-height="510"
    cap-height="660"
    bbox="-427 -300 757 1057"
    underline-thickness="50"
    underline-position="-200"
    slope="-9"
    unicode-range="U+0020-E0B3"
  />
<missing-glyph 
d="M35 0v660h530v-660h-530zM298 414h4l42 95l32 59h-152l31 -59zM134 155l94 185l-94 186v-371zM466 155v371l-94 -186zM218 91h164l-39 77l-41 98h-4l-41 -98z" />
    <glyph glyph-name=".notdef" 
d="M35 0v660h530v-660h-530zM298 414h4l42 95l32 59h-152l31 -59zM134 155l94 185l-94 186v-371zM466 155v371l-94 -186zM218 91h164l-39 77l-41 98h-4l-41 -98z" />
    <glyph glyph-name=".null" horiz-adv-x="0" 
 />
    <glyph glyph-name="nonmarkingreturn" horiz-adv-x="333" 
 />
    <glyph glyph-name="space" unicode=" " 
 />
    <glyph glyph-name="exclam" unicode="!" 
d="M292 255l41 415h146l-91 -415h-96zM298 -12q-38 0 -61.5 24.5t-23.5 62.5q0 49 34.5 82t82.5 33q38 0 62 -23.5t24 -61.5q0 -50 -34.5 -83.5t-83.5 -33.5z" />
    <glyph glyph-name="quotedbl" unicode="&#x22;" 
d="M176 338l-1 215l15 132h170l-25 -132l-69 -215h-90zM442 338l-1 215l15 132h170l-25 -132l-69 -215h-90z" />
    <glyph glyph-name="numbersign" unicode="#" 
d="M122 0l52 187h-74l15 94h85l31 110h-79l15 94h91l47 165h84l-46 -165h104l47 165h84l-46 -165h79l-15 -94h-91l-30 -110h84l-15 -94h-95l-53 -187h-85l52 187h-103l-53 -187h-85zM286 281h103l31 110h-104z" />
    <glyph glyph-name="dollar" unicode="$" 
d="M249 -115l-86 10l52 151q-82 21 -133 69l80 100q52 -33 95 -48l40 114q-43 17 -71 33t-51 47.5t-23 70.5q0 90 73 138t187 48l46 132l86 -10l-47 -137q57 -20 100 -70l-86 -84q-37 26 -56 34l-36 -104q67 -25 107.5 -59.5t40.5 -91.5q0 -82 -72.5 -138t-194.5 -56z
M341 409l30 90q-36 0 -56.5 -13t-20.5 -36t47 -41zM341 153q39 0 60.5 13t21.5 36q0 26 -48 48z" />
    <glyph glyph-name="percent" unicode="%" 
d="M221 312q-55 0 -89.5 38.5t-34.5 101.5q0 86 52 140.5t125 54.5q57 0 91.5 -37t34.5 -100q0 -87 -52.5 -142.5t-126.5 -55.5zM458 377l-44 48l194 199l63 -73zM234 390q27 0 46 30t19 89t-37 59q-28 0 -46 -27.5t-18 -88.5q0 -62 36 -62zM426 -12q-56 0 -90.5 38
t-34.5 102q0 87 52 141.5t126 54.5q56 0 90.5 -37t34.5 -100q0 -87 -52.5 -143t-125.5 -56zM97 28l-64 73l214 173l44 -47zM439 67q26 0 45 30.5t19 88.5q0 59 -36 59q-28 0 -46.5 -27.5t-18.5 -87.5q0 -63 37 -63z" />
    <glyph glyph-name="ampersand" unicode="&#x26;" 
d="M230 -12q-87 0 -134.5 46t-47.5 116q0 69 36.5 117t100.5 90q-22 57 -22 117q0 81 54 139.5t136 58.5q64 0 100 -33.5t36 -91.5q0 -35 -12 -65t-38.5 -57.5t-46.5 -43.5t-58 -43q36 -60 98 -119q50 72 79 153h134q-53 -127 -126 -223q43 -33 84 -42l-54 -119
q-66 17 -128 64q-88 -64 -191 -64zM293 424q82 53 82 112q0 39 -34 39q-23 0 -39.5 -26.5t-16.5 -66.5q0 -29 8 -58zM267 100q32 0 68 24q-64 66 -103 136q-42 -42 -42 -88q0 -32 21 -52t56 -20z" />
    <glyph glyph-name="quotesingle" unicode="'" 
d="M309 338l-1 215l15 132h170l-25 -132l-69 -215h-90z" />
    <glyph glyph-name="parenleft" unicode="(" 
d="M364 -179q-147 152 -147 377q0 310 291 537l72 -65q-131 -111 -185.5 -221t-54.5 -250q0 -179 116 -313z" />
    <glyph glyph-name="parenright" unicode=")" 
d="M180 -179l-72 65q131 111 185.5 221t54.5 250q0 179 -116 313l92 65q147 -152 147 -377q0 -310 -291 -537z" />
    <glyph glyph-name="asterisk" unicode="*" 
d="M198 91l-57 44l122 157l-142 68l34 71l155 -43l41 178h78l-17 -178l169 43l12 -71l-164 -68l72 -157l-71 -44l-93 142z" />
    <glyph glyph-name="plus" unicode="+" 
d="M261 94l29 184h-176l17 104h176l29 184h108l-29 -184h176l-17 -104h-176l-29 -184h-108z" />
    <glyph glyph-name="comma" unicode="," 
d="M185 -217l-24 86q138 45 153 142q-4 -1 -11 -1q-40 0 -67 23.5t-27 63.5q0 51 38.5 84.5t91.5 33.5q50 0 75.5 -34t25.5 -95q0 -111 -65.5 -189t-189.5 -114z" />
    <glyph glyph-name="hyphen" unicode="-" 
d="M114 278l17 104h460l-17 -104h-460z" />
    <glyph glyph-name="period" unicode="." 
d="M298 -12q-45 0 -72 28t-27 72q0 56 39.5 95.5t96.5 39.5q45 0 72 -28.5t27 -72.5q0 -56 -39.5 -95t-96.5 -39z" />
    <glyph glyph-name="slash" unicode="/" 
d="M19 -32l546 742h123l-546 -742h-123z" />
    <glyph glyph-name="zero" unicode="0" 
d="M298 -12q-93 0 -145.5 68.5t-52.5 193.5q0 195 85 308.5t221 113.5q94 0 146.5 -66.5t52.5 -191.5q0 -194 -86 -310t-221 -116zM230 246l223 278q-21 34 -65 34q-109 0 -148 -226q-6 -31 -10 -86zM316 102q115 0 150 230q7 49 9 85l-223 -279q22 -36 64 -36z" />
    <glyph glyph-name="one" unicode="1" 
d="M82 0l19 119h164l62 391h-131l14 91q99 17 180 59h108l-86 -541h144l-19 -119h-455z" />
    <glyph glyph-name="two" unicode="2" 
d="M58 0l13 84q72 56 105 82.5t85.5 70.5t76 68.5t51 57.5t37.5 59t10 52q0 39 -23.5 61t-66.5 22q-61 0 -139 -69l-66 80q61 54 116.5 79t126.5 25q90 0 142.5 -48t52.5 -129q0 -47 -22 -94.5t-68.5 -98.5t-89.5 -90t-112 -96q74 8 117 8h151l-20 -124h-477z" />
    <glyph glyph-name="three" unicode="3" 
d="M277 -12q-154 0 -222 93l83 93q60 -67 144 -67q58 0 95.5 25t37.5 70q0 84 -178 84l17 104q186 0 186 103q0 30 -21.5 47t-61.5 17q-64 0 -144 -59l-60 90q113 84 229 84q96 0 152 -41.5t56 -114.5q0 -116 -146 -171l-1 -4q53 -16 85.5 -52t32.5 -89q0 -96 -84.5 -154
t-199.5 -58z" />
    <glyph glyph-name="four" unicode="4" 
d="M341 0l25 160h-306l16 101l243 399h147l-246 -388h164l26 161h137l-26 -161h80l-18 -112h-80l-25 -160h-137z" />
    <glyph glyph-name="five" unicode="5" 
d="M281 -12q-146 0 -222 92l80 93q66 -66 140 -66q62 0 102 32.5t40 90.5q0 42 -27.5 65.5t-73.5 23.5q-51 0 -113 -33l-58 42l70 332h389l-20 -124h-262l-32 -130q44 17 87 17q83 0 136 -44t53 -128q0 -119 -86.5 -191t-202.5 -72z" />
    <glyph glyph-name="six" unicode="6" 
d="M315 -12q-91 0 -151.5 65t-60.5 193q0 103 29.5 186.5t78.5 134.5t108 78t121 27q123 0 190 -78l-91 -88q-43 47 -104 47q-64 0 -113.5 -51t-71.5 -163q83 73 164 73q76 0 122 -42.5t46 -123.5q0 -115 -80 -186.5t-187 -71.5zM330 98q47 0 81.5 34t34.5 96q0 39 -21.5 59
t-58.5 20q-63 0 -128 -66q-1 -75 24.5 -109t67.5 -34z" />
    <glyph glyph-name="seven" unicode="7" 
d="M193 0q36 171 95.5 289t177.5 247h-319l20 124h477l-15 -90q-94 -92 -148.5 -177t-82.5 -168.5t-57 -224.5h-148z" />
    <glyph glyph-name="eight" unicode="8" 
d="M297 -12q-99 0 -155.5 43t-56.5 115q0 66 40 109.5t109 76.5v4q-70 56 -70 133q0 91 70 147t176 56q85 0 133.5 -42t48.5 -112q0 -101 -116 -172l-1 -4q95 -53 95 -146q0 -91 -74 -149.5t-199 -58.5zM404 382q65 56 65 115q0 33 -20.5 53t-57.5 20q-41 0 -69 -24t-28 -66
q0 -33 27.5 -55t82.5 -43zM317 90q51 0 83 25.5t32 70.5q0 16 -7.5 29.5t-16 22t-31 20t-35.5 17t-46 18.5q-80 -55 -80 -121q0 -38 28 -60t73 -22z" />
    <glyph glyph-name="nine" unicode="9" 
d="M263 -12q-120 0 -191 78l92 88q40 -47 105 -47q64 0 113.5 51t71.5 164q-39 -34 -84 -54t-81 -20q-76 0 -122 42.5t-46 123.5q0 115 80 186.5t186 71.5q92 0 152.5 -65t60.5 -192q0 -104 -29.5 -187.5t-78 -134.5t-107.5 -78t-122 -27zM338 352q63 0 128 68q0 74 -26 108
t-67 34q-47 0 -82 -34.5t-35 -96.5q0 -79 82 -79z" />
    <glyph glyph-name="colon" unicode=":" 
d="M349 311q-45 0 -72 28.5t-27 72.5q0 55 39.5 94.5t96.5 39.5q45 0 72.5 -28.5t27.5 -71.5q0 -56 -40 -95.5t-97 -39.5zM298 -12q-45 0 -72 28t-27 72q0 56 39.5 95.5t96.5 39.5q45 0 72 -28.5t27 -72.5q0 -56 -39.5 -95t-96.5 -39z" />
    <glyph glyph-name="semicolon" unicode=";" 
d="M349 311q-45 0 -72 28.5t-27 72.5q0 55 39.5 94.5t96.5 39.5q45 0 72.5 -28.5t27.5 -71.5q0 -56 -40 -95.5t-97 -39.5zM185 -217l-24 86q138 45 153 142q-4 -1 -11 -1q-40 0 -67 23.5t-27 63.5q0 51 38.5 84.5t91.5 33.5q50 0 75.5 -34t25.5 -95q0 -111 -65.5 -189
t-189.5 -114z" />
    <glyph glyph-name="less" unicode="&#x3c;" 
d="M500 -12l-342 280l17 102l430 280l-23 -143l-294 -186l-1 -4l236 -186z" />
    <glyph glyph-name="equal" unicode="=" 
d="M133 395l16 103h460l-16 -103h-460zM96 162l16 103h460l-16 -103h-460z" />
    <glyph glyph-name="greater" unicode="&#x3e;" 
d="M96 -12l23 143l294 186l1 4l-236 186l23 143l342 -280l-17 -102z" />
    <glyph glyph-name="question" unicode="?" 
d="M258 255q0 35 16 66t33 48t46 40q7 6 22.5 18t21 16.5t15.5 14.5t13.5 16.5t7 16t3.5 19.5q0 25 -18 39t-48 14q-50 0 -108 -46l-70 75q97 90 213 90q76 0 126.5 -36t50.5 -103q0 -35 -15 -65.5t-31 -46.5t-45 -39q-1 -1 -20 -16t-22 -18t-17.5 -15.5t-18.5 -19.5
t-12 -19t-11 -24t-4 -25h-128zM284 -12q-38 0 -61.5 24.5t-23.5 62.5q0 49 34.5 82t82.5 33q38 0 62 -23.5t24 -61.5q0 -50 -34.5 -83.5t-83.5 -33.5z" />
    <glyph glyph-name="at" unicode="@" 
d="M335 -25q-113 0 -186.5 72.5t-73.5 207.5q0 102 31 182t83 128.5t117 73.5t137 25q104 0 148.5 -61t29.5 -157l-45 -282h-78l-3 50h-4q-53 -62 -130 -62q-48 0 -77.5 34t-29.5 85q0 87 70.5 131t208.5 62l1 7q6 44 -22 74t-87 30q-42 0 -84 -17.5t-79.5 -53t-61 -97.5
t-23.5 -141q0 -97 50.5 -149.5t126.5 -52.5q71 0 139 38l31 -73q-101 -54 -189 -54zM409 247q36 0 80 37l14 91q-79 -12 -109.5 -31t-30.5 -56q0 -19 12 -30t34 -11z" />
    <glyph glyph-name="A" unicode="A" 
d="M9 0l308 660h176l98 -660h-156l-14 158h-197l-65 -158h-150zM272 273h137l-5 62q-4 47 -18 213h-4q-35 -91 -85 -213z" />
    <glyph glyph-name="B" unicode="B" 
d="M84 0l105 660h204q215 0 215 -138q0 -57 -36 -104.5t-101 -64.5l-1 -4q120 -23 120 -129q0 -108 -79.5 -164t-203.5 -56h-223zM293 393h50q60 0 88.5 25.5t28.5 69.5q0 58 -92 58h-51zM249 114h64q134 0 134 106q0 69 -106 69h-64z" />
    <glyph glyph-name="C" unicode="C" 
d="M361 -12q-115 0 -187.5 73t-72.5 205q0 182 108.5 294t262.5 112q109 0 180 -84l-95 -91q-45 48 -105 48q-83 0 -140.5 -72t-57.5 -187q0 -80 36.5 -125.5t99.5 -45.5q64 0 126 59l66 -89q-97 -97 -221 -97z" />
    <glyph glyph-name="D" unicode="D" 
d="M65 0l105 660h177q127 0 198 -65.5t71 -195.5q0 -192 -101 -295.5t-265 -103.5h-185zM232 119h21q98 0 154 65t56 202q0 155 -143 155h-21z" />
    <glyph glyph-name="E" unicode="E" 
d="M94 0l105 660h430l-20 -124h-283l-21 -135h240l-20 -123h-240l-24 -154h293l-20 -124h-440z" />
    <glyph glyph-name="F" unicode="F" 
d="M108 0l105 660h430l-20 -124h-283l-25 -155h241l-19 -124h-241l-41 -257h-147z" />
    <glyph glyph-name="G" unicode="G" 
d="M341 -12q-113 0 -182.5 72.5t-69.5 202.5q0 185 106 297t256 112q110 0 178 -84l-95 -91q-40 48 -103 48q-78 0 -133 -74.5t-55 -194.5q0 -77 31.5 -119t94.5 -42q43 0 68 21l18 115h-95l19 120h227l-48 -303q-41 -34 -99.5 -57t-117.5 -23z" />
    <glyph glyph-name="H" unicode="H" 
d="M64 0l105 660h147l-41 -255h178l41 255h147l-105 -660h-147l44 276h-178l-44 -276h-147z" />
    <glyph glyph-name="I" unicode="I" 
d="M74 0l20 124h152l65 412h-152l20 124h452l-20 -124h-152l-65 -412h152l-20 -124h-452z" />
    <glyph glyph-name="J" unicode="J" 
d="M271 -12q-136 0 -197 109l100 91q46 -73 112 -73q52 0 81 27.5t39 93.5l48 301h-255l20 123h401l-69 -436q-16 -106 -84.5 -171t-195.5 -65z" />
    <glyph glyph-name="K" unicode="K" 
d="M68 0l105 660h149l-44 -272h3l237 272h162l-237 -263l151 -397h-163l-94 280l-92 -102l-28 -178h-149z" />
    <glyph glyph-name="L" unicode="L" 
d="M107 0l105 660h147l-85 -536h290l-20 -124h-437z" />
    <glyph glyph-name="M" unicode="M" horiz-adv-x="630" 
d="M65 0l105 660h148l38 -235l12 -92h3l39 92l112 235h148l-105 -660h-119l35 220q15 97 66 296h-4l-82 -180l-86 -160h-66l-37 160l-23 180h-4q-10 -180 -28 -296l-35 -220h-117z" />
    <glyph glyph-name="N" unicode="N" 
d="M66 0l105 660h150l85 -331l33 -145h4q1 13 3.5 69.5t5.5 95.5t8 74l38 237h141l-105 -660h-150l-85 332l-34 143h-4q-1 -17 -3 -71t-5 -93t-8 -74l-38 -237h-141z" />
    <glyph glyph-name="O" unicode="O" 
d="M298 -12q-99 0 -157 73t-58 199q0 186 92 299t231 113q100 0 158 -71t58 -196q0 -185 -92.5 -301t-231.5 -116zM318 115q65 0 108.5 81.5t43.5 199.5q0 70 -22 109.5t-62 39.5q-65 0 -108 -78.5t-43 -197.5q0 -71 22 -112.5t61 -41.5z" />
    <glyph glyph-name="P" unicode="P" 
d="M74 0l105 660h238q225 0 225 -175q0 -127 -85 -193.5t-209 -66.5h-91l-36 -225h-147zM275 342h82q138 0 138 125q0 76 -106 76h-82z" />
    <glyph glyph-name="Q" unicode="Q" 
d="M455 -180q-92 0 -150 48t-77 129q-70 20 -108.5 89t-38.5 173q0 187 91 300t231 113q100 0 157 -70t57 -196q0 -151 -65 -259.5t-170 -144.5q21 -64 109 -64q27 0 55 13l9 -110q-42 -21 -100 -21zM315 115q65 0 108 82t43 200q0 70 -21.5 109t-61.5 39q-66 0 -108 -79.5
t-42 -198.5q0 -71 21 -111.5t61 -40.5z" />
    <glyph glyph-name="R" unicode="R" 
d="M70 0l105 660h231q223 0 223 -170q0 -83 -40.5 -139.5t-109.5 -85.5l105 -265h-165l-87 239h-77l-38 -239h-147zM273 356h72q66 0 101.5 30t35.5 86q0 71 -107 71h-72z" />
    <glyph glyph-name="S" unicode="S" 
d="M296 -12q-143 0 -233 95l101 101q72 -69 156 -69q55 0 82 19.5t27 53.5q0 25 -20 38.5t-69 33.5l-78 37q-50 20 -81.5 59t-31.5 95q0 92 79 156.5t193 64.5q128 0 204 -87l-90 -93q-62 53 -134 53q-46 0 -73 -18t-27 -50q0 -17 14.5 -30t30 -20.5t50.5 -20.5l74 -35
q114 -45 114 -152q0 -95 -79.5 -163t-208.5 -68z" />
    <glyph glyph-name="T" unicode="T" 
d="M226 0l85 536h-195l20 124h538l-20 -124h-195l-85 -536h-148z" />
    <glyph glyph-name="U" unicode="U" 
d="M300 -12q-118 0 -167 68t-29 198l64 406h148l-67 -421q-20 -124 71 -124q92 0 112 124l67 421h141l-64 -406q-42 -266 -276 -266z" />
    <glyph glyph-name="V" unicode="V" 
d="M212 0l-92 660h155l31 -309q4 -36 9 -106t8 -106h4q20 45 87 212l126 309h150l-301 -660h-177z" />
    <glyph glyph-name="W" unicode="W" 
d="M91 0l18 660h150l-35 -353q-4 -26 -11.5 -82t-11.5 -86h3q11 31 32.5 88.5t29.5 79.5l74 185h89l14 -185q0 -26 3 -82.5t4 -85.5h4q2 11 13.5 73.5t18.5 94.5l75 353h140l-186 -660h-154l-8 210q-2 75 2 126h-3q-14 -55 -38 -126l-72 -210h-151z" />
    <glyph glyph-name="X" unicode="X" 
d="M18 0l244 339l-128 321h165l43 -126q4 -14 14.5 -49t18.5 -57h4q29 56 61 106l78 126h158l-231 -328l137 -332h-164l-50 136q-19 55 -34 108h-4q-39 -68 -65 -108l-90 -136h-157z" />
    <glyph glyph-name="Y" unicode="Y" 
d="M226 0l35 223l-140 437h158l40 -160q18 -70 35 -151h4q9 16 38.5 69t46.5 82l92 160h154l-280 -437l-35 -223h-148z" />
    <glyph glyph-name="Z" unicode="Z" 
d="M56 0l14 89l377 448h-277l20 123h458l-15 -89l-375 -447h309l-20 -124h-491z" />
    <glyph glyph-name="bracketleft" unicode="[" 
d="M177 -152l136 860h295l-12 -78h-183l-112 -704h183l-12 -78h-295z" />
    <glyph glyph-name="backslash" unicode="\" 
d="M448 -32l-312 742h123l312 -742h-123z" />
    <glyph glyph-name="bracketright" unicode="]" 
d="M81 -152l12 78h182l112 704h-182l12 78h295l-136 -860h-295z" />
    <glyph glyph-name="asciicircum" unicode="^" 
d="M129 274l218 396h118l92 -396h-121l-25 128l-24 135h-4l-66 -135l-67 -128h-121z" />
    <glyph glyph-name="underscore" unicode="_" 
d="M34 -164l17 110h480l-17 -110h-480z" />
    <glyph glyph-name="grave" unicode="`" 
d="M366 574l-106 167h150l63 -167h-107z" />
    <glyph glyph-name="a" unicode="a" 
d="M254 -12q-81 0 -126.5 56t-45.5 155q0 143 80.5 233.5t179.5 90.5q69 0 118 -56l19 43h130l-81 -510h-120l-3 53h-3q-74 -65 -148 -65zM311 108q50 0 95 49l33 210q-32 36 -77 36q-52 0 -90 -50t-38 -139q0 -106 77 -106z" />
    <glyph glyph-name="b" unicode="b" 
d="M336 -12q-73 0 -124 68h-4l-21 -56h-115l115 723h147l-29 -179l-17 -81q73 60 148 60q78 0 121 -55t43 -149q0 -147 -81 -239t-183 -92zM322 108q53 0 89.5 51t36.5 144q0 100 -73 100q-47 0 -100 -50l-33 -210q32 -35 80 -35z" />
    <glyph glyph-name="c" unicode="c" 
d="M341 -12q-106 0 -172 60t-66 165q0 140 100 225t234 85q112 0 175 -70l-83 -91q-48 42 -103 42q-73 0 -121.5 -49t-48.5 -125q0 -56 32 -89.5t86 -33.5q66 0 139 49l45 -93q-100 -75 -217 -75z" />
    <glyph glyph-name="d" unicode="d" 
d="M254 -12q-81 0 -126.5 56t-45.5 155q0 143 80.5 233.5t179.5 90.5q69 0 118 -56l8 80l28 176h147l-115 -723h-120l-3 53h-3q-74 -65 -148 -65zM311 108q50 0 95 49l33 210q-32 36 -77 36q-52 0 -90 -50t-38 -139q0 -106 77 -106z" />
    <glyph glyph-name="e" unicode="e" 
d="M328 -12q-106 0 -171.5 60t-65.5 165q0 92 46.5 164.5t115 109t143.5 36.5q96 0 147 -56t51 -146q0 -37 -20 -109h-334q-2 -56 33 -84t93 -28q62 0 134 36l33 -89q-100 -59 -205 -59zM253 310h209q8 47 -12 73.5t-69 26.5q-42 0 -76.5 -25.5t-51.5 -74.5z" />
    <glyph glyph-name="f" unicode="f" 
d="M213 0l63 395h-131l17 109l131 6l3 16q17 94 81 151.5t174 57.5q71 0 146 -28l-45 -108q-45 20 -101 20q-92 0 -108 -92l-3 -17h172l-18 -115h-171l-63 -395h-147z" />
    <glyph glyph-name="g" unicode="g" 
d="M236 -217q-116 0 -182 63l64 100q54 -48 136 -48q51 0 87 27t43 60l16 83q-63 -55 -142 -55q-80 0 -127 56.5t-47 148.5q0 131 79.5 218t181.5 87q77 0 124 -66h4l21 53h115l-81 -510q-17 -104 -91.5 -160.5t-200.5 -56.5zM315 131q50 0 95 51l29 185q-32 36 -79 36
t-86 -46.5t-39 -120.5q0 -50 21.5 -77.5t58.5 -27.5z" />
    <glyph glyph-name="h" unicode="h" 
d="M72 0l115 723h147l-29 -179l-24 -99q90 78 181 78q160 0 128 -208l-50 -315h-147l47 296q8 54 -4.5 78t-52.5 24q-28 0 -52 -13.5t-58 -43.5l-54 -341h-147z" />
    <glyph glyph-name="i" unicode="i" 
d="M391 570q-39 0 -62.5 22.5t-23.5 60.5q0 50 34 83.5t83 33.5q39 0 62.5 -24t23.5 -62q0 -51 -33.5 -82.5t-83.5 -31.5zM61 0l19 119h170l44 276h-170l18 115h317l-62 -391h170l-19 -119h-487z" />
    <glyph glyph-name="j" unicode="j" 
d="M438 586q-39 0 -62.5 22.5t-23.5 60.5q0 50 34 83.5t83 33.5q39 0 62.5 -24t23.5 -62q0 -51 -33.5 -82.5t-83.5 -31.5zM161 -217q-81 0 -148 35l60 105q49 -25 97 -25t75 34t34 76l61 387h-198l18 115h346l-79 -496q-37 -231 -266 -231z" />
    <glyph glyph-name="k" unicode="k" 
d="M76 0l115 723h147l-67 -423h4l215 210h161l-221 -209l155 -301h-159l-97 211l-86 -82l-20 -129h-147z" />
    <glyph glyph-name="l" unicode="l" 
d="M393 -12q-92 0 -131.5 55.5t-24.5 154.5l65 409h-144l19 116h290l-84 -532q-7 -44 12.5 -64t54.5 -20q38 0 81 17l16 -108q-91 -28 -154 -28z" />
    <glyph glyph-name="m" unicode="m" 
d="M36 0l81 510h110l1 -64h4q45 77 118 77q68 0 74 -84q45 84 122 84q52 0 74 -44t10 -121l-57 -358h-138l55 347q8 51 -20 51q-26 0 -54 -52l-55 -346h-113l55 347q7 51 -21 51q-24 0 -53 -52l-55 -346h-138z" />
    <glyph glyph-name="n" unicode="n" 
d="M72 0l81 510h120v-69h4q93 82 184 82q161 0 129 -208l-50 -315h-147l47 296q8 54 -4.5 78t-52.5 24q-28 0 -52 -13.5t-58 -43.5l-54 -341h-147z" />
    <glyph glyph-name="o" unicode="o" 
d="M298 -12q-91 0 -153 60.5t-62 164.5q0 138 91.5 224t208.5 86q91 0 153 -61t62 -165q0 -138 -91.5 -223.5t-208.5 -85.5zM317 107q61 0 95 52.5t34 132.5q0 112 -82 112q-61 0 -95 -52.5t-34 -133.5q0 -52 20.5 -81.5t61.5 -29.5z" />
    <glyph glyph-name="p" unicode="p" 
d="M40 -205l113 715h120l3 -52h3q79 65 158 65q78 0 120.5 -55t42.5 -149q0 -147 -81 -239t-183 -92q-70 0 -115 56l-8 -84l-26 -165h-147zM321 108q54 0 90.5 51t36.5 144q0 100 -73 100q-47 0 -100 -50l-33 -210q32 -35 79 -35z" />
    <glyph glyph-name="q" unicode="q" 
d="M348 -206l28 174l19 80q-70 -60 -141 -60q-81 0 -126.5 56t-45.5 155q0 143 80.5 233.5t179.5 90.5q80 0 127 -66h4l21 53h115l-114 -716h-147zM311 108q50 0 95 49l33 210q-32 36 -77 36q-52 0 -90 -50t-38 -139q0 -106 77 -106z" />
    <glyph glyph-name="r" unicode="r" 
d="M116 0l81 510h120l-6 -112h3q92 125 221 125q49 0 93 -21l-50 -123q-50 15 -86 15q-109 0 -187 -126l-42 -268h-147z" />
    <glyph glyph-name="s" unicode="s" 
d="M294 -12q-128 0 -231 78l81 92q84 -61 170 -61q103 0 103 49q0 20 -29.5 35t-92.5 34q-155 46 -155 136q0 75 70.5 123.5t185.5 48.5q106 0 203 -70l-80 -88q-70 48 -138 48q-93 0 -93 -45q0 -20 28.5 -33.5t88.5 -30.5q75 -22 118 -53.5t43 -83.5q0 -76 -73 -127.5
t-199 -51.5z" />
    <glyph glyph-name="t" unicode="t" 
d="M386 -12q-214 0 -179 223l29 184h-124l18 115h132l24 150l149 60l-33 -210h210l-18 -115h-210l-29 -183q-9 -58 11.5 -83.5t74.5 -25.5q50 0 102 19l10 -106q-94 -28 -167 -28z" />
    <glyph glyph-name="u" unicode="u" 
d="M221 -12q-160 0 -128 207l50 315h147l-47 -296q-8 -54 4 -77.5t52 -23.5q28 0 52 13.5t55 47.5l53 336h147l-81 -510h-120l1 74h-4q-88 -86 -181 -86z" />
    <glyph glyph-name="v" unicode="v" 
d="M218 0l-106 510h148l39 -244q8 -51 20 -157h4q10 22 33 75.5t36 81.5l116 244h142l-263 -510h-169z" />
    <glyph glyph-name="w" unicode="w" 
d="M86 0l-1 510h143l-7 -240q-1 -16 -3.5 -69t-3.5 -82h3q16 57 47 151l59 175h103l5 -175q1 -75 0 -151h4q8 28 21 79t19 72l68 240h134l-158 -510h-170v176q0 58 5 150h-4q-23 -89 -42 -150l-55 -176h-167z" />
    <glyph glyph-name="x" unicode="x" 
d="M37 0l214 265l-122 245h158l37 -84q6 -16 39 -87h4q9 14 27.5 43.5t26.5 43.5l58 84h154l-204 -261l133 -249h-158l-43 87q-34 69 -43 88h-4q-40 -58 -60 -88l-63 -87h-154z" />
    <glyph glyph-name="y" unicode="y" 
d="M109 -217q-42 0 -75 10l44 112q18 -6 38 -6q38 0 66 23t43 49l23 41l-136 498h145l48 -223q16 -76 26 -153h4q24 57 70 153l108 223h139l-282 -534q-53 -100 -112 -146.5t-149 -46.5z" />
    <glyph glyph-name="z" unicode="z" 
d="M70 0l13 79l310 316h-228l18 115h431l-13 -78l-310 -317h268l-18 -115h-471z" />
    <glyph glyph-name="braceleft" unicode="{" 
d="M395 -152q-167 -21 -167 111q0 36 12.5 65.5t27 46t27 39t12.5 45.5q0 28 -46 53.5t-118 26.5l14 86q81 1 136.5 31.5t55.5 66.5q0 23 -14 63t-14 66q0 87 52 130.5t158 29.5l76 -10l-13 -78l-39 10q-23 6 -41.5 6.5t-30.5 -3t-20.5 -12t-12.5 -16.5t-6.5 -20t-3 -19.5
t-0.5 -18.5q0 -20 12 -61t12 -64q0 -59 -47 -95t-115 -47v-4q52 -9 86.5 -37.5t34.5 -74.5q0 -38 -36.5 -94.5t-36.5 -93.5q0 -72 93 -50l43 10l-13 -78z" />
    <glyph glyph-name="bar" unicode="|" 
d="M195 -250l159 1000h130l-159 -1000h-130z" />
    <glyph glyph-name="braceright" unicode="}" 
d="M158 -152l-76 10l13 78l39 -10q23 -6 41.5 -6.5t30 3t20 12t13 16.5t6.5 20t2.5 19.5t0.5 18.5q0 21 -11.5 61t-11.5 63q0 60 47 96t115 47v4q-53 9 -87 37.5t-34 74.5q0 37 36 94t36 94q0 71 -92 50l-43 -10l13 78l78 10q167 21 167 -111q0 -44 -20 -78.5t-40 -62.5
t-20 -55q0 -28 46 -53.5t119 -26.5l-14 -86q-82 -1 -137 -31.5t-55 -66.5q0 -23 14 -63t14 -66q0 -87 -52 -130.5t-158 -29.5z" />
    <glyph glyph-name="asciitilde" unicode="~" 
d="M177 234l-81 41q81 145 186 145q28 0 52 -12t38 -26t32.5 -26t36.5 -12q46 0 86 82l82 -41q-81 -145 -186 -145q-35 0 -63.5 19t-51.5 38t-45 19q-44 0 -86 -82z" />
    <glyph glyph-name="uni00A0" unicode="&#xa0;" 
 />
    <glyph glyph-name="exclamdown" unicode="&#xa1;" 
d="M348 306q-38 0 -61.5 23.5t-23.5 61.5q0 50 34.5 83.5t82.5 33.5q38 0 62 -24.5t24 -62.5q0 -49 -34.5 -82t-83.5 -33zM199 -174l91 415h96l-41 -415h-146z" />
    <glyph glyph-name="cent" unicode="&#xa2;" 
d="M305 -41l15 95q-85 11 -132.5 66t-47.5 144q0 120 73 197.5t186 96.5l16 97h81l-15 -93q76 -7 115 -56l-81 -90q-27 24 -53 27l-43 -272q37 6 78 35l44 -93q-64 -49 -140 -59l-15 -95h-81zM340 182l39 250q-94 -39 -94 -150q0 -74 55 -100z" />
    <glyph glyph-name="sterling" unicode="&#xa3;" 
d="M67 0l14 91q64 23 104 68t40 101v11h-112l14 86l84 5q-8 40 -8 63q0 96 75.5 159t186.5 63q113 0 174 -81l-92 -80q-34 42 -86 42q-57 0 -88.5 -29t-31.5 -87q0 -28 3 -50h169l-14 -91h-146q0 -1 -1 -12t-2 -16q-9 -64 -72 -115v-4h292l-20 -124h-483z" />
    <glyph glyph-name="currency" unicode="&#xa4;" 
d="M119 63l-61 74l94 82q-20 34 -20 83q0 77 54 137l-67 82l84 74l75 -90q53 25 106 25t98 -25l103 90l62 -74l-94 -82q19 -33 19 -82q0 -77 -55 -138l69 -82l-85 -74l-76 91q-49 -24 -104 -24t-98 24zM337 232q42 0 72.5 32t30.5 82q0 37 -20 59.5t-52 22.5
q-42 0 -72.5 -32.5t-30.5 -82.5q0 -37 20 -59t52 -22z" />
    <glyph glyph-name="yen" unicode="&#xa5;" 
d="M226 0l23 147h-169l11 70h169l9 55h-169l11 70h137l-116 293h151l39 -133q6 -20 18 -64t19 -67h4q52 88 78 131l82 133h147l-210 -293h137l-11 -70h-170l-9 -55h170l-11 -70h-170l-23 -147h-147z" />
    <glyph glyph-name="brokenbar" unicode="&#xa6;" 
d="M284 312l70 438h130l-70 -438h-130zM195 -250l72 454h130l-72 -454h-130z" />
    <glyph glyph-name="section" unicode="&#xa7;" 
d="M263 -84q-57 0 -106.5 21.5t-75.5 62.5l96 75q43 -51 103 -51q32 0 49.5 13t17.5 34q0 19 -23.5 35t-56.5 31t-66.5 34t-57 53t-23.5 79q0 92 105 151q-18 28 -18 65q0 74 56 122.5t148 48.5q97 0 172 -65l-83 -92q-46 48 -98 48q-60 0 -60 -42q0 -17 24 -33.5
t58.5 -32.5t69 -36t58.5 -54t24 -78q0 -97 -107 -154q13 -26 13 -58q0 -76 -59 -126.5t-160 -50.5zM403 212q46 27 46 68q0 20 -16 37.5t-33.5 27t-53 25.5t-51.5 25q-47 -24 -47 -65q0 -26 20 -44t70 -41.5t65 -32.5z" />
    <glyph glyph-name="dieresis" unicode="&#xa8;" 
d="M281 571q-30 0 -48.5 19t-18.5 49q0 37 27 63t65 26q30 0 48.5 -19t18.5 -48q0 -38 -26.5 -64t-65.5 -26zM499 571q-30 0 -48 19t-18 48q0 38 26.5 64t64.5 26q31 0 49.5 -19t18.5 -48q0 -37 -27.5 -63.5t-65.5 -26.5z" />
    <glyph glyph-name="copyright" unicode="&#xa9;" horiz-adv-x="659" 
d="M329 -9q-122 0 -202.5 77.5t-80.5 206.5q0 113 56.5 201.5t144 133.5t187.5 45q122 0 201.5 -76t79.5 -204q0 -113 -56 -202.5t-143.5 -135.5t-186.5 -46zM338 52q126 0 218 89.5t92 225.5q0 103 -62.5 165.5t-161.5 62.5q-127 0 -218 -88t-91 -224q0 -104 62 -167.5
t161 -63.5zM362 127q-75 0 -120 45t-45 120q0 98 69 161t158 63q72 0 122 -59l-64 -61q-28 34 -63 34q-53 0 -84.5 -37t-31.5 -91q0 -41 20.5 -65t56.5 -24q37 0 85 34l37 -68q-73 -52 -140 -52z" />
    <glyph glyph-name="ordfeminine" unicode="&#xaa;" 
d="M299 252q-42 0 -66.5 24.5t-24.5 61.5q0 59 51 91.5t165 42.5q2 21 -10.5 32t-38.5 11q-38 0 -96 -29l-26 67q81 44 156 44q66 0 96.5 -37.5t18.5 -113.5l-29 -186h-86l-2 33h-2q-55 -41 -106 -41zM344 331q31 0 62 26l8 53q-103 -13 -103 -54q0 -25 33 -25z" />
    <glyph glyph-name="guillemotleft" unicode="&#xab;" 
d="M217 25l-147 154l23 146l196 154l53 -55l-154 -172l100 -172zM483 25l-147 154l23 146l196 154l53 -55l-154 -172l100 -172z" />
    <glyph glyph-name="logicalnot" unicode="&#xac;" 
d="M437 94l29 184h-352l17 104h460l-46 -288h-108z" />
    <glyph glyph-name="registered" unicode="&#xae;" 
d="M348 311q-74 0 -121.5 48.5t-47.5 124.5q0 97 70.5 164t162.5 67q74 0 121.5 -48.5t47.5 -124.5q0 -97 -70 -164t-163 -67zM356 360q72 0 121.5 50t49.5 128q0 59 -33.5 93.5t-89.5 34.5q-72 0 -121 -50t-49 -128q0 -58 33 -93t89 -35zM284 416l31 197h89q72 0 72 -56
q0 -45 -45 -64l30 -77h-60l-21 60h-29l-9 -60h-58zM358 516h20q16 0 26 9.5t10 22.5q0 22 -27 22h-21z" />
    <glyph glyph-name="macron" unicode="&#xaf;" 
d="M256 592l14 93h276l-14 -93h-276z" />
    <glyph glyph-name="degree" unicode="&#xb0;" 
d="M364 398q-55 0 -89.5 34.5t-34.5 89.5q0 69 50.5 116.5t119.5 47.5q54 0 88.5 -34.5t34.5 -88.5q0 -70 -50 -117.5t-119 -47.5zM375 468q34 0 57 24.5t23 61.5q0 27 -15 44t-42 17q-34 0 -56.5 -24.5t-22.5 -61.5q0 -27 15 -44t41 -17z" />
    <glyph glyph-name="plusminus" unicode="&#xb1;" 
d="M271 158l22 136h-176l16 104h176l27 168h108l-27 -168h176l-16 -104h-176l-22 -136h-108zM70 0l16 104h460l-16 -104h-460z" />
    <glyph glyph-name="acute" unicode="&#xb4;" 
d="M309 574l115 167h150l-158 -167h-107z" />
    <glyph glyph-name="uni00B5" unicode="&#xb5;" 
d="M31 -196l110 692h146l-45 -287q-8 -52 5.5 -74t48.5 -22q58 0 112 77l49 306h148q-67 -327 -67 -358t30 -31q10 0 18 2l1 -109q-31 -12 -76 -12q-93 0 -104 94h-4q-55 -89 -133 -89q-49 0 -67 25q-19 -137 -23 -214h-149z" />
    <glyph glyph-name="paragraph" unicode="&#xb6;" 
d="M319 197q-91 0 -149 51t-58 144q0 70 22 121.5t61.5 81t87.5 43.5t106 14h42l-72 -455h-40zM367 -80l116 732h146l-116 -732h-146z" />
    <glyph glyph-name="periodcentered" unicode="&#xb7;" 
d="M337 236q-45 0 -72 28.5t-27 72.5q0 55 40 94.5t97 39.5q45 0 72 -28.5t27 -71.5q0 -56 -40 -95.5t-97 -39.5z" />
    <glyph glyph-name="cedilla" unicode="&#xb8;" 
d="M175 -221l-2 59q90 9 90 48q0 25 -52 38l53 80h86l-28 -47q48 -17 48 -62q0 -55 -55.5 -83.5t-139.5 -32.5z" />
    <glyph glyph-name="ordmasculine" unicode="&#xba;" 
d="M340 252q-61 0 -102 39.5t-41 105.5q0 89 60 144.5t138 55.5q61 0 101.5 -39.5t40.5 -106.5q0 -89 -59.5 -144t-137.5 -55zM353 334q40 0 59 32.5t19 82.5q0 65 -50 65q-38 0 -57.5 -32t-19.5 -82q0 -66 49 -66z" />
    <glyph glyph-name="guillemotright" unicode="&#xbb;" 
d="M125 25l-53 55l154 172l-100 172l71 55l146 -154l-23 -146zM391 25l-53 55l154 172l-100 172l71 55l146 -154l-23 -146z" />
    <glyph glyph-name="onequarter" unicode="&#xbc;" 
d="M201 324l34 212h-81l10 64q61 7 111 35h83l-50 -311h-107zM457 377l-44 48l194 199l63 -73zM448 0l10 61h-160l8 51l151 200h134l-29 -185h51l-10 -66h-51l-10 -61h-94zM96 28l-63 73l213 173l44 -47zM403 127h65l4 22l20 99h-3z" />
    <glyph glyph-name="onehalf" unicode="&#xbd;" 
d="M201 324l34 212h-81l10 64q61 7 111 35h83l-50 -311h-107zM457 377l-44 48l194 199l63 -73zM299 0l9 55q170 101 170 149q0 34 -38 34q-30 0 -62 -35l-52 56q72 65 143 65q53 0 84 -25t31 -68q0 -38 -26.5 -70.5t-76.5 -73.5h93l-14 -87h-261zM96 28l-63 73l213 173
l44 -47z" />
    <glyph glyph-name="threequarters" unicode="&#xbe;" 
d="M223 312q-79 0 -130 41l51 66q37 -29 79 -29q20 0 33.5 8.5t13.5 24.5q0 31 -68 31l9 56q65 0 65 35q0 23 -34 23q-28 0 -70 -25l-33 63q60 41 139 41q46 0 76 -21.5t30 -56.5q0 -30 -12.5 -49t-54.5 -33q56 -15 56 -64q0 -48 -45 -79.5t-105 -31.5zM464 377l-44 48
l194 199l63 -73zM449 0l10 61h-160l8 51l151 200h133l-29 -185h52l-10 -66h-52l-10 -61h-93zM103 28l-63 73l213 173l44 -47zM404 127h65l4 22l20 99h-3z" />
    <glyph glyph-name="questiondown" unicode="&#xbf;" 
d="M362 306q-38 0 -61.5 23.5t-23.5 61.5q0 50 34.5 83.5t82.5 33.5q38 0 62 -24.5t24 -62.5q0 -49 -34.5 -82t-83.5 -33zM274 -186q-77 0 -127 36t-50 103q0 36 14.5 66t30.5 46t45 39q3 2 20.5 16t22 18l18 16t18 19t12 19t10.5 24t4 25h128q0 -50 -25 -84.5t-69 -69.5
q-6 -5 -22.5 -17.5t-21.5 -16.5t-15.5 -14.5t-14 -16.5t-7 -16t-3.5 -20q0 -25 18 -39t48 -14q49 0 109 46l70 -75q-98 -90 -213 -90z" />
    <glyph glyph-name="Agrave" unicode="&#xc0;" 
d="M370 709l-101 121h156l62 -121h-117zM9 0l307 659h176l99 -659h-156l-14 158h-197l-65 -158h-150zM272 273h137l-5 61q-1 11 -8 91.5t-11 120.5h-4q-32 -84 -84 -212z" />
    <glyph glyph-name="Aacute" unicode="&#xc1;" 
d="M337 709l100 121h156l-139 -121h-117zM9 0l307 659h176l99 -659h-156l-14 158h-197l-65 -158h-150zM272 273h137l-5 61q-1 11 -8 91.5t-11 120.5h-4q-32 -84 -84 -212z" />
    <glyph glyph-name="Acircumflex" unicode="&#xc2;" 
d="M244 709l115 121h144l77 -121h-113l-43 62h-4l-63 -62h-113zM9 0l307 659h176l99 -659h-156l-14 158h-197l-65 -158h-150zM272 273h137l-5 61q-1 11 -8 91.5t-11 120.5h-4q-32 -84 -84 -212z" />
    <glyph glyph-name="Atilde" unicode="&#xc3;" 
d="M243 711q17 66 52 101.5t76 35.5q30 0 65 -23t48 -23q29 0 45 46h75q-17 -66 -52 -101.5t-76 -35.5q-30 0 -65 23t-48 23q-28 0 -45 -46h-75zM9 0l307 659h176l99 -659h-156l-14 158h-197l-65 -158h-150zM272 273h137l-5 62q-3 39 -18 212h-4q-29 -74 -85 -212z" />
    <glyph glyph-name="Adieresis" unicode="&#xc4;" 
d="M313 708q-27 0 -43.5 16.5t-16.5 43.5q0 34 24 57t58 23q27 0 43.5 -16.5t16.5 -43.5q0 -34 -23.5 -57t-58.5 -23zM511 708q-27 0 -43.5 16.5t-16.5 43.5q0 34 24 57t58 23q27 0 43.5 -16.5t16.5 -43.5q0 -34 -23.5 -57t-58.5 -23zM9 0l307 659h176l99 -659h-156l-14 158
h-197l-65 -158h-150zM272 273h137l-5 61q-3 37 -9.5 111t-8.5 102h-4q-35 -91 -85 -213z" />
    <glyph glyph-name="Aring" unicode="&#xc5;" 
d="M412 704q-46 0 -72.5 23t-26.5 62q0 49 37 81t93 32q45 0 72 -23.5t27 -61.5q0 -50 -37 -81.5t-93 -31.5zM420 759q20 0 34 14.5t14 36.5q0 16 -9.5 26.5t-24.5 10.5q-20 0 -34.5 -14.5t-14.5 -36.5q0 -17 10 -27t25 -10zM9 0l307 659h176l99 -659h-156l-14 158h-197
l-65 -158h-150zM272 273h137l-5 61q-3 37 -9.5 111t-8.5 102h-4q-35 -91 -85 -213z" />
    <glyph glyph-name="AE" unicode="&#xc6;" 
d="M-3 0l314 660h380l-20 -124h-145l-21 -133h118l-20 -124h-118l-24 -155h154l-20 -124h-284l24 152h-118l-69 -152h-151zM269 266h84l45 283h-3q-23 -53 -83 -188z" />
    <glyph glyph-name="Ccedilla" unicode="&#xc7;" 
d="M219 -223l-2 59q90 9 90 48q0 26 -51 39l46 70q-91 17 -146 88t-55 185q0 182 108.5 294t262.5 112q109 0 180 -84l-95 -91q-45 48 -105 48q-83 0 -140.5 -72t-57.5 -187q0 -80 36.5 -125.5t99.5 -45.5q64 0 126 59l66 -89q-87 -87 -197 -96l-19 -33q48 -17 48 -63
q0 -55 -55 -83.5t-140 -32.5z" />
    <glyph glyph-name="Egrave" unicode="&#xc8;" 
d="M391 709l-101 121h157l61 -121h-117zM94 0l104 659h430l-19 -124h-283l-21 -134h240l-20 -123h-240l-24 -154h293l-20 -124h-440z" />
    <glyph glyph-name="Eacute" unicode="&#xc9;" 
d="M359 709l99 121h157l-139 -121h-117zM94 0l104 659h430l-19 -124h-283l-21 -134h240l-20 -123h-240l-24 -154h293l-20 -124h-440z" />
    <glyph glyph-name="Ecircumflex" unicode="&#xca;" 
d="M266 709l115 121h143l77 -121h-112l-43 62h-4l-64 -62h-112zM94 0l104 659h430l-19 -124h-283l-21 -134h240l-20 -123h-240l-24 -154h293l-20 -124h-440z" />
    <glyph glyph-name="Edieresis" unicode="&#xcb;" 
d="M334 708q-27 0 -43 16.5t-16 43.5q0 33 23.5 56.5t57.5 23.5q28 0 44 -16.5t16 -43.5q0 -33 -23.5 -56.5t-58.5 -23.5zM533 708q-27 0 -43.5 16.5t-16.5 43.5q0 34 24 57t58 23q27 0 43 -16.5t16 -43.5q0 -33 -23.5 -56.5t-57.5 -23.5zM94 0l104 659h430l-19 -124h-283
l-21 -134h240l-20 -123h-240l-24 -154h293l-20 -124h-440z" />
    <glyph glyph-name="Igrave" unicode="&#xcc;" 
d="M370 709l-101 121h156l62 -121h-117zM74 0l20 124h152l65 411h-152l19 124h452l-19 -124h-152l-65 -411h152l-20 -124h-452z" />
    <glyph glyph-name="Iacute" unicode="&#xcd;" 
d="M337 709l100 121h156l-139 -121h-117zM74 0l20 124h152l65 411h-152l19 124h452l-19 -124h-152l-65 -411h152l-20 -124h-452z" />
    <glyph glyph-name="Icircumflex" unicode="&#xce;" 
d="M244 709l115 121h144l77 -121h-113l-43 62h-4l-63 -62h-113zM74 0l20 124h152l65 411h-152l19 124h452l-19 -124h-152l-65 -411h152l-20 -124h-452z" />
    <glyph glyph-name="Idieresis" unicode="&#xcf;" 
d="M313 708q-27 0 -43.5 16.5t-16.5 43.5q0 34 24 57t58 23q27 0 43.5 -16.5t16.5 -43.5q0 -34 -23.5 -57t-58.5 -23zM511 708q-27 0 -43.5 16.5t-16.5 43.5q0 34 24 57t58 23q27 0 43.5 -16.5t16.5 -43.5q0 -34 -23.5 -57t-58.5 -23zM74 0l20 124h152l65 411h-152l19 124
h452l-19 -124h-152l-65 -411h152l-20 -124h-452z" />
    <glyph glyph-name="Eth" unicode="&#xd0;" 
d="M71 0l48 305h-69l11 66l70 6l45 283h178q127 0 197.5 -65.5t70.5 -195.5q0 -192 -101 -295.5t-264 -103.5h-186zM238 119h21q97 0 153.5 65t56.5 201q0 84 -37 120t-106 36h-21l-26 -164h107l-12 -72h-107z" />
    <glyph glyph-name="Ntilde" unicode="&#xd1;" 
d="M249 711q17 66 52 101.5t76 35.5q30 0 65 -23t48 -23q29 0 45 46h75q-17 -66 -52 -101.5t-76 -35.5q-30 0 -65 23t-48 23q-28 0 -45 -46h-75zM66 0l104 659h150l86 -331l33 -144h4q1 13 3.5 69.5t5.5 95.5t8 74l37 236h141l-104 -659h-150l-86 331l-33 143h-4
q-1 -17 -2.5 -55.5t-3 -63t-4.5 -58.5t-7 -61l-37 -236h-141z" />
    <glyph glyph-name="Ograve" unicode="&#xd2;" 
d="M370 709l-101 121h156l62 -121h-117zM298 -12q-99 0 -157 73t-58 199q0 185 92 298t231 113q100 0 158 -71.5t58 -196.5q0 -184 -92.5 -299.5t-231.5 -115.5zM318 115q65 0 108.5 81t43.5 198q0 70 -22 110t-62 40q-65 0 -108 -78.5t-43 -197.5q0 -71 22 -112t61 -41z
" />
    <glyph glyph-name="Oacute" unicode="&#xd3;" 
d="M337 709l100 121h156l-139 -121h-117zM298 -12q-99 0 -157 73t-58 199q0 185 92 298t231 113q100 0 158 -71.5t58 -196.5q0 -184 -92.5 -299.5t-231.5 -115.5zM318 115q65 0 108.5 81t43.5 198q0 70 -22 110t-62 40q-65 0 -108 -78.5t-43 -197.5q0 -71 22 -112t61 -41z
" />
    <glyph glyph-name="Ocircumflex" unicode="&#xd4;" 
d="M244 709l115 121h144l77 -121h-113l-43 62h-4l-63 -62h-113zM298 -12q-99 0 -157 73t-58 199q0 185 92 298t231 113q100 0 158 -71.5t58 -196.5q0 -184 -92.5 -299.5t-231.5 -115.5zM318 115q65 0 108.5 81t43.5 198q0 70 -22 110t-62 40q-65 0 -108 -78.5t-43 -197.5
q0 -71 22 -112t61 -41z" />
    <glyph glyph-name="Otilde" unicode="&#xd5;" 
d="M243 711q17 66 52 101.5t76 35.5q30 0 65 -23t48 -23q29 0 45 46h75q-17 -66 -52 -101.5t-76 -35.5q-30 0 -65 23t-48 23q-28 0 -45 -46h-75zM298 -12q-99 0 -157 72.5t-58 199.5q0 186 91.5 298.5t231.5 112.5q100 0 158 -71t58 -196q0 -185 -92.5 -300.5t-231.5 -115.5
zM318 115q65 0 108.5 81t43.5 199q0 70 -22 109.5t-62 39.5q-65 0 -108 -78.5t-43 -197.5q0 -71 22 -112t61 -41z" />
    <glyph glyph-name="Odieresis" unicode="&#xd6;" 
d="M313 708q-27 0 -43.5 16.5t-16.5 43.5q0 34 24 57t58 23q27 0 43.5 -16.5t16.5 -43.5q0 -34 -23.5 -57t-58.5 -23zM511 708q-27 0 -43.5 16.5t-16.5 43.5q0 34 24 57t58 23q27 0 43.5 -16.5t16.5 -43.5q0 -34 -23.5 -57t-58.5 -23zM298 -12q-99 0 -157 72.5t-58 199.5
q0 186 91.5 298.5t231.5 112.5q100 0 158 -71t58 -196q0 -185 -92.5 -300.5t-231.5 -115.5zM318 115q65 0 108.5 81t43.5 199q0 70 -22 109.5t-62 39.5q-65 0 -108 -78.5t-43 -197.5q0 -71 22 -112t61 -41z" />
    <glyph glyph-name="multiply" unicode="&#xd7;" 
d="M175 112l-62 74l165 143l-119 144l85 74l120 -144l166 144l61 -74l-165 -144l119 -143l-84 -74l-120 144z" />
    <glyph glyph-name="Oslash" unicode="&#xd8;" 
d="M102 -41l-71 50l79 94q-27 60 -27 156q0 187 92 300.5t232 113.5q85 0 140 -49l65 78l70 -50l-84 -100q24 -54 24 -146q0 -185 -92.5 -301.5t-231.5 -116.5q-83 0 -134 45zM234 249l202 268q3 5 -3.5 12t-20 12t-26.5 5q-51 0 -89 -56.5t-55 -156.5q-6 -37 -8 -84z
M318 115q51 0 90.5 59t55.5 159q5 33 7 68l-211 -254q21 -32 58 -32z" />
    <glyph glyph-name="Ugrave" unicode="&#xd9;" 
d="M370 709l-101 121h156l62 -121h-117zM300 -12q-118 0 -167 68t-29 197l64 406h148l-67 -420q-20 -124 71 -124q92 0 112 124l67 420h141l-64 -406q-42 -265 -276 -265z" />
    <glyph glyph-name="Uacute" unicode="&#xda;" 
d="M337 709l100 121h156l-139 -121h-117zM300 -12q-118 0 -167 68t-29 197l64 406h148l-67 -420q-20 -124 71 -124q92 0 112 124l67 420h141l-64 -406q-42 -265 -276 -265z" />
    <glyph glyph-name="Ucircumflex" unicode="&#xdb;" 
d="M244 709l115 121h144l77 -121h-113l-43 62h-4l-63 -62h-113zM300 -12q-118 0 -167 68t-29 197l64 406h148l-67 -420q-20 -124 71 -124q92 0 112 124l67 420h141l-64 -406q-42 -265 -276 -265z" />
    <glyph glyph-name="Udieresis" unicode="&#xdc;" 
d="M313 708q-27 0 -43.5 16.5t-16.5 43.5q0 34 24 57t58 23q27 0 43.5 -16.5t16.5 -43.5q0 -34 -23.5 -57t-58.5 -23zM511 708q-27 0 -43.5 16.5t-16.5 43.5q0 34 24 57t58 23q27 0 43.5 -16.5t16.5 -43.5q0 -34 -23.5 -57t-58.5 -23zM300 -12q-118 0 -167 68t-29 198
l64 405h148l-67 -420q-20 -124 71 -124q92 0 112 124l67 420h141l-64 -405q-42 -266 -276 -266z" />
    <glyph glyph-name="Yacute" unicode="&#xdd;" 
d="M337 709l100 121h156l-139 -121h-117zM226 0l35 223l-141 436h159l40 -160q18 -67 35 -150h4q14 25 42 74.5t43 75.5l92 160h153l-279 -436l-35 -223h-148z" />
    <glyph glyph-name="Thorn" unicode="&#xde;" 
d="M73 0l105 660h147l-16 -100h91q225 0 225 -175q0 -86 -42 -146.5t-107 -87t-145 -26.5h-91l-20 -125h-147zM258 242h82q138 0 138 125q0 76 -106 76h-82z" />
    <glyph glyph-name="germandbls" unicode="&#xdf;" 
d="M395 -12q-71 0 -133 38l65 100q39 -29 80 -29q22 0 36.5 15.5t14.5 38.5q0 19 -12.5 35t-31 30t-36.5 29.5t-30.5 40t-12.5 55.5q0 37 14.5 68t32.5 50t32.5 47.5t14.5 60.5q0 23 -11.5 37.5t-32.5 14.5q-79 0 -97 -117l-80 -502h-147l81 512q16 100 83.5 161.5
t178.5 61.5q81 0 123 -42.5t42 -105.5q0 -42 -14.5 -77t-32.5 -53.5t-32.5 -40.5t-14.5 -43q0 -16 12.5 -31t30.5 -28.5t36.5 -29.5t31 -42.5t12.5 -60.5q0 -81 -55 -137t-148 -56z" />
    <glyph glyph-name="agrave" unicode="&#xe0;" 
d="M403 574l-106 167h150l63 -167h-107zM254 -12q-81 0 -126.5 56t-45.5 155q0 143 80.5 233.5t179.5 90.5q69 0 118 -56l19 43h130l-81 -510h-120l-3 53h-3q-74 -65 -148 -65zM311 108q50 0 95 49l33 210q-32 36 -77 36q-52 0 -90 -50t-38 -139q0 -106 77 -106z" />
    <glyph glyph-name="aacute" unicode="&#xe1;" 
d="M271 574l115 167h150l-158 -167h-107zM254 -12q-81 0 -126.5 56t-45.5 155q0 143 80.5 233.5t179.5 90.5q69 0 118 -56l19 43h130l-81 -510h-120l-3 53h-3q-74 -65 -148 -65zM311 108q50 0 95 49l33 210q-32 36 -77 36q-52 0 -90 -50t-38 -139q0 -106 77 -106z" />
    <glyph glyph-name="acircumflex" unicode="&#xe2;" 
d="M229 574l126 167h124l74 -167h-107l-38 95h-4l-68 -95h-107zM254 -12q-81 0 -126.5 56t-45.5 155q0 143 80.5 233.5t179.5 90.5q69 0 118 -56l19 43h130l-81 -510h-120l-3 53h-3q-74 -65 -148 -65zM311 108q50 0 95 49l33 210q-32 36 -77 36q-52 0 -90 -50t-38 -139
q0 -106 77 -106z" />
    <glyph glyph-name="atilde" unicode="&#xe3;" 
d="M220 575q20 71 56.5 107t83.5 36q27 0 57 -26t41 -26q32 0 52 52h75q-20 -70 -56.5 -106.5t-83.5 -36.5q-28 0 -58 26.5t-41 26.5q-31 0 -51 -53h-75zM254 -12q-81 0 -126.5 56t-45.5 155q0 143 80.5 233.5t179.5 90.5q69 0 118 -56l19 43h130l-81 -510h-120l-3 53h-3
q-74 -65 -148 -65zM311 108q50 0 95 49l33 210q-32 36 -77 36q-52 0 -90 -50t-38 -139q0 -106 77 -106z" />
    <glyph glyph-name="adieresis" unicode="&#xe4;" 
d="M281 571q-30 0 -48.5 19t-18.5 49q0 37 27 63t65 26q30 0 48.5 -19t18.5 -48q0 -38 -26.5 -64t-65.5 -26zM499 571q-30 0 -48 19t-18 48q0 38 26.5 64t64.5 26q31 0 49.5 -19t18.5 -48q0 -37 -27.5 -63.5t-65.5 -26.5zM254 -12q-81 0 -126.5 56t-45.5 155
q0 143 80.5 233.5t179.5 90.5q69 0 118 -56l19 43h130l-81 -510h-120l-3 53h-3q-74 -65 -148 -65zM311 108q50 0 95 49l33 210q-32 36 -77 36q-52 0 -90 -50t-38 -139q0 -106 77 -106z" />
    <glyph glyph-name="aring" unicode="&#xe5;" 
d="M387 548q-45 0 -72 23.5t-27 63.5q0 52 37.5 84.5t93.5 32.5q45 0 71.5 -23.5t26.5 -63.5q0 -52 -37 -84.5t-93 -32.5zM396 603q19 0 34 16t15 39q0 17 -9.5 28t-25.5 11q-20 0 -34.5 -15.5t-14.5 -39.5q0 -17 9.5 -28t25.5 -11zM254 -12q-81 0 -126.5 56t-45.5 155
q0 143 80.5 233.5t179.5 90.5q69 0 118 -56l19 43h130l-81 -510h-120l-3 53h-3q-74 -65 -148 -65zM311 108q50 0 95 49l33 210q-32 36 -77 36q-52 0 -90 -50t-38 -139q0 -106 77 -106z" />
    <glyph glyph-name="ae" unicode="&#xe6;" 
d="M152 -12q-56 0 -86 35t-30 92q0 89 61.5 138.5t195.5 75.5q6 77 -45 77q-46 0 -108 -36l-37 96q101 57 174 57q77 0 104 -77q63 77 140 77q60 0 91 -52.5t31 -134.5q0 -55 -23 -124h-227q-1 -53 18 -81t55 -28q40 0 83 27l35 -94q-67 -48 -141 -48q-96 0 -138 80
q-87 -80 -153 -80zM405 303h119q17 107 -35 107q-26 0 -48 -27t-36 -80zM210 102q33 0 67 37q-7 32 -2 79l2 21q-106 -23 -106 -96q0 -41 39 -41z" />
    <glyph glyph-name="ccedilla" unicode="&#xe7;" 
d="M558 63q-96 -72 -210 -75l-19 -31q48 -17 48 -62q0 -55 -55.5 -83.5t-139.5 -32.5l-2 59q90 9 90 48q0 25 -52 38l48 73q-75 19 -119 75t-44 141q0 140 100 225t234 85q112 0 175 -70l-83 -91q-48 42 -103 42q-73 0 -121.5 -49t-48.5 -125q0 -56 32 -89.5t86 -33.5
q66 0 139 49z" />
    <glyph glyph-name="egrave" unicode="&#xe8;" 
d="M416 574l-106 167h150l63 -167h-107zM328 -12q-106 0 -171.5 60t-65.5 165q0 92 46.5 164.5t115 109t143.5 36.5q96 0 147 -56t51 -146q0 -37 -20 -109h-334q-2 -56 33 -84t93 -28q62 0 134 36l33 -89q-100 -59 -205 -59zM253 310h209q8 47 -12 73.5t-69 26.5
q-42 0 -76.5 -25.5t-51.5 -74.5z" />
    <glyph glyph-name="eacute" unicode="&#xe9;" 
d="M284 574l115 167h150l-158 -167h-107zM328 -12q-106 0 -171.5 60t-65.5 165q0 92 46.5 164.5t115 109t143.5 36.5q96 0 147 -56t51 -146q0 -37 -20 -109h-334q-2 -56 33 -84t93 -28q62 0 134 36l33 -89q-100 -59 -205 -59zM253 310h209q8 47 -12 73.5t-69 26.5
q-42 0 -76.5 -25.5t-51.5 -74.5z" />
    <glyph glyph-name="ecircumflex" unicode="&#xea;" 
d="M242 574l126 167h124l74 -167h-107l-38 95h-4l-68 -95h-107zM328 -12q-106 0 -171.5 60t-65.5 165q0 92 46.5 164.5t115 109t143.5 36.5q96 0 147 -56t51 -146q0 -37 -20 -109h-334q-2 -56 33 -84t93 -28q62 0 134 36l33 -89q-100 -59 -205 -59zM253 310h209
q8 47 -12 73.5t-69 26.5q-42 0 -76.5 -25.5t-51.5 -74.5z" />
    <glyph glyph-name="edieresis" unicode="&#xeb;" 
d="M294 571q-30 0 -48.5 19t-18.5 49q0 37 27 63t65 26q30 0 48.5 -19t18.5 -48q0 -38 -26.5 -64t-65.5 -26zM512 571q-30 0 -48 19t-18 48q0 38 26.5 64t64.5 26q31 0 49.5 -19t18.5 -48q0 -37 -27.5 -63.5t-65.5 -26.5zM328 -12q-106 0 -171.5 60t-65.5 165
q0 92 46.5 164.5t115 109t143.5 36.5q96 0 147 -56t51 -146q0 -37 -20 -109h-334q-2 -56 33 -84t93 -28q62 0 134 36l33 -89q-100 -59 -205 -59zM253 310h209q8 47 -12 73.5t-69 26.5q-42 0 -76.5 -25.5t-51.5 -74.5z" />
    <glyph glyph-name="igrave" unicode="&#xec;" 
d="M401 558l-106 167h150l63 -167h-107zM61 0l19 119h170l44 276h-170l18 115h317l-62 -391h170l-19 -119h-487z" />
    <glyph glyph-name="iacute" unicode="&#xed;" 
d="M269 558l115 167h150l-158 -167h-107zM61 0l19 119h170l44 276h-170l18 115h317l-62 -391h170l-19 -119h-487z" />
    <glyph glyph-name="icircumflex" unicode="&#xee;" 
d="M227 558l126 167h124l74 -167h-107l-38 95h-4l-68 -95h-107zM61 0l19 119h170l44 276h-170l18 115h317l-62 -391h170l-19 -119h-487z" />
    <glyph glyph-name="idieresis" unicode="&#xef;" 
d="M279 555q-30 0 -48.5 19t-18.5 49q0 37 27 63t65 26q30 0 48.5 -19t18.5 -48q0 -38 -26.5 -64t-65.5 -26zM497 555q-30 0 -48 19t-18 48q0 38 26.5 64t64.5 26q31 0 49.5 -19t18.5 -48q0 -37 -27.5 -63.5t-65.5 -26.5zM61 0l19 119h170l44 276h-170l18 115h317l-62 -391
h170l-19 -119h-487z" />
    <glyph glyph-name="eth" unicode="&#xf0;" 
d="M293 -12q-93 0 -153 57.5t-60 152.5q0 120 79.5 195t182.5 75q80 0 117 -58q-13 92 -73 158l-161 -77l-28 65l130 63q-41 31 -86 53l79 89q72 -35 131 -84l147 71l28 -66l-120 -58q95 -106 95 -276q0 -159 -85.5 -259.5t-222.5 -100.5zM317 107q53 0 89.5 40.5
t48.5 117.5q4 27 5 36q-39 58 -105 58q-64 0 -101.5 -38.5t-37.5 -108.5q0 -49 28 -77t73 -28z" />
    <glyph glyph-name="ntilde" unicode="&#xf1;" 
d="M230 575q20 71 56.5 107t83.5 36q27 0 57 -26t41 -26q32 0 52 52h75q-20 -70 -56.5 -106.5t-83.5 -36.5q-28 0 -58 26.5t-41 26.5q-31 0 -51 -53h-75zM72 0l81 510h120v-69h4q93 82 184 82q161 0 129 -208l-50 -315h-147l47 296q8 54 -4.5 78t-52.5 24q-28 0 -52 -13.5
t-58 -43.5l-54 -341h-147z" />
    <glyph glyph-name="ograve" unicode="&#xf2;" 
d="M403 574l-106 167h150l63 -167h-107zM298 -12q-91 0 -153 60.5t-62 164.5q0 138 91.5 224t208.5 86q91 0 153 -61t62 -165q0 -138 -91.5 -223.5t-208.5 -85.5zM317 107q61 0 95 52.5t34 132.5q0 112 -82 112q-61 0 -95 -52.5t-34 -133.5q0 -52 20.5 -81.5t61.5 -29.5z
" />
    <glyph glyph-name="oacute" unicode="&#xf3;" 
d="M271 574l115 167h150l-158 -167h-107zM298 -12q-91 0 -153 60.5t-62 164.5q0 138 91.5 224t208.5 86q91 0 153 -61t62 -165q0 -138 -91.5 -223.5t-208.5 -85.5zM317 107q61 0 95 52.5t34 132.5q0 112 -82 112q-61 0 -95 -52.5t-34 -133.5q0 -52 20.5 -81.5t61.5 -29.5z
" />
    <glyph glyph-name="ocircumflex" unicode="&#xf4;" 
d="M229 574l126 167h124l74 -167h-107l-38 95h-4l-68 -95h-107zM298 -12q-91 0 -153 60.5t-62 164.5q0 138 91.5 224t208.5 86q91 0 153 -61t62 -165q0 -138 -91.5 -223.5t-208.5 -85.5zM317 107q61 0 95 52.5t34 132.5q0 112 -82 112q-61 0 -95 -52.5t-34 -133.5
q0 -52 20.5 -81.5t61.5 -29.5z" />
    <glyph glyph-name="otilde" unicode="&#xf5;" 
d="M220 575q20 71 56.5 107t83.5 36q27 0 57 -26t41 -26q32 0 52 52h75q-20 -70 -56.5 -106.5t-83.5 -36.5q-28 0 -58 26.5t-41 26.5q-31 0 -51 -53h-75zM298 -12q-91 0 -153 60.5t-62 164.5q0 138 91.5 224t208.5 86q91 0 153 -61t62 -165q0 -138 -91.5 -223.5
t-208.5 -85.5zM317 107q61 0 95 52.5t34 132.5q0 112 -82 112q-61 0 -95 -52.5t-34 -133.5q0 -52 20.5 -81.5t61.5 -29.5z" />
    <glyph glyph-name="odieresis" unicode="&#xf6;" 
d="M281 571q-30 0 -48.5 19t-18.5 49q0 37 27 63t65 26q30 0 48.5 -19t18.5 -48q0 -38 -26.5 -64t-65.5 -26zM499 571q-30 0 -48 19t-18 48q0 38 26.5 64t64.5 26q31 0 49.5 -19t18.5 -48q0 -37 -27.5 -63.5t-65.5 -26.5zM298 -12q-91 0 -153 60.5t-62 164.5q0 138 91.5 224
t208.5 86q91 0 153 -61t62 -165q0 -138 -91.5 -223.5t-208.5 -85.5zM317 107q61 0 95 52.5t34 132.5q0 112 -82 112q-61 0 -95 -52.5t-34 -133.5q0 -52 20.5 -81.5t61.5 -29.5z" />
    <glyph glyph-name="divide" unicode="&#xf7;" 
d="M369 433q-31 0 -50.5 19.5t-19.5 49.5q0 39 28 66t67 27q31 0 50.5 -19.5t19.5 -49.5q0 -39 -28 -66t-67 -27zM114 278l17 104h460l-17 -104h-460zM310 65q-31 0 -50 19.5t-19 49.5q0 39 28 66t67 27q31 0 50 -19.5t19 -49.5q0 -39 -28 -66t-67 -27z" />
    <glyph glyph-name="oslash" unicode="&#xf8;" 
d="M113 -26l-48 43l55 58q-37 55 -37 138q0 138 91.5 224t208.5 86q76 0 131 -41l54 56l48 -44l-56 -58q38 -54 38 -139q0 -138 -91.5 -223.5t-208.5 -85.5q-77 0 -132 41zM235 190l185 197q-20 21 -55 21q-61 0 -96 -55t-35 -137q0 -20 1 -26zM316 102q61 0 96 55.5
t35 138.5q0 20 -1 26l-186 -197q20 -23 56 -23z" />
    <glyph glyph-name="ugrave" unicode="&#xf9;" 
d="M403 574l-106 167h150l63 -167h-107zM221 -12q-160 0 -128 207l50 315h147l-47 -296q-8 -54 4 -77.5t52 -23.5q28 0 52 13.5t55 47.5l53 336h147l-81 -510h-120l1 74h-4q-88 -86 -181 -86z" />
    <glyph glyph-name="uacute" unicode="&#xfa;" 
d="M271 574l115 167h150l-158 -167h-107zM221 -12q-160 0 -128 207l50 315h147l-47 -296q-8 -54 4 -77.5t52 -23.5q28 0 52 13.5t55 47.5l53 336h147l-81 -510h-120l1 74h-4q-88 -86 -181 -86z" />
    <glyph glyph-name="ucircumflex" unicode="&#xfb;" 
d="M229 574l126 167h124l74 -167h-107l-38 95h-4l-68 -95h-107zM221 -12q-160 0 -128 207l50 315h147l-47 -296q-8 -54 4 -77.5t52 -23.5q28 0 52 13.5t55 47.5l53 336h147l-81 -510h-120l1 74h-4q-88 -86 -181 -86z" />
    <glyph glyph-name="udieresis" unicode="&#xfc;" 
d="M281 571q-30 0 -48.5 19t-18.5 49q0 37 27 63t65 26q30 0 48.5 -19t18.5 -48q0 -38 -26.5 -64t-65.5 -26zM499 571q-30 0 -48 19t-18 48q0 38 26.5 64t64.5 26q31 0 49.5 -19t18.5 -48q0 -37 -27.5 -63.5t-65.5 -26.5zM221 -12q-160 0 -128 207l50 315h147l-47 -296
q-8 -54 4 -77.5t52 -23.5q28 0 52 13.5t55 47.5l53 336h147l-81 -510h-120l1 74h-4q-88 -86 -181 -86z" />
    <glyph glyph-name="yacute" unicode="&#xfd;" 
d="M281 574l115 167h150l-158 -167h-107zM109 -217q-42 0 -75 10l44 112q18 -6 38 -6q38 0 66 23t43 49l23 41l-136 498h145l48 -223q16 -76 26 -153h4q24 57 70 153l108 223h139l-282 -534q-53 -100 -112 -146.5t-149 -46.5z" />
    <glyph glyph-name="thorn" unicode="&#xfe;" 
d="M43 -184l134 844h147l-19 -118l-17 -79q75 60 149 60q77 0 120 -55t43 -150q0 -75 -23.5 -138.5t-62 -104.5t-84.5 -64t-93 -23q-65 0 -114 56l-10 -84l-23 -144h-147zM321 108q52 0 89.5 51t37.5 144q0 100 -74 100q-46 0 -99 -50l-33 -210q31 -35 79 -35z" />
    <glyph glyph-name="ydieresis" unicode="&#xff;" 
d="M291 571q-30 0 -48.5 19t-18.5 49q0 37 27 63t65 26q30 0 48.5 -19t18.5 -48q0 -38 -26.5 -64t-65.5 -26zM509 571q-30 0 -48 19t-18 48q0 38 26.5 64t64.5 26q31 0 49.5 -19t18.5 -48q0 -37 -27.5 -63.5t-65.5 -26.5zM109 -217q-42 0 -75 10l44 112q18 -6 38 -6
q38 0 66 23t43 49l23 41l-136 498h145l48 -223q16 -76 26 -153h4q24 57 70 153l108 223h139l-282 -534q-53 -100 -112 -146.5t-149 -46.5z" />
    <glyph glyph-name="Amacron" unicode="&#x100;" 
d="M274 728l15 93h282l-15 -93h-282zM9 0l307 659h176l99 -659h-156l-14 158h-197l-65 -158h-150zM272 273h137l-5 62q-3 39 -18 212h-4q-29 -74 -85 -212z" />
    <glyph glyph-name="amacron" unicode="&#x101;" 
d="M256 592l14 93h276l-14 -93h-276zM254 -12q-81 0 -126.5 56t-45.5 155q0 143 80.5 233.5t179.5 90.5q69 0 118 -56l19 43h130l-81 -510h-120l-3 53h-3q-74 -65 -148 -65zM311 108q50 0 95 49l33 210q-32 36 -77 36q-52 0 -90 -50t-38 -139q0 -106 77 -106z" />
    <glyph glyph-name="Abreve" unicode="&#x102;" 
d="M412 709q-63 0 -91.5 32.5t-26.5 88.5h81q4 -47 49 -47t63 47h81q-15 -56 -54 -88.5t-102 -32.5zM9 0l307 659h176l99 -659h-156l-14 158h-197l-65 -158h-150zM272 273h137l-5 61q-1 11 -8 91.5t-11 120.5h-4q-32 -84 -84 -212z" />
    <glyph glyph-name="abreve" unicode="&#x103;" 
d="M391 574q-70 0 -100.5 45t-21.5 111h82q-2 -34 11 -54.5t42 -20.5q56 0 77 75h82q-12 -66 -57 -111t-115 -45zM254 -12q-81 0 -126.5 56t-45.5 155q0 143 80.5 233.5t179.5 90.5q69 0 118 -56l19 43h130l-81 -510h-120l-3 53h-3q-74 -65 -148 -65zM311 108q50 0 95 49
l33 210q-32 36 -77 36q-52 0 -90 -50t-38 -139q0 -106 77 -106z" />
    <glyph glyph-name="Aogonek" unicode="&#x104;" 
d="M472 -225q-45 0 -72.5 21.5t-27.5 60.5q0 45 32.5 84t70.5 59h-40l-14 158h-197l-65 -158h-150l308 660h176l98 -660q-44 -4 -74.5 -34.5t-30.5 -63.5q0 -15 9.5 -23.5t23.5 -8.5q20 0 42 14l22 -74q-51 -35 -111 -35zM272 273h137l-5 62q-4 47 -18 213h-4
q-35 -91 -85 -213z" />
    <glyph glyph-name="aogonek" unicode="&#x105;" 
d="M483 0q-65 -46 -65 -91q0 -32 37 -32q16 0 36 12l21 -66q-48 -33 -106 -33q-42 0 -67.5 20.5t-25.5 57.5q0 43 28.5 78t61.5 56h5l-3 51h-3q-74 -65 -148 -65q-81 0 -126.5 56t-45.5 155q0 143 80.5 233.5t179.5 90.5q69 0 118 -56l19 43h130l-81 -510h-45zM311 108
q50 0 95 49l33 210q-32 36 -77 36q-52 0 -90 -50t-38 -139q0 -106 77 -106z" />
    <glyph glyph-name="Cacute" unicode="&#x106;" 
d="M391 709l100 121h156l-139 -121h-117zM361 -12q-115 0 -188 73t-73 204q0 91 30.5 168.5t81.5 129t118.5 80t141.5 28.5q108 0 180 -84l-95 -91q-46 48 -105 48q-82 0 -140 -72.5t-58 -186.5q0 -80 36.5 -125t99.5 -45q64 0 126 59l66 -89q-97 -97 -221 -97z" />
    <glyph glyph-name="cacute" unicode="&#x107;" 
d="M291 574l115 167h150l-158 -167h-107zM341 -12q-106 0 -172 60t-66 165q0 140 100 225t234 85q112 0 175 -70l-83 -91q-48 42 -103 42q-73 0 -121.5 -49t-48.5 -125q0 -56 32 -89.5t86 -33.5q66 0 139 49l45 -93q-100 -75 -217 -75z" />
    <glyph glyph-name="Ccircumflex" unicode="&#x108;" 
d="M298 709l115 121h143l77 -121h-112l-43 62h-4l-64 -62h-112zM361 -12q-115 0 -188 73t-73 204q0 91 30.5 168.5t81.5 129t118.5 80t141.5 28.5q108 0 180 -84l-95 -91q-46 48 -105 48q-82 0 -140 -72.5t-58 -186.5q0 -80 36.5 -125t99.5 -45q64 0 126 59l66 -89
q-97 -97 -221 -97z" />
    <glyph glyph-name="ccircumflex" unicode="&#x109;" 
d="M249 574l126 167h124l74 -167h-107l-38 95h-4l-68 -95h-107zM341 -12q-106 0 -172 60t-66 165q0 140 100 225t234 85q112 0 175 -70l-83 -91q-48 42 -103 42q-73 0 -121.5 -49t-48.5 -125q0 -56 32 -89.5t86 -33.5q66 0 139 49l45 -93q-100 -75 -217 -75z" />
    <glyph glyph-name="Cdotaccent" unicode="&#x10a;" 
d="M466 709q-34 0 -54.5 19t-20.5 48q0 37 29 62t71 25q33 0 53.5 -19t20.5 -48q0 -37 -29 -62t-70 -25zM361 -12q-115 0 -187.5 73t-72.5 205q0 182 108.5 293.5t262.5 111.5q109 0 180 -84l-95 -91q-45 48 -105 48q-83 0 -140.5 -72t-57.5 -187q0 -80 36.5 -125t99.5 -45
q64 0 126 59l66 -89q-97 -97 -221 -97z" />
    <glyph glyph-name="cdotaccent" unicode="&#x10b;" 
d="M413 586q-39 0 -62.5 22.5t-23.5 60.5q0 50 34 83.5t83 33.5q39 0 62.5 -24t23.5 -62q0 -51 -33.5 -82.5t-83.5 -31.5zM341 -12q-106 0 -172 60t-66 165q0 140 100 225t234 85q112 0 175 -70l-83 -91q-48 42 -103 42q-73 0 -121.5 -49t-48.5 -125q0 -56 32 -89.5
t86 -33.5q66 0 139 49l45 -93q-100 -75 -217 -75z" />
    <glyph glyph-name="Ccaron" unicode="&#x10c;" 
d="M394 709l-77 121h112l45 -62h4l62 62h112l-115 -121h-143zM361 -12q-115 0 -188 73t-73 204q0 91 30.5 168.5t81.5 129t118.5 80t141.5 28.5q108 0 180 -84l-95 -91q-46 48 -105 48q-82 0 -140 -72.5t-58 -186.5q0 -80 36.5 -125t99.5 -45q64 0 126 59l66 -89
q-97 -97 -221 -97z" />
    <glyph glyph-name="ccaron" unicode="&#x10d;" 
d="M349 574l-74 167h107l38 -96h4l68 96h107l-126 -167h-124zM341 -12q-106 0 -172 60t-66 165q0 140 100 225t234 85q112 0 175 -70l-83 -91q-48 42 -103 42q-73 0 -121.5 -49t-48.5 -125q0 -56 32 -89.5t86 -33.5q66 0 139 49l45 -93q-100 -75 -217 -75z" />
    <glyph glyph-name="Dcaron" unicode="&#x10e;" 
d="M337 709l-77 121h112l45 -62h4l62 62h112l-115 -121h-143zM65 0l104 659h177q127 0 198 -65.5t71 -195.5q0 -192 -100.5 -295t-264.5 -103h-185zM232 119h21q98 0 154 65t56 201q0 155 -143 155h-21z" />
    <glyph glyph-name="dcaron" unicode="&#x10f;" 
d="M632 564l31 228h94l-13 -70l-49 -158h-63zM232 -12q-81 0 -126.5 56t-45.5 154q0 143 80.5 234t179.5 91q69 0 118 -56l8 80l28 176h147l-115 -723h-120l-3 53h-4q-72 -65 -147 -65zM289 108q50 0 95 49l33 210q-32 36 -78 36q-52 0 -90 -49.5t-38 -138.5q0 -107 78 -107
z" />
    <glyph glyph-name="Dcroat" unicode="&#x110;" 
d="M71 0l48 305h-69l11 66l70 6l45 283h178q127 0 197.5 -65.5t70.5 -195.5q0 -192 -101 -295.5t-264 -103.5h-186zM238 119h21q97 0 153.5 65t56.5 201q0 84 -37 120t-106 36h-21l-26 -164h107l-12 -72h-107z" />
    <glyph glyph-name="dcroat" unicode="&#x111;" 
d="M254 -12q-81 0 -127.5 54.5t-46.5 150.5q0 136 80 222.5t179 86.5q68 0 118 -55l7 80l8 47h-155l11 71h155l13 78h147l-13 -78h66l-10 -65l-67 -5l-91 -575h-120l-3 53h-3q-74 -65 -148 -65zM311 108q50 0 95 49l30 189q-33 36 -75 36q-53 0 -90.5 -45.5t-37.5 -127.5
q0 -101 78 -101z" />
    <glyph glyph-name="Emacron" unicode="&#x112;" 
d="M295 728l15 93h283l-15 -93h-283zM94 0l104 659h430l-19 -124h-283l-21 -134h240l-20 -123h-240l-24 -154h293l-20 -124h-440z" />
    <glyph glyph-name="emacron" unicode="&#x113;" 
d="M269 592l14 93h276l-14 -93h-276zM328 -12q-106 0 -171.5 60t-65.5 165q0 92 46.5 164.5t115 109t143.5 36.5q96 0 147 -56t51 -146q0 -37 -20 -109h-334q-2 -56 33 -84t93 -28q62 0 134 36l33 -89q-100 -59 -205 -59zM253 310h209q8 47 -12 73.5t-69 26.5
q-42 0 -76.5 -25.5t-51.5 -74.5z" />
    <glyph glyph-name="Ebreve" unicode="&#x114;" 
d="M434 709q-63 0 -92 32.5t-26 88.5h80q4 -47 50 -47q45 0 63 47h80q-14 -56 -53 -88.5t-102 -32.5zM94 0l104 659h430l-19 -124h-283l-21 -134h240l-20 -123h-240l-24 -154h293l-20 -124h-440z" />
    <glyph glyph-name="ebreve" unicode="&#x115;" 
d="M404 574q-70 0 -100.5 45t-21.5 111h82q-2 -34 11 -54.5t42 -20.5q56 0 77 75h82q-12 -66 -57 -111t-115 -45zM328 -12q-106 0 -171.5 60t-65.5 165q0 92 46.5 164.5t115 109t143.5 36.5q96 0 147 -56t51 -146q0 -37 -20 -109h-334q-2 -56 33 -84t93 -28q62 0 134 36
l33 -89q-100 -59 -205 -59zM253 310h209q8 47 -12 73.5t-69 26.5q-42 0 -76.5 -25.5t-51.5 -74.5z" />
    <glyph glyph-name="Edotaccent" unicode="&#x116;" 
d="M434 709q-34 0 -54.5 19t-20.5 48q0 37 29 62t71 25q33 0 53.5 -19t20.5 -48q0 -37 -29 -62t-70 -25zM94 0l104 659h430l-19 -124h-283l-21 -134h240l-20 -123h-240l-24 -154h293l-20 -124h-440z" />
    <glyph glyph-name="edotaccent" unicode="&#x117;" 
d="M406 586q-39 0 -62.5 22.5t-23.5 60.5q0 50 34 83.5t83 33.5q39 0 62.5 -24t23.5 -62q0 -51 -33.5 -82.5t-83.5 -31.5zM328 -12q-106 0 -171.5 60t-65.5 165q0 92 46.5 164.5t115 109t143.5 36.5q96 0 147 -56t51 -146q0 -37 -20 -109h-334q-2 -56 33 -84t93 -28
q62 0 134 36l33 -89q-100 -59 -205 -59zM253 310h209q8 47 -12 73.5t-69 26.5q-42 0 -76.5 -25.5t-51.5 -74.5z" />
    <glyph glyph-name="Eogonek" unicode="&#x118;" 
d="M414 -225q-45 0 -73 22t-28 60q0 45 31.5 83.5t69.5 59.5h-320l105 660h430l-20 -124h-283l-21 -135h240l-20 -123h-240l-24 -154h293l-20 -124h-5q-37 -1 -69 -32.5t-32 -65.5q0 -32 36 -32q17 0 39 14l21 -74q-49 -35 -110 -35z" />
    <glyph glyph-name="eogonek" unicode="&#x119;" 
d="M574 212h-334q-2 -56 33 -84t93 -28q62 0 134 36l33 -89q-57 -34 -122 -49q-63 -44 -63 -89q0 -32 37 -32q16 0 36 12l21 -66q-48 -33 -106 -33q-42 0 -67.5 20.5t-25.5 57.5q0 66 70 120q-100 5 -161 64.5t-61 160.5q0 92 46.5 164.5t115 109t143.5 36.5q96 0 147 -56
t51 -146q0 -37 -20 -109zM381 410q-42 0 -76.5 -25.5t-51.5 -74.5h209q8 47 -12 73.5t-69 26.5z" />
    <glyph glyph-name="Ecaron" unicode="&#x11a;" 
d="M362 709l-77 121h112l45 -62h4l62 62h112l-115 -121h-143zM94 0l104 659h430l-19 -124h-283l-21 -134h240l-20 -123h-240l-24 -154h293l-20 -124h-440z" />
    <glyph glyph-name="ecaron" unicode="&#x11b;" 
d="M342 574l-74 167h107l38 -96h4l68 96h107l-126 -167h-124zM328 -12q-106 0 -171.5 60t-65.5 165q0 92 46.5 164.5t115 109t143.5 36.5q96 0 147 -56t51 -146q0 -37 -20 -109h-334q-2 -56 33 -84t93 -28q62 0 134 36l33 -89q-100 -59 -205 -59zM253 310h209q8 47 -12 73.5
t-69 26.5q-42 0 -76.5 -25.5t-51.5 -74.5z" />
    <glyph glyph-name="Gcircumflex" unicode="&#x11c;" 
d="M275 709l115 121h143l77 -121h-112l-44 62h-4l-63 -62h-112zM341 -12q-113 0 -182.5 72t-69.5 202q0 184 106 296.5t256 112.5q108 0 178 -84l-95 -91q-41 48 -103 48q-78 0 -133 -74.5t-55 -193.5q0 -77 31.5 -119t94.5 -42q43 0 68 21l18 114h-95l19 120h227l-48 -302
q-41 -34 -99.5 -57t-117.5 -23z" />
    <glyph glyph-name="gcircumflex" unicode="&#x11d;" 
d="M229 574l126 167h124l74 -167h-107l-38 95h-4l-68 -95h-107zM236 -217q-116 0 -182 63l64 100q54 -48 136 -48q51 0 87 27t43 60l16 83q-63 -55 -142 -55q-80 0 -127 56.5t-47 148.5q0 131 79.5 218t181.5 87q77 0 124 -66h4l21 53h115l-81 -510q-17 -104 -91.5 -160.5
t-200.5 -56.5zM315 131q50 0 95 51l29 185q-32 36 -79 36t-86 -46.5t-39 -120.5q0 -50 21.5 -77.5t58.5 -27.5z" />
    <glyph glyph-name="Gbreve" unicode="&#x11e;" 
d="M442 709q-63 0 -91.5 32.5t-25.5 88.5h80q4 -47 49 -47q46 0 64 47h80q-32 -121 -156 -121zM341 -12q-113 0 -182.5 72t-69.5 202q0 184 106 296.5t256 112.5q108 0 178 -84l-95 -91q-41 48 -103 48q-78 0 -133 -74.5t-55 -193.5q0 -77 31.5 -119t94.5 -42q43 0 68 21
l18 114h-95l19 120h227l-48 -302q-41 -34 -99.5 -57t-117.5 -23z" />
    <glyph glyph-name="gbreve" unicode="&#x11f;" 
d="M391 574q-70 0 -100.5 45t-21.5 111h82q-2 -34 11 -54.5t42 -20.5q56 0 77 75h82q-12 -66 -57 -111t-115 -45zM236 -217q-116 0 -182 63l64 100q54 -48 136 -48q51 0 87 27t43 60l16 83q-63 -55 -142 -55q-80 0 -127 56.5t-47 148.5q0 131 79.5 218t181.5 87
q77 0 124 -66h4l21 53h115l-81 -510q-17 -104 -91.5 -160.5t-200.5 -56.5zM315 131q50 0 95 51l29 185q-32 36 -79 36t-86 -46.5t-39 -120.5q0 -50 21.5 -77.5t58.5 -27.5z" />
    <glyph glyph-name="Gdotaccent" unicode="&#x120;" 
d="M442 709q-33 0 -53.5 19t-20.5 48q0 37 29 62t70 25q34 0 54 -18.5t20 -47.5q0 -38 -28.5 -63t-70.5 -25zM341 -12q-113 0 -182.5 72t-69.5 203q0 184 106 296t256 112q110 0 178 -84l-95 -91q-40 48 -103 48q-78 0 -133 -74t-55 -194q0 -77 31.5 -119t94.5 -42
q43 0 68 21l18 114h-95l19 120h227l-48 -302q-41 -34 -99.5 -57t-117.5 -23z" />
    <glyph glyph-name="gdotaccent" unicode="&#x121;" 
d="M393 586q-39 0 -62.5 22.5t-23.5 60.5q0 50 34 83.5t83 33.5q39 0 62.5 -24t23.5 -62q0 -51 -33.5 -82.5t-83.5 -31.5zM236 -217q-116 0 -182 63l64 100q54 -48 136 -48q51 0 87 27t43 60l16 83q-63 -55 -142 -55q-80 0 -127 56.5t-47 148.5q0 131 79.5 218t181.5 87
q77 0 124 -66h4l21 53h115l-81 -510q-17 -104 -91.5 -160.5t-200.5 -56.5zM315 131q50 0 95 51l29 185q-32 36 -79 36t-86 -46.5t-39 -120.5q0 -50 21.5 -77.5t58.5 -27.5z" />
    <glyph glyph-name="Hcircumflex" unicode="&#x124;" 
d="M243 709l115 121h144l77 -121h-113l-43 62h-4l-63 -62h-113zM64 0l104 659h147l-40 -255h178l40 255h147l-104 -659h-147l44 276h-178l-44 -276h-147z" />
    <glyph glyph-name="hcircumflex" unicode="&#x125;" 
d="M104 772l116 123h143l76 -123h-112l-44 63h-4l-63 -63h-112zM72 0l115 723h147l-29 -179l-24 -99q90 78 181 78q160 0 128 -208l-50 -315h-147l47 296q8 54 -4.5 78t-52.5 24q-28 0 -52 -13.5t-58 -43.5l-54 -341h-147z" />
    <glyph glyph-name="Hbar" unicode="&#x126;" 
d="M64 0l78 492h-61l10 65l62 5l16 98h147l-16 -97h178l16 97h147l-16 -97h61l-11 -71h-61l-78 -492h-147l44 276h-178l-44 -276h-147zM275 405h178l14 87h-178z" />
    <glyph glyph-name="hbar" unicode="&#x127;" 
d="M72 0l91 574h-66l10 65l67 5l13 79h147l-13 -78h182l-11 -71h-182l-8 -51l-24 -99q88 78 181 78q160 0 128 -208l-47 -294h-147l44 275q8 54 -4.5 78t-52.5 24q-28 0 -52.5 -13t-57.5 -43l-51 -321h-147z" />
    <glyph glyph-name="Itilde" unicode="&#x128;" 
d="M243 711q17 66 52 101.5t76 35.5q30 0 65 -23t48 -23q29 0 45 46h75q-17 -66 -52 -101.5t-76 -35.5q-30 0 -65 23t-48 23q-28 0 -45 -46h-75zM74 0l20 124h152l65 411h-152l19 124h452l-19 -124h-152l-65 -411h152l-20 -124h-452z" />
    <glyph glyph-name="itilde" unicode="&#x129;" 
d="M218 559q20 71 56.5 107t83.5 36q27 0 57 -26t41 -26q32 0 52 52h75q-20 -70 -56.5 -106.5t-83.5 -36.5q-28 0 -58 26.5t-41 26.5q-31 0 -51 -53h-75zM61 0l19 119h170l44 276h-170l18 115h317l-62 -391h170l-19 -119h-487z" />
    <glyph glyph-name="Imacron" unicode="&#x12a;" 
d="M274 728l15 93h282l-15 -93h-282zM74 0l20 124h152l65 411h-152l19 124h452l-19 -124h-152l-65 -411h152l-20 -124h-452z" />
    <glyph glyph-name="imacron" unicode="&#x12b;" 
d="M254 576l14 93h276l-14 -93h-276zM61 0l19 119h170l44 276h-170l18 115h317l-62 -391h170l-19 -119h-487z" />
    <glyph glyph-name="Ibreve" unicode="&#x12c;" 
d="M412 709q-63 0 -91.5 32.5t-26.5 88.5h81q4 -47 49 -47t63 47h81q-15 -56 -54 -88.5t-102 -32.5zM74 0l20 124h152l65 411h-152l19 124h452l-19 -124h-152l-65 -411h152l-20 -124h-452z" />
    <glyph glyph-name="ibreve" unicode="&#x12d;" 
d="M389 558q-70 0 -100.5 45t-21.5 111h82q-2 -34 11 -54.5t42 -20.5q56 0 77 75h82q-12 -66 -57 -111t-115 -45zM61 0l19 119h170l44 276h-170l18 115h317l-62 -391h170l-19 -119h-487z" />
    <glyph glyph-name="Iogonek" unicode="&#x12e;" 
d="M270 -225q-44 0 -72 22t-28 60q0 46 29.5 83t66.5 60h-192l20 124h152l65 412h-152l20 124h452l-20 -124h-152l-65 -412h152l-20 -124h-152q-90 -35 -90 -98q0 -16 10 -24t25 -8q20 0 40 14l22 -74q-51 -35 -111 -35z" />
    <glyph glyph-name="iogonek" unicode="&#x12f;" 
d="M391 570q-39 0 -62.5 22.5t-23.5 60.5q0 50 34 83.5t83 33.5q39 0 62.5 -24t23.5 -62q0 -51 -33.5 -82.5t-83.5 -31.5zM311 0q-51 -41 -51 -80q0 -32 37 -32q16 0 36 12l21 -66q-48 -33 -106 -33q-42 0 -67.5 20.5t-25.5 57.5q0 64 71 121h-165l19 119h170l44 276h-170
l18 115h317l-62 -391h170l-19 -119h-237z" />
    <glyph glyph-name="Idotaccent" unicode="&#x130;" 
d="M412 709q-33 0 -53.5 19t-20.5 48q0 37 29 62t70 25q33 0 53.5 -19t20.5 -48q0 -37 -29 -62t-70 -25zM74 0l20 124h152l65 411h-152l19 124h452l-19 -124h-152l-65 -411h152l-20 -124h-452z" />
    <glyph glyph-name="dotlessi" unicode="&#x131;" 
d="M61 0l19 119h170l44 276h-170l18 115h317l-62 -391h170l-19 -119h-487z" />
    <glyph glyph-name="Jcircumflex" unicode="&#x134;" 
d="M266 709l115 121h143l77 -121h-112l-43 62h-4l-64 -62h-112zM271 -12q-136 0 -197 109l100 91q46 -73 112 -73q52 0 81 27.5t39 93.5l48 300h-255l19 123h402l-69 -435q-16 -106 -84.5 -171t-195.5 -65z" />
    <glyph glyph-name="jcircumflex" unicode="&#x135;" 
d="M274 574l126 167h124l74 -167h-107l-38 95h-4l-68 -95h-107zM161 -217q-81 0 -148 35l60 105q49 -25 97 -25t75 34t34 76l61 387h-198l18 115h346l-79 -496q-37 -231 -266 -231z" />
    <glyph glyph-name="kgreenlandic" unicode="&#x138;" 
d="M76 0l81 510h147l-33 -207l3 1l216 206h161l-221 -209l155 -301h-159l-97 204l-86 -77l-20 -127h-147z" />
    <glyph glyph-name="Lacute" unicode="&#x139;" 
d="M232 709l100 121h156l-138 -121h-118zM107 0l104 659h147l-84 -535h290l-20 -124h-437z" />
    <glyph glyph-name="lacute" unicode="&#x13a;" 
d="M314 780l100 123h156l-139 -123h-117zM393 -12q-92 0 -131.5 55.5t-24.5 154.5l65 409h-144l19 116h290l-84 -532q-7 -44 12.5 -64t54.5 -20q38 0 81 17l16 -108q-91 -28 -154 -28z" />
    <glyph glyph-name="Lcaron" unicode="&#x13d;" 
d="M468 517l30 224h94l-12 -71l-49 -153h-63zM107 0l105 660h147l-85 -536h290l-20 -124h-437z" />
    <glyph glyph-name="lcaron" unicode="&#x13e;" 
d="M503 564l31 228h94l-12 -70l-50 -158h-63zM393 -12q-92 0 -131.5 55.5t-24.5 154.5l65 409h-144l19 116h290l-84 -532q-7 -44 12.5 -64t54.5 -20q38 0 81 17l16 -108q-91 -28 -154 -28z" />
    <glyph glyph-name="Ldot" unicode="&#x13f;" 
d="M107 0l105 660h147l-85 -536h290l-20 -124h-437zM495 268q-38 0 -61 21.5t-23 55.5q0 45 33 75t80 30q39 0 62 -22t23 -57q0 -45 -32.5 -74t-81.5 -29z" />
    <glyph glyph-name="ldot" unicode="&#x140;" 
d="M343 -12q-92 0 -131.5 56t-24.5 154l65 409h-144l19 116h290l-84 -532q-7 -44 13 -64t55 -20q37 0 80 17l16 -108q-89 -28 -154 -28zM514 271q-38 0 -61.5 21.5t-23.5 56.5q0 45 33 75t81 30q38 0 61.5 -22t23.5 -57q0 -45 -33 -74.5t-81 -29.5z" />
    <glyph glyph-name="Lslash" unicode="&#x141;" 
d="M107 0l32 201l-81 -41l18 114l81 41l55 345h147l-44 -273l225 115l-19 -114l-224 -115l-23 -149h290l-20 -124h-437z" />
    <glyph glyph-name="lslash" unicode="&#x142;" 
d="M393 -12q-92 0 -131.5 55.5t-24.5 154.5l14 90l-123 -65l19 117l123 66l32 201h-144l19 116h291l-39 -244l161 84l-19 -118l-161 -84l-27 -170q-7 -44 12.5 -64t54.5 -20q38 0 81 17l16 -108q-91 -28 -154 -28z" />
    <glyph glyph-name="Nacute" unicode="&#x143;" 
d="M343 709l100 121h156l-139 -121h-117zM66 0l104 659h150l86 -331l33 -144h4q1 13 3.5 69.5t5.5 95.5t8 74l37 236h141l-104 -659h-150l-86 330l-33 143h-4q-1 -10 -3.5 -68.5t-5.5 -96t-8 -72.5l-37 -236h-141z" />
    <glyph glyph-name="nacute" unicode="&#x144;" 
d="M281 574l115 167h150l-158 -167h-107zM72 0l81 510h120v-69h4q93 82 184 82q161 0 129 -208l-50 -315h-147l47 296q8 54 -4.5 78t-52.5 24q-28 0 -52 -13.5t-58 -43.5l-54 -341h-147z" />
    <glyph glyph-name="Ncaron" unicode="&#x147;" 
d="M346 709l-77 121h113l44 -62h4l62 62h113l-115 -121h-144zM66 0l104 659h150l86 -331l33 -144h4q1 13 3.5 69.5t5.5 95.5t8 74l37 236h141l-104 -659h-150l-86 330l-33 143h-4q-1 -10 -3.5 -68.5t-5.5 -96t-8 -72.5l-37 -236h-141z" />
    <glyph glyph-name="ncaron" unicode="&#x148;" 
d="M339 574l-74 167h107l38 -96h4l68 96h107l-126 -167h-124zM72 0l81 510h120v-69h4q93 82 184 82q161 0 129 -208l-50 -315h-147l47 296q8 54 -4.5 78t-52.5 24q-28 0 -52 -13.5t-58 -43.5l-54 -341h-147z" />
    <glyph glyph-name="Omacron" unicode="&#x14c;" 
d="M274 728l15 93h282l-15 -93h-282zM298 -12q-99 0 -157 72.5t-58 199.5q0 185 92 298.5t231 113.5q100 0 158 -71.5t58 -196.5q0 -185 -92.5 -300.5t-231.5 -115.5zM318 115q65 0 108.5 81t43.5 199q0 70 -22 110t-62 40q-65 0 -108 -79t-43 -198q0 -71 22 -112t61 -41z
" />
    <glyph glyph-name="omacron" unicode="&#x14d;" 
d="M256 592l14 93h276l-14 -93h-276zM298 -12q-91 0 -153 60.5t-62 164.5q0 138 91.5 224t208.5 86q91 0 153 -61t62 -165q0 -138 -91.5 -223.5t-208.5 -85.5zM317 107q61 0 95 52.5t34 132.5q0 112 -82 112q-61 0 -95 -52.5t-34 -133.5q0 -52 20.5 -81.5t61.5 -29.5z" />
    <glyph glyph-name="Obreve" unicode="&#x14e;" 
d="M412 709q-63 0 -91.5 32.5t-26.5 88.5h81q4 -47 49 -47t63 47h81q-15 -56 -54 -88.5t-102 -32.5zM298 -12q-99 0 -157 73t-58 199q0 185 92 298t231 113q100 0 158 -71.5t58 -196.5q0 -184 -92.5 -299.5t-231.5 -115.5zM318 115q65 0 108.5 81t43.5 198q0 70 -22 110
t-62 40q-65 0 -108 -78.5t-43 -197.5q0 -71 22 -112t61 -41z" />
    <glyph glyph-name="obreve" unicode="&#x14f;" 
d="M391 574q-70 0 -100.5 45t-21.5 111h82q-2 -34 11 -54.5t42 -20.5q56 0 77 75h82q-12 -66 -57 -111t-115 -45zM298 -12q-91 0 -153 60.5t-62 164.5q0 138 91.5 224t208.5 86q91 0 153 -61t62 -165q0 -138 -91.5 -223.5t-208.5 -85.5zM317 107q61 0 95 52.5t34 132.5
q0 112 -82 112q-61 0 -95 -52.5t-34 -133.5q0 -52 20.5 -81.5t61.5 -29.5z" />
    <glyph glyph-name="Ohungarumlaut" unicode="&#x150;" 
d="M275 709l82 121h125l-108 -121h-99zM454 709l83 121h125l-109 -121h-99zM298 -12q-99 0 -157 73t-58 199q0 185 92 298t231 113q100 0 158 -71.5t58 -196.5q0 -184 -92.5 -299.5t-231.5 -115.5zM318 115q65 0 108.5 81t43.5 198q0 70 -22 110t-62 40q-65 0 -108 -78.5
t-43 -197.5q0 -71 22 -112t61 -41z" />
    <glyph glyph-name="ohungarumlaut" unicode="&#x151;" 
d="M213 573l92 151h117l-119 -151h-90zM383 573l93 151h117l-119 -151h-91zM298 -12q-91 0 -153 60.5t-62 164.5q0 138 91.5 224t208.5 86q91 0 153 -61t62 -165q0 -138 -91.5 -223.5t-208.5 -85.5zM317 107q61 0 95 52.5t34 132.5q0 112 -82 112q-61 0 -95 -52.5
t-34 -133.5q0 -52 20.5 -81.5t61.5 -29.5z" />
    <glyph glyph-name="OE" unicode="&#x152;" 
d="M287 0q-102 0 -162.5 66.5t-60.5 194.5q0 193 94.5 296t241.5 103h290l-20 -123h-160l-21 -136h121l-20 -123h-121l-24 -154h170l-20 -124h-308zM297 119h16l67 422h-16q-150 0 -150 -284q0 -138 83 -138z" />
    <glyph glyph-name="oe" unicode="&#x153;" 
d="M193 -12q-66 0 -106.5 55t-40.5 152q0 146 70.5 237t164.5 91q81 0 106 -91q58 91 134 91q58 0 89.5 -53t31.5 -135q0 -30 -2.5 -52.5t-5.5 -32t-8 -22t-6 -16.5h-222q-2 -109 72 -109q38 0 79 27l35 -94q-67 -48 -138 -48q-82 0 -115 81q-57 -81 -138 -81zM410 303h114
q17 107 -32 107q-56 0 -82 -107zM223 106q37 0 61.5 63t24.5 143q0 93 -39 93q-43 0 -67.5 -63t-24.5 -142q0 -94 45 -94z" />
    <glyph glyph-name="Racute" unicode="&#x154;" 
d="M340 709l100 121h156l-139 -121h-117zM70 0l104 659h231q223 0 223 -170q0 -83 -40 -140t-109 -85l105 -264h-165l-87 238h-77l-38 -238h-147zM273 355h72q66 0 101.5 30t35.5 85q0 39 -26.5 55.5t-80.5 16.5h-72z" />
    <glyph glyph-name="racute" unicode="&#x155;" 
d="M271 574l115 167h150l-158 -167h-107zM116 0l81 510h120l-6 -112h3q92 125 221 125q49 0 93 -21l-50 -123q-50 15 -86 15q-109 0 -187 -126l-42 -268h-147z" />
    <glyph glyph-name="Rcaron" unicode="&#x158;" 
d="M343 709l-77 121h112l45 -62h4l62 62h112l-115 -121h-143zM70 0l104 659h231q223 0 223 -170q0 -83 -40 -140t-109 -85l105 -264h-165l-87 238h-77l-38 -238h-147zM273 355h72q66 0 101.5 30t35.5 85q0 39 -26.5 55.5t-80.5 16.5h-72z" />
    <glyph glyph-name="rcaron" unicode="&#x159;" 
d="M329 574l-74 167h107l38 -96h4l68 96h107l-126 -167h-124zM116 0l81 510h120l-6 -112h3q92 125 221 125q49 0 93 -21l-50 -123q-50 15 -86 15q-109 0 -187 -126l-42 -268h-147z" />
    <glyph glyph-name="Sacute" unicode="&#x15a;" 
d="M345 709l99 121h156l-138 -121h-117zM296 -12q-143 0 -233 95l101 101q72 -69 156 -69q55 0 82 19.5t27 53.5q0 17 -12.5 30t-27 20t-49.5 21l-78 37q-50 20 -81.5 59t-31.5 95q0 92 79 156.5t193 64.5q125 0 203 -87l-89 -93q-64 53 -134 53q-46 0 -73 -18.5t-27 -49.5
q0 -17 14.5 -30t30 -20.5t50.5 -20.5l74 -35q114 -46 114 -151q0 -95 -79.5 -163t-208.5 -68z" />
    <glyph glyph-name="sacute" unicode="&#x15b;" 
d="M284 574l115 167h150l-158 -167h-107zM294 -12q-128 0 -231 78l81 92q84 -61 170 -61q103 0 103 49q0 20 -29.5 35t-92.5 34q-155 46 -155 136q0 75 70.5 123.5t185.5 48.5q106 0 203 -70l-80 -88q-70 48 -138 48q-93 0 -93 -45q0 -20 28.5 -33.5t88.5 -30.5
q75 -22 118 -53.5t43 -83.5q0 -76 -73 -127.5t-199 -51.5z" />
    <glyph glyph-name="Scircumflex" unicode="&#x15c;" 
d="M252 709l115 121h143l77 -121h-112l-44 62h-4l-63 -62h-112zM296 -12q-143 0 -233 95l101 101q72 -69 156 -69q55 0 82 19.5t27 53.5q0 17 -12.5 30t-27 20t-49.5 21l-78 37q-50 20 -81.5 59t-31.5 95q0 92 79 156.5t193 64.5q125 0 203 -87l-89 -93q-64 53 -134 53
q-46 0 -73 -18.5t-27 -49.5q0 -17 14.5 -30t30 -20.5t50.5 -20.5l74 -35q114 -46 114 -151q0 -95 -79.5 -163t-208.5 -68z" />
    <glyph glyph-name="scircumflex" unicode="&#x15d;" 
d="M242 574l126 167h124l74 -167h-107l-38 95h-4l-68 -95h-107zM294 -12q-128 0 -231 78l81 92q84 -61 170 -61q103 0 103 49q0 20 -29.5 35t-92.5 34q-155 46 -155 136q0 75 70.5 123.5t185.5 48.5q106 0 203 -70l-80 -88q-70 48 -138 48q-93 0 -93 -45q0 -20 28.5 -33.5
t88.5 -30.5q75 -22 118 -53.5t43 -83.5q0 -76 -73 -127.5t-199 -51.5z" />
    <glyph glyph-name="Scedilla" unicode="&#x15e;" 
d="M175 -223l-2 59q90 9 90 48q0 26 -51 39l43 67q-117 15 -192 93l101 101q72 -69 156 -69q55 0 82 19.5t27 53.5q0 25 -20 38.5t-69 33.5l-78 37q-50 20 -81.5 59t-31.5 95q0 92 79 156.5t193 64.5q128 0 204 -87l-90 -93q-62 53 -134 53q-46 0 -73 -18t-27 -50
q0 -17 14.5 -30t30 -20.5t50.5 -20.5l74 -35q114 -45 114 -152q0 -85 -66 -150.5t-176 -77.5l-20 -35q47 -17 47 -63q0 -55 -55 -83.5t-139 -32.5z" />
    <glyph glyph-name="scedilla" unicode="&#x15f;" 
d="M405 304q75 -22 118 -53.5t43 -83.5q0 -67 -57.5 -116t-159.5 -60l-20 -34q48 -17 48 -62q0 -55 -55.5 -83.5t-139.5 -32.5l-2 59q90 9 90 48q0 25 -52 38l43 66q-112 10 -198 76l81 92q84 -61 170 -61q103 0 103 49q0 20 -29.5 35t-92.5 34q-155 46 -155 136
q0 75 70.5 123.5t185.5 48.5q106 0 203 -70l-80 -88q-70 48 -138 48q-93 0 -93 -45q0 -20 28.5 -33.5t88.5 -30.5z" />
    <glyph glyph-name="Scaron" unicode="&#x160;" 
d="M348 709l-77 121h112l44 -62h4l63 62h112l-115 -121h-143zM296 -12q-143 0 -233 95l101 101q72 -69 156 -69q55 0 82 19.5t27 53.5q0 17 -12.5 30t-27 20t-49.5 21l-78 37q-50 20 -81.5 59t-31.5 95q0 92 79 156.5t193 64.5q125 0 203 -87l-89 -93q-64 53 -134 53
q-46 0 -73 -18.5t-27 -49.5q0 -17 14.5 -30t30 -20.5t50.5 -20.5l74 -35q114 -46 114 -151q0 -95 -79.5 -163t-208.5 -68z" />
    <glyph glyph-name="scaron" unicode="&#x161;" 
d="M342 574l-74 167h107l38 -96h4l68 96h107l-126 -167h-124zM294 -12q-128 0 -231 78l81 92q84 -61 170 -61q103 0 103 49q0 20 -29.5 35t-92.5 34q-155 46 -155 136q0 75 70.5 123.5t185.5 48.5q106 0 203 -70l-80 -88q-70 48 -138 48q-93 0 -93 -45q0 -20 28.5 -33.5
t88.5 -30.5q75 -22 118 -53.5t43 -83.5q0 -76 -73 -127.5t-199 -51.5z" />
    <glyph glyph-name="uni0162" unicode="&#x162;" 
d="M172 -224l-2 60q89 9 89 48q0 26 -51 39l50 77h-32l85 536h-195l20 124h538l-20 -124h-195l-85 -536h-30l-25 -44q47 -17 47 -63q0 -55 -55 -83.5t-139 -33.5z" />
    <glyph glyph-name="uni0163" unicode="&#x163;" 
d="M384 395l-29 -183q-9 -58 11.5 -83.5t74.5 -25.5q50 0 102 19l10 -106q-94 -28 -167 -28q-15 0 -37 2l-20 -33q48 -17 48 -62q0 -55 -55.5 -83.5t-139.5 -32.5l-2 59q90 9 90 48q0 25 -52 38l53 80h18q-108 43 -82 207l29 184h-124l18 115h132l24 150l149 60l-33 -210
h210l-18 -115h-210z" />
    <glyph glyph-name="Tcaron" unicode="&#x164;" 
d="M340 709l-77 121h113l44 -62h4l62 62h113l-115 -121h-144zM226 0l85 535h-195l19 124h538l-19 -124h-195l-85 -535h-148z" />
    <glyph glyph-name="tcaron" unicode="&#x165;" 
d="M479 564l31 228h94l-13 -70l-49 -158h-63zM386 -12q-214 0 -179 223l29 184h-124l18 115h132l24 150l149 60l-33 -210h210l-18 -115h-210l-29 -183q-9 -58 11.5 -83.5t74.5 -25.5q50 0 102 19l10 -106q-94 -28 -167 -28z" />
    <glyph glyph-name="Utilde" unicode="&#x168;" 
d="M243 711q17 66 52 101.5t76 35.5q30 0 65 -23t48 -23q29 0 45 46h75q-17 -66 -52 -101.5t-76 -35.5q-30 0 -65 23t-48 23q-28 0 -45 -46h-75zM300 -12q-118 0 -167 68t-29 198l64 405h148l-67 -420q-20 -124 71 -124q92 0 112 124l67 420h141l-64 -405
q-42 -266 -276 -266z" />
    <glyph glyph-name="utilde" unicode="&#x169;" 
d="M220 575q20 71 56.5 107t83.5 36q27 0 57 -26t41 -26q32 0 52 52h75q-20 -70 -56.5 -106.5t-83.5 -36.5q-28 0 -58 26.5t-41 26.5q-31 0 -51 -53h-75zM221 -12q-160 0 -128 207l50 315h147l-47 -296q-8 -54 4 -77.5t52 -23.5q28 0 52 13.5t55 47.5l53 336h147l-81 -510
h-120l1 74h-4q-88 -86 -181 -86z" />
    <glyph glyph-name="Umacron" unicode="&#x16a;" 
d="M274 728l15 93h282l-15 -93h-282zM300 -12q-118 0 -167 68t-29 198l64 405h148l-67 -420q-20 -124 71 -124q92 0 112 124l67 420h141l-64 -405q-42 -266 -276 -266z" />
    <glyph glyph-name="umacron" unicode="&#x16b;" 
d="M256 592l14 93h276l-14 -93h-276zM221 -12q-160 0 -128 207l50 315h147l-47 -296q-8 -54 4 -77.5t52 -23.5q28 0 52 13.5t55 47.5l53 336h147l-81 -510h-120l1 74h-4q-88 -86 -181 -86z" />
    <glyph glyph-name="Ubreve" unicode="&#x16c;" 
d="M412 709q-63 0 -91.5 32.5t-26.5 88.5h81q4 -47 49 -47t63 47h81q-15 -56 -54 -88.5t-102 -32.5zM300 -12q-118 0 -167 68t-29 197l64 406h148l-67 -420q-20 -124 71 -124q92 0 112 124l67 420h141l-64 -406q-42 -265 -276 -265z" />
    <glyph glyph-name="ubreve" unicode="&#x16d;" 
d="M391 574q-70 0 -100.5 45t-21.5 111h82q-2 -34 11 -54.5t42 -20.5q56 0 77 75h82q-12 -66 -57 -111t-115 -45zM221 -12q-160 0 -128 207l50 315h147l-47 -296q-8 -54 4 -77.5t52 -23.5q28 0 52 13.5t55 47.5l53 336h147l-81 -510h-120l1 74h-4q-88 -86 -181 -86z" />
    <glyph glyph-name="Uring" unicode="&#x16e;" 
d="M412 704q-46 0 -72.5 23t-26.5 62q0 49 37 81t93 32q45 0 72 -23.5t27 -61.5q0 -50 -37 -81.5t-93 -31.5zM420 759q20 0 34 14.5t14 36.5q0 16 -9.5 26.5t-24.5 10.5q-20 0 -34.5 -14.5t-14.5 -36.5q0 -17 10 -27t25 -10zM300 -12q-118 0 -167 68t-29 197l64 406h148
l-67 -420q-20 -124 71 -124q92 0 112 124l67 420h141l-64 -406q-42 -265 -276 -265z" />
    <glyph glyph-name="uring" unicode="&#x16f;" 
d="M387 548q-45 0 -72 23.5t-27 63.5q0 52 37.5 84.5t93.5 32.5q45 0 71.5 -23.5t26.5 -63.5q0 -52 -37 -84.5t-93 -32.5zM396 603q19 0 34 16t15 39q0 17 -9.5 28t-25.5 11q-20 0 -34.5 -15.5t-14.5 -39.5q0 -17 9.5 -28t25.5 -11zM221 -12q-160 0 -128 207l50 315h147
l-47 -296q-8 -54 4 -77.5t52 -23.5q28 0 52 13.5t55 47.5l53 336h147l-81 -510h-120l1 74h-4q-88 -86 -181 -86z" />
    <glyph glyph-name="Uhungarumlaut" unicode="&#x170;" 
d="M275 709l82 121h125l-108 -121h-99zM454 709l83 121h125l-109 -121h-99zM300 -12q-118 0 -167 68t-29 197l64 406h148l-67 -420q-20 -124 71 -124q92 0 112 124l67 420h141l-64 -406q-42 -265 -276 -265z" />
    <glyph glyph-name="uhungarumlaut" unicode="&#x171;" 
d="M213 573l92 151h117l-119 -151h-90zM383 573l93 151h117l-119 -151h-91zM221 -12q-160 0 -128 207l50 315h147l-47 -296q-8 -54 4 -77.5t52 -23.5q28 0 52 13.5t55 47.5l53 336h147l-81 -510h-120l1 74h-4q-88 -86 -181 -86z" />
    <glyph glyph-name="Uogonek" unicode="&#x172;" 
d="M289 -225q-45 0 -73 22t-28 60q0 20 6 38t18 34t20.5 25t23.5 22t16 14q-103 7 -145 75t-23 189l64 406h148l-67 -421q-20 -124 70 -124q93 0 113 124l67 421h141l-64 -406q-29 -186 -163 -245q-110 -49 -110 -107q0 -32 36 -32q18 0 38 14l22 -74q-49 -35 -110 -35z" />
    <glyph glyph-name="uogonek" unicode="&#x173;" 
d="M483 0q-65 -46 -65 -91q0 -32 37 -32q16 0 36 12l21 -66q-48 -33 -106 -33q-42 0 -67.5 20.5t-25.5 57.5q0 43 28.5 78t61.5 56h2l1 72h-4q-88 -86 -181 -86q-160 0 -128 207l50 315h147l-47 -296q-8 -54 4 -77.5t52 -23.5q28 0 52 13.5t55 47.5l53 336h147l-81 -510h-42
z" />
    <glyph glyph-name="Wcircumflex" unicode="&#x174;" 
d="M244 709l115 121h144l77 -121h-113l-43 62h-4l-63 -62h-113zM91 0l17 659h150l-34 -352q-4 -26 -11.5 -82t-11.5 -86h3q11 31 32.5 88.5t29.5 79.5l74 184h89l14 -184q0 -26 3 -82.5t4 -85.5h4q3 17 14.5 77t17.5 91l75 352h139l-185 -659h-154l-8 209q-3 60 2 126h-3
q-14 -55 -38 -126l-72 -209h-151z" />
    <glyph glyph-name="wcircumflex" unicode="&#x175;" 
d="M229 574l126 167h124l74 -167h-107l-38 95h-4l-68 -95h-107zM86 0l-1 510h143l-7 -240q-1 -16 -3.5 -69t-3.5 -82h3q16 57 47 151l59 175h103l5 -175q1 -75 0 -151h4q8 28 21 79t19 72l68 240h134l-158 -510h-170v176q0 58 5 150h-4q-23 -89 -42 -150l-55 -176h-167z" />
    <glyph glyph-name="Ycircumflex" unicode="&#x176;" 
d="M244 709l115 121h144l77 -121h-113l-43 62h-4l-63 -62h-113zM226 0l35 223l-141 436h159l40 -160q18 -67 35 -150h4q14 25 42 74.5t43 75.5l92 160h153l-279 -436l-35 -223h-148z" />
    <glyph glyph-name="ycircumflex" unicode="&#x177;" 
d="M239 574l126 167h124l74 -167h-107l-38 95h-4l-68 -95h-107zM109 -217q-42 0 -75 10l44 112q18 -6 38 -6q38 0 66 23t43 49l23 41l-136 498h145l48 -223q16 -76 26 -153h4q24 57 70 153l108 223h139l-282 -534q-53 -100 -112 -146.5t-149 -46.5z" />
    <glyph glyph-name="Ydieresis" unicode="&#x178;" 
d="M313 708q-27 0 -43.5 16.5t-16.5 43.5q0 34 24 57t58 23q27 0 43.5 -16.5t16.5 -43.5q0 -34 -23.5 -57t-58.5 -23zM511 708q-27 0 -43.5 16.5t-16.5 43.5q0 34 24 57t58 23q27 0 43.5 -16.5t16.5 -43.5q0 -34 -23.5 -57t-58.5 -23zM226 0l35 223l-141 436h159l40 -160
q18 -67 35 -150h4q14 25 42 74.5t43 75.5l92 160h153l-279 -436l-35 -223h-148z" />
    <glyph glyph-name="Zacute" unicode="&#x179;" 
d="M352 709l99 121h156l-138 -121h-117zM56 0l14 89l377 447h-277l19 123h458l-14 -89l-375 -446h309l-20 -124h-491z" />
    <glyph glyph-name="zacute" unicode="&#x17a;" 
d="M335 591l116 171h150l-159 -171h-107zM70 0l13 79l310 316h-228l18 115h431l-13 -78l-310 -317h268l-18 -115h-471z" />
    <glyph glyph-name="Zdotaccent" unicode="&#x17b;" 
d="M426 709q-33 0 -53.5 19t-20.5 48q0 37 29 62t70 25q34 0 54 -18.5t20 -47.5q0 -38 -28.5 -63t-70.5 -25zM56 0l14 89l377 447h-277l19 123h458l-14 -89l-375 -446h309l-20 -124h-491z" />
    <glyph glyph-name="zdotaccent" unicode="&#x17c;" 
d="M393 586q-39 0 -62.5 22.5t-23.5 60.5q0 50 34 83.5t83 33.5q39 0 62.5 -24t23.5 -62q0 -51 -33.5 -82.5t-83.5 -31.5zM70 0l13 79l310 316h-228l18 115h431l-13 -78l-310 -317h268l-18 -115h-471z" />
    <glyph glyph-name="Zcaron" unicode="&#x17d;" 
d="M355 709l-77 121h112l44 -62h4l63 62h112l-115 -121h-143zM56 0l14 89l377 447h-277l19 123h458l-14 -89l-375 -446h309l-20 -124h-491z" />
    <glyph glyph-name="zcaron" unicode="&#x17e;" 
d="M329 574l-74 167h107l38 -96h4l68 96h107l-126 -167h-124zM70 0l13 79l310 316h-228l18 115h431l-13 -78l-310 -317h268l-18 -115h-471z" />
    <glyph glyph-name="uni0180" unicode="&#x180;" 
d="M336 -12q-73 0 -124 68h-4l-21 -56h-115l91 574h-66l10 65l67 5l13 79h147l-13 -78h182l-11 -71h-182l-8 -51l-17 -81q71 60 148 60q78 0 121.5 -53.5t43.5 -144.5q0 -72 -23 -133t-60.5 -100t-84 -61t-94.5 -22zM322 108q53 0 88.5 46.5t35.5 132.5q0 95 -74 95
q-48 0 -100 -49l-30 -190q32 -35 80 -35z" />
    <glyph glyph-name="florin" unicode="&#x192;" 
d="M127 -96q-66 0 -94 16l37 108q25 -7 53 -9q41 2 63 30t46 112l41 146h-87l16 101l76 6h23l13 43q34 112 88.5 159.5t156.5 47.5q57 0 93 -19l-45 -110q-28 12 -54 12q-69 0 -96 -78l-15 -55h115l-17 -107h-127l-53 -189q-28 -101 -81 -157.5t-152 -56.5z" />
    <glyph glyph-name="uni01CD" unicode="&#x1cd;" 
d="M340 709l-77 121h113l44 -62h4l62 62h113l-115 -121h-144zM9 0l307 659h176l99 -659h-156l-14 158h-197l-65 -158h-150zM272 273h137l-5 61q-1 11 -8 91.5t-11 120.5h-4q-32 -84 -84 -212z" />
    <glyph glyph-name="uni01CE" unicode="&#x1ce;" 
d="M329 574l-74 167h107l38 -96h4l68 96h107l-126 -167h-124zM254 -12q-81 0 -126.5 56t-45.5 155q0 143 80.5 233.5t179.5 90.5q69 0 118 -56l19 43h130l-81 -510h-120l-3 53h-3q-74 -65 -148 -65zM311 108q50 0 95 49l33 210q-32 36 -77 36q-52 0 -90 -50t-38 -139
q0 -106 77 -106z" />
    <glyph glyph-name="uni01CF" unicode="&#x1cf;" 
d="M340 709l-77 121h113l44 -62h4l62 62h113l-115 -121h-144zM74 0l20 124h152l65 411h-152l19 124h452l-19 -124h-152l-65 -411h152l-20 -124h-452z" />
    <glyph glyph-name="uni01D0" unicode="&#x1d0;" 
d="M327 558l-74 167h107l38 -96h4l68 96h107l-126 -167h-124zM61 0l19 119h170l44 276h-170l18 115h317l-62 -391h170l-19 -119h-487z" />
    <glyph glyph-name="uni01D1" unicode="&#x1d1;" 
d="M340 709l-77 121h113l44 -62h4l62 62h113l-115 -121h-144zM298 -12q-99 0 -157 73t-58 199q0 185 92 298t231 113q100 0 158 -71.5t58 -196.5q0 -184 -92.5 -299.5t-231.5 -115.5zM318 115q65 0 108.5 81t43.5 198q0 70 -22 110t-62 40q-65 0 -108 -78.5t-43 -197.5
q0 -71 22 -112t61 -41z" />
    <glyph glyph-name="uni01D2" unicode="&#x1d2;" 
d="M329 574l-74 167h107l38 -96h4l68 96h107l-126 -167h-124zM298 -12q-91 0 -153 60.5t-62 164.5q0 138 91.5 224t208.5 86q91 0 153 -61t62 -165q0 -138 -91.5 -223.5t-208.5 -85.5zM317 107q61 0 95 52.5t34 132.5q0 112 -82 112q-61 0 -95 -52.5t-34 -133.5
q0 -52 20.5 -81.5t61.5 -29.5z" />
    <glyph glyph-name="uni01D3" unicode="&#x1d3;" 
d="M340 709l-77 121h113l44 -62h4l62 62h113l-115 -121h-144zM300 -12q-118 0 -167 68t-29 197l64 406h148l-67 -420q-20 -124 71 -124q92 0 112 124l67 420h141l-64 -406q-42 -265 -276 -265z" />
    <glyph glyph-name="uni01D4" unicode="&#x1d4;" 
d="M329 574l-74 167h107l38 -96h4l68 96h107l-126 -167h-124zM221 -12q-160 0 -128 207l50 315h147l-47 -296q-8 -54 4 -77.5t52 -23.5q28 0 52 13.5t55 47.5l53 336h147l-81 -510h-120l1 74h-4q-88 -86 -181 -86z" />
    <glyph glyph-name="Gcaron" unicode="&#x1e6;" 
d="M371 709l-77 121h112l44 -62h4l63 62h112l-115 -121h-143zM341 -12q-113 0 -182.5 72t-69.5 202q0 184 106 296.5t256 112.5q108 0 178 -84l-95 -91q-41 48 -103 48q-78 0 -133 -74.5t-55 -193.5q0 -77 31.5 -119t94.5 -42q43 0 68 21l18 114h-95l19 120h227l-48 -302
q-41 -34 -99.5 -57t-117.5 -23z" />
    <glyph glyph-name="gcaron" unicode="&#x1e7;" 
d="M329 574l-74 167h107l38 -96h4l68 96h107l-126 -167h-124zM236 -217q-116 0 -182 63l64 100q54 -48 136 -48q51 0 87 27t43 60l16 83q-63 -55 -142 -55q-80 0 -127 56.5t-47 148.5q0 131 79.5 218t181.5 87q77 0 124 -66h4l21 53h115l-81 -510q-17 -104 -91.5 -160.5
t-200.5 -56.5zM315 131q50 0 95 51l29 185q-32 36 -79 36t-86 -46.5t-39 -120.5q0 -50 21.5 -77.5t58.5 -27.5z" />
    <glyph glyph-name="uni01EA" unicode="&#x1ea;" 
d="M290 -225q-45 0 -73 22t-28 60q0 67 83 133q-94 10 -141 85t-47 187q0 185 91.5 297.5t230.5 112.5q100 0 158 -71t58 -196q0 -153 -63 -254.5t-171 -147.5q-42 -18 -63.5 -46.5t-21.5 -54.5q0 -32 37 -32q16 0 38 14l22 -74q-49 -35 -110 -35zM318 115q65 0 108.5 81.5
t43.5 199.5q0 70 -22 109.5t-62 39.5q-65 0 -108 -78.5t-43 -197.5q0 -71 22 -112.5t61 -41.5z" />
    <glyph glyph-name="uni01EB" unicode="&#x1eb;" 
d="M356 -6q-57 -44 -57 -85q0 -32 37 -32q16 0 36 12l21 -66q-48 -33 -106 -33q-42 0 -67.5 20.5t-25.5 57.5q0 67 73 122q-80 10 -132 69.5t-52 153.5q0 138 91.5 224t208.5 86q91 0 153 -61t62 -165q0 -120 -70.5 -201t-171.5 -102zM235 218q0 -52 20.5 -81.5t61.5 -29.5
q61 0 95 52.5t34 132.5q0 112 -82 112q-61 0 -95 -52.5t-34 -133.5z" />
    <glyph glyph-name="uni0237" unicode="&#x237;" 
d="M161 -217q-81 0 -148 35l60 105q49 -25 97 -25t75 34t34 76l61 387h-198l18 115h346l-79 -496q-37 -231 -266 -231z" />
    <glyph glyph-name="uni0243" unicode="&#x243;" 
d="M84 0l28 177h-75l10 65l76 6l66 412h206q214 0 214 -135q0 -54 -33.5 -96t-98.5 -59l-1 -4q119 -24 119 -135q0 -113 -80.5 -172t-205.5 -59h-225zM295 401h53q117 0 117 95q0 58 -92 58h-54zM248 105h66q67 0 104 33.5t37 93.5q0 82 -108 82h-66l-11 -66h106l-11 -71
h-106z" />
    <glyph glyph-name="circumflex" unicode="&#x2c6;" 
d="M229 574l126 167h124l74 -167h-107l-38 95h-4l-68 -95h-107z" />
    <glyph glyph-name="caron" unicode="&#x2c7;" 
d="M329 574l-74 167h107l38 -96h4l68 96h107l-126 -167h-124z" />
    <glyph glyph-name="breve" unicode="&#x2d8;" 
d="M391 574q-70 0 -100.5 45t-21.5 111h82q-2 -34 11 -54.5t42 -20.5q56 0 77 75h82q-12 -66 -57 -111t-115 -45z" />
    <glyph glyph-name="dotaccent" unicode="&#x2d9;" 
d="M393 585q-41 0 -65 23t-24 61q0 50 35 83.5t85 33.5q40 0 64.5 -24t24.5 -63q0 -50 -34.5 -82t-85.5 -32z" />
    <glyph glyph-name="ring" unicode="&#x2da;" 
d="M387 548q-45 0 -72 23.5t-27 63.5q0 52 37.5 84.5t93.5 32.5q45 0 71.5 -23.5t26.5 -63.5q0 -52 -37 -84.5t-93 -32.5zM396 603q19 0 34 16t15 39q0 17 -9.5 28t-25.5 11q-20 0 -34.5 -15.5t-14.5 -39.5q0 -17 9.5 -28t25.5 -11z" />
    <glyph glyph-name="ogonek" unicode="&#x2db;" 
d="M287 -210q-42 0 -67.5 20.5t-25.5 57.5q0 43 28.5 78t61.5 56h83q-68 -48 -68 -93q0 -32 37 -32q16 0 36 12l21 -66q-48 -33 -106 -33z" />
    <glyph glyph-name="tilde" unicode="&#x2dc;" 
d="M220 575q20 71 56.5 107t83.5 36q27 0 57 -26t41 -26q32 0 52 52h75q-20 -70 -56.5 -106.5t-83.5 -36.5q-28 0 -58 26.5t-41 26.5q-31 0 -51 -53h-75z" />
    <glyph glyph-name="hungarumlaut" unicode="&#x2dd;" 
d="M266 573l92 151h117l-119 -151h-90zM436 573l93 151h117l-119 -151h-91z" />
    <glyph glyph-name="gravecomb" unicode="&#x300;" horiz-adv-x="0" 
d="M-234 574l-106 167h150l63 -167h-107z" />
    <glyph glyph-name="acutecomb" unicode="&#x301;" horiz-adv-x="0" 
d="M-291 574l115 167h150l-158 -167h-107z" />
    <glyph glyph-name="uni0302" unicode="&#x302;" horiz-adv-x="0" 
d="M-371 574l126 167h124l74 -167h-107l-38 95h-4l-68 -95h-107z" />
    <glyph glyph-name="tildecomb" unicode="&#x303;" horiz-adv-x="0" 
d="M-380 575q20 71 56.5 107t83.5 36q27 0 57 -26t41 -26q32 0 52 52h75q-20 -70 -56.5 -106.5t-83.5 -36.5q-28 0 -58 26.5t-41 26.5q-31 0 -51 -53h-75z" />
    <glyph glyph-name="uni0304" unicode="&#x304;" horiz-adv-x="0" 
d="M-344 592l14 93h276l-14 -93h-276z" />
    <glyph glyph-name="uni0306" unicode="&#x306;" horiz-adv-x="0" 
d="M-209 574q-70 0 -100.5 45t-21.5 111h82q-2 -34 11 -54.5t42 -20.5q56 0 77 75h82q-12 -66 -57 -111t-115 -45z" />
    <glyph glyph-name="uni0307" unicode="&#x307;" horiz-adv-x="0" 
d="M-207 586q-39 0 -62.5 22.5t-23.5 60.5q0 50 34 83.5t83 33.5q39 0 62.5 -24t23.5 -62q0 -51 -33.5 -82.5t-83.5 -31.5z" />
    <glyph glyph-name="uni0308" unicode="&#x308;" horiz-adv-x="0" 
d="M-319 571q-30 0 -48.5 19t-18.5 49q0 37 27 63t65 26q30 0 48.5 -19t18.5 -48q0 -38 -26.5 -64t-65.5 -26zM-101 571q-30 0 -48 19t-18 48q0 38 26.5 64t64.5 26q31 0 49.5 -19t18.5 -48q0 -37 -27.5 -63.5t-65.5 -26.5z" />
    <glyph glyph-name="uni030A" unicode="&#x30a;" horiz-adv-x="0" 
d="M-213 548q-45 0 -72 23.5t-27 63.5q0 52 37.5 84.5t93.5 32.5q45 0 71.5 -23.5t26.5 -63.5q0 -52 -37 -84.5t-93 -32.5zM-204 603q19 0 34 16t15 39q0 17 -9.5 28t-25.5 11q-20 0 -34.5 -15.5t-14.5 -39.5q0 -17 9.5 -28t25.5 -11z" />
    <glyph glyph-name="uni030B" unicode="&#x30b;" horiz-adv-x="0" 
d="M-334 573l92 151h117l-119 -151h-90zM-164 573l93 151h117l-119 -151h-91z" />
    <glyph glyph-name="uni030C" unicode="&#x30c;" horiz-adv-x="0" 
d="M-271 574l-74 167h107l38 -96h4l68 96h107l-126 -167h-124z" />
    <glyph glyph-name="uni0327" unicode="&#x327;" horiz-adv-x="0" 
d="M-425 -221l-2 59q90 9 90 48q0 25 -52 38l53 80h86l-28 -47q48 -17 48 -62q0 -55 -55.5 -83.5t-139.5 -32.5z" />
    <glyph glyph-name="uni0328" unicode="&#x328;" horiz-adv-x="0" 
d="M-313 -210q-42 0 -67.5 20.5t-25.5 57.5q0 43 28.5 78t61.5 56h83q-68 -48 -68 -93q0 -32 37 -32q16 0 36 12l21 -66q-48 -33 -106 -33z" />
    <glyph glyph-name="pi" unicode="&#x3c0;" 
d="M507 -12q-125 0 -125 129q0 22 7.5 67t20 110t18.5 100h-119q-25 -159 -78 -403l-146 9q56 196 87 394h-96l18 110l75 6h498l-19 -116h-80q-16 -69 -30.5 -154.5t-14.5 -98.5q0 -34 38 -34q2 0 24 4v-108q-34 -15 -78 -15z" />
    <glyph glyph-name="uni1E20" unicode="&#x1e20;" 
d="M304 728l15 93h283l-15 -93h-283zM341 -12q-113 0 -182.5 72t-69.5 203q0 184 106 296.5t256 112.5q108 0 178 -84l-95 -91q-41 48 -103 48q-78 0 -133 -75t-55 -194q0 -77 31.5 -119t94.5 -42q43 0 68 21l18 114h-95l19 120h227l-48 -302q-41 -34 -99.5 -57t-117.5 -23z
" />
    <glyph glyph-name="uni1E21" unicode="&#x1e21;" 
d="M256 592l14 93h276l-14 -93h-276zM236 -217q-116 0 -182 63l64 100q54 -48 136 -48q51 0 87 27t43 60l16 83q-63 -55 -142 -55q-80 0 -127 56.5t-47 148.5q0 131 79.5 218t181.5 87q77 0 124 -66h4l21 53h115l-81 -510q-17 -104 -91.5 -160.5t-200.5 -56.5zM315 131
q50 0 95 51l29 185q-32 36 -79 36t-86 -46.5t-39 -120.5q0 -50 21.5 -77.5t58.5 -27.5z" />
    <glyph glyph-name="uni1E44" unicode="&#x1e44;" 
d="M418 709q-33 0 -53.5 19t-20.5 48q0 37 29 62t70 25q33 0 53.5 -19t20.5 -48q0 -37 -29 -62t-70 -25zM66 0l104 659h150l86 -331l33 -144h4q1 13 3.5 69.5t5.5 95.5t8 74l37 236h141l-104 -659h-150l-86 331l-33 143h-4q-1 -17 -2.5 -55.5t-3 -63t-4.5 -58.5t-7 -61
l-37 -236h-141z" />
    <glyph glyph-name="uni1E45" unicode="&#x1e45;" 
d="M403 586q-39 0 -62.5 22.5t-23.5 60.5q0 50 34 83.5t83 33.5q39 0 62.5 -24t23.5 -62q0 -51 -33.5 -82.5t-83.5 -31.5zM72 0l81 510h120v-69h4q93 82 184 82q161 0 129 -208l-50 -315h-147l47 296q8 54 -4.5 78t-52.5 24q-28 0 -52 -13.5t-58 -43.5l-54 -341h-147z" />
    <glyph glyph-name="uni1E60" unicode="&#x1e60;" 
d="M419 709q-33 0 -53.5 19t-20.5 48q0 37 29 62t70 25q34 0 54 -18.5t20 -47.5q0 -38 -28.5 -63t-70.5 -25zM296 -12q-143 0 -233 95l101 101q72 -69 156 -69q55 0 82 19.5t27 53.5q0 17 -12.5 30t-27 20t-49.5 21l-78 37q-50 20 -81.5 59t-31.5 96q0 92 79 156t193 64
q128 0 203 -87l-89 -93q-62 53 -134 53q-47 0 -73.5 -18t-26.5 -49q0 -17 14 -30.5t30 -21t51 -20.5l74 -35q114 -46 114 -151q0 -95 -79.5 -163t-208.5 -68z" />
    <glyph glyph-name="uni1E61" unicode="&#x1e61;" 
d="M406 586q-39 0 -62.5 22.5t-23.5 60.5q0 50 34 83.5t83 33.5q39 0 62.5 -24t23.5 -62q0 -51 -33.5 -82.5t-83.5 -31.5zM294 -12q-128 0 -231 78l81 92q84 -61 170 -61q103 0 103 49q0 20 -29.5 35t-92.5 34q-155 46 -155 136q0 75 70.5 123.5t185.5 48.5q106 0 203 -70
l-80 -88q-70 48 -138 48q-93 0 -93 -45q0 -20 28.5 -33.5t88.5 -30.5q75 -22 118 -53.5t43 -83.5q0 -76 -73 -127.5t-199 -51.5z" />
    <glyph glyph-name="Wgrave" unicode="&#x1e80;" 
d="M370 709l-101 121h156l62 -121h-117zM91 0l17 659h150l-34 -352q-4 -26 -11.5 -82t-11.5 -86h3q11 31 32.5 88.5t29.5 79.5l74 184h89l14 -184q0 -26 3 -82.5t4 -85.5h4q3 17 14.5 77t17.5 91l75 352h139l-185 -659h-154l-8 209q-3 60 2 126h-3q-14 -55 -38 -126
l-72 -209h-151z" />
    <glyph glyph-name="wgrave" unicode="&#x1e81;" 
d="M403 574l-106 167h150l63 -167h-107zM86 0l-1 510h143l-7 -240q-1 -16 -3.5 -69t-3.5 -82h3q16 57 47 151l59 175h103l5 -175q1 -75 0 -151h4q8 28 21 79t19 72l68 240h134l-158 -510h-170v176q0 58 5 150h-4q-23 -89 -42 -150l-55 -176h-167z" />
    <glyph glyph-name="Wacute" unicode="&#x1e82;" 
d="M337 709l100 121h156l-139 -121h-117zM91 0l17 659h150l-34 -352q-4 -26 -11.5 -82t-11.5 -86h3q11 31 32.5 88.5t29.5 79.5l74 184h89l14 -184q0 -26 3 -82.5t4 -85.5h4q3 17 14.5 77t17.5 91l75 352h139l-185 -659h-154l-8 209q-3 60 2 126h-3q-14 -55 -38 -126
l-72 -209h-151z" />
    <glyph glyph-name="wacute" unicode="&#x1e83;" 
d="M271 574l115 167h150l-158 -167h-107zM86 0l-1 510h143l-7 -240q-1 -16 -3.5 -69t-3.5 -82h3q16 57 47 151l59 175h103l5 -175q1 -75 0 -151h4q8 28 21 79t19 72l68 240h134l-158 -510h-170v176q0 58 5 150h-4q-23 -89 -42 -150l-55 -176h-167z" />
    <glyph glyph-name="Wdieresis" unicode="&#x1e84;" 
d="M313 708q-27 0 -43.5 16.5t-16.5 43.5q0 34 24 57t58 23q27 0 43.5 -16.5t16.5 -43.5q0 -34 -23.5 -57t-58.5 -23zM511 708q-27 0 -43.5 16.5t-16.5 43.5q0 34 24 57t58 23q27 0 43.5 -16.5t16.5 -43.5q0 -34 -23.5 -57t-58.5 -23zM91 0l17 659h150l-34 -352
q-4 -26 -11.5 -82t-11.5 -86h3q11 31 32.5 88.5t29.5 79.5l74 184h89l14 -184q0 -26 3 -82.5t4 -85.5h4q2 11 13.5 73.5t18.5 94.5l75 352h139l-185 -659h-154l-8 209q-3 61 2 126h-3q-15 -59 -38 -126l-72 -209h-151z" />
    <glyph glyph-name="wdieresis" unicode="&#x1e85;" 
d="M281 571q-30 0 -48.5 19t-18.5 49q0 37 27 63t65 26q30 0 48.5 -19t18.5 -48q0 -38 -26.5 -64t-65.5 -26zM499 571q-30 0 -48 19t-18 48q0 38 26.5 64t64.5 26q31 0 49.5 -19t18.5 -48q0 -37 -27.5 -63.5t-65.5 -26.5zM86 0l-1 510h143l-7 -240q-1 -16 -3.5 -69t-3.5 -82
h3q16 57 47 151l59 175h103l5 -175q1 -75 0 -151h4q8 28 21 79t19 72l68 240h134l-158 -510h-170v176q0 58 5 150h-4q-23 -89 -42 -150l-55 -176h-167z" />
    <glyph glyph-name="uni1E8E" unicode="&#x1e8e;" 
d="M412 709q-33 0 -53.5 19t-20.5 48q0 37 29 62t70 25q33 0 53.5 -19t20.5 -48q0 -37 -29 -62t-70 -25zM226 0l35 223l-141 436h159l40 -160q18 -67 35 -150h4q14 25 42 74.5t43 75.5l92 160h153l-279 -436l-35 -223h-148z" />
    <glyph glyph-name="uni1E8F" unicode="&#x1e8f;" 
d="M403 586q-39 0 -62.5 22.5t-23.5 60.5q0 50 34 83.5t83 33.5q39 0 62.5 -24t23.5 -62q0 -51 -33.5 -82.5t-83.5 -31.5zM109 -217q-42 0 -75 10l44 112q18 -6 38 -6q38 0 66 23t43 49l23 41l-136 498h145l48 -223q16 -76 26 -153h4q24 57 70 153l108 223h139l-282 -534
q-53 -100 -112 -146.5t-149 -46.5z" />
    <glyph glyph-name="uni1E97" unicode="&#x1e97;" 
d="M384 395l-29 -183q-9 -58 11.5 -83.5t74.5 -25.5q50 0 102 19l10 -106q-94 -28 -167 -28q-214 0 -179 223l29 184h-124l18 115h132l24 150l112 45q-6 13 -6 30q0 38 26.5 64t64.5 26q31 0 49.5 -19t18.5 -48q0 -37 -27.5 -63.5t-65.5 -26.5q-16 0 -30 6l-26 -164h210
l-18 -115h-210zM240 668q-30 0 -48.5 19t-18.5 49q0 37 27 63t65 26q30 0 48.5 -19t18.5 -48q0 -38 -26.5 -64t-65.5 -26z" />
    <glyph glyph-name="uni1E9E" unicode="&#x1e9e;" 
d="M392 -12q-100 0 -143 65l90 89q26 -35 52 -35q19 0 34.5 26t15.5 57q0 62 -88 89l4 86l95 128q-5 26 -21 43t-43 17q-86 0 -105 -126l-68 -427h-151l71 447q16 101 84.5 163t190.5 62q85 0 135 -50t52 -134l-92 -125q91 -51 91 -154q0 -92 -54 -156.5t-150 -64.5z" />
    <glyph glyph-name="uni1EBC" unicode="&#x1ebc;" 
d="M264 711q18 66 53 101.5t76 35.5q29 0 64.5 -23t47.5 -23q30 0 46 46h75q-18 -67 -53 -102t-76 -35q-29 0 -64.5 23t-47.5 23q-29 0 -46 -46h-75zM94 0l104 659h430l-19 -124h-283l-21 -134h240l-20 -123h-240l-24 -154h293l-20 -124h-440z" />
    <glyph glyph-name="uni1EBD" unicode="&#x1ebd;" 
d="M233 575q20 71 56.5 107t83.5 36q27 0 57 -26t41 -26q32 0 52 52h75q-20 -70 -56.5 -106.5t-83.5 -36.5q-28 0 -58 26.5t-41 26.5q-31 0 -51 -53h-75zM328 -12q-106 0 -171.5 60t-65.5 165q0 92 46.5 164.5t115 109t143.5 36.5q96 0 147 -56t51 -146q0 -37 -20 -109h-334
q-2 -56 33 -84t93 -28q62 0 134 36l33 -89q-100 -59 -205 -59zM253 310h209q8 47 -12 73.5t-69 26.5q-42 0 -76.5 -25.5t-51.5 -74.5z" />
    <glyph glyph-name="Ygrave" unicode="&#x1ef2;" 
d="M370 709l-101 121h156l62 -121h-117zM226 0l35 223l-141 436h159l40 -160q18 -67 35 -150h4q14 25 42 74.5t43 75.5l92 160h153l-279 -436l-35 -223h-148z" />
    <glyph glyph-name="ygrave" unicode="&#x1ef3;" 
d="M413 574l-106 167h150l63 -167h-107zM109 -217q-42 0 -75 10l44 112q18 -6 38 -6q38 0 66 23t43 49l23 41l-136 498h145l48 -223q16 -76 26 -153h4q24 57 70 153l108 223h139l-282 -534q-53 -100 -112 -146.5t-149 -46.5z" />
    <glyph glyph-name="uni1EF8" unicode="&#x1ef8;" 
d="M243 711q17 66 52 101.5t76 35.5q30 0 65 -23t48 -23q29 0 45 46h75q-17 -66 -52 -101.5t-76 -35.5q-30 0 -65 23t-48 23q-28 0 -45 -46h-75zM226 0l35 223l-141 436h159l40 -160q18 -67 35 -150h4q14 25 42 74.5t43 75.5l92 160h153l-279 -436l-35 -223h-148z" />
    <glyph glyph-name="uni1EF9" unicode="&#x1ef9;" 
d="M230 593q20 71 56.5 107.5t83.5 36.5q27 0 57 -26.5t41 -26.5q31 0 52 53h75q-20 -71 -56.5 -107.5t-83.5 -36.5q-28 0 -58 27t-41 27q-16 0 -28 -12t-23 -42h-75zM112 -196q-41 0 -74 10l43 112q19 -6 38 -6q72 0 115 70l14 22l-136 498h145l48 -223q16 -76 26 -153h4
q24 57 70 153l108 223h139l-277 -513q-54 -100 -113.5 -146.5t-149.5 -46.5z" />
    <glyph glyph-name="uni2007" unicode="&#x2007;" 
 />
    <glyph glyph-name="endash" unicode="&#x2013;" 
d="M112 199l17 111h440l-17 -111h-440z" />
    <glyph glyph-name="emdash" unicode="&#x2014;" 
d="M52 199l17 111h560l-17 -111h-560z" />
    <glyph glyph-name="quoteleft" unicode="&#x2018;" 
d="M347 290q-46 0 -71 32t-25 90q0 193 218 285l26 -78q-112 -48 -134 -140q11 3 21 3q36 0 57 -21t21 -56q0 -50 -32.5 -82.5t-80.5 -32.5z" />
    <glyph glyph-name="quoteright" unicode="&#x2019;" 
d="M287 290l-27 78q112 47 134 139q-11 -3 -20 -3q-36 0 -57.5 21.5t-21.5 56.5q0 49 33 82t80 33t71.5 -32t24.5 -90q0 -193 -217 -285z" />
    <glyph glyph-name="quotesinglbase" unicode="&#x201a;" 
d="M204 -231l-26 77q112 48 134 139q-16 -2 -21 -2q-36 0 -57.5 21.5t-21.5 56.5q0 49 33.5 82t80.5 33q46 0 70.5 -32t24.5 -90q0 -194 -217 -285z" />
    <glyph glyph-name="quotedblleft" unicode="&#x201c;" 
d="M214 290q-46 0 -71 32t-25 90q0 193 218 285l26 -78q-112 -48 -134 -140q10 3 21 3q36 0 57 -21t21 -56q0 -50 -32.5 -82.5t-80.5 -32.5zM480 290q-46 0 -71 32t-25 90q0 193 218 285l26 -78q-112 -48 -134 -140q10 3 21 3q36 0 57 -21t21 -56q0 -50 -32.5 -82.5
t-80.5 -32.5z" />
    <glyph glyph-name="quotedblright" unicode="&#x201d;" 
d="M154 290l-27 78q112 47 134 138q-14 -2 -20 -2q-36 0 -57.5 21.5t-21.5 56.5q0 49 33 82t80 33t71.5 -32t24.5 -90q0 -193 -217 -285zM420 290l-27 78q112 47 134 139q-12 -3 -21 -3q-35 0 -56.5 21.5t-21.5 56.5q0 49 33 82t80 33t71.5 -32t24.5 -90q0 -193 -217 -285z
" />
    <glyph glyph-name="quotedblbase" unicode="&#x201e;" 
d="M71 -231l-26 77q113 49 133 139q-14 -2 -20 -2q-36 0 -57.5 21.5t-21.5 56.5q0 49 33.5 82t80.5 33q46 0 70.5 -32t24.5 -90q0 -194 -217 -285zM337 -231l-26 77q112 49 134 140q-13 -3 -22 -3q-35 0 -56.5 21.5t-21.5 56.5q0 49 33.5 82t80.5 33q46 0 70.5 -32t24.5 -90
q0 -194 -217 -285z" />
    <glyph glyph-name="dagger" unicode="&#x2020;" 
d="M228 -80l91 518l-162 -8l19 118l159 -9l19 173h118l-37 -173l163 9l-19 -118l-160 8l-73 -518h-118z" />
    <glyph glyph-name="daggerdbl" unicode="&#x2021;" 
d="M228 -80l37 173l-163 -9l19 118l159 -12l11 126l29 126l-163 -12l19 118l159 -9l19 173h118l-37 -173l163 9l-19 -118l-159 12l-11 -126l-29 -126l163 12l-19 -118l-159 9l-19 -173h-118z" />
    <glyph glyph-name="bullet" unicode="&#x2022;" 
d="M316 101q-62 0 -101.5 39.5t-39.5 99.5q0 76 57 129.5t135 53.5q63 0 102 -39.5t39 -99.5q0 -76 -57 -129.5t-135 -53.5z" />
    <glyph glyph-name="ellipsis" unicode="&#x2026;" 
d="M89 -12q-36 0 -57 23t-21 58q0 46 31.5 78.5t77.5 32.5q36 0 57 -23t21 -58q0 -46 -31 -78.5t-78 -32.5zM298 -12q-36 0 -57 23t-21 58q0 46 31.5 78.5t77.5 32.5q35 0 56.5 -23t21.5 -58q0 -46 -31.5 -78.5t-77.5 -32.5zM507 -12q-36 0 -57 23t-21 58q0 46 31 78.5
t78 32.5q35 0 56.5 -23t21.5 -58q0 -46 -31.5 -78.5t-77.5 -32.5z" />
    <glyph glyph-name="perthousand" unicode="&#x2030;" 
d="M219 388q-48 0 -78 30.5t-30 80.5q0 67 43.5 107.5t105.5 40.5q50 0 80 -28.5t30 -78.5q0 -66 -44 -109t-107 -43zM229 451q24 0 40.5 21.5t16.5 65.5q0 47 -35 47q-56 0 -56 -84q0 -50 34 -50zM155 271l-12 44l482 198l23 -94zM156 -12q-48 0 -78 30.5t-30 80.5
q0 67 43 107.5t106 40.5q49 0 79.5 -28.5t30.5 -78.5q0 -66 -44 -109t-107 -43zM441 -12q-48 0 -78.5 30.5t-30.5 81.5q0 66 44 106.5t106 40.5q49 0 79.5 -28.5t30.5 -78.5q0 -66 -44 -109t-107 -43zM166 50q23 0 40 22t17 66q0 46 -36 46q-55 0 -55 -83q0 -51 34 -51z
M451 50q23 0 40 22t17 66q0 46 -36 46q-55 0 -55 -84q0 -50 34 -50z" />
    <glyph glyph-name="minute" unicode="&#x2032;" 
d="M285 355l75 331h147l-49 -145l-77 -186h-96z" />
    <glyph glyph-name="second" unicode="&#x2033;" 
d="M167 355l75 331h146l-48 -145l-77 -186h-96zM404 355l74 331h147l-48 -145l-77 -186h-96z" />
    <glyph glyph-name="guilsinglleft" unicode="&#x2039;" 
d="M350 25l-147 154l23 146l196 154l53 -55l-154 -172l100 -172z" />
    <glyph glyph-name="guilsinglright" unicode="&#x203a;" 
d="M258 25l-53 55l154 172l-100 172l71 55l146 -154l-23 -146z" />
    <glyph glyph-name="fraction" unicode="&#x2044;" 
d="M457 377l-44 48l194 199l63 -73zM96 28l-63 73l213 173l44 -47z" />
    <glyph glyph-name="colonmonetary" unicode="&#x20a1;" 
d="M212 -110l33 121q-58 27 -90.5 89t-32.5 150q0 161 82.5 266t216.5 126l28 103h50l-28 -98h8q10 0 32 -2l28 100h50l-31 -113q54 -21 87 -63l-93 -79q-13 11 -28 22l-113 -408q51 9 96 52l69 -76q-92 -84 -197 -91l-27 -99h-50l27 99l-38 6l-29 -105h-50zM361 104
l118 426q-13 3 -28 3h-11l-115 -415q14 -9 36 -14zM288 162l98 355q-55 -29 -85 -97t-30 -157q0 -68 17 -101z" />
    <glyph glyph-name="lira" unicode="&#x20a4;" 
d="M67 0l14 91q49 18 85 50.5t51 75.5h-112l11 69l80 5h28q-1 8 -8 48h-91l11 69l67 5v10q0 97 75.5 160.5t186.5 63.5q113 0 174 -81l-92 -80q-34 42 -86 42q-105 0 -118 -94q-2 -14 -2 -20h181l-12 -75h-162q0 -8 2 -24l3 -24h149l-12 -74h-146q-14 -47 -66 -89v-4h292
l-20 -124h-483z" />
    <glyph glyph-name="peseta" unicode="&#x20a7;" 
d="M89 0l60 380h-68l14 85l68 5l27 165h183q96 0 153 -39t58 -125h62l-15 -91h-61q-27 -82 -99 -123.5t-165 -41.5h-44l-34 -215h-139zM303 471h142q-7 72 -97 72h-34zM277 307h34q87 0 120 73h-143z" />
    <glyph glyph-name="dong" unicode="&#x20ab;" 
d="M280 116q-68 0 -106 40t-38 113q0 97 64.5 156.5t142.5 59.5q61 0 101 -39l6 67l3 15h-154l11 74h154l8 49h121l-8 -49h72l-10 -68l-73 -6l-64 -402h-100l-3 36h-3q-56 -46 -124 -46zM326 213q42 0 82 36l18 111q-29 26 -69 26q-37 0 -66.5 -27.5t-29.5 -74.5
q0 -71 65 -71zM104 0l12 74h419l-12 -74h-419z" />
    <glyph glyph-name="Euro" unicode="&#x20ac;" 
d="M379 -12q-103 0 -166.5 58.5t-69.5 168.5h-64l11 69l56 4q0 5 1.5 15t1.5 11q2 16 5 26h-55l11 68l64 5q42 111 127 172.5t193 61.5q107 0 171 -78l-93 -79q-46 43 -101 43q-100 0 -149 -119h253l-12 -74h-263l-3 -21q0 -4 -2 -14t-2 -15h222l-12 -75h-210
q14 -113 113 -113q64 0 121 54l69 -76q-100 -92 -217 -92z" />
    <glyph glyph-name="uni20B1" unicode="&#x20b1;" 
d="M89 0l55 346h-67l8 52l68 5l7 46h-67l8 52l68 5l21 129h183q182 0 207 -128h71l-9 -58h-59q0 -4 -0.5 -8.5t-1.5 -10t-1 -8.5q-2 -12 -4 -18h59l-9 -58h-70q-34 -65 -101 -98t-149 -33h-44l-34 -215h-139zM308 507h125q-22 36 -85 36h-34zM292 404h147q2 6 4 18
q2 20 2 27h-146zM277 307h34q62 0 98 39h-126z" />
    <glyph glyph-name="uni20B9" unicode="&#x20b9;" 
d="M338 0l-132 201h-86l18 117h74q116 0 152 71h-214l10 68l82 6h131q-13 55 -129 55h-74l19 117h435l-12 -74h-149q53 -37 57 -98h76l-11 -74h-74q-35 -121 -162 -165l152 -224h-163z" />
    <glyph glyph-name="uni20BA" unicode="&#x20ba;" 
d="M119 -12l37 232l-92 -41l13 81l92 41l8 55l-91 -41l13 81l91 41l32 198h147l-20 -126l172 77l-13 -81l-172 -77l-9 -55l172 77l-13 -81l-172 -77l-26 -167q72 7 126 47t54 96q0 11 -1 16l125 28q2 -20 2 -32q0 -140 -128 -219t-347 -73z" />
    <glyph glyph-name="uni2113" unicode="&#x2113;" 
d="M368 -12q-71 0 -118 38t-52 109q-9 -6 -26.5 -15.5t-24.5 -13.5l-41 90q72 40 107 61l35 220q19 121 80 182t146 61q64 0 100.5 -37.5t36.5 -102.5q0 -98 -58.5 -178t-200.5 -175l-4 -25q-8 -47 10 -69.5t52 -22.5q43 0 100 44l40 -89q-99 -77 -182 -77zM374 366
q118 99 118 201q0 46 -30 46q-48 0 -67 -116z" />
    <glyph glyph-name="uni2117" unicode="&#x2117;" horiz-adv-x="659" 
d="M329 -9q-122 0 -202.5 77.5t-80.5 206.5q0 113 56.5 201.5t144 133.5t187.5 45q122 0 201.5 -76t79.5 -204q0 -113 -56 -202.5t-143.5 -135.5t-186.5 -46zM338 52q126 0 218 89.5t92 225.5q0 103 -62.5 165.5t-161.5 62.5q-127 0 -218 -88t-91 -224q0 -104 62 -167.5
t161 -63.5zM216 139l58 365h145q153 0 153 -110q0 -79 -57 -121.5t-140 -42.5h-39l-14 -91h-106zM348 306h31q88 0 88 73q0 46 -69 46h-31z" />
    <glyph glyph-name="uni2120" unicode="&#x2120;" 
d="M162 350q-60 0 -108 49l60 60q33 -37 67 -37q33 0 33 25q0 9 -5.5 13.5t-24.5 14.5l-38 21q-48 25 -48 76q0 48 37.5 81.5t97.5 33.5q58 0 102 -40l-53 -61q-40 28 -63 28q-32 0 -32 -25q0 -8 6.5 -12.5t23.5 -13.5l38 -20q50 -26 50 -73q0 -49 -41 -84.5t-102 -35.5z
M332 362l50 314h103l19 -94l10 -71h4l31 71l49 94h103l-50 -314h-84l16 96l29 115h-4l-77 -148h-58l-30 148h-4l-7 -115l-16 -96h-84z" />
    <glyph glyph-name="trademark" unicode="&#x2122;" 
d="M123 362l36 227h-79l14 87h253l-14 -87h-78l-36 -227h-96zM332 362l50 314h103l19 -94l10 -71h4l31 71l49 94h103l-50 -314h-84l16 96l29 115h-4l-77 -148h-58l-30 148h-4l-7 -115l-16 -96h-84z" />
    <glyph glyph-name="uni2126" unicode="&#x2126;" 
d="M12 0l19 119h108v4q-59 76 -59 191q0 149 92.5 249.5t232.5 100.5q106 0 167.5 -69.5t61.5 -182.5q0 -94 -40 -167.5t-95 -121.5v-4h108l-19 -119h-244l17 106q119 117 119 286q0 66 -24 105.5t-71 39.5q-71 0 -115 -73.5t-44 -186.5q0 -105 47 -171l-17 -106h-244z" />
    <glyph glyph-name="estimated" unicode="&#x212e;" 
d="M298 -12q-99 0 -162.5 81.5t-63.5 201.5q0 155 102 272t231 117q110 0 169.5 -95.5t50.5 -240.5l-1 -8h-414q-5 0 -5 -4l-35 -224q-1 -8 5 -20q44 -60 128 -60q106 0 200 112h38q-111 -132 -243 -132zM213 334h280q5 0 7 6l35 224q2 13 -6 22q-46 54 -126 54
q-83 0 -147 -58q-9 -11 -11 -22l-35 -220q-2 -6 3 -6z" />
    <glyph glyph-name="uni2153" unicode="&#x2153;" 
d="M201 324l34 212h-81l10 64q61 7 111 35h83l-50 -311h-107zM457 377l-44 48l194 199l63 -73zM428 -12q-81 0 -130 42l52 66q35 -29 78 -29q47 0 47 33q0 31 -68 31l8 55q66 0 66 36q0 23 -34 23q-24 0 -70 -25l-33 62q60 42 139 42q45 0 75 -22t30 -57q0 -30 -12.5 -49
t-53.5 -32q56 -15 56 -64q0 -48 -45 -80t-105 -32zM96 28l-63 73l213 173l44 -47z" />
    <glyph glyph-name="uni2154" unicode="&#x2154;" 
d="M95 324l9 55q170 101 170 148q0 35 -39 35q-28 0 -61 -35l-52 55q72 65 143 65q54 0 84.5 -24.5t30.5 -67.5q0 -38 -27 -71.5t-76 -73.5h92l-14 -86h-260zM457 377l-44 48l194 199l63 -73zM428 -12q-81 0 -130 42l52 66q35 -29 78 -29q47 0 47 33q0 31 -68 31l8 55
q66 0 66 36q0 23 -34 23q-24 0 -70 -25l-33 62q60 42 139 42q45 0 75 -22t30 -57q0 -30 -12.5 -49t-53.5 -32q56 -15 56 -64q0 -48 -45 -80t-105 -32zM96 28l-63 73l213 173l44 -47z" />
    <glyph glyph-name="arrowleft" unicode="&#x2190;" 
d="M291 -17l-278 267v4l278 267l70 -79l-150 -132h357v-116h-357l150 -132z" />
    <glyph glyph-name="arrowup" unicode="&#x2191;" 
d="M242 -26v358l-132 -150l-79 69l267 278h4l267 -278l-79 -69l-132 150v-358h-116z" />
    <glyph glyph-name="arrowright" unicode="&#x2192;" 
d="M308 -17l-69 79l150 132h-358v116h358l-150 132l69 79l278 -267v-4z" />
    <glyph glyph-name="arrowdown" unicode="&#x2193;" 
d="M298 -26l-267 278l79 70l132 -150v357h116v-357l132 150l79 -70l-267 -278h-4z" />
    <glyph glyph-name="partialdiff" unicode="&#x2202;" 
d="M254 -12q-73 0 -120.5 46t-47.5 121q0 111 74 186.5t180 75.5q77 0 118 -61l3 17q31 180 -81 180q-54 0 -110 -45l-49 90q96 74 193 74q95 0 144 -62.5t49 -171.5q0 -192 -103 -321t-250 -129zM289 107q91 0 141 138q-29 60 -90 60q-50 0 -83 -34t-33 -93
q0 -34 18.5 -52.5t46.5 -18.5z" />
    <glyph glyph-name="uni2206" unicode="&#x2206;" 
d="M14 0l14 89l287 563h177l108 -563l-14 -89h-572zM192 124h253l-35 220l-26 195h-4l-86 -195z" />
    <glyph glyph-name="product" unicode="&#x220f;" 
d="M6 -120l120 755h550l-120 -755h-147l99 627h-256l-99 -627h-147z" />
    <glyph glyph-name="summation" unicode="&#x2211;" 
d="M40 -120l14 87l252 290l-150 291l14 87h465l-20 -124h-286l-1 -4l128 -250l-214 -249v-4h317l-20 -124h-499z" />
    <glyph glyph-name="minus" unicode="&#x2212;" 
d="M114 278l17 104h460l-17 -104h-460z" />
    <glyph glyph-name="uni2215" unicode="&#x2215;" 
d="M457 377l-44 48l194 199l63 -73zM96 28l-63 73l213 173l44 -47z" />
    <glyph glyph-name="uni2219" unicode="&#x2219;" 
d="M336 236q-45 0 -72 28.5t-27 72.5q0 55 40 94.5t97 39.5q45 0 72 -28.5t27 -71.5q0 -56 -40 -95.5t-97 -39.5z" />
    <glyph glyph-name="radical" unicode="&#x221a;" 
d="M270 -80l-85 411l-78 -31l-16 69l186 71l52 -294q4 -26 8 -82h4q14 49 28 82l263 674h99l-359 -900h-102z" />
    <glyph glyph-name="infinity" unicode="&#x221e;" 
d="M461 121q-55 0 -91 24t-65 86h-4q-64 -84 -148 -84q-52 0 -85 42.5t-33 102.5q0 97 56 160t141 63q87 0 120 -84h4q81 100 178 100q60 0 98 -45t38 -116q0 -109 -61.5 -179t-147.5 -70zM475 257q37 0 61.5 28.5t24.5 67.5q0 33 -18 52t-49 19q-53 0 -110 -74
q16 -48 37 -70.5t54 -22.5zM191 254q47 0 82 58q-19 67 -67 67q-28 0 -45 -20t-17 -49q0 -23 12.5 -39.5t34.5 -16.5z" />
    <glyph glyph-name="integral" unicode="&#x222b;" 
d="M179 -158q-34 0 -56 8l31 106q20 -4 35 -4q38 0 55 29.5t29 103.5q12 76 17 226t18 233q9 57 23.5 98.5t39.5 77t66.5 53.5t98.5 18q33 0 56 -7l-32 -107q-11 4 -34 4q-38 0 -55 -29.5t-29 -103.5q-12 -75 -17.5 -225t-18.5 -234q-19 -120 -68.5 -183.5t-158.5 -63.5z
" />
    <glyph glyph-name="approxequal" unicode="&#x2248;" 
d="M196 351l-82 41q82 144 186 144q35 0 63.5 -19t51.5 -37.5t45 -18.5q45 0 86 81l81 -41q-80 -144 -185 -144q-28 0 -52.5 11.5t-38.5 26t-33 26t-37 11.5q-45 0 -85 -81zM159 118l-82 41q82 144 186 144q28 0 52 -11.5t38.5 -26t33 -26t36.5 -11.5q45 0 86 81l81 -41
q-80 -144 -185 -144q-35 0 -63.5 19t-51.5 37.5t-45 18.5q-46 0 -86 -81z" />
    <glyph glyph-name="notequal" unicode="&#x2260;" 
d="M94 40l91 122h-89l16 103h147l94 130h-220l16 103h277l91 122h93l-90 -122h89l-16 -103h-147l-94 -130h220l-16 -103h-277l-92 -122h-93z" />
    <glyph glyph-name="lessequal" unicode="&#x2264;" 
d="M554 154l-437 142l19 122l483 142l-19 -121l-180 -46l-144 -34l-1 -4l134 -34l165 -46zM70 0l16 104h460l-16 -104h-460z" />
    <glyph glyph-name="greaterequal" unicode="&#x2265;" 
d="M94 154l20 121l179 46l144 34l1 4l-134 34l-164 46l19 121l437 -142l-19 -122zM70 0l16 104h460l-16 -104h-460z" />
    <glyph glyph-name="filledbox" unicode="&#x25a0;" 
d="M182 142v241h236v-241h-236z" />
    <glyph glyph-name="triagup" unicode="&#x25b2;" 
d="M23 21v2l275 522h4l275 -522v-2h-554z" />
    <glyph glyph-name="uni25B3" unicode="&#x25b3;" 
d="M23 21v2l275 522h4l275 -522v-2h-554zM189 116h223l-112 223z" />
    <glyph glyph-name="uni25B6" unicode="&#x25b6;" 
d="M57 5v553h2l523 -274v-4l-523 -275h-2z" />
    <glyph glyph-name="uni25B7" unicode="&#x25b7;" 
d="M57 5v553h2l523 -274v-4l-523 -275h-2zM153 170l222 112l-222 111v-223z" />
    <glyph glyph-name="triagdn" unicode="&#x25bc;" 
d="M298 19l-275 522v2h554v-2l-275 -522h-4z" />
    <glyph glyph-name="uni25BD" unicode="&#x25bd;" 
d="M298 18l-275 523v2h554v-2l-275 -523h-4zM300 225l112 222h-223z" />
    <glyph glyph-name="uni25C0" unicode="&#x25c0;" 
d="M541 5l-523 275v4l523 274h2v-553h-2z" />
    <glyph glyph-name="uni25C1" unicode="&#x25c1;" 
d="M541 5l-523 275v4l523 274h2v-553h-2zM447 170v223l-222 -111z" />
    <glyph glyph-name="uni25C6" unicode="&#x25c6;" 
d="M300 98l-165 164l165 165l165 -165z" />
    <glyph glyph-name="uni25C9" unicode="&#x25c9;" 
d="M300 58q-86 0 -144 57.5t-58 146.5t58 147t144 58t144 -58t58 -147t-58 -146.5t-144 -57.5zM300 132q53 0 88.5 36.5t35.5 93.5q0 58 -35.5 94t-88.5 36t-88.5 -36t-35.5 -94q0 -57 35.5 -93.5t88.5 -36.5zM300 193q-28 0 -47 20t-19 49q0 30 19 50t47 20t47 -20t19 -50
q0 -29 -19 -49t-47 -20z" />
    <glyph glyph-name="lozenge" unicode="&#x25ca;" 
d="M240 -10l-162 340l162 340h120l162 -340l-162 -340h-120zM298 113h4l54 121l45 96l-45 96l-54 121h-4l-54 -121l-45 -96l45 -96z" />
    <glyph glyph-name="uni2610" unicode="&#x2610;" 
d="M-29 -10v620l74 65h584v-610l-65 -75h-593zM29 48h512v538h-512v-538z" />
    <glyph glyph-name="uni2611" unicode="&#x2611;" 
d="M-29 -10v620l74 65h458q51 74 112 138l90 -79q-43 -41 -76 -81v-588l-65 -75h-593zM29 48h512v485q-115 -179 -178 -409l-138 -16q-50 138 -140 272l93 61q55 -88 104 -223h4q55 190 160 368h-417v-538z" />
    <glyph glyph-name="uni2713" unicode="&#x2713;" 
d="M141 -20q-60 162 -157 299l93 61q71 -110 125 -250h4q54 179 140.5 337t187.5 261l90 -78q-235 -223 -345 -614z" />
    <glyph glyph-name="uni2752" unicode="&#x2752;" 
d="M147 102v254l66 57h240v-244l-56 -67h-250zM196 151h177v181h-177v-181z" />
    <glyph glyph-name="uniE0A0" unicode="&#xe0a0;" 
d="M36 301v756h192v-653zM36 -281v278q0 92 41 150.5t131 107.5l106 57q64 34 90 81.5t26 119.5v191h-145l203 197l203 -197h-145v-223q0 -101 -33 -163t-116 -107l-52 -29q-67 -37 -92 -75.5t-25 -109.5v-278h-192z" />
    <glyph glyph-name="uniE0A1" unicode="&#xe0a1;" 
d="M418 410h-352v520h108v-444h244v-76zM533 363v-520h-116l-171 338l14 -225v-113h-110v520h115l172 -339l-14 248v91h110z" />
    <glyph glyph-name="uniE0A2" unicode="&#xe0a2;" 
d="M116 -70q-99 0 -99 81v398q0 88 85 88v177q0 79 57 130.5t141 51.5q83 0 140.5 -51t57.5 -131v-177q85 0 85 -88v-398q0 -81 -99 -81h-368zM197 497h206v177q0 50 -28.5 78.5t-74.5 28.5q-47 0 -75 -29t-28 -78v-177zM261 66h78v187q47 19 47 64q0 31 -25.5 51.5
t-60.5 20.5t-60.5 -20.5t-25.5 -51.5q0 -45 47 -64v-187z" />
    <glyph glyph-name="uniE0B0" unicode="&#xe0b0;" 
d="M669 385l-738 -672v1344z" />
    <glyph glyph-name="uniE0B1" unicode="&#xe0b1;" 
d="M-42 1032l711 -647l-711 -647l-67 55l649 592l-649 592z" />
    <glyph glyph-name="uniE0B2" unicode="&#xe0b2;" 
d="M-69 385l738 672v-1344z" />
    <glyph glyph-name="uniE0B3" unicode="&#xe0b3;" 
d="M642 -262l-711 647l711 647l67 -55l-649 -592l649 -592z" />
    <glyph glyph-name="zero.alt" 
d="M298 -12q-93 0 -145.5 68.5t-52.5 193.5q0 195 85 308.5t221 113.5q94 0 146.5 -66.5t52.5 -191.5q0 -194 -86 -310t-221 -116zM316 102q70 0 114 78t44 230q0 148 -86 148q-70 0 -113.5 -75.5t-43.5 -229.5q0 -151 85 -151zM341 257q-29 0 -46.5 18t-17.5 48
q0 39 26 64.5t62 25.5q29 0 46.5 -18t17.5 -48q0 -39 -26 -64.5t-62 -25.5z" />
    <glyph glyph-name="four.alt" 
d="M341 0l25 160h-306l16 101l329 399h178l-62 -388h80l-18 -112h-80l-25 -160h-137zM220 272h164l19 120q6 43 28 142h-4q-15 -20 -45 -57.5t-42 -53.5z" />
    <glyph glyph-name="zero.subs" 
d="M271 -182q-56 0 -90 38t-34 102q0 87 51.5 141.5t125.5 54.5q57 0 91 -37t34 -100q0 -87 -52 -143t-126 -56zM284 -103q27 0 46 30t19 89t-37 59q-28 0 -46.5 -27.5t-18.5 -87.5q0 -63 37 -63z" />
    <glyph glyph-name="one.subs" 
d="M250 -170l34 212h-81l10 64q60 8 110 36h83l-49 -312h-107z" />
    <glyph glyph-name="two.subs" 
d="M145 -170l9 55q170 100 170 149q0 34 -38 34q-31 0 -61 -35l-53 56q72 65 143 65q54 0 85 -25t31 -68q0 -38 -27 -71t-77 -73h93l-14 -87h-261z" />
    <glyph glyph-name="three.subs" 
d="M272 -182q-80 0 -129 42l51 66q37 -29 78 -29q47 0 47 33q0 31 -68 31l9 55q66 0 66 35q0 24 -35 24q-24 0 -70 -25l-32 62q59 42 138 42q46 0 76 -22t30 -57q0 -30 -13.5 -49t-52.5 -32q55 -16 55 -64t-44.5 -80t-105.5 -32z" />
    <glyph glyph-name="four.subs" 
d="M294 -170l10 61h-160l8 51l151 200h134l-29 -185h51l-10 -66h-51l-10 -61h-94zM249 -43h65l4 22l21 99h-4l-43 -62z" />
    <glyph glyph-name="five.subs" 
d="M273 -182q-81 0 -130 42l51 66q39 -29 78 -29q21 0 35.5 10.5t14.5 29.5q0 31 -39 31q-25 0 -54 -16l-38 29l39 161h213l-13 -88h-133l-10 -35q17 6 44 6q44 0 69.5 -22t25.5 -60q0 -52 -45 -88.5t-108 -36.5z" />
    <glyph glyph-name="six.subs" 
d="M282 -182q-60 0 -93 37.5t-33 99.5q0 82 53 140.5t140 58.5q60 0 103 -41l-51 -61q-25 23 -56 23q-66 0 -88 -79q37 28 84 28q40 0 63 -20.5t23 -57.5q0 -53 -43 -90.5t-102 -37.5zM291 -103q19 0 29.5 10t10.5 27q0 26 -32 26q-23 0 -49 -18q3 -45 41 -45z" />
    <glyph glyph-name="seven.subs" 
d="M206 -170q14 64 42.5 113t83.5 112h-146l13 87h264l-8 -56q-64 -61 -91.5 -116t-45.5 -140h-112z" />
    <glyph glyph-name="eight.subs" 
d="M271 -182q-54 0 -87 23.5t-33 58.5q0 17 6 30.5t18.5 24t22.5 16.5t27 15v4q-15 11 -21.5 17t-13 18t-6.5 27q0 45 41.5 73.5t98.5 28.5q50 0 81.5 -22.5t31.5 -58.5q0 -28 -16 -44.5t-48 -30.5l-1 -4q24 -14 36.5 -29.5t12.5 -41.5q0 -44 -43.5 -74.5t-106.5 -30.5z
M317 24q24 14 24 36q0 24 -29 24q-14 0 -24 -7.5t-10 -19.5q0 -20 39 -33zM282 -114q19 0 32 9.5t13 22.5q0 24 -48 38q-33 -16 -33 -43q0 -12 10 -19.5t26 -7.5z" />
    <glyph glyph-name="nine.subs" 
d="M246 -182q-61 0 -102 41l50 60q24 -22 57 -22q66 0 87 78q-38 -27 -83 -27q-40 0 -63 20t-23 57q0 54 42.5 91.5t101.5 37.5q60 0 93.5 -37.5t33.5 -99.5q0 -82 -53.5 -140.5t-140.5 -58.5zM297 11q21 0 49 18q-4 46 -41 46q-19 0 -30 -10.5t-11 -27.5q0 -26 33 -26z" />
    <glyph glyph-name="zero.dnom" 
d="M298 -12q-56 0 -90 38t-34 102q0 87 51.5 141.5t125.5 54.5q57 0 91 -37t34 -100q0 -87 -52 -143t-126 -56zM311 67q27 0 46 30t19 89t-37 59q-28 0 -46.5 -27.5t-18.5 -87.5q0 -63 37 -63z" />
    <glyph glyph-name="one.dnom" 
d="M277 0l34 212h-81l10 64q60 8 110 36h83l-49 -312h-107z" />
    <glyph glyph-name="two.dnom" 
d="M171 0l9 55q169 101 169 149q0 34 -38 34q-29 0 -61 -35l-53 56q73 65 144 65q53 0 84 -25t31 -68q0 -26 -16.5 -53.5t-35.5 -46t-51 -44.5h92l-14 -87h-260z" />
    <glyph glyph-name="three.dnom" 
d="M299 -12q-80 0 -129 42l51 66q37 -29 78 -29q47 0 47 33q0 31 -68 31l8 55q67 0 67 35q0 24 -35 24q-24 0 -70 -25l-32 62q58 42 138 42q46 0 76 -22t30 -57q0 -30 -13.5 -49t-52.5 -32q55 -16 55 -64t-44.5 -80t-105.5 -32z" />
    <glyph glyph-name="four.dnom" 
d="M321 0l10 61h-160l8 51l151 200h134l-29 -185h51l-10 -66h-51l-10 -61h-94zM276 127h65l4 22l21 99h-4z" />
    <glyph glyph-name="five.dnom" 
d="M300 -12q-81 0 -130 42l51 66q39 -29 78 -29q21 0 35.5 10.5t14.5 29.5q0 31 -39 31q-25 0 -54 -16l-38 29l39 161h213l-14 -88h-133l-9 -35q16 6 44 6q44 0 69.5 -22t25.5 -60q0 -52 -45 -88.5t-108 -36.5z" />
    <glyph glyph-name="six.dnom" 
d="M310 -12q-60 0 -93.5 37.5t-33.5 99.5q0 81 53 140t141 59q59 0 103 -41l-52 -61q-25 23 -55 23q-68 0 -89 -80q39 29 84 29q41 0 63.5 -20.5t22.5 -57.5q0 -53 -42.5 -90.5t-101.5 -37.5zM318 67q18 0 29.5 10t11.5 27q0 26 -33 26q-25 0 -48 -19q1 -44 40 -44z" />
    <glyph glyph-name="seven.dnom" 
d="M233 0q14 64 42.5 113t83.5 112h-146l13 87h264l-8 -56q-64 -61 -91.5 -116t-45.5 -140h-112z" />
    <glyph glyph-name="eight.dnom" 
d="M298 -12q-54 0 -87 23.5t-33 58.5q0 17 6 30.5t18 24t22.5 17t27.5 14.5v4q-15 11 -21.5 17t-13 18t-6.5 27q0 45 41.5 73.5t98.5 28.5q50 0 81.5 -22.5t31.5 -58.5q0 -28 -16 -44.5t-48 -30.5l-1 -4q24 -14 36.5 -29.5t12.5 -41.5q0 -44 -43.5 -74.5t-106.5 -30.5z
M344 194q24 14 24 36q0 24 -29 24q-14 0 -24 -7.5t-10 -19.5q0 -20 39 -33zM309 56q19 0 32 9.5t13 22.5q0 24 -48 38q-33 -16 -33 -43q0 -12 10 -19.5t26 -7.5z" />
    <glyph glyph-name="nine.dnom" 
d="M273 -12q-61 0 -102 41l50 60q24 -22 57 -22q66 0 87 78q-38 -27 -83 -27q-40 0 -63 20t-23 57q0 54 42.5 91.5t101.5 37.5q60 0 93.5 -37.5t33.5 -99.5q0 -81 -53.5 -140t-140.5 -59zM324 181q21 0 49 18q-4 46 -41 46q-19 0 -30 -10.5t-11 -27.5q0 -26 33 -26z" />
    <glyph glyph-name="zero.numr" 
d="M349 312q-56 0 -90 38t-34 101q0 87 51.5 141.5t125.5 54.5q57 0 91 -37t34 -100q0 -86 -52 -142t-126 -56zM362 390q27 0 46 30t19 89t-37 59q-28 0 -46.5 -27.5t-18.5 -87.5q0 -63 37 -63z" />
    <glyph glyph-name="one.numr" 
d="M328 324l34 212h-81l10 64q59 7 111 35h83l-50 -311h-107z" />
    <glyph glyph-name="two.numr" 
d="M223 324l9 55q170 100 170 148q0 35 -38 35q-29 0 -61 -35l-53 55q72 65 143 65q54 0 85 -25t31 -68q0 -37 -27.5 -70.5t-76.5 -73.5h93l-14 -86h-261z" />
    <glyph glyph-name="three.numr" 
d="M350 312q-78 0 -129 41l51 66q37 -29 78 -29q20 0 33.5 8.5t13.5 24.5q0 31 -68 31l9 56q66 0 66 35q0 23 -35 23q-28 0 -70 -25l-32 63q58 41 138 41q46 0 76 -21.5t30 -56.5q0 -30 -13.5 -49.5t-52.5 -32.5q55 -16 55 -64t-44.5 -79.5t-105.5 -31.5z" />
    <glyph glyph-name="four.numr" 
d="M372 324l10 60h-160l8 52l152 199h134l-30 -185h51l-10 -66h-51l-10 -60h-94zM327 450h65l4 22l22 100h-4l-44 -62z" />
    <glyph glyph-name="five.numr" 
d="M351 312q-79 0 -130 41l51 66q39 -29 78 -29q21 0 35.5 11t14.5 30q0 31 -39 31q-23 0 -53 -16l-39 28l40 161h213l-14 -87h-133l-10 -36q19 7 44 7q44 0 69.5 -22t25.5 -60q0 -52 -45 -88.5t-108 -36.5z" />
    <glyph glyph-name="six.numr" 
d="M360 312q-60 0 -93 37t-33 100q0 81 53 139.5t140 58.5q62 0 103 -41l-51 -60q-22 22 -56 22q-66 0 -87 -78q37 27 83 27q40 0 63 -20t23 -57q0 -54 -42.5 -91t-102.5 -37zM369 390q19 0 30 10.5t11 27.5q0 26 -33 26q-21 0 -49 -18q3 -46 41 -46z" />
    <glyph glyph-name="seven.numr" 
d="M284 324q15 65 43 113t83 111h-146l14 87h264l-9 -55q-64 -61 -91.5 -116t-45.5 -140h-112z" />
    <glyph glyph-name="eight.numr" 
d="M349 312q-54 0 -87 23.5t-33 58.5q0 31 19.5 50t54.5 36l1 4q-15 11 -22 17t-13.5 17.5t-6.5 26.5q0 45 41.5 73.5t98.5 28.5q50 0 81.5 -22t31.5 -58q0 -29 -16 -45.5t-48 -30.5l-1 -4q49 -26 49 -71q0 -44 -43 -74t-107 -30zM395 517q24 15 24 36q0 24 -29 24
q-14 0 -24 -7.5t-10 -19.5q0 -20 39 -33zM360 380q19 0 32 9t13 22q0 25 -48 39q-32 -17 -32 -43q0 -12 9.5 -19.5t25.5 -7.5z" />
    <glyph glyph-name="nine.numr" 
d="M324 312q-60 0 -102 40l50 61q25 -23 57 -23q65 0 87 79q-36 -27 -83 -27q-40 0 -63 20t-23 57q0 53 42.5 90.5t101.5 37.5q60 0 93.5 -37.5t33.5 -99.5q0 -82 -53 -140t-141 -58zM375 505q23 0 49 18q-4 45 -41 45q-19 0 -30 -10t-11 -27q0 -26 33 -26z" />
    <glyph glyph-name="zero.sups" 
d="M368 428q-56 0 -90 38t-34 102q0 87 51 141.5t126 54.5q57 0 91 -37t34 -100q0 -87 -52 -143t-126 -56zM380 507q27 0 46.5 30t19.5 89t-38 59q-27 0 -45.5 -27.5t-18.5 -87.5q0 -63 36 -63z" />
    <glyph glyph-name="one.sups" 
d="M347 440l33 212h-81l10 64q61 8 111 36h83l-49 -312h-107z" />
    <glyph glyph-name="two.sups" 
d="M242 440l8 55q171 100 171 149q0 34 -39 34q-31 0 -60 -35l-53 56q72 65 143 65q53 0 84 -25t31 -68q0 -38 -27.5 -71.5t-76.5 -72.5h93l-13 -87h-261z" />
    <glyph glyph-name="three.sups" 
d="M369 428q-80 0 -130 42l52 66q37 -29 77 -29q47 0 47 33q0 31 -68 31l9 55q67 0 67 35q0 24 -36 24q-25 0 -69 -25l-33 62q60 42 139 42q46 0 76 -22t30 -57q0 -30 -14 -49t-52 -32q55 -16 55 -64t-44.5 -80t-105.5 -32z" />
    <glyph glyph-name="four.sups" 
d="M391 440l9 61h-160l8 51l152 200h134l-29 -185h51l-11 -66h-51l-9 -61h-94zM346 567h65l3 22l22 99h-4z" />
    <glyph glyph-name="five.sups" 
d="M370 428q-81 0 -131 42l52 66q39 -29 77 -29q21 0 35.5 10.5t14.5 29.5q0 31 -38 31q-25 0 -54 -16l-38 29l39 161h213l-14 -88h-133l-9 -35q15 6 44 6q44 0 69.5 -22t25.5 -60q0 -52 -45 -88.5t-108 -36.5z" />
    <glyph glyph-name="six.sups" 
d="M379 428q-60 0 -93.5 37.5t-33.5 99.5q0 82 53.5 140.5t140.5 58.5q59 0 103 -41l-51 -61q-25 23 -57 23q-65 0 -87 -79q37 28 83 28q41 0 63.5 -20.5t22.5 -57.5q0 -53 -42.5 -90.5t-101.5 -37.5zM387 507q19 0 30 10t11 27q0 26 -33 26q-23 0 -49 -18q4 -45 41 -45z
" />
    <glyph glyph-name="seven.sups" 
d="M303 440q14 64 42 113t83 112h-146l14 87h264l-9 -56q-63 -61 -91 -116.5t-45 -139.5h-112z" />
    <glyph glyph-name="eight.sups" 
d="M368 428q-54 0 -87.5 23.5t-33.5 58.5q0 17 6 30.5t18.5 24t22.5 16.5t27 15l1 4q-16 12 -22.5 17.5t-13 17.5t-6.5 27q0 45 42 73.5t99 28.5q50 0 81.5 -22.5t31.5 -58.5q0 -28 -16.5 -44.5t-48.5 -30.5v-4q24 -14 36.5 -29.5t12.5 -41.5q0 -44 -43.5 -74.5
t-106.5 -30.5zM413 634q25 13 25 36q0 24 -29 24q-14 0 -24 -7.5t-10 -19.5q0 -20 38 -33zM379 496q18 0 31 9.5t13 22.5q0 24 -47 38q-33 -15 -33 -43q0 -12 10 -19.5t26 -7.5z" />
    <glyph glyph-name="nine.sups" 
d="M343 428q-62 0 -103 41l51 60q24 -22 56 -22q67 0 88 78q-38 -27 -84 -27q-40 0 -62.5 20t-22.5 57q0 54 42.5 91.5t101.5 37.5q60 0 93 -37.5t33 -99.5q0 -82 -53 -140.5t-140 -58.5zM393 621q21 0 49 18q-3 46 -41 46q-19 0 -29.5 -10.5t-10.5 -27.5q0 -26 32 -26z" />
    <glyph glyph-name="asterisk.alt" 
d="M243 279l-57 44l104 140l-124 56l35 72l137 -32l36 153h78l-12 -153l147 32l11 -72l-142 -56l60 -140l-71 -44l-81 126z" />
    <glyph glyph-name="comma.dnom" 
d="M228 -130l-13 55q81 24 89 76h-4q-23 0 -38.5 13.5t-15.5 37.5q0 29 22.5 49t52.5 20q58 0 58 -74q0 -65 -39.5 -111t-111.5 -66z" />
    <glyph glyph-name="period.dnom" 
d="M299 -8q-24 0 -39 15.5t-15 39.5q0 30 22 52t52 22q24 0 39 -16t15 -40q0 -30 -22 -51.5t-52 -21.5z" />
    <glyph glyph-name="slash.frac" 
d="M457 377l-44 48l194 199l63 -73zM96 28l-63 73l213 173l44 -47z" />
    <glyph glyph-name="comma.numr" 
d="M270 131l-14 55q81 26 90 77h-4q-23 0 -39 13.5t-16 36.5q0 30 22.5 50t53.5 20q28 0 43 -19.5t15 -54.5q0 -65 -40 -111.5t-111 -66.5z" />
    <glyph glyph-name="period.numr" 
d="M340 254q-24 0 -39 15.5t-15 38.5q0 31 22.5 53t52.5 22q24 0 38.5 -16.5t14.5 -40.5q0 -30 -22 -51t-52 -21z" />
    <glyph glyph-name="comma.subs" 
d="M201 -300l-13 55q81 24 89 76h-4q-23 0 -38.5 13.5t-15.5 37.5q0 29 22.5 49t52.5 20q58 0 58 -74q0 -65 -39.5 -111t-111.5 -66z" />
    <glyph glyph-name="period.subs" 
d="M272 -178q-24 0 -39 15.5t-15 39.5q0 30 22 52t52 22q24 0 39 -16t15 -40q0 -30 -22 -51.5t-52 -21.5z" />
    <glyph glyph-name="parenleft.dnom" 
d="M308 -89q-73 97 -73 207q0 91 37.5 160t116.5 142l71 -48q-119 -117 -119 -242q0 -96 54 -171z" />
    <glyph glyph-name="parenright.dnom" 
d="M264 -89l-71 48q119 119 119 242q0 92 -54 171l87 48q72 -96 72 -207q0 -90 -37.5 -159.5t-115.5 -142.5z" />
    <glyph glyph-name="parenleft.numr" 
d="M349 173q-72 96 -72 207q0 91 37 159.5t116 142.5l71 -48q-119 -117 -119 -242q0 -92 54 -171z" />
    <glyph glyph-name="parenright.numr" 
d="M305 173l-71 48q119 117 119 242q0 96 -54 171l87 48q72 -96 72 -207q0 -91 -37.5 -160t-115.5 -142z" />
    <glyph glyph-name="parenleft.subs" 
d="M281 -259q-72 96 -72 207q0 91 37.5 160t115.5 142l71 -48q-119 -117 -119 -242q0 -96 54 -171z" />
    <glyph glyph-name="parenright.subs" 
d="M237 -259l-71 48q119 117 119 242q0 92 -54 171l87 48q72 -96 72 -207q0 -90 -37.5 -159.5t-115.5 -142.5z" />
    <glyph glyph-name="comma.sups" 
d="M298 310l-13 55q81 25 89 76h-4q-24 0 -39.5 13.5t-15.5 37.5q0 29 22.5 49t53.5 20q28 0 43 -19.5t15 -54.5q0 -65 -40 -111t-111 -66z" />
    <glyph glyph-name="parenleft.sups" 
d="M378 351q-73 95 -73 207q0 91 37.5 160t115.5 142l72 -48q-120 -118 -120 -242q0 -94 54 -171z" />
    <glyph glyph-name="parenright.sups" 
d="M334 351l-72 48q119 117 119 242q0 94 -53 171l86 48q73 -95 73 -207q0 -90 -37.5 -159.5t-115.5 -142.5z" />
    <glyph glyph-name="period.sups" 
d="M368 432q-24 0 -38.5 15.5t-14.5 39.5q0 30 22 52t52 22q24 0 38.5 -16t14.5 -40q0 -30 -22 -51.5t-52 -21.5z" />
    <glyph glyph-name="space.frac" 
 />
    <glyph glyph-name="uni00A0.frac" 
 />
  </font>
</defs>
</svg>
