<?xml version="1.0" standalone="no"?>
<!DOCTYPE svg PUBLIC "-//W3C//DTD SVG 1.1//EN" "http://www.w3.org/Graphics/SVG/1.1/DTD/svg11.dtd" >
<svg xmlns="http://www.w3.org/2000/svg" xmlns:xlink="http://www.w3.org/1999/xlink" version="1.1">
<metadata>
Created by FontForge 20170731 at Thu May 28 04:10:51 2015
 By Aleksey,,,
(c) 2015 Adobe &#38; Nathan Rutzky
</metadata>
<defs>
<font id="OfficeCodePro-Medium" horiz-adv-x="600" >
  <font-face 
    font-family="Office Code Pro Medium"
    font-weight="500"
    font-stretch="normal"
    units-per-em="1000"
    panose-1="0 0 6 9 0 0 0 0 0 0"
    ascent="750"
    descent="-250"
    x-height="510"
    cap-height="660"
    bbox="-469 -293 706 1057"
    underline-thickness="50"
    underline-position="-200"
    unicode-range="U+0020-E0B3"
  />
<missing-glyph 
d="M49 0v660h503v-660h-503zM298 401h4l46 94l49 89h-194l49 -89zM131 133l111 207l-111 209v-416zM469 133v416l-110 -209zM194 75h211l-56 104l-47 101h-4l-47 -101z" />
    <glyph glyph-name=".notdef" 
d="M49 0v660h503v-660h-503zM298 401h4l46 94l49 89h-194l49 -89zM131 133l111 207l-111 209v-416zM469 133v416l-110 -209zM194 75h211l-56 104l-47 101h-4l-47 -101z" />
    <glyph glyph-name=".null" horiz-adv-x="0" 
 />
    <glyph glyph-name="nonmarkingreturn" horiz-adv-x="333" 
 />
    <glyph glyph-name="space" unicode=" " 
 />
    <glyph glyph-name="exclam" unicode="!" 
d="M256 254l-17 416h124l-18 -416h-89zM300 -12q-37 0 -61.5 25t-24.5 65q0 39 24.5 63.5t61.5 24.5t62 -24.5t25 -63.5q0 -40 -25 -65t-62 -25z" />
    <glyph glyph-name="quotedbl" unicode="&#x22;" 
d="M140 363l-30 208l-4 115h140l-3 -115l-30 -208h-73zM388 363l-31 208l-3 115h140l-3 -115l-30 -208h-73z" />
    <glyph glyph-name="numbersign" unicode="#" 
d="M132 0l23 196h-76v75h85l17 129h-82v76h91l22 174h69l-22 -174h118l23 174h68l-21 -174h80v-76h-89l-16 -129h85v-75h-94l-24 -196h-69l23 196h-118l-23 -196h-70zM234 271h118l16 129h-118z" />
    <glyph glyph-name="dollar" unicode="$" 
d="M260 -114l-71 8l28 151q-84 22 -142 69l51 79q61 -38 109 -53l28 155q-37 14 -61.5 26.5t-51 31.5t-40 45.5t-13.5 59.5q0 80 65.5 122.5t160.5 37.5l25 133l72 -9l-26 -137q61 -19 110 -68l-58 -66q-45 31 -69 40l-27 -140q80 -29 127 -66.5t47 -102.5q0 -79 -68 -125.5
t-168 -41.5zM282 396l24 128q-41 4 -70 -13.5t-29 -50.5q0 -20 19 -35t56 -29zM305 128q45 -4 76.5 13.5t31.5 52.5q0 42 -82 75z" />
    <glyph glyph-name="percent" unicode="%" 
d="M169 317q-63 0 -103.5 45.5t-40.5 121.5t40.5 120.5t103.5 44.5q64 0 104 -44.5t40 -120.5t-40.5 -121.5t-103.5 -45.5zM394 384l-42 39l165 201l61 -59zM169 380q27 0 45 26t18 78q0 100 -63 100q-62 0 -62 -100q0 -52 17.5 -78t44.5 -26zM431 -12q-63 0 -103.5 46
t-40.5 123q0 76 40.5 120t103.5 44q64 0 104 -44t40 -120q0 -77 -40.5 -123t-103.5 -46zM85 30l-62 59l185 181l42 -39zM431 53q28 0 45.5 25.5t17.5 78.5q0 100 -63 100q-62 0 -62 -100q0 -53 17.5 -78.5t44.5 -25.5z" />
    <glyph glyph-name="ampersand" unicode="&#x26;" 
d="M235 -12q-92 0 -147 53t-55 133q0 60 30.5 103t83.5 82q-43 81 -43 149q0 70 42 117t110 47q67 0 104.5 -38t37.5 -102q0 -30 -10 -56.5t-33 -51.5t-39.5 -40t-49.5 -41q55 -81 138 -152q46 72 69 173h105q-35 -132 -98 -230q56 -41 102 -52l-29 -94q-67 18 -138 70
q-78 -70 -180 -70zM224 413q41 29 62.5 57t21.5 62q0 62 -50 62q-27 0 -42.5 -23.5t-15.5 -61.5q0 -43 24 -96zM250 77q46 0 89 38q-85 77 -145 167q-52 -50 -52 -101q0 -46 30.5 -75t77.5 -29z" />
    <glyph glyph-name="quotesingle" unicode="'" 
d="M264 363l-30 208l-4 115h140l-3 -115l-30 -208h-73z" />
    <glyph glyph-name="parenleft" unicode="(" 
d="M413 -178q-218 181 -218 456t218 456l63 -54q-95 -86 -139 -183t-44 -219t44 -219t139 -183z" />
    <glyph glyph-name="parenright" unicode=")" 
d="M188 -178l-64 54q95 85 139 182t44 220t-44 220t-139 182l64 54q218 -182 218 -456t-218 -456z" />
    <glyph glyph-name="asterisk" unicode="*" 
d="M182 101l-53 37l103 161l-158 69l20 59l164 -49l11 183h63l10 -183l165 49l19 -59l-157 -69l102 -161l-53 -37l-118 151z" />
    <glyph glyph-name="plus" unicode="+" 
d="M257 99v190h-179v83h179v189h87v-189h179v-83h-179v-190h-87z" />
    <glyph glyph-name="comma" unicode="," 
d="M220 -215l-30 69q125 49 128 155q-10 -2 -15 -2q-39 0 -66 23.5t-27 65.5q0 40 27.5 64.5t68.5 24.5q52 0 79.5 -39.5t27.5 -110.5q0 -91 -50 -155t-143 -95z" />
    <glyph glyph-name="hyphen" unicode="-" 
d="M78 289v83h445v-83h-445z" />
    <glyph glyph-name="period" unicode="." 
d="M300 -12q-43 0 -70.5 28.5t-27.5 72.5t27.5 72.5t70.5 28.5t71 -28.5t28 -72.5t-28 -72.5t-71 -28.5z" />
    <glyph glyph-name="slash" unicode="/" 
d="M37 -37l428 747h99l-429 -747h-98z" />
    <glyph glyph-name="zero" unicode="0" 
d="M300 -12q-109 0 -172.5 90t-63.5 254t63 252t173 88q111 0 174 -87.5t63 -252.5q0 -164 -63.5 -254t-173.5 -90zM178 214l209 323q-33 45 -87 45q-61 0 -96.5 -60t-35.5 -190q0 -63 10 -118zM300 78q61 0 97 62.5t36 191.5q0 74 -12 122l-210 -325q34 -51 89 -51z" />
    <glyph glyph-name="one" unicode="1" 
d="M90 0v94h173v441h-134v72q93 14 164 53h84v-566h156v-94h-443z" />
    <glyph glyph-name="two" unicode="2" 
d="M66 0v67q70 63 111 101.5t86 85.5t68 79.5t38.5 67t15.5 64.5q0 54 -31 85t-90 31q-71 0 -141 -74l-63 63q50 51 101 76.5t118 25.5q98 0 157 -55t59 -146q0 -81 -66 -168t-198 -212q89 7 117 7h181v-98h-463z" />
    <glyph glyph-name="three" unicode="3" 
d="M283 -12q-147 0 -233 93l55 74q75 -73 169 -73q60 0 98 27.5t38 73.5q0 116 -212 116v84q190 0 190 108q0 42 -30.5 66t-81.5 24q-75 0 -146 -63l-59 71q95 83 210 83q99 0 160.5 -46t61.5 -127q0 -105 -128 -152v-5q66 -16 108 -58.5t42 -105.5q0 -87 -70 -138.5
t-172 -51.5z" />
    <glyph glyph-name="four" unicode="4" 
d="M355 0v172h-318v78l211 410h117l-211 -399h201v172h107v-172h90v-89h-90v-172h-107z" />
    <glyph glyph-name="five" unicode="5" 
d="M285 -12q-139 0 -234 91l54 74q76 -71 165 -71q62 0 102 35t40 95q0 59 -37 92.5t-99 33.5q-54 0 -119 -37l-54 35l19 324h375v-97h-275l-14 -165q51 23 101 23q95 0 156.5 -52.5t61.5 -153.5q0 -104 -71 -165.5t-171 -61.5z" />
    <glyph glyph-name="six" unicode="6" 
d="M319 -12q-108 0 -179 82.5t-71 239.5q0 180 78 271t192 91t190 -74l-61 -69q-51 49 -120 49q-74 0 -121.5 -59.5t-51.5 -190.5q36 37 80.5 58.5t86.5 21.5q90 0 144 -52.5t54 -151.5q0 -96 -65 -156t-156 -60zM318 76q49 0 82.5 34.5t33.5 93.5t-30 89.5t-85 30.5
q-77 0 -140 -78q9 -85 46 -127.5t93 -42.5z" />
    <glyph glyph-name="seven" unicode="7" 
d="M210 0q8 180 52 304t148 259h-344v97h470v-70q-119 -139 -160 -262.5t-49 -327.5h-117z" />
    <glyph glyph-name="eight" unicode="8" 
d="M301 -12q-108 0 -172 50t-64 131q0 105 128 170v4q-95 65 -95 154q0 79 58 127t149 48q94 0 148.5 -48.5t54.5 -128.5q0 -86 -94 -152v-4q59 -31 90.5 -70t31.5 -102q0 -78 -63 -128.5t-172 -50.5zM348 371q64 53 64 117q0 45 -29 74t-81 29q-45 0 -73.5 -25.5
t-28.5 -68.5q0 -47 36.5 -74t111.5 -52zM304 70q58 0 91 27t33 74q0 26 -8.5 44.5t-38 36t-42.5 23t-65 24.5q-5 2 -8 3t-7 3t-8 3q-85 -56 -85 -127q0 -50 38 -80.5t100 -30.5z" />
    <glyph glyph-name="nine" unicode="9" 
d="M261 -12q-112 0 -190 73l62 71q48 -50 119 -50q74 0 121.5 59.5t51.5 190.5q-77 -79 -167 -79t-144 52t-54 152q0 95 64.5 155t155.5 60q108 0 179.5 -82t71.5 -239q0 -181 -78 -272t-192 -91zM282 336q75 0 140 78q-11 86 -47.5 128.5t-92.5 42.5q-49 0 -82.5 -34.5
t-33.5 -93.5q0 -60 30 -90.5t86 -30.5z" />
    <glyph glyph-name="colon" unicode=":" 
d="M300 329q-43 0 -70.5 28.5t-27.5 72.5t27.5 72.5t70.5 28.5t71 -28.5t28 -72.5t-28 -72.5t-71 -28.5zM300 -12q-43 0 -70.5 28.5t-27.5 72.5t27.5 72.5t70.5 28.5t71 -28.5t28 -72.5t-28 -72.5t-71 -28.5z" />
    <glyph glyph-name="semicolon" unicode=";" 
d="M300 329q-43 0 -70.5 28.5t-27.5 72.5t27.5 72.5t70.5 28.5t71 -28.5t28 -72.5t-28 -72.5t-71 -28.5zM220 -215l-30 69q125 49 128 155q-10 -2 -15 -2q-39 0 -66 23.5t-27 65.5q0 40 27.5 64.5t68.5 24.5q52 0 79.5 -39.5t27.5 -110.5q0 -91 -50 -155t-143 -95z" />
    <glyph glyph-name="less" unicode="&#x3c;" 
d="M498 -12l-380 282v82l380 281v-116l-283 -204v-4l283 -205v-116z" />
    <glyph glyph-name="equal" unicode="=" 
d="M78 401v82h445v-82h-445zM78 177v83h445v-83h-445z" />
    <glyph glyph-name="greater" unicode="&#x3e;" 
d="M103 -12v116l283 205v4l-283 204v116l379 -281v-82z" />
    <glyph glyph-name="question" unicode="?" 
d="M230 249q-6 38 6.5 71.5t35.5 56.5t46.5 43.5t41 43.5t17.5 45q0 36 -24.5 58t-67.5 22q-61 0 -116 -52l-65 60q78 85 189 85q87 0 141 -42t54 -117q0 -35 -17.5 -64.5t-42 -51.5t-48.5 -44t-38.5 -51t-10.5 -63h-101zM286 -12q-37 0 -61.5 25t-24.5 65q0 39 24.5 63.5
t61.5 24.5t62 -24.5t25 -63.5q0 -40 -25 -65t-62 -25z" />
    <glyph glyph-name="at" unicode="@" 
d="M340 -22q-127 0 -213.5 90t-86.5 252q0 170 85 258t217 88q101 0 153.5 -59.5t52.5 -151.5v-286h-64l-9 54h-4q-48 -66 -126 -66q-55 0 -91.5 38t-36.5 97q0 75 64.5 115t192.5 57v8q0 52 -35 87t-101 35q-89 0 -152.5 -70.5t-63.5 -206.5q0 -126 63.5 -196t158.5 -70
q75 0 137 41l35 -59q-87 -55 -176 -55zM370 233q47 0 93 51v108q-86 -13 -122.5 -35.5t-36.5 -62.5q0 -28 17.5 -44.5t48.5 -16.5z" />
    <glyph glyph-name="A" unicode="A" 
d="M21 0l212 660h135l212 -660h-122l-51 180h-217l-52 -180h-117zM215 271h167l-23 82q-28 99 -59 217h-4q-25 -102 -58 -217z" />
    <glyph glyph-name="B" unicode="B" 
d="M94 0v660h192q232 0 232 -162q0 -49 -29.5 -89t-84.5 -55v-4q147 -25 147 -156q0 -95 -68 -144.5t-180 -49.5h-209zM209 386h66q130 0 130 98q0 45 -31 65.5t-96 20.5h-69v-184zM209 90h82q147 0 147 111q0 102 -147 102h-82v-213z" />
    <glyph glyph-name="C" unicode="C" 
d="M359 -12q-130 0 -214 90.5t-84 249.5t84.5 251.5t217.5 92.5q108 0 186 -82l-64 -72q-54 54 -122 54q-83 0 -133.5 -64.5t-50.5 -175.5q0 -112 51 -178t136 -66q71 0 131 66l65 -70q-82 -96 -203 -96z" />
    <glyph glyph-name="D" unicode="D" 
d="M75 0v660h169q147 0 228 -83t81 -244t-80.5 -247t-222.5 -86h-175zM191 94h46q197 0 197 239q0 234 -197 234h-46v-473z" />
    <glyph glyph-name="E" unicode="E" 
d="M105 0v660h417v-97h-302v-171h256v-97h-256v-197h312v-98h-427z" />
    <glyph glyph-name="F" unicode="F" 
d="M122 0v660h415v-97h-300v-189h255v-97h-255v-277h-115z" />
    <glyph glyph-name="G" unicode="G" 
d="M340 -12q-128 0 -209.5 90.5t-81.5 249.5t82.5 251.5t213.5 92.5q106 0 186 -82l-64 -72q-51 54 -122 54q-79 0 -128 -65t-49 -175q0 -115 46.5 -179.5t132.5 -64.5q57 0 89 30v144h-113v95h217v-291q-35 -34 -87.5 -56t-112.5 -22z" />
    <glyph glyph-name="H" unicode="H" 
d="M72 0v660h115v-266h226v266h116v-660h-116v294h-226v-294h-115z" />
    <glyph glyph-name="I" unicode="I" 
d="M85 0v98h157v465h-157v97h431v-97h-158v-465h158v-98h-431z" />
    <glyph glyph-name="J" unicode="J" 
d="M275 -12q-59 0 -114 27t-91 83l70 70q57 -80 131 -80q62 0 90.5 32.5t28.5 106.5v337h-265v97h380v-443q0 -103 -54.5 -166.5t-175.5 -63.5z" />
    <glyph glyph-name="K" unicode="K" 
d="M83 0v660h117v-301h3l234 301h128l-201 -257l223 -403h-128l-164 312l-95 -118v-194h-117z" />
    <glyph glyph-name="L" unicode="L" 
d="M121 0v660h114v-562h308v-98h-422z" />
    <glyph glyph-name="M" unicode="M" horiz-adv-x="635" 
d="M71 0v660h123l91 -258l32 -99h4l30 99l91 258h123v-660h-98v297q0 94 15 249h-4l-50 -161l-83 -207h-56l-84 207l-50 161h-3q15 -186 15 -249v-297h-96z" />
    <glyph glyph-name="N" unicode="N" 
d="M75 0v660h117l176 -374l61 -140h3q-2 21 -6.5 67.5t-7 85t-2.5 71.5v290h110v-660h-118l-175 375l-61 139h-3q2 -23 6.5 -68.5t7 -83.5t2.5 -70v-292h-110z" />
    <glyph glyph-name="O" unicode="O" 
d="M300 -12q-115 0 -186 93.5t-71 251.5t71 248.5t186 90.5q116 0 186.5 -90.5t70.5 -248.5t-71 -251.5t-186 -93.5zM300 88q63 0 101 66.5t38 178.5q0 111 -38 175t-101 64t-100.5 -64t-37.5 -175q0 -112 37.5 -178.5t100.5 -66.5z" />
    <glyph glyph-name="P" unicode="P" 
d="M88 0v660h220q248 0 248 -203q0 -105 -68.5 -159t-179.5 -54h-105v-244h-115zM203 336h95q144 0 144 121q0 61 -35 86t-109 25h-95v-232z" />
    <glyph glyph-name="Q" unicode="Q" 
d="M482 -172q-88 0 -149 45t-90 121q-92 21 -146 111t-54 228q0 158 69.5 249t185.5 91q115 0 185 -91t70 -249q0 -133 -50.5 -222t-137.5 -114q32 -75 130 -75q25 0 51 12l21 -89q-37 -17 -85 -17zM298 88q63 0 100 67t37 178t-37 175.5t-100 64.5q-64 0 -100.5 -64
t-36.5 -176t37 -178.5t100 -66.5z" />
    <glyph glyph-name="R" unicode="R" 
d="M85 0v660h218q240 0 240 -195q0 -143 -131 -188l157 -277h-130l-142 259h-97v-259h-115zM200 352h91q138 0 138 113q0 56 -34 79.5t-104 23.5h-91v-216z" />
    <glyph glyph-name="S" unicode="S" 
d="M302 -12q-143 0 -243 97l67 79q83 -76 178 -76q60 0 91 23t31 64q0 16 -6 29t-13 21.5t-24.5 18t-28.5 14.5t-37 15l-89 39q-141 54 -141 175q0 79 64 132t163 53q124 0 210 -84l-60 -73q-70 57 -150 57q-51 0 -80.5 -21t-29.5 -58q0 -33 25 -51t76 -39q3 -1 4 -1.5t3 -1
t4 -1.5l86 -37q69 -28 105.5 -69.5t36.5 -108.5q0 -83 -65.5 -139.5t-176.5 -56.5z" />
    <glyph glyph-name="T" unicode="T" 
d="M242 0v563h-205v97h527v-97h-206v-563h-116z" />
    <glyph glyph-name="U" unicode="U" 
d="M302 -12q-111 0 -170.5 65.5t-59.5 198.5v408h115v-416q0 -156 115 -156t115 156v416h112v-408q0 -133 -58.5 -198.5t-168.5 -65.5z" />
    <glyph glyph-name="V" unicode="V" 
d="M232 0l-203 660h122l93 -333q9 -34 27 -104t30 -111h4q12 41 30.5 112t27.5 103l91 333h117l-202 -660h-137z" />
    <glyph glyph-name="W" unicode="W" 
d="M101 0l-94 661h117l37 -384q0 -3 9 -166h3q6 27 19 82.5t19 83.5l57 214h74l56 -214q6 -29 19.5 -85t18.5 -81h4l9 166l35 384h109l-89 -661h-123l-58 244q-15 75 -21 122h-3q-12 -77 -22 -122l-55 -244h-121z" />
    <glyph glyph-name="X" unicode="X" 
d="M36 0l193 340l-181 320h129l77 -147q8 -15 25 -48.5t27 -52.5h4q31 73 45 101l74 147h123l-181 -325l193 -335h-128l-85 157q-18 33 -55 107h-4q-22 -51 -50 -106l-83 -158h-123z" />
    <glyph glyph-name="Y" unicode="Y" 
d="M242 0v230l-215 430h123l83 -178q63 -143 67 -152h4q10 24 21.5 49.5t25.5 56t22 47.5l80 177h120l-215 -430v-230h-116z" />
    <glyph glyph-name="Z" unicode="Z" 
d="M61 0v70l336 494h-306v97h448v-70l-337 -493h341v-98h-482z" />
    <glyph glyph-name="bracketleft" unicode="[" 
d="M214 -152v860h285v-63h-197v-734h197v-63h-285z" />
    <glyph glyph-name="backslash" unicode="\" 
d="M465 -37l-428 747h98l429 -747h-99z" />
    <glyph glyph-name="bracketright" unicode="]" 
d="M102 -152v63h196v734h-196v63h286v-860h-286z" />
    <glyph glyph-name="asciicircum" unicode="^" 
d="M99 279l154 391h95l154 -391h-97l-56 152l-47 134h-4l-47 -134l-56 -152h-96z" />
    <glyph glyph-name="underscore" unicode="_" 
d="M60 -152v90h480v-90h-480z" />
    <glyph glyph-name="grave" unicode="`" 
d="M289 574l-125 157h120l90 -157h-85z" />
    <glyph glyph-name="a" unicode="a" 
d="M235 -13q-72 0 -118 41.5t-46 107.5q0 87 79 131.5t261 58.5q-7 104 -118 104q-74 0 -140 -55l-42 76q35 30 89.5 51t114.5 21q102 0 156 -57t54 -162v-304h-93l-9 64h-4q-98 -77 -184 -77zM270 78q69 0 141 64v112q-126 -9 -177.5 -36t-51.5 -73q0 -34 24.5 -50.5
t63.5 -16.5z" />
    <glyph glyph-name="b" unicode="b" 
d="M329 -13q-73 0 -143 70h-3l-10 -57h-90v725h114v-181l-3 -91q70 70 152 70q94 0 147.5 -70t53.5 -189q0 -126 -64 -201.5t-154 -75.5zM306 82q54 0 88.5 47.5t34.5 132.5q0 166 -114 166q-58 0 -118 -64v-233q52 -49 109 -49z" />
    <glyph glyph-name="c" unicode="c" 
d="M345 -13q-119 0 -195 72t-76 196q0 123 81 195.5t198 72.5q108 0 181 -73l-54 -72q-58 51 -122 51q-74 0 -120 -48t-46 -126t45 -126t118 -48q71 0 141 57l48 -73q-89 -78 -199 -78z" />
    <glyph glyph-name="d" unicode="d" 
d="M264 -13q-96 0 -153 71t-57 197q0 120 64.5 194t151.5 74q72 0 137 -62l-4 88v176h115v-725h-94l-9 61h-3q-72 -74 -148 -74zM291 82q61 0 112 64v234q-48 48 -105 48q-54 0 -90 -46.5t-36 -125.5q0 -84 31 -129t88 -45z" />
    <glyph glyph-name="e" unicode="e" 
d="M330 -13q-115 0 -191.5 72.5t-76.5 195.5q0 120 75.5 194t177.5 74q107 0 167 -67t60 -175q0 -25 -5 -57h-357q5 -69 51 -108t114 -39q70 0 138 42l39 -72q-92 -60 -192 -60zM179 303h258q0 62 -31 96.5t-89 34.5q-51 0 -90 -34.5t-48 -96.5z" />
    <glyph glyph-name="f" unicode="f" 
d="M228 0v419h-135v85l135 6v20q0 95 52 151t157 56q74 0 145 -29l-24 -85q-47 23 -108 23q-108 0 -108 -114v-22h187v-91h-187v-419h-114z" />
    <glyph glyph-name="g" unicode="g" 
d="M275 -222q-116 0 -193 78l44 75q62 -63 149 -63q62 0 96.5 32.5t35.5 91.5l2 83q-63 -66 -146 -66q-94 0 -151.5 69.5t-57.5 184.5q0 116 64 188t154 72q80 0 142 -68h4l9 55h91v-510q0 -107 -62.5 -164.5t-180.5 -57.5zM291 102q60 0 112 65v213q-48 48 -107 48
q-51 0 -88.5 -45.5t-37.5 -117.5q0 -75 33 -119t88 -44z" />
    <glyph glyph-name="h" unicode="h" 
d="M83 0v725h114v-181l-6 -111q84 90 176 90q165 0 165 -207v-316h-115v301q0 64 -21.5 94t-70.5 30q-35 0 -63 -17.5t-65 -58.5v-349h-114z" />
    <glyph glyph-name="i" unicode="i" 
d="M309 597q-37 0 -61 23t-24 61t24.5 62t60.5 24q37 0 61 -24t24 -62t-24 -61t-61 -23zM81 0v94h179v325h-179v91h294v-416h179v-94h-473z" />
    <glyph glyph-name="j" unicode="j" 
d="M347 605q-37 0 -61 23t-24 61t24.5 62t60.5 24q37 0 61 -24t24 -62t-24 -61t-61 -23zM195 -217q-76 0 -146 34l35 83q53 -26 106 -26q59 0 83 33t24 92v420h-212v91h327v-504q0 -223 -217 -223z" />
    <glyph glyph-name="k" unicode="k" 
d="M91 0v725h115v-456h4l222 241h127l-191 -205l212 -305h-126l-154 235l-94 -101v-134h-115z" />
    <glyph glyph-name="l" unicode="l" 
d="M401 -13q-85 0 -129.5 51t-44.5 146v450h-155v91h269v-548q0 -49 24 -72.5t64 -23.5q37 0 85 21l27 -85q-85 -30 -140 -30z" />
    <glyph glyph-name="m" unicode="m" 
d="M48 0v510h87l9 -66h4q36 79 107 79q72 0 90 -86q40 86 112 86q51 0 79.5 -42.5t28.5 -118.5v-362h-109v353q0 72 -40 72q-36 0 -65 -66v-359h-89v353q0 72 -42 72q-19 0 -33.5 -16t-29.5 -50v-359h-109z" />
    <glyph glyph-name="n" unicode="n" 
d="M83 0v510h94l9 -79h4q85 92 177 92q165 0 165 -207v-316h-115v301q0 64 -21.5 94t-70.5 30q-35 0 -63 -17.5t-65 -58.5v-349h-114z" />
    <glyph glyph-name="o" unicode="o" 
d="M300 -13q-102 0 -174 72.5t-72 195.5t72 195.5t174 72.5t174.5 -72.5t72.5 -195.5t-72.5 -195.5t-174.5 -72.5zM300 81q60 0 94.5 47t34.5 127q0 79 -34.5 126.5t-94.5 47.5q-59 0 -93.5 -47.5t-34.5 -126.5t34 -126.5t94 -47.5z" />
    <glyph glyph-name="p" unicode="p" 
d="M83 -205v715h94l9 -59h3q74 72 158 72q94 0 147 -70t53 -190q0 -125 -64 -200.5t-154 -75.5q-71 0 -135 62l3 -91v-163h-114zM305 82q55 0 89.5 47.5t34.5 132.5q0 166 -114 166q-58 0 -118 -64v-233q52 -49 108 -49z" />
    <glyph glyph-name="q" unicode="q" 
d="M403 -206v176l5 87q-70 -70 -144 -70q-96 0 -153 71t-57 197q0 120 64.5 194t151.5 74q80 0 144 -68h4l9 55h91v-716h-115zM291 82q61 0 112 64v234q-48 48 -105 48q-54 0 -90 -46.5t-36 -125.5q0 -84 31 -129t88 -45z" />
    <glyph glyph-name="r" unicode="r" 
d="M131 0v510h94l10 -117h3q78 130 209 130q51 0 96 -21l-25 -97q-47 16 -89 16q-114 0 -183 -136v-285h-115z" />
    <glyph glyph-name="s" unicode="s" 
d="M303 -13q-127 0 -240 80l53 73q89 -65 190 -65q56 0 84.5 17t28.5 46q0 26 -34.5 46t-111.5 41q-181 49 -181 146q0 68 58 110t159 42q105 0 204 -67l-53 -71q-75 51 -150 51q-103 0 -103 -59q0 -26 34.5 -43.5t103.5 -35.5q94 -25 141 -60t47 -93q0 -68 -61 -113
t-169 -45z" />
    <glyph glyph-name="t" unicode="t" 
d="M391 -13q-201 0 -201 217v215h-131v91h136v150l110 55v-205h224v-91h-224v-215q0 -65 26 -95t87 -30q54 0 108 21l22 -83q-88 -30 -157 -30z" />
    <glyph glyph-name="u" unicode="u" 
d="M235 -13q-165 0 -165 207v316h115v-301q0 -64 21 -93.5t71 -29.5q34 0 62.5 18t61.5 61v345h114v-510h-93l-9 82h-4q-80 -95 -174 -95z" />
    <glyph glyph-name="v" unicode="v" 
d="M237 0l-196 510h116l95 -268q11 -32 50 -153h4q4 13 21 68t27 85l95 268h110l-191 -510h-131z" />
    <glyph glyph-name="w" unicode="w" 
d="M102 0l-96 510h114l45 -269q5 -28 11.5 -79t8.5 -67h4q10 67 26 146l45 223h86l47 -223q2 -9 27 -146h4q4 24 10 72.5t10 73.5l44 269h106l-91 -510h-135l-43 220q-5 32 -23 149h-4q-21 -142 -22 -149l-42 -220h-132z" />
    <glyph glyph-name="x" unicode="x" 
d="M51 0l178 265l-166 245h125l64 -99q10 -18 54 -86h4q22 39 48 87l59 98h120l-167 -256l179 -254h-124l-71 104l-61 90h-4q-9 -17 -27.5 -47.5t-25.5 -42.5l-64 -104h-121z" />
    <glyph glyph-name="y" unicode="y" 
d="M137 -217q-38 0 -70 10l22 88q19 -6 41 -6q80 0 116 91l15 39l-221 505h115l101 -255q21 -54 55 -150h4q23 73 48 150l90 255h108l-205 -543q-34 -91 -84.5 -137.5t-134.5 -46.5z" />
    <glyph glyph-name="z" unicode="z" 
d="M71 0v62l296 357h-262v91h423v-61l-297 -358h306v-91h-466z" />
    <glyph glyph-name="braceleft" unicode="{" 
d="M430 -152q-185 -27 -185 137q0 38 24.5 89.5t24.5 83.5q0 30 -50.5 57.5t-130.5 28.5v69q79 1 130 28t51 58q0 30 -24.5 83t-24.5 89q0 164 185 137l69 -10v-63l-46 10q-64 14 -88.5 -7.5t-24.5 -72.5q0 -27 22.5 -79t22.5 -83q0 -49 -39 -81t-96 -42v-4
q58 -10 96.5 -41.5t38.5 -81.5q0 -33 -22.5 -83.5t-22.5 -78.5q0 -51 24.5 -72.5t88.5 -7.5l46 10v-63z" />
    <glyph glyph-name="bar" unicode="|" 
d="M249 -250v1000h102v-1000h-102z" />
    <glyph glyph-name="braceright" unicode="}" 
d="M171 -152l-69 10v63l46 -10q63 -14 88 8t25 72q0 28 -22.5 78.5t-22.5 83.5q0 50 38.5 81.5t96.5 41.5v4q-57 10 -96 42t-39 81q0 31 22.5 83t22.5 79q0 50 -25 72t-88 8l-46 -10v63l69 10q185 27 185 -137q0 -36 -25 -89t-25 -83q0 -31 51 -58t131 -28v-69
q-80 -1 -131 -28.5t-51 -57.5q0 -32 25 -84t25 -89q0 -164 -185 -137z" />
    <glyph glyph-name="asciitilde" unicode="~" 
d="M135 245l-71 32q53 135 150 135q34 0 66 -20t59 -40t50 -20q49 0 77 84l70 -33q-52 -134 -149 -134q-34 0 -66 20t-59 40t-50 20q-49 0 -77 -84z" />
    <glyph glyph-name="uni00A0" unicode="&#xa0;" 
 />
    <glyph glyph-name="exclamdown" unicode="&#xa1;" 
d="M300 325q-37 0 -61.5 24.5t-24.5 63.5q0 40 24.5 65t61.5 25t62 -25t25 -65q0 -39 -25 -63.5t-62 -24.5zM239 -179l17 417h89l18 -417h-124z" />
    <glyph glyph-name="cent" unicode="&#xa2;" 
d="M313 -37v100q-96 11 -152 76t-56 170q0 101 58 165.5t150 78.5v101h66v-98q75 -5 127 -57l-53 -71q-37 32 -74 35v-308q45 5 88 41l48 -73q-61 -53 -136 -61v-99h-66zM313 162v293q-46 -14 -71 -52.5t-25 -93.5q0 -56 25 -94.5t71 -52.5z" />
    <glyph glyph-name="sterling" unicode="&#xa3;" 
d="M73 0v71q57 24 89 67.5t32 98.5q0 21 -6 41h-114v69l91 5q-25 71 -25 102q0 89 60.5 142t158.5 53q110 0 181 -78l-64 -64q-46 48 -108 48q-57 0 -88 -28t-31 -78q0 -34 21 -97h179v-74h-159q4 -26 4 -42q0 -78 -65 -134v-4h312v-98h-468z" />
    <glyph glyph-name="currency" unicode="&#xa4;" 
d="M106 73l-59 60l83 83q-35 47 -35 114t34 113l-82 84l59 59l88 -90q48 31 106 31q57 0 107 -31l88 90l58 -59l-82 -84q35 -48 35 -113q0 -63 -36 -114l83 -83l-58 -60l-89 90q-48 -31 -106 -31q-56 0 -106 31zM300 214q44 0 73 32t29 84q0 51 -29.5 83.5t-72.5 32.5
t-72.5 -32.5t-29.5 -83.5t29.5 -83.5t72.5 -32.5z" />
    <glyph glyph-name="yen" unicode="&#xa5;" 
d="M242 0v153h-175v59h175v60h-175v58h149l-174 307h118l77 -152q4 -8 26.5 -57t36.5 -76h4l63 133l77 152h114l-174 -307h149v-58h-176v-60h176v-59h-176v-153h-115z" />
    <glyph glyph-name="brokenbar" unicode="&#xa6;" 
d="M249 302v448h102v-448h-102zM249 -250v459h102v-459h-102z" />
    <glyph glyph-name="section" unicode="&#xa7;" 
d="M282 -74q-121 0 -187 78l67 60q54 -52 120 -52q34 0 53.5 16t19.5 40q0 26 -28 46t-68.5 36.5t-81 37t-68.5 58t-28 89.5q0 80 87 129q-30 33 -30 82q0 61 43.5 101t120.5 40q94 0 172 -61l-54 -72q-60 47 -112 47q-33 0 -50 -14t-17 -37q0 -24 28.5 -44t69.5 -36.5
t82 -38t69.5 -59t28.5 -88.5q0 -83 -87 -131q26 -34 26 -79q0 -65 -47.5 -106.5t-128.5 -41.5zM370 202q52 26 52 73q0 27 -20 49t-43 33.5t-65 29.5t-63 29q-52 -29 -52 -73q0 -27 20 -48.5t44 -33t64.5 -29.5t62.5 -30z" />
    <glyph glyph-name="dieresis" unicode="&#xa8;" 
d="M198 580q-29 0 -48 19t-19 48q0 28 19 47t48 19q28 0 47 -19t19 -47q0 -29 -19 -48t-47 -19zM403 580q-29 0 -47.5 19t-18.5 48q0 28 18.5 47t47.5 19t47.5 -19t18.5 -47q0 -29 -18.5 -48t-47.5 -19z" />
    <glyph glyph-name="copyright" unicode="&#xa9;" horiz-adv-x="653" 
d="M327 -10q-136 0 -231.5 92.5t-95.5 241.5t95 239.5t232 90.5q136 0 231 -90.5t95 -239.5t-95 -241.5t-231 -92.5zM327 42q114 0 191.5 78.5t77.5 203.5q0 124 -77.5 202t-191.5 78t-191.5 -78t-77.5 -202q0 -125 77.5 -203.5t191.5 -78.5zM337 126q-82 0 -135 54t-53 144
q0 84 56 137t133 53q71 0 129 -58l-45 -50q-38 38 -78 38q-50 0 -79.5 -34t-29.5 -86q0 -58 28.5 -92.5t76.5 -34.5q45 0 91 39l39 -55q-66 -55 -133 -55z" />
    <glyph glyph-name="ordfeminine" unicode="&#xaa;" 
d="M265 252q-45 0 -74.5 27.5t-29.5 68.5q0 53 48.5 82t154.5 39q-4 58 -63 58q-40 0 -97 -31l-31 55q73 43 143 43q64 0 98 -36.5t34 -106.5v-191h-69l-6 35h-2q-54 -43 -106 -43zM291 317q37 0 73 33v67q-122 -14 -122 -62q0 -38 49 -38z" />
    <glyph glyph-name="guillemotleft" unicode="&#xab;" 
d="M224 39l-162 157v113l162 157l51 -45l-127 -169l127 -169zM472 39l-162 157v113l162 157l51 -45l-127 -169l127 -169z" />
    <glyph glyph-name="logicalnot" unicode="&#xac;" 
d="M436 99v190h-358v83h445v-273h-87z" />
    <glyph glyph-name="registered" unicode="&#xae;" 
d="M300 315q-81 0 -137 56.5t-56 143.5t56 143t137 56t137 -56.5t56 -142.5q0 -87 -56 -143.5t-137 -56.5zM300 358q64 0 105 43.5t41 113.5q0 69 -41.5 113t-104.5 44q-64 0 -105.5 -44t-41.5 -113q0 -70 41.5 -113.5t105.5 -43.5zM223 417v200h82q36 0 58 -16t22 -50
q0 -40 -36 -54l44 -80h-53l-33 65h-35v-65h-49zM272 518h23q38 0 38 31q0 29 -36 29h-25v-60z" />
    <glyph glyph-name="macron" unicode="&#xaf;" 
d="M170 597v75h261v-75h-261z" />
    <glyph glyph-name="degree" unicode="&#xb0;" 
d="M301 414q-57 0 -96 38t-39 97q0 60 39 98.5t96 38.5t96 -38.5t39 -98.5q0 -59 -39 -97t-96 -38zM301 472q31 0 51 21.5t20 55.5q0 35 -20 56.5t-51 21.5t-51 -21.5t-20 -56.5q0 -34 20 -55.5t51 -21.5z" />
    <glyph glyph-name="plusminus" unicode="&#xb1;" 
d="M257 143v156h-179v83h179v179h87v-179h179v-83h-179v-156h-87zM78 0v83h445v-83h-445z" />
    <glyph glyph-name="acute" unicode="&#xb4;" 
d="M227 574l89 157h120l-124 -157h-85z" />
    <glyph glyph-name="uni00B5" unicode="&#xb5;" 
d="M70 -192v683h115v-289q0 -60 21.5 -88t67.5 -28q37 0 67 20.5t60 73.5v311h115q-7 -215 -7 -371q0 -38 31 -38q9 0 18 2l15 -86q-25 -10 -61 -10q-43 0 -66.5 25t-32.5 78h-4q-52 -100 -139 -100q-66 0 -93 40q2 -141 9 -223h-116z" />
    <glyph glyph-name="paragraph" unicode="&#xb6;" 
d="M303 212q-107 0 -175 57.5t-68 166.5q0 115 64.5 166.5t172.5 51.5h42v-442h-36zM392 -80v734h114v-734h-114z" />
    <glyph glyph-name="periodcentered" unicode="&#xb7;" 
d="M300 250q-43 0 -70.5 28.5t-27.5 72.5q0 43 28 72t70 29q43 0 71 -29t28 -72q0 -44 -28 -72.5t-71 -28.5z" />
    <glyph glyph-name="cedilla" unicode="&#xb8;" 
d="M220 -217l-9 50q85 10 85 46q0 31 -61 45l40 80h70l-23 -51q59 -20 59 -72q0 -45 -45.5 -69t-115.5 -29z" />
    <glyph glyph-name="ordmasculine" unicode="&#xba;" 
d="M300 252q-67 0 -114.5 46.5t-47.5 124.5t47.5 124.5t114.5 46.5q68 0 115.5 -46.5t47.5 -124.5t-47.5 -124.5t-115.5 -46.5zM300 319q37 0 57 28t20 76q0 47 -20 75t-57 28q-36 0 -56 -28t-20 -75t20 -75.5t56 -28.5z" />
    <glyph glyph-name="guillemotright" unicode="&#xbb;" 
d="M129 39l-51 44l127 169l-127 169l51 45l161 -157v-113zM376 39l-50 44l127 169l-127 169l50 45l162 -157v-113z" />
    <glyph glyph-name="onequarter" unicode="&#xbc;" 
d="M153 329v221h-81v53q59 7 99 34h67v-308h-85zM393 384l-42 39l165 201l62 -59zM458 0v67h-161v41l134 201h103v-187h50v-55h-50v-67h-76zM85 30l-62 59l184 181l42 -39zM377 122h81v39l5 90h-3l-40 -63z" />
    <glyph glyph-name="onehalf" unicode="&#xbd;" 
d="M153 329v221h-81v53q59 7 99 34h67v-308h-85zM393 384l-42 39l165 201l62 -59zM309 0v46q77 55 115.5 92t38.5 64q0 23 -14 36.5t-39 13.5q-34 0 -63 -39l-50 45q56 63 125 63q57 0 90 -28t33 -78q0 -34 -25 -66t-76 -79h115v-70h-250zM85 30l-62 59l184 181l42 -39z" />
    <glyph glyph-name="threequarters" unicode="&#xbe;" 
d="M170 317q-77 0 -132 47l36 53q39 -37 87 -37q23 0 37.5 10t14.5 28q0 44 -84 44v47q70 0 70 41q0 34 -46 34q-36 0 -70 -29l-37 51q50 43 125 43q48 0 80 -24t32 -62q0 -55 -55 -74q68 -17 68 -76q0 -43 -36 -69.5t-90 -26.5zM409 384l-42 39l165 201l62 -59zM459 0v67
h-161v41l134 201h102v-187h51v-55h-51v-67h-75zM101 30l-62 59l185 181l41 -39zM378 122h81v39l5 90h-4l-39 -63z" />
    <glyph glyph-name="questiondown" unicode="&#xbf;" 
d="M315 325q-37 0 -61.5 24.5t-24.5 64.5q0 39 24.5 64t61.5 25t62 -25t25 -64q0 -40 -25 -64.5t-62 -24.5zM308 -191q-87 0 -141 42t-54 117q0 35 17.5 65t42 52t48.5 44t38.5 51t10.5 63h101q6 -39 -6.5 -72t-35.5 -56.5t-46.5 -44t-41 -43t-17.5 -45.5q0 -36 24.5 -57.5
t67.5 -21.5q61 0 117 51l64 -59q-78 -86 -189 -86z" />
    <glyph glyph-name="Agrave" unicode="&#xc0;" 
d="M270 710l-116 117h125l84 -117h-93zM21 0l212 660h135l212 -660h-122l-51 180h-217l-52 -180h-117zM215 271h167l-23 81q-23 80 -59 217h-4q-25 -102 -58 -217z" />
    <glyph glyph-name="Aacute" unicode="&#xc1;" 
d="M237 710l85 117h125l-117 -117h-93zM21 0l212 660h135l212 -660h-122l-51 180h-217l-52 -180h-117zM215 271h167l-23 81q-23 80 -59 217h-4q-25 -102 -58 -217z" />
    <glyph glyph-name="Acircumflex" unicode="&#xc2;" 
d="M148 710l96 117h112l96 -117h-90l-60 65h-4l-60 -65h-90zM21 0l212 660h135l212 -660h-122l-51 180h-217l-52 -180h-117zM215 271h167l-23 81q-23 80 -59 217h-4q-25 -102 -58 -217z" />
    <glyph glyph-name="Atilde" unicode="&#xc3;" 
d="M143 713q6 57 32 90t64 33q29 0 66.5 -24.5t52.5 -24.5q30 0 39 49h61q-6 -57 -32 -90t-64 -33q-30 0 -68 25t-52 25q-30 0 -39 -50h-60zM21 0l212 660h135l212 -660h-122l-51 180h-217l-52 -180h-117zM215 271h167l-23 82q-28 99 -59 217h-4q-23 -94 -58 -217z" />
    <glyph glyph-name="Adieresis" unicode="&#xc4;" 
d="M208 714q-26 0 -43 17t-17 43t17 42.5t43 16.5t42.5 -16.5t16.5 -42.5t-17 -43t-42 -17zM393 714q-26 0 -43 17t-17 43t17 42.5t43 16.5t42.5 -16.5t16.5 -42.5t-16.5 -43t-42.5 -17zM21 0l212 660h135l212 -660h-122l-51 180h-217l-52 -180h-117zM215 271h167l-23 81
q-25 89 -59 218h-4q-25 -101 -58 -218z" />
    <glyph glyph-name="Aring" unicode="&#xc5;" 
d="M300 704q-46 0 -74.5 25.5t-28.5 67.5t29 68t74 26t74 -26t29 -68t-28.5 -67.5t-74.5 -25.5zM300 749q19 0 31.5 13t12.5 35q0 21 -13 34.5t-31 13.5q-19 0 -31.5 -13.5t-12.5 -34.5q0 -22 12.5 -35t31.5 -13zM21 0l212 660h135l212 -660h-122l-51 180h-217l-52 -180
h-117zM215 271h167l-23 81q-25 89 -59 218h-4q-25 -101 -58 -218z" />
    <glyph glyph-name="AE" unicode="&#xc6;" 
d="M-2 0l235 660h351v-97h-167v-170h133v-97h-133v-198h176v-98h-279v173h-138l-59 -173h-119zM206 263h108v309h-3q-14 -44 -68 -201z" />
    <glyph glyph-name="Ccedilla" unicode="&#xc7;" 
d="M260 -219l-10 50q86 10 86 46q0 31 -61 47l35 67q-111 18 -180 106t-69 231q0 159 84.5 251.5t217.5 92.5q108 0 186 -82l-64 -72q-54 54 -122 54q-83 0 -133.5 -64.5t-50.5 -175.5q0 -112 51 -178t136 -66q71 0 131 66l65 -70q-76 -89 -184 -96l-16 -35q59 -20 59 -74
q0 -44 -45.5 -68.5t-115.5 -29.5z" />
    <glyph glyph-name="Egrave" unicode="&#xc8;" 
d="M296 710l-116 117h125l84 -117h-93zM105 0v660h417v-97h-302v-171h256v-97h-256v-197h312v-98h-427z" />
    <glyph glyph-name="Eacute" unicode="&#xc9;" 
d="M264 710l84 117h125l-116 -117h-93zM105 0v660h417v-97h-302v-171h256v-97h-256v-197h312v-98h-427z" />
    <glyph glyph-name="Ecircumflex" unicode="&#xca;" 
d="M175 710l96 117h111l96 -117h-89l-60 65h-4l-61 -65h-89zM105 0v660h417v-97h-302v-171h256v-97h-256v-197h312v-98h-427z" />
    <glyph glyph-name="Edieresis" unicode="&#xcb;" 
d="M233 714q-25 0 -42 17t-17 43t17 42.5t42 16.5q27 0 43.5 -16.5t16.5 -42.5t-16.5 -43t-43.5 -17zM419 714q-25 0 -42 17t-17 43t17 42.5t42 16.5q26 0 42.5 -16.5t16.5 -42.5t-16.5 -43t-42.5 -17zM105 0v660h417v-97h-302v-171h256v-97h-256v-197h312v-98h-427z" />
    <glyph glyph-name="Igrave" unicode="&#xcc;" 
d="M270 710l-116 117h125l84 -117h-93zM85 0v98h157v465h-157v97h431v-97h-158v-465h158v-98h-431z" />
    <glyph glyph-name="Iacute" unicode="&#xcd;" 
d="M237 710l85 117h125l-117 -117h-93zM85 0v98h157v465h-157v97h431v-97h-158v-465h158v-98h-431z" />
    <glyph glyph-name="Icircumflex" unicode="&#xce;" 
d="M148 710l96 117h112l96 -117h-90l-60 65h-4l-60 -65h-90zM85 0v98h157v465h-157v97h431v-97h-158v-465h158v-98h-431z" />
    <glyph glyph-name="Idieresis" unicode="&#xcf;" 
d="M208 714q-26 0 -43 17t-17 43t17 42.5t43 16.5t42.5 -16.5t16.5 -42.5t-17 -43t-42 -17zM393 714q-26 0 -43 17t-17 43t17 42.5t43 16.5t42.5 -16.5t16.5 -42.5t-16.5 -43t-42.5 -17zM85 0v98h157v465h-157v97h431v-97h-158v-465h158v-98h-431z" />
    <glyph glyph-name="Eth" unicode="&#xd0;" 
d="M81 0v314h-72v54l72 6v286h170q147 0 227.5 -83t80.5 -244t-80.5 -247t-222.5 -86h-175zM197 94h46q95 0 146 59.5t51 179.5q0 234 -197 234h-46v-193h125v-60h-125v-220z" />
    <glyph glyph-name="Ntilde" unicode="&#xd1;" 
d="M149 713q6 57 32 90t64 33q29 0 66.5 -24.5t52.5 -24.5q30 0 39 49h61q-6 -57 -32 -90t-64 -33q-30 0 -68 25t-52 25q-30 0 -39 -50h-60zM75 0v660h117l176 -374l61 -140h3q-2 21 -6.5 67.5t-7 85t-2.5 71.5v290h110v-660h-118l-175 374l-61 139h-3q2 -23 6.5 -68.5
t7 -83.5t2.5 -70v-291h-110z" />
    <glyph glyph-name="Ograve" unicode="&#xd2;" 
d="M270 710l-116 117h125l84 -117h-93zM300 -12q-115 0 -186 93t-71 252q0 157 71 248t186 91q116 0 186.5 -91t70.5 -248q0 -159 -71 -252t-186 -93zM300 88q63 0 101 66.5t38 178.5q0 110 -38 174.5t-101 64.5t-100.5 -64t-37.5 -175q0 -112 37.5 -178.5t100.5 -66.5z" />
    <glyph glyph-name="Oacute" unicode="&#xd3;" 
d="M237 710l85 117h125l-117 -117h-93zM300 -12q-115 0 -186 93t-71 252q0 157 71 248t186 91q116 0 186.5 -91t70.5 -248q0 -159 -71 -252t-186 -93zM300 88q63 0 101 66.5t38 178.5q0 110 -38 174.5t-101 64.5t-100.5 -64t-37.5 -175q0 -112 37.5 -178.5t100.5 -66.5z" />
    <glyph glyph-name="Ocircumflex" unicode="&#xd4;" 
d="M148 710l96 117h112l96 -117h-90l-60 65h-4l-60 -65h-90zM300 -12q-115 0 -186 93t-71 252q0 157 71 248t186 91q116 0 186.5 -91t70.5 -248q0 -159 -71 -252t-186 -93zM300 88q63 0 101 66.5t38 178.5q0 110 -38 174.5t-101 64.5t-100.5 -64t-37.5 -175
q0 -112 37.5 -178.5t100.5 -66.5z" />
    <glyph glyph-name="Otilde" unicode="&#xd5;" 
d="M143 713q6 57 32 90t64 33q29 0 66.5 -24.5t52.5 -24.5q30 0 39 49h61q-6 -57 -32 -90t-64 -33q-30 0 -68 25t-52 25q-30 0 -39 -50h-60zM300 -12q-115 0 -186 93t-71 252q0 157 71 248t186 91q116 0 186.5 -91t70.5 -248q0 -159 -71 -252t-186 -93zM300 88
q63 0 101 66.5t38 178.5q0 110 -38 174.5t-101 64.5t-100.5 -64t-37.5 -175q0 -112 37.5 -178.5t100.5 -66.5z" />
    <glyph glyph-name="Odieresis" unicode="&#xd6;" 
d="M208 714q-26 0 -43 17t-17 43t17 42.5t43 16.5t42.5 -16.5t16.5 -42.5t-17 -43t-42 -17zM393 714q-26 0 -43 17t-17 43t17 42.5t43 16.5t42.5 -16.5t16.5 -42.5t-16.5 -43t-42.5 -17zM300 -12q-115 0 -186 93t-71 252q0 157 71 248t186 91q116 0 186.5 -91t70.5 -248
q0 -159 -71 -252t-186 -93zM300 88q63 0 101 66.5t38 178.5q0 110 -38 174.5t-101 64.5t-100.5 -64t-37.5 -175q0 -112 37.5 -178.5t100.5 -66.5z" />
    <glyph glyph-name="multiply" unicode="&#xd7;" 
d="M152 119l-59 60l148 151l-148 151l59 59l148 -151l149 151l58 -59l-148 -151l148 -151l-58 -60l-149 152z" />
    <glyph glyph-name="Oslash" unicode="&#xd8;" 
d="M101 -36l-63 42l63 94q-58 91 -58 233q0 158 71 249t186 91q89 0 152 -55l53 79l63 -41l-66 -97q55 -87 55 -226q0 -158 -71 -251.5t-186 -93.5q-87 0 -147 54zM178 211l204 320q-8 18 -31.5 30t-50.5 12q-63 0 -100.5 -64.5t-37.5 -175.5q0 -71 16 -122zM300 88
q63 0 101 66.5t38 178.5q0 65 -15 112l-209 -313q35 -44 85 -44z" />
    <glyph glyph-name="Ugrave" unicode="&#xd9;" 
d="M270 710l-116 117h125l84 -117h-93zM302 -12q-111 0 -170.5 65.5t-59.5 197.5v409h115v-416q0 -156 115 -156t115 156v416h112v-409q0 -132 -58.5 -197.5t-168.5 -65.5z" />
    <glyph glyph-name="Uacute" unicode="&#xda;" 
d="M237 710l85 117h125l-117 -117h-93zM302 -12q-111 0 -170.5 65.5t-59.5 197.5v409h115v-416q0 -156 115 -156t115 156v416h112v-409q0 -132 -58.5 -197.5t-168.5 -65.5z" />
    <glyph glyph-name="Ucircumflex" unicode="&#xdb;" 
d="M148 710l96 117h112l96 -117h-90l-60 65h-4l-60 -65h-90zM302 -12q-111 0 -170.5 65.5t-59.5 197.5v409h115v-416q0 -156 115 -156t115 156v416h112v-409q0 -132 -58.5 -197.5t-168.5 -65.5z" />
    <glyph glyph-name="Udieresis" unicode="&#xdc;" 
d="M208 714q-26 0 -43 17t-17 43t17 42.5t43 16.5t42.5 -16.5t16.5 -42.5t-17 -43t-42 -17zM393 714q-26 0 -43 17t-17 43t17 42.5t43 16.5t42.5 -16.5t16.5 -42.5t-16.5 -43t-42.5 -17zM302 -12q-111 0 -170.5 65.5t-59.5 198.5v408h115v-416q0 -156 115 -156t115 156v416
h112v-408q0 -133 -58.5 -198.5t-168.5 -65.5z" />
    <glyph glyph-name="Yacute" unicode="&#xdd;" 
d="M237 710l85 117h125l-117 -117h-93zM242 0v230l-215 430h123l83 -179q55 -125 67 -151h4q23 52 69 152l80 178h120l-215 -430v-230h-116z" />
    <glyph glyph-name="Thorn" unicode="&#xde;" 
d="M87 0v660h116v-105h104q249 0 249 -203q0 -106 -69 -160t-180 -54h-104v-138h-116zM203 231h94q145 0 145 121q0 60 -35.5 85t-109.5 25h-94v-231z" />
    <glyph glyph-name="germandbls" unicode="&#xdf;" 
d="M399 -13q-71 0 -141 44l41 79q50 -35 97 -35q30 0 47.5 18.5t17.5 46.5t-18.5 49.5t-44.5 36.5t-52.5 31.5t-45 44t-18.5 65.5q0 46 37.5 105t37.5 101q0 34 -18.5 56t-50.5 22q-99 0 -99 -138v-513h-114v524q0 99 56 159t158 60q83 0 129.5 -47.5t46.5 -115.5
q0 -34 -11.5 -65t-26 -49t-26 -41t-11.5 -44q0 -22 18.5 -39.5t44.5 -32t52 -32.5t44.5 -50.5t18.5 -76.5q0 -70 -45.5 -116.5t-123.5 -46.5z" />
    <glyph glyph-name="agrave" unicode="&#xe0;" 
d="M335 574l-125 157h120l90 -157h-85zM235 -13q-72 0 -118 41.5t-46 107.5q0 87 79 131.5t261 58.5q-7 104 -118 104q-74 0 -140 -55l-42 76q35 30 89.5 51t114.5 21q102 0 156 -57t54 -162v-304h-93l-9 64h-4q-98 -77 -184 -77zM270 78q69 0 141 64v112
q-126 -9 -177.5 -36t-51.5 -73q0 -34 24.5 -50.5t63.5 -16.5z" />
    <glyph glyph-name="aacute" unicode="&#xe1;" 
d="M210 574l89 157h120l-124 -157h-85zM235 -13q-72 0 -118 41.5t-46 107.5q0 87 79 131.5t261 58.5q-7 104 -118 104q-74 0 -140 -55l-42 76q35 30 89.5 51t114.5 21q102 0 156 -57t54 -162v-304h-93l-9 64h-4q-98 -77 -184 -77zM270 78q69 0 141 64v112
q-126 -9 -177.5 -36t-51.5 -73q0 -34 24.5 -50.5t63.5 -16.5z" />
    <glyph glyph-name="acircumflex" unicode="&#xe2;" 
d="M168 574l99 157h97l98 -157h-85l-60 97h-4l-60 -97h-85zM235 -13q-72 0 -118 41.5t-46 107.5q0 87 79 131.5t261 58.5q-7 104 -118 104q-74 0 -140 -55l-42 76q35 30 89.5 51t114.5 21q102 0 156 -57t54 -162v-304h-93l-9 64h-4q-98 -77 -184 -77zM270 78q69 0 141 64
v112q-126 -9 -177.5 -36t-51.5 -73q0 -34 24.5 -50.5t63.5 -16.5z" />
    <glyph glyph-name="atilde" unicode="&#xe3;" 
d="M159 577q7 60 33 93t69 33q27 0 61 -26.5t47 -26.5q31 0 42 53h61q-8 -60 -34.5 -93t-68.5 -33q-27 0 -61 27t-47 27q-31 0 -41 -54h-61zM235 -13q-72 0 -118 41.5t-46 107.5q0 87 79 131.5t261 58.5q-7 104 -118 104q-74 0 -140 -55l-42 76q35 30 89.5 51t114.5 21
q102 0 156 -57t54 -162v-304h-93l-9 64h-4q-98 -77 -184 -77zM270 78q69 0 141 64v112q-126 -9 -177.5 -36t-51.5 -73q0 -34 24.5 -50.5t63.5 -16.5z" />
    <glyph glyph-name="adieresis" unicode="&#xe4;" 
d="M213 580q-29 0 -48 19t-19 48q0 28 19 47t48 19q28 0 47 -19t19 -47q0 -29 -19 -48t-47 -19zM418 580q-29 0 -47.5 19t-18.5 48q0 28 18.5 47t47.5 19t47.5 -19t18.5 -47q0 -29 -18.5 -48t-47.5 -19zM235 -13q-72 0 -118 41.5t-46 107.5q0 87 79 131.5t261 58.5
q-7 104 -118 104q-74 0 -140 -55l-42 76q35 30 89.5 51t114.5 21q102 0 156 -57t54 -162v-304h-93l-9 64h-4q-98 -77 -184 -77zM270 78q69 0 141 64v112q-126 -9 -177.5 -36t-51.5 -73q0 -34 24.5 -50.5t63.5 -16.5z" />
    <glyph glyph-name="aring" unicode="&#xe5;" 
d="M315 545q-45 0 -74 27t-29 71q0 43 29 70t74 27q46 0 74.5 -27t28.5 -70q0 -44 -28.5 -71t-74.5 -27zM315 591q19 0 32 14.5t13 37.5q0 22 -13 36.5t-32 14.5t-31.5 -14.5t-12.5 -36.5q0 -23 12.5 -37.5t31.5 -14.5zM235 -13q-72 0 -118 41.5t-46 107.5q0 87 79 131.5
t261 58.5q-7 104 -118 104q-74 0 -140 -55l-42 76q35 30 89.5 51t114.5 21q102 0 156 -57t54 -162v-304h-93l-9 64h-4q-98 -77 -184 -77zM270 78q69 0 141 64v112q-126 -9 -177.5 -36t-51.5 -73q0 -34 24.5 -50.5t63.5 -16.5z" />
    <glyph glyph-name="ae" unicode="&#xe6;" 
d="M151 -13q-63 0 -98.5 42t-35.5 110q0 75 58 120.5t178 66.5q-3 105 -72 105q-48 0 -108 -40l-42 76q87 56 160 56q83 0 119 -91q51 91 134 91q72 0 111.5 -68t39.5 -171q0 -20 -5 -60h-243q6 -69 33.5 -107.5t73.5 -38.5q40 0 87 30l39 -74q-61 -47 -130 -47
q-97 0 -150 89q-80 -89 -149 -89zM346 297h156q0 137 -68 137q-36 0 -60 -36t-28 -101zM181 78q47 0 87 57q-13 39 -15 95l-1 24q-131 -25 -131 -108q0 -68 60 -68z" />
    <glyph glyph-name="ccedilla" unicode="&#xe7;" 
d="M327 -47q59 -20 59 -72q0 -45 -45.5 -69t-115.5 -29l-9 50q85 10 85 46q0 31 -61 45l35 71q-91 19 -146 87t-55 173q0 123 81 195.5t198 72.5q108 0 181 -73l-54 -72q-58 51 -122 51q-74 0 -120 -48t-46 -126t45 -126t118 -48q71 0 141 57l48 -73q-89 -78 -199 -78l-2 1z
" />
    <glyph glyph-name="egrave" unicode="&#xe8;" 
d="M335 574l-125 157h120l90 -157h-85zM330 -13q-115 0 -191.5 72.5t-76.5 195.5q0 120 75.5 194t177.5 74q107 0 167 -67t60 -175q0 -25 -5 -57h-357q5 -69 51 -108t114 -39q70 0 138 42l39 -72q-92 -60 -192 -60zM179 303h258q0 62 -31 96.5t-89 34.5q-51 0 -90 -34.5
t-48 -96.5z" />
    <glyph glyph-name="eacute" unicode="&#xe9;" 
d="M210 574l89 157h120l-124 -157h-85zM330 -13q-115 0 -191.5 72.5t-76.5 195.5q0 120 75.5 194t177.5 74q107 0 167 -67t60 -175q0 -25 -5 -57h-357q5 -69 51 -108t114 -39q70 0 138 42l39 -72q-92 -60 -192 -60zM179 303h258q0 62 -31 96.5t-89 34.5q-51 0 -90 -34.5
t-48 -96.5z" />
    <glyph glyph-name="ecircumflex" unicode="&#xea;" 
d="M168 574l99 157h97l98 -157h-85l-60 97h-4l-60 -97h-85zM330 -13q-115 0 -191.5 72.5t-76.5 195.5q0 120 75.5 194t177.5 74q107 0 167 -67t60 -175q0 -25 -5 -57h-357q5 -69 51 -108t114 -39q70 0 138 42l39 -72q-92 -60 -192 -60zM179 303h258q0 62 -31 96.5t-89 34.5
q-51 0 -90 -34.5t-48 -96.5z" />
    <glyph glyph-name="edieresis" unicode="&#xeb;" 
d="M213 580q-29 0 -48 19t-19 48q0 28 19 47t48 19q28 0 47 -19t19 -47q0 -29 -19 -48t-47 -19zM418 580q-29 0 -47.5 19t-18.5 48q0 28 18.5 47t47.5 19t47.5 -19t18.5 -47q0 -29 -18.5 -48t-47.5 -19zM330 -13q-115 0 -191.5 72.5t-76.5 195.5q0 120 75.5 194t177.5 74
q107 0 167 -67t60 -175q0 -25 -5 -57h-357q5 -69 51 -108t114 -39q70 0 138 42l39 -72q-92 -60 -192 -60zM179 303h258q0 62 -31 96.5t-89 34.5q-51 0 -90 -34.5t-48 -96.5z" />
    <glyph glyph-name="igrave" unicode="&#xec;" 
d="M329 566l-125 157h120l90 -157h-85zM81 0v94h179v325h-179v91h294v-416h179v-94h-473z" />
    <glyph glyph-name="iacute" unicode="&#xed;" 
d="M204 566l89 157h120l-124 -157h-85zM81 0v94h179v325h-179v91h294v-416h179v-94h-473z" />
    <glyph glyph-name="icircumflex" unicode="&#xee;" 
d="M162 566l99 157h97l98 -157h-85l-60 97h-4l-60 -97h-85zM81 0v94h179v325h-179v91h294v-416h179v-94h-473z" />
    <glyph glyph-name="idieresis" unicode="&#xef;" 
d="M207 572q-29 0 -48 19t-19 48q0 28 19 47t48 19q28 0 47 -19t19 -47q0 -29 -19 -48t-47 -19zM412 572q-29 0 -47.5 19t-18.5 48q0 28 18.5 47t47.5 19t47.5 -19t18.5 -47q0 -29 -18.5 -48t-47.5 -19zM81 0v94h179v325h-179v91h294v-416h179v-94h-473z" />
    <glyph glyph-name="eth" unicode="&#xf0;" 
d="M297 -13q-102 0 -172.5 68t-70.5 179q0 106 64.5 170.5t159.5 64.5q89 0 143 -72q-24 104 -110 183l-149 -79l-31 53l126 68q-39 29 -107 63l51 71q84 -40 147 -88l135 72l31 -54l-115 -61q144 -139 144 -354q0 -126 -66.5 -205t-179.5 -79zM300 81q65 0 100 49.5
t35 135.5q0 28 -1 41q-55 75 -135 75q-66 0 -103 -40t-37 -108q0 -69 40.5 -111t100.5 -42z" />
    <glyph glyph-name="ntilde" unicode="&#xf1;" 
d="M154 577q7 60 33 93t69 33q27 0 61 -26.5t47 -26.5q31 0 42 53h61q-8 -60 -34.5 -93t-68.5 -33q-27 0 -61 27t-47 27q-31 0 -41 -54h-61zM83 0v510h94l9 -79h4q85 92 177 92q165 0 165 -207v-316h-115v301q0 64 -21.5 94t-70.5 30q-35 0 -63 -17.5t-65 -58.5v-349h-114z
" />
    <glyph glyph-name="ograve" unicode="&#xf2;" 
d="M320 574l-125 157h120l90 -157h-85zM300 -13q-102 0 -174 72.5t-72 195.5t72 195.5t174 72.5t174.5 -72.5t72.5 -195.5t-72.5 -195.5t-174.5 -72.5zM300 81q60 0 94.5 47t34.5 127q0 79 -34.5 126.5t-94.5 47.5q-59 0 -93.5 -47.5t-34.5 -126.5t34 -126.5t94 -47.5z" />
    <glyph glyph-name="oacute" unicode="&#xf3;" 
d="M195 574l89 157h120l-124 -157h-85zM300 -13q-102 0 -174 72.5t-72 195.5t72 195.5t174 72.5t174.5 -72.5t72.5 -195.5t-72.5 -195.5t-174.5 -72.5zM300 81q60 0 94.5 47t34.5 127q0 79 -34.5 126.5t-94.5 47.5q-59 0 -93.5 -47.5t-34.5 -126.5t34 -126.5t94 -47.5z" />
    <glyph glyph-name="ocircumflex" unicode="&#xf4;" 
d="M153 574l99 157h97l98 -157h-85l-60 97h-4l-60 -97h-85zM300 -13q-102 0 -174 72.5t-72 195.5t72 195.5t174 72.5t174.5 -72.5t72.5 -195.5t-72.5 -195.5t-174.5 -72.5zM300 81q60 0 94.5 47t34.5 127q0 79 -34.5 126.5t-94.5 47.5q-59 0 -93.5 -47.5t-34.5 -126.5
t34 -126.5t94 -47.5z" />
    <glyph glyph-name="otilde" unicode="&#xf5;" 
d="M144 577q7 60 33 93t69 33q27 0 61 -26.5t47 -26.5q31 0 42 53h61q-8 -60 -34.5 -93t-68.5 -33q-27 0 -61 27t-47 27q-31 0 -41 -54h-61zM300 -13q-102 0 -174 72.5t-72 195.5t72 195.5t174 72.5t174.5 -72.5t72.5 -195.5t-72.5 -195.5t-174.5 -72.5zM300 81
q60 0 94.5 47t34.5 127q0 79 -34.5 126.5t-94.5 47.5q-59 0 -93.5 -47.5t-34.5 -126.5t34 -126.5t94 -47.5z" />
    <glyph glyph-name="odieresis" unicode="&#xf6;" 
d="M198 580q-29 0 -48 19t-19 48q0 28 19 47t48 19q28 0 47 -19t19 -47q0 -29 -19 -48t-47 -19zM403 580q-29 0 -47.5 19t-18.5 48q0 28 18.5 47t47.5 19t47.5 -19t18.5 -47q0 -29 -18.5 -48t-47.5 -19zM300 -13q-102 0 -174 72.5t-72 195.5t72 195.5t174 72.5t174.5 -72.5
t72.5 -195.5t-72.5 -195.5t-174.5 -72.5zM300 81q60 0 94.5 47t34.5 127q0 79 -34.5 126.5t-94.5 47.5q-59 0 -93.5 -47.5t-34.5 -126.5t34 -126.5t94 -47.5z" />
    <glyph glyph-name="divide" unicode="&#xf7;" 
d="M300 445q-29 0 -48 19t-19 48t19 48.5t48 19.5t48.5 -19.5t19.5 -48.5t-19.5 -48t-48.5 -19zM78 289v83h445v-83h-445zM300 81q-29 0 -48 18.5t-19 48.5t19 49t48 19t48.5 -19t19.5 -49t-19 -48.5t-49 -18.5z" />
    <glyph glyph-name="oslash" unicode="&#xf8;" 
d="M110 -25l-46 37l50 61q-60 73 -60 182q0 123 72 195.5t174 72.5q79 0 142 -46l48 59l46 -37l-50 -62q61 -74 61 -182q0 -123 -72.5 -195.5t-174.5 -72.5q-78 0 -142 47zM189 162l190 239q-33 31 -79 31q-59 0 -93.5 -49t-34.5 -128q0 -54 17 -93zM300 78q60 0 94.5 48.5
t34.5 128.5q0 53 -17 95l-191 -240q34 -32 79 -32z" />
    <glyph glyph-name="ugrave" unicode="&#xf9;" 
d="M320 574l-125 157h120l90 -157h-85zM235 -13q-165 0 -165 207v316h115v-301q0 -64 21 -93.5t71 -29.5q34 0 62.5 18t61.5 61v345h114v-510h-93l-9 82h-4q-80 -95 -174 -95z" />
    <glyph glyph-name="uacute" unicode="&#xfa;" 
d="M195 574l89 157h120l-124 -157h-85zM235 -13q-165 0 -165 207v316h115v-301q0 -64 21 -93.5t71 -29.5q34 0 62.5 18t61.5 61v345h114v-510h-93l-9 82h-4q-80 -95 -174 -95z" />
    <glyph glyph-name="ucircumflex" unicode="&#xfb;" 
d="M153 574l99 157h97l98 -157h-85l-60 97h-4l-60 -97h-85zM235 -13q-165 0 -165 207v316h115v-301q0 -64 21 -93.5t71 -29.5q34 0 62.5 18t61.5 61v345h114v-510h-93l-9 82h-4q-80 -95 -174 -95z" />
    <glyph glyph-name="udieresis" unicode="&#xfc;" 
d="M198 580q-29 0 -48 19t-19 48q0 28 19 47t48 19q28 0 47 -19t19 -47q0 -29 -19 -48t-47 -19zM403 580q-29 0 -47.5 19t-18.5 48q0 28 18.5 47t47.5 19t47.5 -19t18.5 -47q0 -29 -18.5 -48t-47.5 -19zM235 -13q-165 0 -165 207v316h115v-301q0 -64 21 -93.5t71 -29.5
q34 0 62.5 18t61.5 61v345h114v-510h-93l-9 82h-4q-80 -95 -174 -95z" />
    <glyph glyph-name="yacute" unicode="&#xfd;" 
d="M205 574l89 157h120l-124 -157h-85zM137 -217q-38 0 -70 10l22 88q19 -6 41 -6q80 0 116 91l15 39l-221 505h115l101 -255q21 -54 55 -150h4q23 73 48 150l90 255h108l-205 -543q-34 -91 -84.5 -137.5t-134.5 -46.5z" />
    <glyph glyph-name="thorn" unicode="&#xfe;" 
d="M83 -195v855h114v-121l-3 -86q72 70 152 70q94 0 147.5 -70t53.5 -190q0 -125 -64.5 -200.5t-153.5 -75.5q-67 0 -134 62l2 -91v-153h-114zM305 82q54 0 89 47.5t35 132.5q0 166 -115 166q-57 0 -117 -64v-233q52 -49 108 -49z" />
    <glyph glyph-name="ydieresis" unicode="&#xff;" 
d="M208 580q-29 0 -48 19t-19 48q0 28 19 47t48 19q28 0 47 -19t19 -47q0 -29 -19 -48t-47 -19zM413 580q-29 0 -47.5 19t-18.5 48q0 28 18.5 47t47.5 19t47.5 -19t18.5 -47q0 -29 -18.5 -48t-47.5 -19zM137 -217q-38 0 -70 10l22 88q19 -6 41 -6q80 0 116 91l15 39
l-221 505h115l101 -255q21 -54 55 -150h4q23 73 48 150l90 255h108l-205 -543q-34 -91 -84.5 -137.5t-134.5 -46.5z" />
    <glyph glyph-name="Amacron" unicode="&#x100;" 
d="M168 731v75h265v-75h-265zM21 0l212 660h135l212 -660h-122l-51 180h-217l-52 -180h-117zM215 271h167l-23 82q-28 99 -59 217h-4q-25 -102 -58 -217z" />
    <glyph glyph-name="amacron" unicode="&#x101;" 
d="M185 597v75h261v-75h-261zM235 -13q-72 0 -118 41.5t-46 107.5q0 87 79 131.5t261 58.5q-7 104 -118 104q-74 0 -140 -55l-42 76q35 30 89.5 51t114.5 21q102 0 156 -57t54 -162v-304h-93l-9 64h-4q-98 -77 -184 -77zM270 78q69 0 141 64v112q-126 -9 -177.5 -36
t-51.5 -73q0 -34 24.5 -50.5t63.5 -16.5z" />
    <glyph glyph-name="Abreve" unicode="&#x102;" 
d="M300 711q-59 0 -91.5 32t-38.5 84h66q12 -56 64 -56q53 0 65 56h65q-6 -52 -38 -84t-92 -32zM21 0l212 660h135l212 -660h-122l-51 180h-217l-52 -180h-117zM215 271h167l-23 81q-23 80 -59 217h-4q-25 -102 -58 -217z" />
    <glyph glyph-name="abreve" unicode="&#x103;" 
d="M315 575q-65 0 -100.5 42.5t-37.5 102.5h66q5 -35 23 -57t49 -22q32 0 50 22t22 57h67q-3 -60 -38 -102.5t-101 -42.5zM235 -13q-72 0 -118 41.5t-46 107.5q0 87 79 131.5t261 58.5q-7 104 -118 104q-74 0 -140 -55l-42 76q35 30 89.5 51t114.5 21q102 0 156 -57t54 -162
v-304h-93l-9 64h-4q-98 -77 -184 -77zM270 78q69 0 141 64v112q-126 -9 -177.5 -36t-51.5 -73q0 -34 24.5 -50.5t63.5 -16.5z" />
    <glyph glyph-name="Aogonek" unicode="&#x104;" 
d="M514 -219q-46 0 -75.5 24t-29.5 67q0 40 24 75t54 53h-29l-51 180h-217l-52 -180h-117l212 660h135l212 -660q-37 -9 -61 -38.5t-24 -61.5q0 -20 12 -31t30 -11q22 0 41 14l28 -60q-40 -31 -92 -31zM215 271h167l-23 82q-28 99 -59 217h-4q-25 -102 -58 -217z" />
    <glyph glyph-name="aogonek" unicode="&#x105;" 
d="M514 -125l26 -53q-37 -30 -90 -30q-42 0 -70 23t-28 65q0 38 21.5 70.5t49.5 52.5h8l-8 61h-4q-98 -77 -184 -77q-72 0 -118 41.5t-46 107.5q0 87 79 131.5t261 58.5q-7 104 -118 104q-74 0 -140 -55l-42 76q35 30 89.5 51t114.5 21q102 0 156 -57t54 -162v-304h-36
q-57 -46 -57 -95q0 -20 13 -31t31 -11q21 0 38 12zM411 142v112q-126 -9 -177.5 -36t-51.5 -73q0 -34 24.5 -50.5t63.5 -16.5q69 0 141 64z" />
    <glyph glyph-name="Cacute" unicode="&#x106;" 
d="M288 710l84 117h125l-116 -117h-93zM359 -12q-130 0 -214 90.5t-84 249.5q0 158 84.5 251t217.5 93q106 0 186 -82l-64 -72q-56 54 -122 54q-83 0 -133.5 -65t-50.5 -176q0 -112 51 -177.5t136 -65.5q71 0 131 66l65 -70q-82 -96 -203 -96z" />
    <glyph glyph-name="cacute" unicode="&#x107;" 
d="M220 574l89 157h120l-124 -157h-85zM345 -13q-119 0 -195 72t-76 196q0 123 81 195.5t198 72.5q108 0 181 -73l-54 -72q-58 51 -122 51q-74 0 -120 -48t-46 -126t45 -126t118 -48q71 0 141 57l48 -73q-89 -78 -199 -78z" />
    <glyph glyph-name="Ccircumflex" unicode="&#x108;" 
d="M199 710l96 117h111l96 -117h-89l-60 65h-4l-61 -65h-89zM359 -12q-130 0 -214 90.5t-84 249.5q0 158 84.5 251t217.5 93q106 0 186 -82l-64 -72q-56 54 -122 54q-83 0 -133.5 -65t-50.5 -176q0 -112 51 -177.5t136 -65.5q71 0 131 66l65 -70q-82 -96 -203 -96z" />
    <glyph glyph-name="ccircumflex" unicode="&#x109;" 
d="M178 574l99 157h97l98 -157h-85l-60 97h-4l-60 -97h-85zM345 -13q-119 0 -195 72t-76 196q0 123 81 195.5t198 72.5q108 0 181 -73l-54 -72q-58 51 -122 51q-74 0 -120 -48t-46 -126t45 -126t118 -48q71 0 141 57l48 -73q-89 -78 -199 -78z" />
    <glyph glyph-name="Cdotaccent" unicode="&#x10a;" 
d="M351 714q-31 0 -51.5 18.5t-20.5 47.5q0 28 20.5 46.5t51.5 18.5q30 0 50.5 -18.5t20.5 -46.5q0 -29 -20.5 -47.5t-50.5 -18.5zM359 -12q-130 0 -214 90.5t-84 249.5q0 158 84.5 251t217.5 93q108 0 186 -82l-64 -72q-56 54 -122 54q-83 0 -133.5 -65t-50.5 -175
q0 -113 51 -178.5t136 -65.5q71 0 131 66l65 -70q-82 -96 -203 -96z" />
    <glyph glyph-name="cdotaccent" unicode="&#x10b;" 
d="M325 605q-37 0 -61 23t-24 61t24.5 62t60.5 24q37 0 61 -24t24 -62t-24 -61t-61 -23zM345 -13q-119 0 -195 72t-76 196q0 123 81 195.5t198 72.5q108 0 181 -73l-54 -72q-58 51 -122 51q-74 0 -120 -48t-46 -126t45 -126t118 -48q71 0 141 57l48 -73q-89 -78 -199 -78z
" />
    <glyph glyph-name="Ccaron" unicode="&#x10c;" 
d="M295 710l-96 117h89l61 -66h4l60 66h89l-96 -117h-111zM359 -12q-130 0 -214 90.5t-84 249.5q0 158 84.5 251t217.5 93q106 0 186 -82l-64 -72q-56 54 -122 54q-83 0 -133.5 -65t-50.5 -176q0 -112 51 -177.5t136 -65.5q71 0 131 66l65 -70q-82 -96 -203 -96z" />
    <glyph glyph-name="ccaron" unicode="&#x10d;" 
d="M277 574l-99 157h85l60 -97h4l60 97h85l-98 -157h-97zM345 -13q-119 0 -195 72t-76 196q0 123 81 195.5t198 72.5q108 0 181 -73l-54 -72q-58 51 -122 51q-74 0 -120 -48t-46 -126t45 -126t118 -48q71 0 141 57l48 -73q-89 -78 -199 -78z" />
    <glyph glyph-name="Dcaron" unicode="&#x10e;" 
d="M242 710l-96 117h90l60 -66h4l60 66h89l-96 -117h-111zM75 0v660h169q147 0 228 -83.5t81 -243.5q0 -161 -80.5 -247t-222.5 -86h-175zM191 94h46q197 0 197 239q0 233 -197 233h-46v-472z" />
    <glyph glyph-name="dcaron" unicode="&#x10f;" 
d="M542 559l-4 225h76l-1 -64l-19 -161h-52zM248 -13q-96 0 -153 71t-57 197q0 120 64.5 194t151.5 74q72 0 137 -62l-4 88v176h115v-725h-94l-9 61h-4q-70 -74 -147 -74zM275 82q61 0 112 64v234q-48 48 -106 48q-53 0 -89.5 -47t-36.5 -125q0 -83 31.5 -128.5t88.5 -45.5z
" />
    <glyph glyph-name="Dcroat" unicode="&#x110;" 
d="M81 0v314h-72v54l72 6v286h170q147 0 227.5 -83t80.5 -244t-80.5 -247t-222.5 -86h-175zM197 94h46q95 0 146 59.5t51 179.5q0 234 -197 234h-46v-193h125v-60h-125v-220z" />
    <glyph glyph-name="dcroat" unicode="&#x111;" 
d="M264 -13q-96 0 -153 68.5t-57 188.5q0 115 64.5 186.5t151.5 71.5q71 0 137 -61l-4 88v48h-164v60h164v88h115v-88h69v-54l-69 -6v-577h-94l-9 61h-3q-72 -74 -148 -74zM291 82q61 0 112 64v213q-49 48 -104 48q-54 0 -90.5 -43.5t-36.5 -117.5q0 -79 31 -121.5t88 -42.5
z" />
    <glyph glyph-name="Emacron" unicode="&#x112;" 
d="M194 731v75h265v-75h-265zM105 0v660h417v-97h-302v-171h256v-97h-256v-197h312v-98h-427z" />
    <glyph glyph-name="emacron" unicode="&#x113;" 
d="M185 597v75h261v-75h-261zM330 -13q-115 0 -191.5 72.5t-76.5 195.5q0 120 75.5 194t177.5 74q107 0 167 -67t60 -175q0 -25 -5 -57h-357q5 -69 51 -108t114 -39q70 0 138 42l39 -72q-92 -60 -192 -60zM179 303h258q0 62 -31 96.5t-89 34.5q-51 0 -90 -34.5t-48 -96.5z
" />
    <glyph glyph-name="Ebreve" unicode="&#x114;" 
d="M327 711q-60 0 -92.5 32.5t-37.5 83.5h65q12 -56 65 -56q52 0 64 56h65q-6 -52 -38 -84t-91 -32zM105 0v660h417v-97h-302v-171h256v-97h-256v-197h312v-98h-427z" />
    <glyph glyph-name="ebreve" unicode="&#x115;" 
d="M315 575q-65 0 -100.5 42.5t-37.5 102.5h66q5 -35 23 -57t49 -22q32 0 50 22t22 57h67q-3 -60 -38 -102.5t-101 -42.5zM330 -13q-115 0 -191.5 72.5t-76.5 195.5q0 120 75.5 194t177.5 74q107 0 167 -67t60 -175q0 -25 -5 -57h-357q5 -69 51 -108t114 -39q70 0 138 42
l39 -72q-92 -60 -192 -60zM179 303h258q0 62 -31 96.5t-89 34.5q-51 0 -90 -34.5t-48 -96.5z" />
    <glyph glyph-name="Edotaccent" unicode="&#x116;" 
d="M327 714q-31 0 -51.5 18.5t-20.5 47.5q0 28 20.5 46.5t51.5 18.5q30 0 50 -18.5t20 -46.5q0 -29 -20 -47.5t-50 -18.5zM105 0v660h417v-97h-302v-171h256v-97h-256v-197h312v-98h-427z" />
    <glyph glyph-name="edotaccent" unicode="&#x117;" 
d="M315 605q-37 0 -61 23t-24 61t24.5 62t60.5 24q37 0 61 -24t24 -62t-24 -61t-61 -23zM330 -13q-115 0 -191.5 72.5t-76.5 195.5q0 120 75.5 194t177.5 74q107 0 167 -67t60 -175q0 -25 -5 -57h-357q5 -69 51 -108t114 -39q70 0 138 42l39 -72q-92 -60 -192 -60zM179 303
h258q0 62 -31 96.5t-89 34.5q-51 0 -90 -34.5t-48 -96.5z" />
    <glyph glyph-name="Eogonek" unicode="&#x118;" 
d="M458 -219q-45 0 -75 24t-30 67q0 40 23 74t54 54h-325v660h417v-97h-302v-171h256v-97h-256v-197h312v-98h-4q-35 -3 -62 -33t-27 -67q0 -20 13 -31t32 -11t38 14l28 -60q-40 -31 -92 -31z" />
    <glyph glyph-name="eogonek" unicode="&#x119;" 
d="M542 281q0 -25 -5 -57h-357q5 -69 51 -108t114 -39q70 0 138 42l39 -72q-50 -33 -110 -49q-55 -44 -55 -93q0 -20 13 -31t31 -11q21 0 38 12l26 -53q-37 -30 -90 -30q-42 0 -70 23t-28 65q0 56 52 108q-115 0 -191 72t-76 195q0 120 75.5 194t177.5 74q107 0 167 -67
t60 -175zM179 303h258q0 62 -31 96.5t-89 34.5q-51 0 -90 -34.5t-48 -96.5z" />
    <glyph glyph-name="Ecaron" unicode="&#x11a;" 
d="M271 710l-96 117h89l61 -66h4l60 66h89l-96 -117h-111zM105 0v660h417v-97h-302v-171h256v-97h-256v-197h312v-98h-427z" />
    <glyph glyph-name="ecaron" unicode="&#x11b;" 
d="M267 574l-99 157h85l60 -97h4l60 97h85l-98 -157h-97zM330 -13q-115 0 -191.5 72.5t-76.5 195.5q0 120 75.5 194t177.5 74q107 0 167 -67t60 -175q0 -25 -5 -57h-357q5 -69 51 -108t114 -39q70 0 138 42l39 -72q-92 -60 -192 -60zM179 303h258q0 62 -31 96.5t-89 34.5
q-51 0 -90 -34.5t-48 -96.5z" />
    <glyph glyph-name="Gcircumflex" unicode="&#x11c;" 
d="M180 710l96 117h111l96 -117h-90l-60 65h-4l-60 -65h-89zM340 -12q-128 0 -209.5 90.5t-81.5 249.5t83 251.5t213 92.5q104 0 186 -82l-64 -72q-52 54 -122 54q-79 0 -128 -65.5t-49 -175.5q0 -114 46.5 -178.5t132.5 -64.5q57 0 89 30v144h-113v94h217v-290
q-35 -34 -87.5 -56t-112.5 -22z" />
    <glyph glyph-name="gcircumflex" unicode="&#x11d;" 
d="M153 574l99 157h97l98 -157h-85l-60 97h-4l-60 -97h-85zM275 -222q-116 0 -193 78l44 75q62 -63 149 -63q62 0 96.5 32.5t35.5 91.5l2 83q-63 -66 -146 -66q-94 0 -151.5 69.5t-57.5 184.5q0 116 64 188t154 72q80 0 142 -68h4l9 55h91v-510q0 -107 -62.5 -164.5
t-180.5 -57.5zM291 102q60 0 112 65v213q-48 48 -107 48q-51 0 -88.5 -45.5t-37.5 -117.5q0 -75 33 -119t88 -44z" />
    <glyph glyph-name="Gbreve" unicode="&#x11e;" 
d="M331 711q-60 0 -92 32t-38 84h66q12 -56 64 -56q53 0 65 56h65q-6 -52 -38 -84t-92 -32zM340 -12q-128 0 -209.5 90.5t-81.5 249.5t83 251.5t213 92.5q104 0 186 -82l-64 -72q-52 54 -122 54q-79 0 -128 -65.5t-49 -175.5q0 -114 46.5 -178.5t132.5 -64.5q57 0 89 30v144
h-113v94h217v-290q-35 -34 -87.5 -56t-112.5 -22z" />
    <glyph glyph-name="gbreve" unicode="&#x11f;" 
d="M300 575q-65 0 -100.5 42.5t-37.5 102.5h66q5 -35 23 -57t49 -22q32 0 50 22t22 57h67q-3 -60 -38 -102.5t-101 -42.5zM275 -222q-116 0 -193 78l44 75q62 -63 149 -63q62 0 96.5 32.5t35.5 91.5l2 83q-63 -66 -146 -66q-94 0 -151.5 69.5t-57.5 184.5q0 116 64 188
t154 72q80 0 142 -68h4l9 55h91v-510q0 -107 -62.5 -164.5t-180.5 -57.5zM291 102q60 0 112 65v213q-48 48 -107 48q-51 0 -88.5 -45.5t-37.5 -117.5q0 -75 33 -119t88 -44z" />
    <glyph glyph-name="Gdotaccent" unicode="&#x120;" 
d="M331 714q-31 0 -51 18.5t-20 47.5q0 28 20 46.5t51 18.5t51 -18.5t20 -46.5q0 -29 -20 -47.5t-51 -18.5zM340 -12q-128 0 -209.5 90.5t-81.5 249.5t82.5 251.5t213.5 92.5q106 0 186 -82l-64 -72q-52 54 -122 54q-79 0 -128 -65t-49 -175q0 -115 46.5 -179.5t132.5 -64.5
q57 0 89 30v144h-113v94h217v-290q-35 -34 -87.5 -56t-112.5 -22z" />
    <glyph glyph-name="gdotaccent" unicode="&#x121;" 
d="M300 605q-37 0 -61 23t-24 61t24.5 62t60.5 24q37 0 61 -24t24 -62t-24 -61t-61 -23zM275 -222q-116 0 -193 78l44 75q62 -63 149 -63q62 0 96.5 32.5t35.5 91.5l2 83q-63 -66 -146 -66q-94 0 -151.5 69.5t-57.5 184.5q0 116 64 188t154 72q80 0 142 -68h4l9 55h91v-510
q0 -107 -62.5 -164.5t-180.5 -57.5zM291 102q60 0 112 65v213q-48 48 -107 48q-51 0 -88.5 -45.5t-37.5 -117.5q0 -75 33 -119t88 -44z" />
    <glyph glyph-name="Hcircumflex" unicode="&#x124;" 
d="M148 710l96 117h111l96 -117h-89l-60 65h-4l-60 -65h-90zM72 0v660h115v-266h226v266h116v-660h-116v294h-226v-294h-115z" />
    <glyph glyph-name="hcircumflex" unicode="&#x125;" 
d="M-4 769l96 119h111l96 -119h-89l-61 67h-4l-60 -67h-89zM83 0v725h114v-181l-6 -111q84 90 176 90q165 0 165 -207v-316h-115v301q0 64 -21.5 94t-70.5 30q-35 0 -63 -17.5t-65 -58.5v-349h-114z" />
    <glyph glyph-name="Hbar" unicode="&#x126;" 
d="M72 0v494h-65v53l65 5v108h115v-107h226v107h116v-107h65v-59h-65v-494h-116v294h-226v-294h-115zM187 394h226v100h-226v-100z" />
    <glyph glyph-name="hbar" unicode="&#x127;" 
d="M83 0v577h-70v54l70 5v89h114v-88h197v-60h-197v-54l-6 -111q83 90 176 90q165 0 165 -207v-295h-115v280q0 64 -21.5 94t-70.5 30q-35 0 -63 -17.5t-65 -58.5v-328h-114z" />
    <glyph glyph-name="Itilde" unicode="&#x128;" 
d="M143 713q6 57 32 90t64 33q29 0 66.5 -24.5t52.5 -24.5q30 0 39 49h61q-6 -57 -32 -90t-64 -33q-30 0 -68 25t-52 25q-30 0 -39 -50h-60zM85 0v98h157v465h-157v97h431v-97h-158v-465h158v-98h-431z" />
    <glyph glyph-name="itilde" unicode="&#x129;" 
d="M153 569q7 60 33 93t69 33q27 0 61 -26.5t47 -26.5q31 0 42 53h61q-8 -60 -34.5 -93t-68.5 -33q-27 0 -61 27t-47 27q-31 0 -41 -54h-61zM81 0v94h179v325h-179v91h294v-416h179v-94h-473z" />
    <glyph glyph-name="Imacron" unicode="&#x12a;" 
d="M168 731v75h265v-75h-265zM85 0v98h157v465h-157v97h431v-97h-158v-465h158v-98h-431z" />
    <glyph glyph-name="imacron" unicode="&#x12b;" 
d="M179 589v75h261v-75h-261zM81 0v94h179v325h-179v91h294v-416h179v-94h-473z" />
    <glyph glyph-name="Ibreve" unicode="&#x12c;" 
d="M300 711q-59 0 -91.5 32t-38.5 84h66q12 -56 64 -56q53 0 65 56h65q-6 -52 -38 -84t-92 -32zM85 0v98h157v465h-157v97h431v-97h-158v-465h158v-98h-431z" />
    <glyph glyph-name="ibreve" unicode="&#x12d;" 
d="M309 567q-65 0 -100.5 42.5t-37.5 102.5h66q5 -35 23 -57t49 -22q32 0 50 22t22 57h67q-3 -60 -38 -102.5t-101 -42.5zM81 0v94h179v325h-179v91h294v-416h179v-94h-473z" />
    <glyph glyph-name="Iogonek" unicode="&#x12e;" 
d="M307 -219q-45 0 -75 24t-30 67q0 70 70 128h-187v98h157v465h-157v97h431v-97h-158v-465h158v-98h-158q-70 -41 -70 -100q0 -20 13 -31t31 -11q22 0 39 14l28 -60q-40 -31 -92 -31z" />
    <glyph glyph-name="iogonek" unicode="&#x12f;" 
d="M309 597q-37 0 -61 23t-24 61t24.5 62t60.5 24q37 0 61 -24t24 -62t-24 -61t-61 -23zM341 0q-50 -42 -50 -89q0 -20 13 -31t31 -11q21 0 38 12l26 -53q-37 -30 -90 -30q-42 0 -70 23t-28 65q0 63 60 114h-190v94h179v325h-179v91h294v-416h179v-94h-213z" />
    <glyph glyph-name="Idotaccent" unicode="&#x130;" 
d="M300 714q-30 0 -50.5 18.5t-20.5 47.5q0 28 20.5 46.5t50.5 18.5q31 0 51 -18.5t20 -46.5q0 -29 -20 -47.5t-51 -18.5zM85 0v98h157v465h-157v97h431v-97h-158v-465h158v-98h-431z" />
    <glyph glyph-name="dotlessi" unicode="&#x131;" 
d="M81 0v94h179v325h-179v91h294v-416h179v-94h-473z" />
    <glyph glyph-name="Jcircumflex" unicode="&#x134;" 
d="M170 710l96 117h111l96 -117h-89l-60 65h-4l-61 -65h-89zM275 -12q-59 0 -114 27t-91 83l70 70q57 -80 131 -80q62 0 90.5 32.5t28.5 106.5v337h-265v96h380v-442q0 -103 -54.5 -166.5t-175.5 -63.5z" />
    <glyph glyph-name="jcircumflex" unicode="&#x135;" 
d="M200 574l99 157h97l98 -157h-85l-60 97h-4l-60 -97h-85zM195 -217q-76 0 -146 34l35 83q53 -26 106 -26q59 0 83 33t24 92v420h-212v91h327v-504q0 -223 -217 -223z" />
    <glyph glyph-name="kgreenlandic" unicode="&#x138;" 
d="M91 0v510h115v-240l3 1l223 239h127l-191 -205l212 -305h-126l-154 230l-94 -98v-132h-115z" />
    <glyph glyph-name="Lacute" unicode="&#x139;" 
d="M130 710l84 117h125l-116 -117h-93zM121 0v660h114v-562h308v-98h-422z" />
    <glyph glyph-name="lacute" unicode="&#x13a;" 
d="M208 778l84 120h125l-116 -120h-93zM401 -13q-85 0 -129.5 51t-44.5 146v450h-155v91h269v-548q0 -49 24 -72.5t64 -23.5q37 0 85 21l27 -85q-85 -30 -140 -30z" />
    <glyph glyph-name="Lcaron" unicode="&#x13d;" 
d="M388 518l-4 218h76l-1 -64l-19 -154h-52zM121 0v661h114v-563h308v-98h-422z" />
    <glyph glyph-name="lcaron" unicode="&#x13e;" 
d="M408 559l-4 225h76l-1 -64l-19 -161h-52zM401 -13q-85 0 -129.5 51t-44.5 146v450h-155v91h269v-548q0 -49 24 -72.5t64 -23.5q37 0 85 21l27 -85q-85 -30 -140 -30z" />
    <glyph glyph-name="Ldot" unicode="&#x13f;" 
d="M121 0v660h114v-562h308v-98h-422zM442 277q-35 0 -58 21.5t-23 55.5t23 56t58 22t58.5 -22t23.5 -56t-23 -55.5t-59 -21.5z" />
    <glyph glyph-name="ldot" unicode="&#x140;" 
d="M356 -13q-84 0 -129 51.5t-45 145.5v450h-155v91h270v-548q0 -49 24 -72.5t64 -23.5q38 0 84 21l27 -85q-83 -30 -140 -30zM454 285q-36 0 -59 21.5t-23 56.5t23 56.5t59 21.5t59 -21.5t23 -56.5t-23 -56.5t-59 -21.5z" />
    <glyph glyph-name="Lslash" unicode="&#x141;" 
d="M121 0v215l-78 -42v90l78 43v354h114v-298l216 118v-91l-216 -118v-173h308v-98h-422z" />
    <glyph glyph-name="lslash" unicode="&#x142;" 
d="M401 -13q-85 0 -129.5 51t-44.5 146v136l-119 -70v94l119 71v219h-155v91h269v-252l156 90v-95l-156 -90v-201q0 -49 24 -72.5t64 -23.5q37 0 85 21l27 -85q-85 -30 -140 -30z" />
    <glyph glyph-name="Nacute" unicode="&#x143;" 
d="M243 710l85 117h125l-117 -117h-93zM75 0v660h117l176 -374l61 -140h3q-2 21 -6.5 67.5t-7 85t-2.5 71.5v290h110v-660h-118l-175 374l-61 139h-3q2 -23 6.5 -68.5t7 -83.5t2.5 -70v-291h-110z" />
    <glyph glyph-name="nacute" unicode="&#x144;" 
d="M205 574l89 157h120l-124 -157h-85zM83 0v510h94l9 -79h4q85 92 177 92q165 0 165 -207v-316h-115v301q0 64 -21.5 94t-70.5 30q-35 0 -63 -17.5t-65 -58.5v-349h-114z" />
    <glyph glyph-name="Ncaron" unicode="&#x147;" 
d="M250 710l-96 117h90l60 -66h4l60 66h90l-96 -117h-112zM75 0v660h117l176 -374l61 -140h3q-2 21 -6.5 67.5t-7 85t-2.5 71.5v290h110v-660h-118l-175 374l-61 139h-3q2 -23 6.5 -68.5t7 -83.5t2.5 -70v-291h-110z" />
    <glyph glyph-name="ncaron" unicode="&#x148;" 
d="M262 574l-99 157h85l60 -97h4l60 97h85l-98 -157h-97zM83 0v510h94l9 -79h4q85 92 177 92q165 0 165 -207v-316h-115v301q0 64 -21.5 94t-70.5 30q-35 0 -63 -17.5t-65 -58.5v-349h-114z" />
    <glyph glyph-name="Omacron" unicode="&#x14c;" 
d="M168 731v75h265v-75h-265zM300 -12q-115 0 -186 93t-71 252q0 157 71 248t186 91q116 0 186.5 -91t70.5 -248q0 -159 -71 -252t-186 -93zM300 88q63 0 101 66.5t38 178.5q0 110 -38 174.5t-101 64.5t-100.5 -64t-37.5 -175q0 -112 37.5 -178.5t100.5 -66.5z" />
    <glyph glyph-name="omacron" unicode="&#x14d;" 
d="M170 597v75h261v-75h-261zM300 -13q-102 0 -174 72.5t-72 195.5t72 195.5t174 72.5t174.5 -72.5t72.5 -195.5t-72.5 -195.5t-174.5 -72.5zM300 81q60 0 94.5 47t34.5 127q0 79 -34.5 126.5t-94.5 47.5q-59 0 -93.5 -47.5t-34.5 -126.5t34 -126.5t94 -47.5z" />
    <glyph glyph-name="Obreve" unicode="&#x14e;" 
d="M300 711q-59 0 -91.5 32t-38.5 84h66q12 -56 64 -56q53 0 65 56h65q-6 -52 -38 -84t-92 -32zM300 -12q-115 0 -186 93t-71 252q0 157 71 248t186 91q116 0 186.5 -91t70.5 -248q0 -159 -71 -252t-186 -93zM300 88q63 0 101 66.5t38 178.5q0 110 -38 174.5t-101 64.5
t-100.5 -64t-37.5 -175q0 -112 37.5 -178.5t100.5 -66.5z" />
    <glyph glyph-name="obreve" unicode="&#x14f;" 
d="M300 575q-65 0 -100.5 42.5t-37.5 102.5h66q5 -35 23 -57t49 -22q32 0 50 22t22 57h67q-3 -60 -38 -102.5t-101 -42.5zM300 -13q-102 0 -174 72.5t-72 195.5t72 195.5t174 72.5t174.5 -72.5t72.5 -195.5t-72.5 -195.5t-174.5 -72.5zM300 81q60 0 94.5 47t34.5 127
q0 79 -34.5 126.5t-94.5 47.5q-59 0 -93.5 -47.5t-34.5 -126.5t34 -126.5t94 -47.5z" />
    <glyph glyph-name="Ohungarumlaut" unicode="&#x150;" 
d="M177 710l65 117h101l-86 -117h-80zM346 710l65 117h101l-87 -117h-79zM300 -12q-115 0 -186 93t-71 252q0 157 71 248t186 91q116 0 186.5 -91t70.5 -248q0 -159 -71 -252t-186 -93zM300 88q63 0 101 66.5t38 178.5q0 110 -38 174.5t-101 64.5t-100.5 -64t-37.5 -175
q0 -112 37.5 -178.5t100.5 -66.5z" />
    <glyph glyph-name="ohungarumlaut" unicode="&#x151;" 
d="M139 572l69 147h95l-92 -147h-72zM297 572l70 147h95l-92 -147h-73zM300 -13q-102 0 -174 72.5t-72 195.5t72 195.5t174 72.5t174.5 -72.5t72.5 -195.5t-72.5 -195.5t-174.5 -72.5zM300 81q60 0 94.5 47t34.5 127q0 79 -34.5 126.5t-94.5 47.5q-59 0 -93.5 -47.5
t-34.5 -126.5t34 -126.5t94 -47.5z" />
    <glyph glyph-name="OE" unicode="&#x152;" 
d="M292 0q-122 0 -194 86.5t-72 246.5t73 244t198 84h286v-97h-177v-172h135v-97h-135v-197h187v-98h-301zM284 94h18v473h-18q-139 0 -139 -234q0 -239 139 -239z" />
    <glyph glyph-name="oe" unicode="&#x153;" 
d="M191 -13q-78 0 -128.5 72t-50.5 196t51.5 196t129.5 72q88 0 128 -108q43 108 126 108q69 0 108 -68.5t39 -170.5q0 -31 -4 -60h-232q6 -69 32.5 -107.5t70.5 -38.5q37 0 80 30l39 -74q-59 -47 -123 -47q-90 0 -135 101q-45 -101 -131 -101zM357 297h145q0 137 -63 137
q-71 0 -82 -137zM199 80q36 0 56.5 48t20.5 127t-20.5 127t-56.5 48q-40 0 -61.5 -47.5t-21.5 -127.5t21.5 -127.5t61.5 -47.5z" />
    <glyph glyph-name="Racute" unicode="&#x154;" 
d="M241 710l85 117h125l-117 -117h-93zM85 0v660h218q240 0 240 -195q0 -144 -131 -189l157 -276h-130l-142 259h-97v-259h-115zM200 351h91q138 0 138 114q0 55 -34 79t-104 24h-91v-217z" />
    <glyph glyph-name="racute" unicode="&#x155;" 
d="M195 574l89 157h120l-124 -157h-85zM131 0v510h94l10 -117h3q78 130 209 130q51 0 96 -21l-25 -97q-47 16 -89 16q-114 0 -183 -136v-285h-115z" />
    <glyph glyph-name="Rcaron" unicode="&#x158;" 
d="M248 710l-96 117h90l60 -66h4l60 66h89l-96 -117h-111zM85 0v660h218q240 0 240 -195q0 -144 -131 -189l157 -276h-130l-142 259h-97v-259h-115zM200 351h91q138 0 138 114q0 55 -34 79t-104 24h-91v-217z" />
    <glyph glyph-name="rcaron" unicode="&#x159;" 
d="M252 574l-99 157h85l60 -97h4l60 97h85l-98 -157h-97zM131 0v510h94l10 -117h3q78 130 209 130q51 0 96 -21l-25 -97q-47 16 -89 16q-114 0 -183 -136v-285h-115z" />
    <glyph glyph-name="Sacute" unicode="&#x15a;" 
d="M247 710l84 117h125l-116 -117h-93zM302 -12q-143 0 -243 97l67 79q83 -76 178 -76q60 0 91 23t31 64q0 20 -6.5 34t-25.5 26.5t-31 18t-46 19.5l-89 39q-141 52 -141 174q0 79 64 132.5t163 53.5q123 0 210 -84l-60 -74q-71 58 -150 58q-51 0 -80.5 -21t-29.5 -58
q0 -15 7 -28t14.5 -20.5t26.5 -17.5t28.5 -14t35.5 -14l86 -38q68 -27 105 -68.5t37 -108.5q0 -83 -65.5 -139.5t-176.5 -56.5z" />
    <glyph glyph-name="sacute" unicode="&#x15b;" 
d="M204 574l89 157h120l-124 -157h-85zM303 -13q-127 0 -240 80l53 73q89 -65 190 -65q56 0 84.5 17t28.5 46q0 26 -34.5 46t-111.5 41q-181 49 -181 146q0 68 58 110t159 42q105 0 204 -67l-53 -71q-75 51 -150 51q-103 0 -103 -59q0 -26 34.5 -43.5t103.5 -35.5
q94 -25 141 -60t47 -93q0 -68 -61 -113t-169 -45z" />
    <glyph glyph-name="Scircumflex" unicode="&#x15c;" 
d="M158 710l96 117h111l96 -117h-89l-61 65h-4l-60 -65h-89zM302 -12q-143 0 -243 97l67 79q83 -76 178 -76q60 0 91 23t31 64q0 20 -6.5 34t-25.5 26.5t-31 18t-46 19.5l-89 39q-141 52 -141 174q0 79 64 132.5t163 53.5q123 0 210 -84l-60 -74q-71 58 -150 58
q-51 0 -80.5 -21t-29.5 -58q0 -15 7 -28t14.5 -20.5t26.5 -17.5t28.5 -14t35.5 -14l86 -38q68 -27 105 -68.5t37 -108.5q0 -83 -65.5 -139.5t-176.5 -56.5z" />
    <glyph glyph-name="scircumflex" unicode="&#x15d;" 
d="M162 574l99 157h97l98 -157h-85l-60 97h-4l-60 -97h-85zM303 -13q-127 0 -240 80l53 73q89 -65 190 -65q56 0 84.5 17t28.5 46q0 26 -34.5 46t-111.5 41q-181 49 -181 146q0 68 58 110t159 42q105 0 204 -67l-53 -71q-75 51 -150 51q-103 0 -103 -59q0 -26 34.5 -43.5
t103.5 -35.5q94 -25 141 -60t47 -93q0 -68 -61 -113t-169 -45z" />
    <glyph glyph-name="Scedilla" unicode="&#x15e;" 
d="M221 -219l-10 50q86 10 86 46q0 31 -61 47l33 65q-123 12 -210 96l67 79q83 -76 178 -76q60 0 91 23t31 64q0 16 -6 29t-13 21.5t-24.5 18t-28.5 14.5t-37 15l-89 39q-141 54 -141 175q0 79 64 132t163 53q124 0 210 -84l-60 -73q-70 57 -150 57q-51 0 -80.5 -21
t-29.5 -58q0 -33 25 -51t76 -39q3 -1 4 -1.5t3 -1t4 -1.5l86 -37q69 -28 105.5 -69.5t36.5 -108.5q0 -76 -55 -130t-150 -64l-16 -37q59 -20 59 -74q0 -44 -45.5 -68.5t-115.5 -29.5z" />
    <glyph glyph-name="scedilla" unicode="&#x15f;" 
d="M533 145q0 -61 -50 -104t-140 -52l-16 -36q59 -20 59 -72q0 -45 -45.5 -69t-115.5 -29l-9 50q85 10 85 46q0 31 -61 45l32 65q-115 10 -209 78l53 73q89 -65 190 -65q56 0 84.5 17t28.5 46q0 26 -34.5 46t-111.5 41q-181 49 -181 146q0 68 58 110t159 42q105 0 204 -67
l-53 -71q-75 51 -150 51q-103 0 -103 -59q0 -26 34.5 -43.5t103.5 -35.5q94 -25 141 -60t47 -93z" />
    <glyph glyph-name="Scaron" unicode="&#x160;" 
d="M254 710l-96 117h89l60 -66h4l61 66h89l-96 -117h-111zM302 -12q-143 0 -243 97l67 79q83 -76 178 -76q60 0 91 23t31 64q0 20 -6.5 34t-25.5 26.5t-31 18t-46 19.5l-89 39q-141 52 -141 174q0 79 64 132.5t163 53.5q123 0 210 -84l-60 -74q-71 58 -150 58
q-51 0 -80.5 -21t-29.5 -58q0 -15 7 -28t14.5 -20.5t26.5 -17.5t28.5 -14t35.5 -14l86 -38q68 -27 105 -68.5t37 -108.5q0 -83 -65.5 -139.5t-176.5 -56.5z" />
    <glyph glyph-name="scaron" unicode="&#x161;" 
d="M261 574l-99 157h85l60 -97h4l60 97h85l-98 -157h-97zM303 -13q-127 0 -240 80l53 73q89 -65 190 -65q56 0 84.5 17t28.5 46q0 26 -34.5 46t-111.5 41q-181 49 -181 146q0 68 58 110t159 42q105 0 204 -67l-53 -71q-75 51 -150 51q-103 0 -103 -59q0 -26 34.5 -43.5
t103.5 -35.5q94 -25 141 -60t47 -93q0 -68 -61 -113t-169 -45z" />
    <glyph glyph-name="uni0162" unicode="&#x162;" 
d="M213 -219l-10 50q86 10 86 46q0 31 -61 47l38 76h-24v563h-205v97h527v-97h-206v-563h-22l-21 -47q59 -20 59 -74q0 -44 -45.5 -68.5t-115.5 -29.5z" />
    <glyph glyph-name="uni0163" unicode="&#x163;" 
d="M342 -47q59 -20 59 -72q0 -45 -45.5 -69t-115.5 -29l-9 50q85 10 85 46q0 31 -61 45l40 80q-105 42 -105 200v215h-131v91h136v150l110 55v-205h224v-91h-224v-215q0 -65 26 -95t87 -30q54 0 108 21l22 -83q-88 -30 -157 -30q-13 0 -33 2z" />
    <glyph glyph-name="Tcaron" unicode="&#x164;" 
d="M244 710l-96 117h90l60 -66h4l60 66h90l-96 -117h-112zM242 0v563h-205v97h527v-97h-206v-563h-116z" />
    <glyph glyph-name="tcaron" unicode="&#x165;" 
d="M393 570l-4 225h76l-1 -65l-19 -160h-52zM391 -13q-201 0 -201 217v215h-131v91h136v150l110 55v-205h224v-91h-224v-215q0 -65 26 -95t87 -30q54 0 108 21l22 -83q-88 -30 -157 -30z" />
    <glyph glyph-name="Utilde" unicode="&#x168;" 
d="M143 713q6 57 32 90t64 33q29 0 66.5 -24.5t52.5 -24.5q30 0 39 49h61q-6 -57 -32 -90t-64 -33q-30 0 -68 25t-52 25q-30 0 -39 -50h-60zM302 -12q-111 0 -170.5 65.5t-59.5 198.5v408h115v-416q0 -156 115 -156t115 156v416h112v-408q0 -133 -58.5 -198.5t-168.5 -65.5z
" />
    <glyph glyph-name="utilde" unicode="&#x169;" 
d="M144 577q7 60 33 93t69 33q27 0 61 -26.5t47 -26.5q31 0 42 53h61q-8 -60 -34.5 -93t-68.5 -33q-27 0 -61 27t-47 27q-31 0 -41 -54h-61zM235 -13q-165 0 -165 207v316h115v-301q0 -64 21 -93.5t71 -29.5q34 0 62.5 18t61.5 61v345h114v-510h-93l-9 82h-4
q-80 -95 -174 -95z" />
    <glyph glyph-name="Umacron" unicode="&#x16a;" 
d="M168 731v75h265v-75h-265zM302 -12q-111 0 -170.5 65.5t-59.5 198.5v408h115v-416q0 -156 115 -156t115 156v416h112v-408q0 -133 -58.5 -198.5t-168.5 -65.5z" />
    <glyph glyph-name="umacron" unicode="&#x16b;" 
d="M170 597v75h261v-75h-261zM235 -13q-165 0 -165 207v316h115v-301q0 -64 21 -93.5t71 -29.5q34 0 62.5 18t61.5 61v345h114v-510h-93l-9 82h-4q-80 -95 -174 -95z" />
    <glyph glyph-name="Ubreve" unicode="&#x16c;" 
d="M300 711q-59 0 -91.5 32t-38.5 84h66q12 -56 64 -56q53 0 65 56h65q-6 -52 -38 -84t-92 -32zM302 -12q-111 0 -170.5 65.5t-59.5 197.5v409h115v-416q0 -156 115 -156t115 156v416h112v-409q0 -132 -58.5 -197.5t-168.5 -65.5z" />
    <glyph glyph-name="ubreve" unicode="&#x16d;" 
d="M300 575q-65 0 -100.5 42.5t-37.5 102.5h66q5 -35 23 -57t49 -22q32 0 50 22t22 57h67q-3 -60 -38 -102.5t-101 -42.5zM235 -13q-165 0 -165 207v316h115v-301q0 -64 21 -93.5t71 -29.5q34 0 62.5 18t61.5 61v345h114v-510h-93l-9 82h-4q-80 -95 -174 -95z" />
    <glyph glyph-name="Uring" unicode="&#x16e;" 
d="M300 704q-46 0 -74.5 25.5t-28.5 67.5t29 68t74 26t74 -26t29 -68t-28.5 -67.5t-74.5 -25.5zM300 749q19 0 31.5 13t12.5 35q0 21 -13 34.5t-31 13.5q-19 0 -31.5 -13.5t-12.5 -34.5q0 -22 12.5 -35t31.5 -13zM302 -12q-111 0 -170.5 65.5t-59.5 197.5v409h115v-417
q0 -155 115 -155t115 155v417h112v-409q0 -132 -58.5 -197.5t-168.5 -65.5z" />
    <glyph glyph-name="uring" unicode="&#x16f;" 
d="M300 545q-45 0 -74 27t-29 71q0 43 29 70t74 27q46 0 74.5 -27t28.5 -70q0 -44 -28.5 -71t-74.5 -27zM300 591q19 0 32 14.5t13 37.5q0 22 -13 36.5t-32 14.5t-31.5 -14.5t-12.5 -36.5q0 -23 12.5 -37.5t31.5 -14.5zM235 -13q-165 0 -165 207v316h115v-301
q0 -64 21 -93.5t71 -29.5q34 0 62.5 18t61.5 61v345h114v-510h-93l-9 82h-4q-80 -95 -174 -95z" />
    <glyph glyph-name="Uhungarumlaut" unicode="&#x170;" 
d="M177 710l65 117h101l-86 -117h-80zM346 710l65 117h101l-87 -117h-79zM302 -12q-111 0 -170.5 65.5t-59.5 197.5v409h115v-416q0 -156 115 -156t115 156v416h112v-409q0 -132 -58.5 -197.5t-168.5 -65.5z" />
    <glyph glyph-name="uhungarumlaut" unicode="&#x171;" 
d="M139 572l69 147h95l-92 -147h-72zM297 572l70 147h95l-92 -147h-73zM235 -13q-165 0 -165 207v316h115v-301q0 -64 21 -93.5t71 -29.5q34 0 62.5 18t61.5 61v345h114v-510h-93l-9 82h-4q-80 -95 -174 -95z" />
    <glyph glyph-name="Uogonek" unicode="&#x172;" 
d="M326 -219q-45 0 -75 24t-30 67q0 10 1.5 19t4.5 17.5t6 15.5t8 14.5t8.5 12.5t10 12t9 9.5l9 9l7.5 7.5q-106 4 -159.5 71.5t-53.5 191.5v408h115v-416q0 -156 114 -156q55 0 85.5 38.5t30.5 117.5v416h112v-408q0 -186 -124 -245q-98 -46 -98 -107q0 -20 13 -31t32 -11
t38 14l28 -60q-40 -31 -92 -31z" />
    <glyph glyph-name="uogonek" unicode="&#x173;" 
d="M514 -125l26 -53q-37 -30 -90 -30q-42 0 -70 23t-28 65q0 69 69 122l-8 80h-4q-80 -95 -174 -95q-165 0 -165 207v316h115v-301q0 -64 21 -93.5t71 -29.5q34 0 62.5 18t61.5 61v345h114v-510h-26q-57 -46 -57 -95q0 -20 13 -31t31 -11q21 0 38 12z" />
    <glyph glyph-name="Wcircumflex" unicode="&#x174;" 
d="M148 710l96 117h112l96 -117h-90l-60 65h-4l-60 -65h-90zM101 0l-94 660h117l37 -383q0 -3 9 -166h3q6 27 19 82.5t19 83.5l57 214h74l56 -214q6 -29 19.5 -85t18.5 -81h4l9 166l35 383h109l-89 -660h-123l-58 243q-15 75 -21 123h-3q-11 -76 -22 -123l-55 -243h-121z
" />
    <glyph glyph-name="wcircumflex" unicode="&#x175;" 
d="M153 574l99 157h97l98 -157h-85l-60 97h-4l-60 -97h-85zM102 0l-96 510h114l45 -269q5 -28 11.5 -79t8.5 -67h4q10 67 26 146l45 223h86l47 -223q2 -9 27 -146h4q4 24 10 72.5t10 73.5l44 269h106l-91 -510h-135l-43 220q-5 32 -23 149h-4q-21 -142 -22 -149l-42 -220
h-132z" />
    <glyph glyph-name="Ycircumflex" unicode="&#x176;" 
d="M148 710l96 117h112l96 -117h-90l-60 65h-4l-60 -65h-90zM242 0v230l-215 430h123l83 -179q55 -125 67 -151h4q23 52 69 152l80 178h120l-215 -430v-230h-116z" />
    <glyph glyph-name="ycircumflex" unicode="&#x177;" 
d="M163 574l99 157h97l98 -157h-85l-60 97h-4l-60 -97h-85zM137 -217q-38 0 -70 10l22 88q19 -6 41 -6q80 0 116 91l15 39l-221 505h115l101 -255q21 -54 55 -150h4q23 73 48 150l90 255h108l-205 -543q-34 -91 -84.5 -137.5t-134.5 -46.5z" />
    <glyph glyph-name="Ydieresis" unicode="&#x178;" 
d="M208 714q-26 0 -43 17t-17 43t17 42.5t43 16.5t42.5 -16.5t16.5 -42.5t-17 -43t-42 -17zM393 714q-26 0 -43 17t-17 43t17 42.5t43 16.5t42.5 -16.5t16.5 -42.5t-16.5 -43t-42.5 -17zM242 0v230l-215 430h123l83 -178q64 -146 67 -152h4q23 52 69 152l80 178h120
l-215 -430v-230h-116z" />
    <glyph glyph-name="Zacute" unicode="&#x179;" 
d="M252 710l84 117h125l-116 -117h-93zM61 0v70l336 494h-306v96h448v-69l-337 -493h341v-98h-482z" />
    <glyph glyph-name="zacute" unicode="&#x17a;" 
d="M248 597l90 162h120l-125 -162h-85zM71 0v62l296 357h-262v91h423v-61l-297 -358h306v-91h-466z" />
    <glyph glyph-name="Zdotaccent" unicode="&#x17b;" 
d="M315 714q-31 0 -51 18.5t-20 47.5q0 28 20 46.5t51 18.5t51 -18.5t20 -46.5q0 -29 -20 -47.5t-51 -18.5zM61 0v70l336 494h-306v96h448v-69l-337 -493h341v-98h-482z" />
    <glyph glyph-name="zdotaccent" unicode="&#x17c;" 
d="M300 605q-37 0 -61 23t-24 61t24.5 62t60.5 24q37 0 61 -24t24 -62t-24 -61t-61 -23zM71 0v62l296 357h-262v91h423v-61l-297 -358h306v-91h-466z" />
    <glyph glyph-name="Zcaron" unicode="&#x17d;" 
d="M260 710l-96 117h89l60 -66h4l60 66h90l-96 -117h-111zM61 0v70l336 494h-306v96h448v-69l-337 -493h341v-98h-482z" />
    <glyph glyph-name="zcaron" unicode="&#x17e;" 
d="M252 574l-99 157h85l60 -97h4l60 97h85l-98 -157h-97zM71 0v62l296 357h-262v91h423v-61l-297 -358h306v-91h-466z" />
    <glyph glyph-name="uni0180" unicode="&#x180;" 
d="M329 -13q-73 0 -143 70h-3l-10 -57h-90v576h-70v54l70 5v90h114v-89h197v-60h-197v-53l-3 -91q70 70 152 70q94 0 147.5 -67t53.5 -181q0 -122 -64 -194.5t-154 -72.5zM306 82q54 0 88.5 44.5t34.5 125.5q0 155 -114 155q-58 0 -118 -63v-213q52 -49 109 -49z" />
    <glyph glyph-name="florin" unicode="&#x192;" 
d="M137 -97q-55 0 -89 17l18 86q25 -10 56 -12q45 1 65.5 34t31.5 116l21 182h-96v80l73 5h32l6 50q15 107 59 156t136 49q53 0 93 -19l-24 -86q-30 13 -61 13q-77 0 -92 -104l-7 -59h128v-85h-138l-25 -213q-13 -101 -54 -155.5t-133 -54.5z" />
    <glyph glyph-name="uni01CD" unicode="&#x1cd;" 
d="M244 710l-96 117h90l60 -66h4l60 66h90l-96 -117h-112zM21 0l212 660h135l212 -660h-122l-51 180h-217l-52 -180h-117zM215 271h167l-23 81q-23 80 -59 217h-4q-25 -102 -58 -217z" />
    <glyph glyph-name="uni01CE" unicode="&#x1ce;" 
d="M267 574l-99 157h85l60 -97h4l60 97h85l-98 -157h-97zM235 -13q-72 0 -118 41.5t-46 107.5q0 87 79 131.5t261 58.5q-7 104 -118 104q-74 0 -140 -55l-42 76q35 30 89.5 51t114.5 21q102 0 156 -57t54 -162v-304h-93l-9 64h-4q-98 -77 -184 -77zM270 78q69 0 141 64v112
q-126 -9 -177.5 -36t-51.5 -73q0 -34 24.5 -50.5t63.5 -16.5z" />
    <glyph glyph-name="uni01CF" unicode="&#x1cf;" 
d="M244 710l-96 117h90l60 -66h4l60 66h90l-96 -117h-112zM85 0v98h157v465h-157v97h431v-97h-158v-465h158v-98h-431z" />
    <glyph glyph-name="uni01D0" unicode="&#x1d0;" 
d="M261 566l-99 157h85l60 -97h4l60 97h85l-98 -157h-97zM81 0v94h179v325h-179v91h294v-416h179v-94h-473z" />
    <glyph glyph-name="uni01D1" unicode="&#x1d1;" 
d="M244 710l-96 117h90l60 -66h4l60 66h90l-96 -117h-112zM300 -12q-115 0 -186 93t-71 252q0 157 71 248t186 91q116 0 186.5 -91t70.5 -248q0 -159 -71 -252t-186 -93zM300 88q63 0 101 66.5t38 178.5q0 110 -38 174.5t-101 64.5t-100.5 -64t-37.5 -175
q0 -112 37.5 -178.5t100.5 -66.5z" />
    <glyph glyph-name="uni01D2" unicode="&#x1d2;" 
d="M252 574l-99 157h85l60 -97h4l60 97h85l-98 -157h-97zM300 -13q-102 0 -174 72.5t-72 195.5t72 195.5t174 72.5t174.5 -72.5t72.5 -195.5t-72.5 -195.5t-174.5 -72.5zM300 81q60 0 94.5 47t34.5 127q0 79 -34.5 126.5t-94.5 47.5q-59 0 -93.5 -47.5t-34.5 -126.5
t34 -126.5t94 -47.5z" />
    <glyph glyph-name="uni01D3" unicode="&#x1d3;" 
d="M244 710l-96 117h90l60 -66h4l60 66h90l-96 -117h-112zM302 -12q-111 0 -170.5 65.5t-59.5 197.5v409h115v-416q0 -156 115 -156t115 156v416h112v-409q0 -132 -58.5 -197.5t-168.5 -65.5z" />
    <glyph glyph-name="uni01D4" unicode="&#x1d4;" 
d="M252 574l-99 157h85l60 -97h4l60 97h85l-98 -157h-97zM235 -13q-165 0 -165 207v316h115v-301q0 -64 21 -93.5t71 -29.5q34 0 62.5 18t61.5 61v345h114v-510h-93l-9 82h-4q-80 -95 -174 -95z" />
    <glyph glyph-name="Gcaron" unicode="&#x1e6;" 
d="M276 710l-96 117h89l60 -66h4l60 66h90l-96 -117h-111zM340 -12q-128 0 -209.5 90.5t-81.5 249.5t83 251.5t213 92.5q104 0 186 -82l-64 -72q-52 54 -122 54q-79 0 -128 -65.5t-49 -175.5q0 -114 46.5 -178.5t132.5 -64.5q57 0 89 30v144h-113v94h217v-290
q-35 -34 -87.5 -56t-112.5 -22z" />
    <glyph glyph-name="gcaron" unicode="&#x1e7;" 
d="M252 574l-99 157h85l60 -97h4l60 97h85l-98 -157h-97zM275 -222q-116 0 -193 78l44 75q62 -63 149 -63q62 0 96.5 32.5t35.5 91.5l2 83q-63 -66 -146 -66q-94 0 -151.5 69.5t-57.5 184.5q0 116 64 188t154 72q80 0 142 -68h4l9 55h91v-510q0 -107 -62.5 -164.5
t-180.5 -57.5zM291 102q60 0 112 65v213q-48 48 -107 48q-51 0 -88.5 -45.5t-37.5 -117.5q0 -75 33 -119t88 -44z" />
    <glyph glyph-name="uni01EA" unicode="&#x1ea;" 
d="M328 -219q-45 0 -75 24t-30 67q0 63 62 117q-118 9 -180 106t-62 238q0 158 71 248.5t186 90.5q116 0 186.5 -90.5t70.5 -248.5q0 -253 -174 -331q-37 -17 -55.5 -45.5t-18.5 -56.5q0 -20 13 -31t32 -11t38 14l28 -60q-40 -31 -92 -31zM300 88q63 0 101 66.5t38 178.5
q0 111 -38 175t-101 64t-100.5 -64t-37.5 -175q0 -112 37.5 -178.5t100.5 -66.5z" />
    <glyph glyph-name="uni01EB" unicode="&#x1eb;" 
d="M353 -7q-49 -43 -49 -88q0 -20 13 -31t31 -11q21 0 38 12l26 -53q-37 -30 -90 -30q-42 0 -70 23t-28 65q0 60 54 108q-95 9 -159.5 80.5t-64.5 186.5q0 123 72 195.5t174 72.5t174.5 -72.5t72.5 -195.5q0 -105 -55 -174.5t-139 -87.5zM172 255q0 -79 34 -126.5t94 -47.5
t94.5 47t34.5 127q0 79 -34.5 126.5t-94.5 47.5q-59 0 -93.5 -47.5t-34.5 -126.5z" />
    <glyph glyph-name="uni0237" unicode="&#x237;" 
d="M195 -217q-76 0 -146 34l35 83q53 -26 106 -26q59 0 83 33t24 92v420h-212v91h327v-504q0 -223 -217 -223z" />
    <glyph glyph-name="uni0243" unicode="&#x243;" 
d="M94 0v178h-76v53l76 6v423h197q231 0 231 -159q0 -47 -28.5 -84t-83.5 -51v-4q147 -25 147 -162q0 -98 -68 -149t-181 -51h-214zM209 392h72q130 0 130 98q0 45 -31.5 65.5t-96.5 20.5h-74v-184zM209 84h87q72 0 111 31t39 92q0 114 -150 114h-87v-84h125v-59h-125v-94z
" />
    <glyph glyph-name="circumflex" unicode="&#x2c6;" 
d="M153 574l99 157h97l98 -157h-85l-60 97h-4l-60 -97h-85z" />
    <glyph glyph-name="caron" unicode="&#x2c7;" 
d="M252 574l-99 157h85l60 -97h4l60 97h85l-98 -157h-97z" />
    <glyph glyph-name="breve" unicode="&#x2d8;" 
d="M300 575q-65 0 -100.5 42.5t-37.5 102.5h66q5 -35 23 -57t49 -22q32 0 50 22t22 57h67q-3 -60 -38 -102.5t-101 -42.5z" />
    <glyph glyph-name="dotaccent" unicode="&#x2d9;" 
d="M300 598q-37 0 -61.5 23.5t-24.5 60.5q0 38 24.5 62t61.5 24q38 0 62 -24t24 -62q0 -37 -24 -60.5t-62 -23.5z" />
    <glyph glyph-name="ring" unicode="&#x2da;" 
d="M300 545q-45 0 -74 27t-29 71q0 43 29 70t74 27q46 0 74.5 -27t28.5 -70q0 -44 -28.5 -71t-74.5 -27zM300 591q19 0 32 14.5t13 37.5q0 22 -13 36.5t-32 14.5t-31.5 -14.5t-12.5 -36.5q0 -23 12.5 -37.5t31.5 -14.5z" />
    <glyph glyph-name="ogonek" unicode="&#x2db;" 
d="M322 -208q-42 0 -70 23t-28 65q0 38 21.5 70.5t49.5 52.5h70q-61 -47 -61 -98q0 -20 13 -31t31 -11q21 0 38 12l26 -53q-37 -30 -90 -30z" />
    <glyph glyph-name="tilde" unicode="&#x2dc;" 
d="M144 577q7 60 33 93t69 33q27 0 61 -26.5t47 -26.5q31 0 42 53h61q-8 -60 -34.5 -93t-68.5 -33q-27 0 -61 27t-47 27q-31 0 -41 -54h-61z" />
    <glyph glyph-name="hungarumlaut" unicode="&#x2dd;" 
d="M189 572l69 147h95l-92 -147h-72zM347 572l70 147h95l-92 -147h-73z" />
    <glyph glyph-name="gravecomb" unicode="&#x300;" horiz-adv-x="0" 
d="M-311 574l-125 157h120l90 -157h-85z" />
    <glyph glyph-name="acutecomb" unicode="&#x301;" horiz-adv-x="0" 
d="M-373 574l89 157h120l-124 -157h-85z" />
    <glyph glyph-name="uni0302" unicode="&#x302;" horiz-adv-x="0" 
d="M-447 574l99 157h97l98 -157h-85l-60 97h-4l-60 -97h-85z" />
    <glyph glyph-name="tildecomb" unicode="&#x303;" horiz-adv-x="0" 
d="M-456 577q7 60 33 93t69 33q27 0 61 -26.5t47 -26.5q31 0 42 53h61q-8 -60 -34.5 -93t-68.5 -33q-27 0 -61 27t-47 27q-31 0 -41 -54h-61z" />
    <glyph glyph-name="uni0304" unicode="&#x304;" horiz-adv-x="0" 
d="M-430 597v75h261v-75h-261z" />
    <glyph glyph-name="uni0306" unicode="&#x306;" horiz-adv-x="0" 
d="M-300 575q-65 0 -100.5 42.5t-37.5 102.5h66q5 -35 23 -57t49 -22q32 0 50 22t22 57h67q-3 -60 -38 -102.5t-101 -42.5z" />
    <glyph glyph-name="uni0307" unicode="&#x307;" horiz-adv-x="0" 
d="M-300 605q-37 0 -61 23t-24 61t24.5 62t60.5 24q37 0 61 -24t24 -62t-24 -61t-61 -23z" />
    <glyph glyph-name="uni0308" unicode="&#x308;" horiz-adv-x="0" 
d="M-402 580q-29 0 -48 19t-19 48q0 28 19 47t48 19q28 0 47 -19t19 -47q0 -29 -19 -48t-47 -19zM-197 580q-29 0 -47.5 19t-18.5 48q0 28 18.5 47t47.5 19t47.5 -19t18.5 -47q0 -29 -18.5 -48t-47.5 -19z" />
    <glyph glyph-name="uni030A" unicode="&#x30a;" horiz-adv-x="0" 
d="M-300 545q-45 0 -74 27t-29 71q0 43 29 70t74 27q46 0 74.5 -27t28.5 -70q0 -44 -28.5 -71t-74.5 -27zM-300 591q19 0 32 14.5t13 37.5q0 22 -13 36.5t-32 14.5t-31.5 -14.5t-12.5 -36.5q0 -23 12.5 -37.5t31.5 -14.5z" />
    <glyph glyph-name="uni030B" unicode="&#x30b;" horiz-adv-x="0" 
d="M-411 572l69 147h95l-92 -147h-72zM-253 572l70 147h95l-92 -147h-73z" />
    <glyph glyph-name="uni030C" unicode="&#x30c;" horiz-adv-x="0" 
d="M-348 574l-99 157h85l60 -97h4l60 97h85l-98 -157h-97z" />
    <glyph glyph-name="uni0327" unicode="&#x327;" horiz-adv-x="0" 
d="M-380 -217l-9 50q85 10 85 46q0 31 -61 45l40 80h70l-23 -51q59 -20 59 -72q0 -45 -45.5 -69t-115.5 -29z" />
    <glyph glyph-name="uni0328" unicode="&#x328;" horiz-adv-x="0" 
d="M-278 -208q-42 0 -70 23t-28 65q0 38 21.5 70.5t49.5 52.5h70q-61 -47 -61 -98q0 -20 13 -31t31 -11q21 0 38 12l26 -53q-37 -30 -90 -30z" />
    <glyph glyph-name="pi" unicode="&#x3c0;" 
d="M503 -13q-68 0 -97.5 38t-29.5 111q0 20 2 125t3 157h-152q0 -201 -14 -425l-115 7q22 189 22 418h-95v86l72 6h475v-92h-83q-7 -121 -7 -288q0 -49 45 -49q7 0 25 6l14 -86q-30 -14 -65 -14z" />
    <glyph glyph-name="uni1E20" unicode="&#x1e20;" 
d="M198 731v75h266v-75h-266zM340 -12q-128 0 -209.5 90.5t-81.5 249.5t82.5 251.5t213.5 92.5q106 0 186 -82l-64 -72q-52 54 -122 54q-79 0 -128 -65t-49 -175q0 -115 46.5 -179.5t132.5 -64.5q57 0 89 30v144h-113v94h217v-290q-35 -34 -87.5 -56t-112.5 -22z" />
    <glyph glyph-name="uni1E21" unicode="&#x1e21;" 
d="M170 597v75h261v-75h-261zM275 -222q-116 0 -193 78l44 75q62 -63 149 -63q62 0 96.5 32.5t35.5 91.5l2 83q-63 -66 -146 -66q-94 0 -151.5 69.5t-57.5 184.5q0 116 64 188t154 72q80 0 142 -68h4l9 55h91v-510q0 -107 -62.5 -164.5t-180.5 -57.5zM291 102q60 0 112 65
v213q-48 48 -107 48q-51 0 -88.5 -45.5t-37.5 -117.5q0 -75 33 -119t88 -44z" />
    <glyph glyph-name="uni1E44" unicode="&#x1e44;" 
d="M306 714q-30 0 -50.5 18.5t-20.5 47.5q0 28 20.5 46.5t50.5 18.5q31 0 51 -18.5t20 -46.5q0 -29 -20 -47.5t-51 -18.5zM75 0v660h117l176 -374l61 -140h3q-2 21 -6.5 67.5t-7 85t-2.5 71.5v290h110v-660h-118l-175 374l-61 139h-3q2 -23 6.5 -68.5t7 -83.5t2.5 -70v-291
h-110z" />
    <glyph glyph-name="uni1E45" unicode="&#x1e45;" 
d="M310 605q-37 0 -61 23t-24 61t24.5 62t60.5 24q37 0 61 -24t24 -62t-24 -61t-61 -23zM83 0v510h94l9 -79h4q85 92 177 92q165 0 165 -207v-316h-115v301q0 64 -21.5 94t-70.5 30q-35 0 -63 -17.5t-65 -58.5v-349h-114z" />
    <glyph glyph-name="uni1E60" unicode="&#x1e60;" 
d="M309 714q-30 0 -50.5 18.5t-20.5 47.5q0 28 20.5 46.5t50.5 18.5q31 0 51 -18.5t20 -46.5q0 -29 -20 -47.5t-51 -18.5zM302 -12q-143 0 -243 97l67 79q83 -76 178 -76q60 0 91 23t31 64q0 20 -6.5 34t-25.5 26.5t-31 18t-46 19.5l-89 39q-61 23 -101 66t-40 109
q0 79 64 132t163 53q123 0 210 -84l-60 -74q-71 58 -150 58q-51 0 -80.5 -21t-29.5 -58q0 -15 7 -28t14.5 -20.5t26.5 -17.5t28.5 -14t35.5 -14l86 -38q68 -27 105 -68.5t37 -108.5q0 -83 -65.5 -139.5t-176.5 -56.5z" />
    <glyph glyph-name="uni1E61" unicode="&#x1e61;" 
d="M309 605q-37 0 -61 23t-24 61t24.5 62t60.5 24q37 0 61 -24t24 -62t-24 -61t-61 -23zM303 -13q-127 0 -240 80l53 73q89 -65 190 -65q56 0 84.5 17t28.5 46q0 26 -34.5 46t-111.5 41q-181 49 -181 146q0 68 58 110t159 42q105 0 204 -67l-53 -71q-75 51 -150 51
q-103 0 -103 -59q0 -26 34.5 -43.5t103.5 -35.5q94 -25 141 -60t47 -93q0 -68 -61 -113t-169 -45z" />
    <glyph glyph-name="Wgrave" unicode="&#x1e80;" 
d="M270 710l-116 117h125l84 -117h-93zM101 0l-94 660h117l37 -383q0 -3 9 -166h3q6 27 19 82.5t19 83.5l57 214h74l56 -214q6 -29 19.5 -85t18.5 -81h4l9 166l35 383h109l-89 -660h-123l-58 243q-15 75 -21 123h-3q-11 -76 -22 -123l-55 -243h-121z" />
    <glyph glyph-name="wgrave" unicode="&#x1e81;" 
d="M320 574l-125 157h120l90 -157h-85zM102 0l-96 510h114l45 -269q5 -28 11.5 -79t8.5 -67h4q10 67 26 146l45 223h86l47 -223q2 -9 27 -146h4q4 24 10 72.5t10 73.5l44 269h106l-91 -510h-135l-43 220q-5 32 -23 149h-4q-21 -142 -22 -149l-42 -220h-132z" />
    <glyph glyph-name="Wacute" unicode="&#x1e82;" 
d="M237 710l85 117h125l-117 -117h-93zM101 0l-94 660h117l37 -383q0 -3 9 -166h3q6 27 19 82.5t19 83.5l57 214h74l56 -214q6 -29 19.5 -85t18.5 -81h4l9 166l35 383h109l-89 -660h-123l-58 243q-15 75 -21 123h-3q-11 -76 -22 -123l-55 -243h-121z" />
    <glyph glyph-name="wacute" unicode="&#x1e83;" 
d="M195 574l89 157h120l-124 -157h-85zM102 0l-96 510h114l45 -269q5 -28 11.5 -79t8.5 -67h4q10 67 26 146l45 223h86l47 -223q2 -9 27 -146h4q4 24 10 72.5t10 73.5l44 269h106l-91 -510h-135l-43 220q-5 32 -23 149h-4q-21 -142 -22 -149l-42 -220h-132z" />
    <glyph glyph-name="Wdieresis" unicode="&#x1e84;" 
d="M208 714q-26 0 -43 17t-17 43t17 42.5t43 16.5t42.5 -16.5t16.5 -42.5t-17 -43t-42 -17zM393 714q-26 0 -43 17t-17 43t17 42.5t43 16.5t42.5 -16.5t16.5 -42.5t-16.5 -43t-42.5 -17zM101 0l-94 660h117l37 -383q0 -3 9 -166h3q6 27 19 82.5t19 83.5l57 214h74l56 -214
q6 -29 19.5 -85t18.5 -81h4l9 166l35 383h109l-89 -660h-123l-58 243q-15 73 -21 123h-3q-12 -80 -22 -123l-55 -243h-121z" />
    <glyph glyph-name="wdieresis" unicode="&#x1e85;" 
d="M198 580q-29 0 -48 19t-19 48q0 28 19 47t48 19q28 0 47 -19t19 -47q0 -29 -19 -48t-47 -19zM403 580q-29 0 -47.5 19t-18.5 48q0 28 18.5 47t47.5 19t47.5 -19t18.5 -47q0 -29 -18.5 -48t-47.5 -19zM102 0l-96 510h114l45 -269q5 -28 11.5 -79t8.5 -67h4q10 67 26 146
l45 223h86l47 -223q2 -9 27 -146h4q4 24 10 72.5t10 73.5l44 269h106l-91 -510h-135l-43 220q-5 32 -23 149h-4q-21 -142 -22 -149l-42 -220h-132z" />
    <glyph glyph-name="uni1E8E" unicode="&#x1e8e;" 
d="M300 714q-30 0 -50.5 18.5t-20.5 47.5q0 28 20.5 46.5t50.5 18.5q31 0 51 -18.5t20 -46.5q0 -29 -20 -47.5t-51 -18.5zM242 0v230l-215 430h123l83 -179q55 -125 67 -151h4q23 52 69 152l80 178h120l-215 -430v-230h-116z" />
    <glyph glyph-name="uni1E8F" unicode="&#x1e8f;" 
d="M310 605q-37 0 -61 23t-24 61t24.5 62t60.5 24q37 0 61 -24t24 -62t-24 -61t-61 -23zM137 -217q-38 0 -70 10l22 88q19 -6 41 -6q80 0 116 91l15 39l-221 505h115l101 -255q21 -54 55 -150h4q23 73 48 150l90 255h108l-205 -543q-34 -91 -84.5 -137.5t-134.5 -46.5z" />
    <glyph glyph-name="uni1E97" unicode="&#x1e97;" 
d="M526 100l22 -83q-88 -30 -157 -30q-201 0 -201 217v215h-131v91h136v150l106 53q-9 15 -9 35q0 28 18.5 47t47.5 19t47.5 -19t18.5 -47q0 -29 -18.5 -48t-47.5 -19q-35 0 -53 26v-197h224v-91h-224v-215q0 -65 26 -95t87 -30q54 0 108 21zM153 681q-29 0 -48 19t-19 48
q0 28 19 47t48 19q28 0 47 -19t19 -47q0 -29 -19 -48t-47 -19z" />
    <glyph glyph-name="uni1E9E" unicode="&#x1e9e;" 
d="M393 -12q-101 0 -158 69l62 71q39 -45 82 -45q29 0 46.5 26t17.5 68q0 88 -133 119l-8 70l97 141q-12 31 -36.5 51t-58.5 20q-114 0 -114 -155v-423h-118v441q0 104 59 167.5t177 63.5q80 0 133.5 -45.5t73.5 -123.5l-94 -139q143 -49 143 -188q0 -82 -45.5 -135
t-125.5 -53z" />
    <glyph glyph-name="uni1EBC" unicode="&#x1ebc;" 
d="M169 713q6 57 32 90t64 33q29 0 66.5 -24.5t52.5 -24.5q30 0 40 49h60q-6 -57 -32 -90t-64 -33q-29 0 -67 25t-52 25q-31 0 -40 -50h-60zM105 0v660h417v-97h-302v-171h256v-97h-256v-197h312v-98h-427z" />
    <glyph glyph-name="uni1EBD" unicode="&#x1ebd;" 
d="M159 577q7 60 33 93t69 33q27 0 61 -26.5t47 -26.5q31 0 42 53h61q-8 -60 -34.5 -93t-68.5 -33q-27 0 -61 27t-47 27q-31 0 -41 -54h-61zM330 -13q-115 0 -191.5 72.5t-76.5 195.5q0 120 75.5 194t177.5 74q107 0 167 -67t60 -175q0 -25 -5 -57h-357q5 -69 51 -108
t114 -39q70 0 138 42l39 -72q-92 -60 -192 -60zM179 303h258q0 62 -31 96.5t-89 34.5q-51 0 -90 -34.5t-48 -96.5z" />
    <glyph glyph-name="Ygrave" unicode="&#x1ef2;" 
d="M270 710l-116 117h125l84 -117h-93zM242 0v230l-215 430h123l83 -179q55 -125 67 -151h4q23 52 69 152l80 178h120l-215 -430v-230h-116z" />
    <glyph glyph-name="ygrave" unicode="&#x1ef3;" 
d="M330 574l-125 157h120l90 -157h-85zM137 -217q-38 0 -70 10l22 88q19 -6 41 -6q80 0 116 91l15 39l-221 505h115l101 -255q21 -54 55 -150h4q23 73 48 150l90 255h108l-205 -543q-34 -91 -84.5 -137.5t-134.5 -46.5z" />
    <glyph glyph-name="uni1EF8" unicode="&#x1ef8;" 
d="M143 713q6 57 32 90t64 33q29 0 66.5 -24.5t52.5 -24.5q30 0 39 49h61q-6 -57 -32 -90t-64 -33q-30 0 -68 25t-52 25q-30 0 -39 -50h-60zM242 0v230l-215 430h123l83 -179q55 -125 67 -151h4q23 52 69 152l80 178h120l-215 -430v-230h-116z" />
    <glyph glyph-name="uni1EF9" unicode="&#x1ef9;" 
d="M150 601q7 61 33.5 94.5t68.5 33.5q27 0 61 -27.5t47 -27.5q31 0 41 55h61q-7 -60 -33.5 -94t-68.5 -34q-27 0 -61 28t-47 28q-31 0 -42 -56h-60zM137 -207q-38 0 -70 10l22 89q23 -7 41 -7q83 0 119 91l12 29l-221 505h115l101 -255q21 -54 55 -150h4q23 73 48 150
l90 255h108l-204 -533q-35 -91 -85.5 -137.5t-134.5 -46.5z" />
    <glyph glyph-name="uni2007" unicode="&#x2007;" 
 />
    <glyph glyph-name="endash" unicode="&#x2013;" 
d="M80 208v91h440v-91h-440z" />
    <glyph glyph-name="emdash" unicode="&#x2014;" 
d="M20 208v91h560v-91h-560z" />
    <glyph glyph-name="quoteleft" unicode="&#x2018;" 
d="M300 320q-48 0 -75.5 37t-27.5 103q0 162 159 238l33 -63q-101 -52 -108 -149q13 5 24 5q35 0 57.5 -22.5t22.5 -59.5q0 -40 -23.5 -64.5t-61.5 -24.5z" />
    <glyph glyph-name="quoteright" unicode="&#x2019;" 
d="M243 320l-33 63q101 50 108 149q-13 -5 -23 -5q-36 0 -59 22.5t-23 59.5q0 39 24 64t61 25q48 0 76 -37t28 -103q0 -161 -159 -238z" />
    <glyph glyph-name="quotesinglbase" unicode="&#x201a;" 
d="M243 -229l-33 63q101 50 108 148q-16 -4 -23 -4q-36 0 -59 23t-23 60q0 39 24 64t61 25q48 0 76 -37.5t28 -103.5q0 -161 -159 -238z" />
    <glyph glyph-name="quotedblleft" unicode="&#x201c;" 
d="M177 320q-48 0 -76 37t-28 103q0 162 159 238l33 -63q-101 -52 -108 -149q13 5 24 5q35 0 57.5 -22.5t22.5 -59.5q0 -40 -23.5 -64.5t-60.5 -24.5zM424 320q-48 0 -75.5 37t-27.5 103q0 162 159 238l33 -63q-102 -52 -109 -149q13 5 24 5q36 0 58.5 -22.5t22.5 -59.5
q0 -40 -23.5 -64.5t-61.5 -24.5z" />
    <glyph glyph-name="quotedblright" unicode="&#x201d;" 
d="M119 320l-33 63q101 50 108 148q-16 -4 -23 -4q-36 0 -58.5 22.5t-22.5 59.5q0 40 23.5 64.5t60.5 24.5q48 0 76 -37t28 -103q0 -161 -159 -238zM367 320l-33 63q101 51 107 148q-16 -4 -23 -4q-36 0 -58.5 22.5t-22.5 59.5q0 39 24 64t61 25q48 0 76 -37t28 -103
q0 -161 -159 -238z" />
    <glyph glyph-name="quotedblbase" unicode="&#x201e;" 
d="M119 -229l-33 63q101 51 107 148q-14 -4 -22 -4q-36 0 -58.5 23t-22.5 60q0 40 23.5 64.5t60.5 24.5q48 0 76 -37.5t28 -103.5q0 -161 -159 -238zM367 -229l-33 63q101 51 107 148q-16 -4 -23 -4q-35 0 -58 23t-23 60q0 39 24 64t61 25q48 0 76 -37.5t28 -103.5
q0 -161 -159 -238z" />
    <glyph glyph-name="dagger" unicode="&#x2020;" 
d="M253 -80l7 545l-152 -7v95l152 -7l-7 166h94l-7 -166l152 7v-95l-152 7l7 -545h-94z" />
    <glyph glyph-name="daggerdbl" unicode="&#x2021;" 
d="M253 -80l7 167l-152 -7v94l152 -9l-7 151l7 152l-152 -10v95l152 -7l-7 166h94l-7 -166l152 7v-95l-152 10l7 -152l-7 -151l152 9v-94l-152 7l7 -167h-94z" />
    <glyph glyph-name="bullet" unicode="&#x2022;" 
d="M300 108q-65 0 -110.5 43.5t-45.5 110.5t45.5 110.5t110.5 43.5q66 0 111.5 -43.5t45.5 -110.5t-45.5 -110.5t-111.5 -43.5z" />
    <glyph glyph-name="ellipsis" unicode="&#x2026;" 
d="M97 159q35 0 57.5 -24t22.5 -61t-22.5 -61.5t-57.5 -24.5t-58 24.5t-23 61.5t23 61t58 24zM405 159q35 0 58 -24t23 -61t-23 -61.5t-58 -24.5h-3h-3q-34 0 -57 24.5t-23 61.5t22.5 61t57.5 24h3h3z" />
    <glyph glyph-name="perthousand" unicode="&#x2030;" 
d="M162 389q-54 0 -88 35.5t-34 96.5q0 59 34 93.5t88 34.5t88 -34.5t34 -93.5q0 -61 -34 -96.5t-88 -35.5zM162 441q23 0 38 20t15 60q0 76 -53 76t-53 -76q0 -40 15 -60t38 -20zM116 275l-17 37l449 200l31 -76zM162 -12q-54 0 -88 36t-34 96t34 94t88 34t88 -34t34 -94
t-34 -96t-88 -36zM440 -12q-54 0 -88.5 36t-34.5 96t34.5 94t88.5 34t88 -34t34 -94t-34 -96t-88 -36zM162 40q23 0 38 20t15 60q0 75 -53 75t-53 -75q0 -40 15 -60t38 -20zM440 40q23 0 38 20t15 60q0 75 -53 75t-53 -75q0 -80 53 -80z" />
    <glyph glyph-name="minute" unicode="&#x2032;" 
d="M243 395l22 293h114l-21 -122l-40 -171h-75z" />
    <glyph glyph-name="second" unicode="&#x2033;" 
d="M394 688l-20 -122l-41 -171h-105l22 293h144z" />
    <glyph glyph-name="guilsinglleft" unicode="&#x2039;" 
d="M348 39l-162 157v113l162 157l51 -45l-127 -169l127 -169z" />
    <glyph glyph-name="guilsinglright" unicode="&#x203a;" 
d="M252 39l-50 44l127 169l-127 169l50 45l162 -157v-113z" />
    <glyph glyph-name="fraction" unicode="&#x2044;" 
d="M393 384l-42 39l165 201l62 -59zM85 30l-62 59l184 181l42 -39z" />
    <glyph glyph-name="colonmonetary" unicode="&#x20a1;" 
d="M228 -110l15 123q-73 34 -114 112t-41 191q0 137 61.5 223.5t168.5 104.5l12 103h44l-12 -98h12q13 0 37 -4l12 102h44l-13 -114q53 -20 92 -62l-65 -63q-18 16 -39 30l-54 -458q57 9 102 61l65 -60q-75 -85 -178 -92l-12 -99h-44l12 99q-23 1 -48 8l-13 -107h-44z
M344 80l56 475q-22 4 -34 4q-10 0 -14 -1l-55 -463q21 -12 47 -15zM257 130l49 416q-49 -21 -75.5 -80t-26.5 -146q0 -129 53 -190z" />
    <glyph glyph-name="lira" unicode="&#x20a4;" 
d="M73 0v71q52 22 84 62t36 93h-118v57l83 5h29q-3 11 -10 30t-8 23h-94v57l73 5q-8 27 -8 51q0 89 60.5 142t158.5 53q110 0 181 -78l-64 -64q-46 48 -108 48q-57 0 -88 -28t-31 -78q0 -24 7 -46h193v-62h-176q13 -45 15 -53h161v-62h-156q-4 -73 -64 -124v-4h312v-98h-468
z" />
    <glyph glyph-name="peseta" unicode="&#x20a7;" 
d="M104 0v399h-72v68l72 5v165h165q208 0 231 -165h63v-73h-63q-12 -84 -75 -126.5t-156 -42.5h-56v-230h-109zM213 472h178q-17 90 -132 90h-46v-90zM213 305h46q114 0 132 94h-178v-94z" />
    <glyph glyph-name="dong" unicode="&#x20ab;" 
d="M269 113q-78 0 -123.5 50t-45.5 140q0 80 52.5 129.5t122.5 49.5q61 0 112 -43l-4 75v25h-154v61h154v58h96v-58h75v-56l-75 -5v-416h-79l-7 40h-4q-52 -50 -120 -50zM292 191q49 0 91 45v133q-41 33 -87 33q-40 0 -68.5 -28t-28.5 -71q0 -54 24.5 -83t68.5 -29zM113 0
v62h398v-62h-398z" />
    <glyph glyph-name="Euro" unicode="&#x20ac;" 
d="M378 -12q-101 0 -171 62t-91 175h-64v56l57 4q-1 11 -1 31t1 29h-57v56l64 5q22 114 94.5 178.5t179.5 64.5q103 0 176 -78l-65 -63q-54 51 -115 51t-100.5 -40t-53.5 -112h273v-62h-281v-25q0 -23 1 -33h240v-62h-231q15 -71 53.5 -109t97.5 -38q70 0 125 63l65 -60
q-82 -93 -197 -93z" />
    <glyph glyph-name="uni20B1" unicode="&#x20b1;" 
d="M104 0v362h-71v44l71 5v52h-71v45l71 4v125h165q180 0 221 -124h73v-50h-62q1 -9 1 -30q0 -15 -1 -22h62v-49h-71q-22 -65 -81.5 -98.5t-141.5 -33.5h-56v-230h-109zM213 513h163q-29 49 -117 49h-46v-49zM213 411h180q2 14 2 22q0 12 -2 30h-180v-52zM213 305h46
q87 0 119 57h-165v-57z" />
    <glyph glyph-name="uni20B9" unicode="&#x20b9;" 
d="M367 0l-181 227h-88v92h77q144 0 162 94h-239v56l79 6h157q-22 69 -159 69h-77v93h426v-62h-153q62 -33 78 -100h75v-62h-73q-6 -67 -46.5 -110t-106.5 -61l198 -242h-129z" />
    <glyph glyph-name="uni20BA" unicode="&#x20ba;" 
d="M141 -12v253l-95 -45v67l95 45v63l-95 -44v66l95 45v199h115v-142l171 81v-67l-171 -81v-64l171 82v-67l-171 -82v-201q74 4 132 44t58 102q0 20 -5 37l95 23q8 -35 8 -54q0 -129 -109.5 -197t-293.5 -63z" />
    <glyph glyph-name="uni2113" unicode="&#x2113;" 
d="M366 -12q-68 0 -117 41.5t-59 117.5q-9 -6 -27 -17.5t-23 -14.5l-44 71q46 28 91 60v244q0 116 45.5 173t121.5 57q66 0 106 -43t40 -119q0 -92 -49.5 -173t-150.5 -161v-30q0 -56 23 -83t60 -27q44 0 92 44l44 -70q-78 -70 -153 -70zM300 337q106 104 106 221
q0 77 -48 77q-25 0 -41.5 -32t-16.5 -96v-170z" />
    <glyph glyph-name="uni2117" unicode="&#x2117;" horiz-adv-x="653" 
d="M327 -10q-136 0 -231.5 92.5t-95.5 241.5t95 239.5t232 90.5q136 0 231 -90.5t95 -239.5t-95 -241.5t-231 -92.5zM327 42q114 0 191.5 78.5t77.5 203.5q0 124 -77.5 202t-191.5 78t-191.5 -78t-77.5 -202q0 -125 77.5 -203.5t191.5 -78.5zM199 138v364h142q72 0 116 -30
t44 -93q0 -67 -45.5 -102.5t-114.5 -35.5h-56v-103h-86zM285 304h46q85 0 85 72q0 61 -85 61h-46v-133z" />
    <glyph glyph-name="uni2120" unicode="&#x2120;" 
d="M116 352q-61 0 -113 49l42 48q40 -37 77 -37q39 0 39 30q0 14 -6.5 20t-25.5 16l-6 3l-44 22q-60 30 -60 88q0 41 30 67.5t81 26.5q56 0 102 -39l-37 -50q-41 29 -67 29q-19 0 -28.5 -8.5t-9.5 -21.5q0 -11 8.5 -18.5t29.5 -17.5l43 -21q32 -14 47 -34.5t15 -54.5
q0 -39 -32 -68t-85 -29zM284 364v312h87l39 -104l24 -75h4l23 75l39 104h87v-312h-69v117l9 110h-4l-62 -168h-50l-63 168h-4l9 -110v-117h-69z" />
    <glyph glyph-name="trademark" unicode="&#x2122;" 
d="M79 364v242h-88v70h253v-70h-87v-242h-78zM284 364v312h87l39 -104l24 -75h4l23 75l39 104h87v-312h-69v117l9 110h-4l-62 -168h-50l-63 168h-4l9 -110v-117h-69z" />
    <glyph glyph-name="uni2126" unicode="&#x2126;" 
d="M21 0v94h115v4q-101 105 -101 257q0 138 72.5 224.5t192.5 86.5t192.5 -86.5t72.5 -224.5q0 -152 -101 -257v-4h116v-94h-227v84q94 97 94 261q0 98 -39 159.5t-108 61.5t-107.5 -61.5t-38.5 -159.5q0 -164 94 -261v-84h-227z" />
    <glyph glyph-name="estimated" unicode="&#x212e;" 
d="M300 -12q-113 0 -193.5 98.5t-80.5 237.5t80.5 237.5t193.5 98.5t193.5 -98.5t80.5 -237.5v-8h-414q-4 0 -4 -4v-224q0 -8 8 -20q54 -60 138 -60q52 0 99.5 30t82.5 82h38q-42 -62 -99 -97t-123 -35zM160 334h280q6 0 6 6v224q0 12 -10 22q-54 54 -134 54q-83 0 -138 -58
q-8 -12 -8 -22v-220q0 -6 4 -6z" />
    <glyph glyph-name="uni2153" unicode="&#x2153;" 
d="M153 329v221h-81v53q59 7 99 34h67v-308h-85zM393 384l-42 39l165 201l62 -59zM432 -12q-76 0 -132 48l37 53q36 -36 87 -36q52 0 52 38q0 43 -85 43v46q71 0 71 42q0 35 -47 35q-33 0 -70 -30l-36 50q47 44 124 44q48 0 80 -24t32 -63q0 -54 -55 -73q69 -17 69 -76
q0 -43 -36.5 -70t-90.5 -27zM85 30l-62 59l184 181l42 -39z" />
    <glyph glyph-name="uni2154" unicode="&#x2154;" 
d="M47 329v45q80 57 117 92.5t37 63.5q0 23 -14 36.5t-39 13.5q-34 0 -63 -39l-50 45q56 63 125 63q57 0 90 -28.5t33 -77.5q0 -34 -25.5 -67t-75.5 -78h114v-69h-249zM393 384l-42 39l165 201l62 -59zM432 -12q-76 0 -132 48l37 53q36 -36 87 -36q52 0 52 38q0 43 -85 43
v46q71 0 71 42q0 35 -47 35q-33 0 -70 -30l-36 50q47 44 124 44q48 0 80 -24t32 -63q0 -54 -55 -73q69 -17 69 -76q0 -43 -36.5 -70t-90.5 -27zM85 30l-62 59l184 181l42 -39z" />
    <glyph glyph-name="arrowleft" unicode="&#x2190;" 
d="M290 -16l-275 266v4l275 266l57 -62l-176 -160h398v-92h-398l176 -159z" />
    <glyph glyph-name="arrowup" unicode="&#x2191;" 
d="M254 -26v399l-159 -175l-63 55l266 275h4l266 -275l-62 -55l-160 175v-399h-92z" />
    <glyph glyph-name="arrowright" unicode="&#x2192;" 
d="M309 -16l-56 63l176 159h-399v92h399l-176 160l56 62l275 -266v-4z" />
    <glyph glyph-name="arrowdown" unicode="&#x2193;" 
d="M298 -26l-266 276l63 56l159 -175v397h92v-397l160 175l62 -56l-266 -276h-4z" />
    <glyph glyph-name="partialdiff" unicode="&#x2202;" 
d="M257 -12q-79 0 -134 54t-55 141q0 101 59.5 165t156.5 64q81 0 138 -67q1 8 1 25q0 209 -125 209q-57 0 -107 -48l-51 71q76 70 170 70q106 0 164 -79.5t58 -225.5q0 -170 -76 -274.5t-199 -104.5zM269 82q53 0 91.5 44t53.5 129q-49 68 -118 68q-57 0 -89 -36t-32 -97
q0 -50 27.5 -79t66.5 -29z" />
    <glyph glyph-name="uni2206" unicode="&#x2206;" 
d="M25 0v70l208 584h136l207 -584v-70h-551zM150 98h299l-86 260l-62 202h-4l-62 -202z" />
    <glyph glyph-name="product" unicode="&#x220f;" 
d="M39 -120v757h523v-757h-116v656h-292v-656h-115z" />
    <glyph glyph-name="summation" unicode="&#x2211;" 
d="M65 -120v70l222 308l-212 309v70h453v-98h-312v-4l190 -276l-198 -278v-4h346v-97h-489z" />
    <glyph glyph-name="minus" unicode="&#x2212;" 
d="M78 289v83h445v-83h-445z" />
    <glyph glyph-name="uni2215" unicode="&#x2215;" 
d="M393 384l-42 39l165 201l62 -59zM85 30l-62 59l184 181l42 -39z" />
    <glyph glyph-name="uni2219" unicode="&#x2219;" 
d="M298 250q-43 0 -70.5 28.5t-27.5 72.5q0 43 28 72t70 29t70 -29t28 -72q0 -44 -27.5 -72.5t-70.5 -28.5z" />
    <glyph glyph-name="radical" unicode="&#x221a;" 
d="M293 -88l-150 420l-72 -31l-23 57l154 65l107 -320q13 -45 19 -73h4q8 51 14 73l167 717h79l-217 -908h-82z" />
    <glyph glyph-name="infinity" unicode="&#x221e;" 
d="M446 136q-54 0 -94 26t-79 88h-4q-56 -91 -139 -91q-57 0 -98 48t-41 114q0 84 43.5 133t111.5 49q86 0 137 -92h4q68 108 163 108q68 0 113.5 -51.5t45.5 -129.5q0 -93 -46 -147.5t-117 -54.5zM440 243q38 0 60.5 26.5t22.5 65.5q0 45 -24 72t-66 27q-62 0 -112 -89
q28 -54 55.5 -78t63.5 -24zM147 244q55 0 88 73q-37 79 -92 79q-31 0 -48 -19.5t-17 -52.5t19.5 -56.5t49.5 -23.5z" />
    <glyph glyph-name="integral" unicode="&#x222b;" 
d="M219 -158q-35 0 -52 7l11 84q20 -4 36 -4q39 0 52 33.5t13 113.5q0 74 -20 236t-20 241q0 55 7 94.5t24 73.5t50.5 51.5t82.5 17.5q32 0 52 -6l-13 -85q-12 4 -35 4q-38 0 -51 -34t-13 -113q0 -74 19.5 -235.5t19.5 -240.5q0 -55 -6.5 -95t-23.5 -74t-50.5 -51.5
t-82.5 -17.5z" />
    <glyph glyph-name="approxequal" unicode="&#x2248;" 
d="M135 357l-71 32q53 135 150 135q34 0 66 -20t59 -40t50 -20q49 0 77 83l70 -32q-51 -134 -149 -134q-34 0 -66 20t-59 40t-50 20q-49 0 -77 -84zM135 133l-71 32q53 135 150 135q34 0 66 -20t59 -40t50 -20q49 0 77 84l70 -33q-52 -134 -149 -134q-34 0 -66 20t-59 40
t-50 20q-49 0 -77 -84z" />
    <glyph glyph-name="notequal" unicode="&#x2260;" 
d="M100 53l74 124h-96v83h143l82 141h-225v82h271l74 125h77l-73 -125h96v-82h-143l-82 -141h225v-83h-272l-74 -124h-77z" />
    <glyph glyph-name="lessequal" unicode="&#x2264;" 
d="M523 154l-445 147v98l445 148v-96l-191 -60l-137 -39v-4l137 -39l191 -59v-96zM78 0v83h445v-83h-445z" />
    <glyph glyph-name="greaterequal" unicode="&#x2265;" 
d="M78 154v96l191 59l137 39v4l-137 39l-191 60v96l445 -148v-98zM78 0v83h445v-83h-445z" />
    <glyph glyph-name="filledbox" unicode="&#x25a0;" 
d="M192 152v222h217v-222h-217z" />
    <glyph glyph-name="triagup" unicode="&#x25b2;" 
d="M31 30v2l268 508h4l267 -508v-2h-539z" />
    <glyph glyph-name="uni25B3" unicode="&#x25b3;" 
d="M31 30v2l268 508h4l267 -508v-2h-539zM165 106h271l-135 268z" />
    <glyph glyph-name="uni25B6" unicode="&#x25b6;" 
d="M65 12v539h2l508 -267v-4l-508 -268h-2z" />
    <glyph glyph-name="uni25B7" unicode="&#x25b7;" 
d="M65 12v539h2l508 -267v-4l-508 -268h-2zM142 146l266 136l-266 135v-271z" />
    <glyph glyph-name="triagdn" unicode="&#x25bc;" 
d="M299 25l-268 507v2h539v-2l-267 -507h-4z" />
    <glyph glyph-name="uni25BD" unicode="&#x25bd;" 
d="M299 24l-268 508v2h539v-2l-267 -508h-4zM301 189l135 268h-271z" />
    <glyph glyph-name="uni25C0" unicode="&#x25c0;" 
d="M534 12l-508 268v4l508 267h2v-539h-2z" />
    <glyph glyph-name="uni25C1" unicode="&#x25c1;" 
d="M534 12l-508 268v4l508 267h2v-539h-2zM458 146v271l-265 -135z" />
    <glyph glyph-name="uni25C6" unicode="&#x25c6;" 
d="M301 111l-154 152l154 152l152 -152z" />
    <glyph glyph-name="uni25C9" unicode="&#x25c9;" 
d="M300 69q-81 0 -136 54t-55 140t55 140t136 54q82 0 137 -54t55 -140t-55 -140t-137 -54zM300 130q53 0 89.5 37t36.5 96q0 60 -36.5 96.5t-89.5 36.5t-89.5 -36.5t-36.5 -96.5q0 -59 36.5 -96t89.5 -37zM300 198q-26 0 -43.5 18.5t-17.5 46.5t17.5 46.5t43.5 18.5
t44 -18.5t18 -46.5t-18 -46.5t-44 -18.5z" />
    <glyph glyph-name="lozenge" unicode="&#x25ca;" 
d="M251 -10l-163 340l163 340h98l163 -340l-163 -340h-98zM298 86h4l59 127l54 117l-54 117l-59 127h-4l-58 -127l-55 -117l55 -117z" />
    <glyph glyph-name="uni2610" unicode="&#x2610;" 
d="M-27 -10v625l68 58h586v-615l-58 -68h-596zM23 41h523v551h-523v-551z" />
    <glyph glyph-name="uni2611" unicode="&#x2611;" 
d="M-27 -10v625l68 58h483q52 73 110 131l72 -64q-42 -41 -79 -83v-599l-58 -68h-596zM23 41h523v508q-131 -191 -196 -430l-112 -13q-52 144 -140 275l74 49q67 -105 111 -235h4q61 205 182 397h-446v-551z" />
    <glyph glyph-name="uni2713" unicode="&#x2713;" 
d="M143 -20q-60 164 -154 297l75 50q78 -121 128 -258h4q54 178 147 342.5t202 274.5l72 -64q-116 -108 -210.5 -268t-151.5 -361z" />
    <glyph glyph-name="uni2752" unicode="&#x2752;" 
d="M157 112v239l62 53h225v-229l-53 -63h-234zM200 155h168v173h-168v-173z" />
    <glyph glyph-name="uniE0A0" unicode="&#xe0a0;" 
d="M47 301v756h184v-653zM47 -281v278q0 93 39 151t126 107l102 57q61 35 86 81.5t25 119.5v191h-139l195 197l195 -197h-140v-223q0 -100 -31.5 -162.5t-111.5 -107.5l-50 -29q-64 -37 -88 -75.5t-24 -109.5v-278h-184z" />
    <glyph glyph-name="uniE0A1" unicode="&#xe0a1;" 
d="M414 410h-338v520h103v-444h235v-76zM524 363v-520h-111l-164 338l13 -225v-113h-106v520h111l165 -339l-14 248v91h106z" />
    <glyph glyph-name="uniE0A2" unicode="&#xe0a2;" 
d="M123 -70q-94 0 -94 81v398q0 88 81 88v177q0 80 55 131t135 51q81 0 135.5 -51t54.5 -131v-177q82 0 82 -88v-398q0 -81 -95 -81h-354zM201 497h198v177q0 50 -27 78.5t-72 28.5t-72 -29.5t-27 -77.5v-177zM263 66h75v187q45 19 45 64q0 32 -25 52t-58 20t-57.5 -20.5
t-24.5 -51.5q0 -45 45 -64v-187z" />
    <glyph glyph-name="uniE0B0" unicode="&#xe0b0;" 
d="M654 385l-708 -672v1344z" />
    <glyph glyph-name="uniE0B1" unicode="&#xe0b1;" 
d="M-28 1032l682 -647l-682 -647l-65 55l624 592l-624 592z" />
    <glyph glyph-name="uniE0B2" unicode="&#xe0b2;" 
d="M-54 385l708 672v-1344z" />
    <glyph glyph-name="uniE0B3" unicode="&#xe0b3;" 
d="M628 -262l-682 647l682 647l65 -55l-623 -592l623 -592z" />
    <glyph glyph-name="zero.alt" 
d="M300 -12q-109 0 -172.5 90t-63.5 254t63 252t173 88q111 0 174 -87.5t63 -252.5q0 -164 -63.5 -254t-173.5 -90zM300 78q61 0 97 62.5t36 191.5q0 130 -36 190t-97 60t-96.5 -60t-35.5 -190t35.5 -192t96.5 -62zM300 264q-29 0 -48.5 20t-19.5 53t19.5 53t48.5 20t49 -20
t20 -53t-20 -53t-49 -20z" />
    <glyph glyph-name="four.alt" 
d="M355 0v172h-318v78l292 410h133v-399h90v-89h-90v-172h-107zM154 261h201v164q0 34 5 129h-5q-12 -20 -38 -59.5t-29 -43.5z" />
    <glyph glyph-name="zero.subs" 
d="M300 -182q-63 0 -103 45.5t-40 122.5t39.5 121t103.5 44t104 -44.5t40 -120.5q0 -77 -40.5 -122.5t-103.5 -45.5zM300 -118q27 0 45 26t18 78t-17.5 76.5t-45.5 24.5t-45.5 -24.5t-17.5 -76.5t18 -78t45 -26z" />
    <glyph glyph-name="one.subs" 
d="M284 -170v221h-82v53q55 8 100 35h67v-309h-85z" />
    <glyph glyph-name="two.subs" 
d="M178 -170v45q78 56 116 92.5t38 64.5q0 23 -13.5 36.5t-38.5 13.5q-35 0 -63 -39l-51 45q56 63 126 63q57 0 90 -28t33 -78q0 -35 -25.5 -67.5t-76.5 -77.5h115v-70h-250z" />
    <glyph glyph-name="three.subs" 
d="M300 -182q-76 0 -131 48l36 52q40 -36 87 -36q52 0 52 38q0 43 -85 43v47q71 0 71 42q0 35 -47 35q-31 0 -69 -30l-36 50q46 44 123 44q49 0 81 -24t32 -63q0 -53 -55 -73q68 -18 68 -77q0 -43 -36 -69.5t-91 -26.5z" />
    <glyph glyph-name="four.subs" 
d="M328 -170v67h-161v41l134 201h102v-188h51v-54h-51v-67h-75zM246 -49h82v39l5 91h-4l-39 -63z" />
    <glyph glyph-name="five.subs" 
d="M302 -182q-77 0 -133 48l36 52q44 -36 87 -36q24 0 39.5 12.5t15.5 33.5q0 47 -55 47q-28 0 -58 -19l-37 24l16 159h201v-71h-136l-7 -53q19 9 49 9q50 0 80.5 -26t30.5 -72t-36.5 -77t-92.5 -31z" />
    <glyph glyph-name="six.subs" 
d="M312 -182q-65 0 -104.5 43.5t-39.5 115.5q0 78 43 126t116 48q53 0 101 -37l-33 -51q-31 24 -63 24q-78 0 -86 -98q37 32 85 32t74.5 -25.5t26.5 -69.5q0 -45 -34.5 -76.5t-85.5 -31.5zM309 -118q22 0 34.5 11.5t12.5 31.5q0 42 -48 42q-31 0 -61 -26q6 -30 23 -44.5
t39 -14.5z" />
    <glyph glyph-name="seven.subs" 
d="M243 -170q4 70 26 122.5t69 116.5h-158v70h254v-46q-57 -64 -77.5 -121t-24.5 -142h-89z" />
    <glyph glyph-name="eight.subs" 
d="M300 -182q-56 0 -92.5 26t-36.5 63q0 47 63 79v4q-19 13 -28 20t-17 21t-8 32q0 38 34.5 63t84.5 25q52 0 86.5 -24.5t34.5 -63.5q0 -41 -53 -69v-4q62 -28 62 -83q0 -37 -37 -63t-93 -26zM317 16q27 17 27 42q0 15 -11.5 25t-32.5 10q-19 0 -31 -9t-12 -23q0 -27 60 -45
zM300 -126q22 0 38 10.5t16 26.5q0 20 -17.5 30.5t-53.5 20.5q-36 -17 -36 -49q0 -17 15 -28t38 -11z" />
    <glyph glyph-name="nine.subs" 
d="M273 -182q-56 0 -101 37l34 50q28 -23 62 -23q78 0 86 96q-36 -30 -85 -30q-48 0 -74 25t-26 70q0 46 34 77t86 31q65 0 104 -44t39 -117q0 -77 -43 -124.5t-116 -47.5zM293 1q31 0 60 26q-6 30 -23 45t-39 15t-34 -12t-12 -32q0 -42 48 -42z" />
    <glyph glyph-name="zero.dnom" 
d="M300 -12q-63 0 -103 45.5t-40 123.5q0 76 40 120t103 44q64 0 104 -44t40 -120q0 -77 -40.5 -123t-103.5 -46zM300 53q28 0 45.5 26t17.5 78q0 51 -17.5 75.5t-45.5 24.5t-45.5 -24.5t-17.5 -75.5q0 -52 17.5 -78t45.5 -26z" />
    <glyph glyph-name="one.dnom" 
d="M284 0v221h-82v53q55 8 100 35h67v-309h-85z" />
    <glyph glyph-name="two.dnom" 
d="M177 0v46q77 55 115.5 92t38.5 64q0 23 -14 36.5t-38 13.5q-35 0 -64 -39l-50 45q58 63 126 63q57 0 90 -28t33 -78q0 -23 -16.5 -50t-33 -44.5t-51.5 -50.5h114v-70h-250z" />
    <glyph glyph-name="three.dnom" 
d="M300 -12q-75 0 -131 48l36 53q38 -36 87 -36q52 0 52 38q0 43 -85 43v46q71 0 71 42q0 35 -47 35q-31 0 -69 -30l-36 50q46 44 123 44q49 0 81 -24t32 -63q0 -53 -55 -73q68 -17 68 -76q0 -43 -36.5 -70t-90.5 -27z" />
    <glyph glyph-name="four.dnom" 
d="M328 0v67h-161v41l134 201h102v-187h51v-55h-51v-67h-75zM246 122h82v39l5 90h-4l-39 -63z" />
    <glyph glyph-name="five.dnom" 
d="M302 -12q-75 0 -133 48l36 53q41 -36 87 -36q24 0 39.5 12t15.5 34q0 47 -55 47q-29 0 -58 -20l-37 25l16 158h201v-71h-136l-7 -53q19 9 49 9q50 0 80.5 -26t30.5 -72t-36.5 -77t-92.5 -31z" />
    <glyph glyph-name="six.dnom" 
d="M313 -12q-65 0 -104.5 44t-39.5 116q0 78 43 125.5t116 47.5q53 0 101 -37l-34 -51q-29 24 -61 24q-40 0 -62 -26t-25 -72q37 32 85 32t74.5 -25.5t26.5 -69.5q0 -45 -34 -76.5t-86 -31.5zM310 53q22 0 34.5 11.5t12.5 31.5q0 42 -49 42q-32 0 -60 -27q11 -58 62 -58z
" />
    <glyph glyph-name="seven.dnom" 
d="M243 0q4 71 26 123.5t69 115.5h-158v70h254v-46q-57 -64 -77.5 -120.5t-24.5 -142.5h-89z" />
    <glyph glyph-name="eight.dnom" 
d="M300 -12q-57 0 -93 26t-36 64q0 48 63 79v4q-19 12 -28 19t-17 21t-8 32q0 38 34.5 63t84.5 25q52 0 86.5 -24.5t34.5 -63.5q0 -41 -53 -68v-4q30 -15 46 -33t16 -50q0 -37 -37 -63.5t-93 -26.5zM317 186q27 17 27 42q0 15 -11.5 25t-32.5 10q-19 0 -31 -9t-12 -23
q0 -27 60 -45zM300 45q22 0 38 10.5t16 26.5q0 20 -17.5 30.5t-53.5 20.5q-36 -17 -36 -49q0 -17 15 -28t38 -11z" />
    <glyph glyph-name="nine.dnom" 
d="M273 -12q-56 0 -101 37l34 50q27 -22 62 -22q78 0 86 96q-38 -31 -85 -31q-48 0 -74 25t-26 70q0 46 34 77t86 31q64 0 103.5 -44t39.5 -116q0 -78 -43 -125.5t-116 -47.5zM293 171q31 0 60 26q-6 30 -23 45t-39 15t-34 -12t-12 -32q0 -42 48 -42z" />
    <glyph glyph-name="zero.numr" 
d="M300 317q-63 0 -103 45.5t-40 121.5q0 77 39.5 121t103.5 44t104 -44.5t40 -120.5t-40.5 -121.5t-103.5 -45.5zM300 380q27 0 45 26t18 78q0 100 -63 100t-63 -100q0 -52 18 -78t45 -26z" />
    <glyph glyph-name="one.numr" 
d="M284 329v221h-82v53q58 7 100 34h67v-308h-85z" />
    <glyph glyph-name="two.numr" 
d="M178 329v45q79 56 116.5 92t37.5 64q0 23 -13.5 36.5t-38.5 13.5q-35 0 -63 -39l-51 45q56 63 126 63q57 0 90 -28.5t33 -77.5q0 -34 -26 -67t-76 -78h115v-69h-250z" />
    <glyph glyph-name="three.numr" 
d="M300 317q-76 0 -131 47l36 53q39 -37 87 -37q23 0 37.5 10t14.5 28q0 44 -85 44v47q71 0 71 41q0 34 -47 34q-35 0 -69 -29l-36 51q46 43 123 43q49 0 81 -24t32 -62q0 -54 -55 -74q68 -17 68 -76q0 -43 -36 -69.5t-91 -26.5z" />
    <glyph glyph-name="four.numr" 
d="M328 329v66h-161v42l134 200h102v-188h51v-54h-51v-66h-75zM246 449h82v39l5 91h-4l-39 -63z" />
    <glyph glyph-name="five.numr" 
d="M302 317q-76 0 -133 47l36 53q43 -37 87 -37q24 0 39.5 12.5t15.5 34.5q0 47 -55 47q-29 0 -58 -20l-37 25l16 158h201v-71h-136l-7 -53q22 10 49 10q50 0 80.5 -26t30.5 -73q0 -46 -36.5 -76.5t-92.5 -30.5z" />
    <glyph glyph-name="six.numr" 
d="M312 317q-65 0 -104.5 43.5t-39.5 115.5q0 78 43 125.5t116 47.5q56 0 101 -37l-33 -50q-30 22 -63 22q-78 0 -86 -96q38 31 85 31q48 0 74.5 -25t26.5 -69q0 -46 -34 -77t-86 -31zM309 380q22 0 34.5 12t12.5 32q0 42 -48 42q-31 0 -61 -26q11 -60 62 -60z" />
    <glyph glyph-name="seven.numr" 
d="M243 329q4 70 26 122.5t69 115.5h-158v70h254v-46q-57 -64 -77.5 -120.5t-24.5 -141.5h-89z" />
    <glyph glyph-name="eight.numr" 
d="M300 317q-56 0 -92.5 26t-36.5 63q0 48 63 79v4q-28 17 -40.5 32t-12.5 41q0 38 34.5 62.5t84.5 24.5q52 0 86.5 -24.5t34.5 -62.5q0 -42 -53 -69v-4q30 -15 46 -33t16 -50q0 -38 -37 -63.5t-93 -25.5zM317 514q27 17 27 42q0 15 -11.5 25t-32.5 10q-19 0 -31 -9t-12 -23
q0 -27 60 -45zM300 373q22 0 38 10.5t16 26.5q0 19 -18 30t-53 21q-36 -17 -36 -49q0 -17 15 -28t38 -11z" />
    <glyph glyph-name="nine.numr" 
d="M273 317q-57 0 -101 36l34 50q30 -23 62 -23q78 0 86 97q-36 -30 -85 -30q-48 0 -74 25t-26 69q0 45 34 76.5t86 31.5q64 0 103.5 -44t39.5 -116q0 -77 -43 -124.5t-116 -47.5zM293 499q31 0 60 26q-11 59 -62 59q-22 0 -34 -11.5t-12 -31.5q0 -42 48 -42z" />
    <glyph glyph-name="zero.sups" 
d="M300 428q-63 0 -103 45.5t-40 123.5q0 76 40 120t103 44q64 0 104 -44t40 -120q0 -77 -40.5 -123t-103.5 -46zM300 493q28 0 45.5 26t17.5 78q0 51 -17.5 75.5t-45.5 24.5t-45.5 -24.5t-17.5 -75.5q0 -52 17.5 -78t45.5 -26z" />
    <glyph glyph-name="one.sups" 
d="M284 440v221h-82v53q55 8 100 35h67v-309h-85z" />
    <glyph glyph-name="two.sups" 
d="M178 440v46q77 54 115.5 91.5t38.5 64.5q0 23 -13.5 36.5t-38.5 13.5q-35 0 -63 -39l-51 45q56 63 126 63q57 0 90 -28t33 -78q0 -34 -25.5 -66t-76.5 -79h115v-70h-250z" />
    <glyph glyph-name="three.sups" 
d="M300 428q-75 0 -131 48l36 53q38 -36 87 -36q52 0 52 38q0 43 -85 43v46q71 0 71 42q0 35 -47 35q-31 0 -69 -30l-36 50q46 44 123 44q49 0 81 -24t32 -63q0 -53 -55 -73q68 -17 68 -76q0 -43 -36.5 -70t-90.5 -27z" />
    <glyph glyph-name="four.sups" 
d="M328 440v67h-161v41l134 201h102v-187h51v-55h-51v-67h-75zM246 562h82v39l5 90h-4l-39 -63z" />
    <glyph glyph-name="five.sups" 
d="M302 428q-75 0 -133 48l36 53q41 -36 87 -36q24 0 39.5 12t15.5 34q0 47 -55 47q-29 0 -58 -20l-37 25l16 158h201v-71h-136l-7 -53q19 9 49 9q50 0 80.5 -26t30.5 -72t-36.5 -77t-92.5 -31z" />
    <glyph glyph-name="six.sups" 
d="M312 428q-65 0 -104.5 44t-39.5 116q0 78 43 125.5t116 47.5q53 0 101 -37l-33 -51q-31 24 -63 24q-78 0 -86 -97q38 31 85 31q48 0 74.5 -25.5t26.5 -69.5q0 -45 -34.5 -76.5t-85.5 -31.5zM309 493q22 0 34.5 11.5t12.5 31.5q0 42 -48 42q-31 0 -61 -26q11 -59 62 -59z
" />
    <glyph glyph-name="seven.sups" 
d="M243 440q4 71 26 123.5t69 115.5h-158v70h254v-46q-57 -64 -77.5 -120.5t-24.5 -142.5h-89z" />
    <glyph glyph-name="eight.sups" 
d="M300 428q-57 0 -93 26t-36 64q0 48 63 79v4q-19 12 -28 19t-17 21t-8 32q0 38 34.5 63t84.5 25q52 0 86.5 -24.5t34.5 -63.5q0 -41 -53 -68v-4q30 -15 46 -33t16 -50q0 -37 -37 -63.5t-93 -26.5zM317 626q27 17 27 42q0 15 -11.5 25t-32.5 10q-19 0 -31 -9t-12 -23
q0 -27 60 -45zM300 485q22 0 38 10.5t16 26.5q0 20 -17.5 30.5t-53.5 20.5q-36 -17 -36 -49q0 -17 15 -28t38 -11z" />
    <glyph glyph-name="nine.sups" 
d="M273 428q-56 0 -101 37l34 50q27 -22 62 -22q78 0 86 96q-38 -31 -85 -31q-48 0 -74 25t-26 70q0 46 34 77t86 31q64 0 103.5 -44t39.5 -116q0 -78 -43 -125.5t-116 -47.5zM293 611q31 0 60 26q-6 30 -23 45t-39 15t-34 -12t-12 -32q0 -42 48 -42z" />
    <glyph glyph-name="asterisk.alt" 
d="M198 298l-53 36l87 144l-138 56l20 59l144 -38l11 157h63l10 -156l145 37l19 -59l-138 -56l87 -144l-53 -36l-102 133z" />
    <glyph glyph-name="comma.dnom" 
d="M255 -123l-19 46q70 24 70 78q-1 -1 -5 -1q-22 0 -38.5 13.5t-16.5 37.5q0 23 16.5 38t39.5 15q63 0 63 -85q0 -51 -29 -88t-81 -54z" />
    <glyph glyph-name="period.dnom" 
d="M300 -8q-23 0 -38.5 15.5t-15.5 40.5q0 24 15.5 40t38.5 16t39 -16t16 -40t-15.5 -40t-39.5 -16z" />
    <glyph glyph-name="slash.frac" 
d="M393 384l-42 39l165 201l62 -59zM85 30l-62 59l184 181l42 -39z" />
    <glyph glyph-name="comma.numr" 
d="M255 141l-19 46q70 25 70 78h-5q-23 0 -39 13.5t-16 36.5t16.5 38.5t39.5 15.5q30 0 46.5 -22.5t16.5 -63.5q0 -50 -29 -87.5t-81 -54.5z" />
    <glyph glyph-name="period.numr" 
d="M300 256q-23 0 -38.5 15.5t-15.5 40.5q0 24 15.5 40.5t38.5 16.5t39 -16.5t16 -40.5t-15.5 -40t-39.5 -16z" />
    <glyph glyph-name="comma.subs" 
d="M255 -293l-19 46q70 24 70 77h-5q-23 0 -39 13.5t-16 37.5q0 23 16.5 38t39.5 15q63 0 63 -85q0 -51 -29 -88t-81 -54z" />
    <glyph glyph-name="period.subs" 
d="M300 -178q-23 0 -38.5 15.5t-15.5 39.5q0 25 15.5 41t38.5 16t39 -16t16 -41q0 -24 -16 -39.5t-39 -15.5z" />
    <glyph glyph-name="parenleft.dnom" 
d="M332 -83q-107 112 -107 246q0 133 107 245l62 -41q-84 -90 -84 -204q0 -115 84 -206z" />
    <glyph glyph-name="parenright.dnom" 
d="M269 -83l-63 40q84 91 84 206q0 114 -84 204l63 41q106 -111 106 -245q0 -135 -106 -246z" />
    <glyph glyph-name="parenleft.numr" 
d="M332 182q-107 110 -107 244t107 246l62 -41q-84 -90 -84 -205q0 -113 84 -204z" />
    <glyph glyph-name="parenright.numr" 
d="M269 182l-63 40q84 91 84 204q0 115 -84 205l63 41q106 -111 106 -246t-106 -244z" />
    <glyph glyph-name="parenleft.subs" 
d="M332 -253q-53 56 -80 113.5t-27 131.5q0 134 107 246l62 -41q-84 -90 -84 -205q0 -114 84 -205z" />
    <glyph glyph-name="parenright.subs" 
d="M269 -253l-63 40q84 91 84 205q0 115 -84 205l63 41q106 -111 106 -246q0 -74 -26.5 -131.5t-79.5 -113.5z" />
    <glyph glyph-name="comma.sups" 
d="M255 317l-19 46q70 25 70 78q-1 -1 -5 -1q-22 0 -38.5 13.5t-16.5 37.5q0 23 16.5 38t39.5 15q63 0 63 -85q0 -50 -29 -87.5t-81 -54.5z" />
    <glyph glyph-name="parenleft.sups" 
d="M332 358q-107 110 -107 245q0 133 107 245l62 -41q-84 -90 -84 -204q0 -115 84 -205z" />
    <glyph glyph-name="parenright.sups" 
d="M269 358l-63 40q84 90 84 205q0 114 -84 204l63 41q106 -111 106 -245q0 -136 -106 -245z" />
    <glyph glyph-name="period.sups" 
d="M300 432q-23 0 -38.5 15.5t-15.5 40.5q0 24 15.5 40t38.5 16t39 -16t16 -40t-15.5 -40t-39.5 -16z" />
    <glyph glyph-name="space.frac" 
 />
    <glyph glyph-name="uni00A0.frac" 
 />
  </font>
</defs>
</svg>
