<?xml version="1.0" encoding="UTF-8"?>
<svg width="50px" height="50px" viewBox="0 0 50 50" version="1.1" xmlns="http://www.w3.org/2000/svg" xmlns:xlink="http://www.w3.org/1999/xlink">
    <!-- Generator: Sketch 52.2 (67145) - http://www.bohemiancoding.com/sketch -->
    <title>Shape</title>
    <desc>Created with Sketch.</desc>
    <g id="Page-1" stroke="none" stroke-width="1" fill="none" fill-rule="evenodd">
        <g id="80x80" fill="#FFFFFF" fill-rule="nonzero">
            <g id="gitlab">
                <path d="M49.8513864,28.0070166 L47.228803,19.2924273 C47.2149006,19.2121819 47.1936542,19.1336306 47.1653772,19.0579326 L41.9039854,1.54261301 C41.616473,0.615674173 40.8108293,-0.00658170071 39.9068101,5.25366988e-05 C39.0046966,-0.00586323329 38.2043751,0.624848892 37.933235,1.55537463 L32.9181713,18.2459747 L17.0897453,18.2459747 L12.0673065,1.55537463 C11.7971364,0.628234916 11.0014325,-0.00166286209 10.1025816,5.25366988e-05 L10.0907814,5.25366988e-05 C9.1859949,0.000222772186 8.38328583,0.627836461 8.09950611,1.55696983 L2.83368924,19.093027 C2.83368924,19.1089791 2.82188909,19.1217407 2.81746403,19.1376927 L0.147680125,28.0086118 C-0.254798684,29.3433572 0.184263125,30.8065229 1.23476893,31.6313159 L24.3011119,49.7575979 C24.7177071,50.0837196 25.2816236,50.0804928 25.6950046,49.7496219 L48.7657726,31.6313159 C49.8167719,30.8061829 50.2553825,29.3418904 49.8513864,28.0070166 Z M15.7514335,21 L22,43 L7,21 L15.7514335,21 Z M28,43 L33.9885387,21.9131828 L34.2464183,21 L43,21 L29.4369628,40.8834488 L28,43 Z M39.5036699,3 L44,19 L35,19 L39.5036699,3 Z M32,21 L27.6126303,36.0418455 L24.9949438,45 L18,21 L32,21 Z M10.491921,3 L15,19 L6,19 L10.491921,3 Z M2.26892593,29.6658226 C2.0396756,29.4829219 1.94420062,29.1586351 2.03261561,28.8631796 L4.06851996,22 L19,43 L2.26892593,29.6658226 Z M47.7319029,29.6676429 L31,43 L31.0560457,42.9202153 L45.9308679,22 L47.9666888,28.8614849 C48.0561572,29.1571435 47.9612458,29.4823582 47.7319029,29.6659807 L47.7319029,29.6676429 Z" id="Shape"></path>
            </g>
        </g>
    </g>
</svg>