<?xml version="1.0" encoding="utf-8"?>
<!-- Generator: Adobe Illustrator 25.4.1, SVG Export Plug-In . SVG Version: 6.00 Build 0)  -->
<svg version="1.1" id="Layer_1" xmlns="http://www.w3.org/2000/svg" xmlns:xlink="http://www.w3.org/1999/xlink" x="0px" y="0px"
	 viewBox="0 0 512 512" style="enable-background:new 0 0 512 512;" xml:space="preserve">
<style type="text/css">
	.st0{fill:#FFFFFF;}
</style>
<g transform="translate(0.000000,512.000000) scale(0.100000,-0.100000)">
	<path class="st0" d="M895,5110c-194-26-368-154-454-333c-22-45-44-109-50-141c-15-83-15-4069,0-4152c6-32,28-96,50-141
		C511,197,637,86,795,32l80-27h1685h1685l70,22c116,37,237,121,311,218c37,49,83,149,99,217c22,95,22,4101,0,4196
		c-16,68-62,168-99,217c-72,94-191,179-306,218l-65,22l-1650,1C1698,5117,928,5114,895,5110z M1960,3770v-750l23,5
		c12,3,214,37,449,75c342,56,449,70,535,70c399,0,712-266,782-664c7-39,11-382,11-983V600h-300h-300v893c0,987,1,963-62,1024
		c-39,38-76,53-128,53c-22,0-387-59-813-130c-425-72-779-130-785-130c-9,0-12,262-12,1105v1105h300h300V3770z M3757,4382
		c-6-132-25-281-50-407l-13-60l-312-3c-172-1-312,2-312,6c0,5,7,31,15,58c33,109,75,406,75,537c0,4,136,7,302,7h301L3757,4382z
		 M1661,1409c162-121,294-224,294-229c0-7-582-450-592-450c-2,0-3,203-3,450c0,248,1,450,3,450S1499,1531,1661,1409z"/>
</g>
</svg>
