<svg id="Layer_1" data-name="Layer 1" xmlns="http://www.w3.org/2000/svg" viewBox="0 0 263.67 299.21"><defs><style>.cls-1{fill:#fff;}</style></defs><title>html5</title><rect x="35.23" y="34" width="195" height="216"/><g id="_Groupe_" data-name="&lt;Groupe&gt;"><path id="_Tracé_transparent_" data-name="&lt;Tracé transparent&gt;" class="cls-1" d="M22.35,0a4.51,4.51,0,0,0-4.56,5L41,265a7.78,7.78,0,0,0,5.26,6.32l98.38,27.31a21.21,21.21,0,0,0,9.64,0l98.68-27.36A7.77,7.77,0,0,0,258.2,265L281.42,5a4.49,4.49,0,0,0-4.55-5Zm209.7,59.64c-.22,2.44-.6,6.68-.84,9.42l-.61,6.83c-.25,2.73-.6,6.65-.78,8.7s-.36,3.72-.4,3.72H107.76a4.51,4.51,0,0,0-4.56,5l2.15,24a5.58,5.58,0,0,0,5.44,5H222a4,4,0,0,1,4.05,4.44c-.22,2.44-.6,6.68-.84,9.42l-6.89,77.23c-.25,2.74-.56,6.24-.7,7.78s-2.41,3.39-5.06,4.13l-58.13,16.12-4.9,1.35s-2.24-.59-4.89-1.32l-58.2-16.15a7.8,7.8,0,0,1-5.26-6.32l-3.74-42a4.49,4.49,0,0,1,4.55-5h23.23a5.59,5.59,0,0,1,5.45,5l1.47,16.45a7.71,7.71,0,0,0,5.27,6.29L144.63,207l4.85,1.3,4.85-1.3,27.27-7.37a7.74,7.74,0,0,0,5.27-6.28l3-33a4.51,4.51,0,0,0-4.56-5H80.51a5.58,5.58,0,0,1-5.44-5L67.81,69.06c-.24-2.74-.62-7-.84-9.42s1.85-4.44,4.6-4.44H227.45C230.2,55.2,232.27,57.2,232.05,59.64Z" transform="translate(-17.77)"/></g></svg>