<svg id="Capa_1" data-name="Capa 1" xmlns="http://www.w3.org/2000/svg" viewBox="0 0 312.55 312.55"><defs><style>.cls-1{fill:#fff;}</style></defs><title>js</title><rect x="58" y="58" width="198.5" height="198.5"/><path class="cls-1" d="M302.55,0H10A10,10,0,0,0,0,10V302.55a10,10,0,0,0,10,10H302.55a10,10,0,0,0,10-10V10A10,10,0,0,0,302.55,0ZM143.62,173.73c0,18.62-10.43,30.18-27.23,30.18-10.55,0-20-5.29-26.54-14.9a9.32,9.32,0,1,1,15.39-10.52c3.07,4.5,6.83,6.77,11.15,6.77,3.42,0,8.59,0,8.59-11.53V126.27H99.5a9.33,9.33,0,0,1,0-18.65h34.8a9.32,9.32,0,0,1,9.32,9.32Zm45.82,31.87c-12.5,0-25.25-5.27-33.28-13.75A9.32,9.32,0,0,1,169.7,179c4.49,4.74,12.42,7.92,19.74,7.92,7.49,0,16.24-2.19,16.24-8.35,0-5.81-3-8-17.41-12.34-12.68-3.84-31.84-9.64-31.84-31.72C156.43,118,170.74,107,192,107c9.48,0,19.82,2.88,27,7.5a9.32,9.32,0,1,1-10.12,15.66c-4.12-2.65-11-4.51-16.86-4.51-7.82,0-16.95,2.34-16.95,8.94,0,7.16,4.19,9.51,18.6,13.88,12.27,3.71,30.83,9.33,30.65,30.26C224.33,194.75,210.31,205.6,189.44,205.6Z"/></svg>