<?xml version="1.0" encoding="utf-8"?>
<!-- Generator: Adobe Illustrator 25.4.1, SVG Export Plug-In . SVG Version: 6.00 Build 0)  -->
<svg version="1.1" id="Layer_1" xmlns="http://www.w3.org/2000/svg" xmlns:xlink="http://www.w3.org/1999/xlink" x="0px" y="0px"
	 viewBox="0 0 1200 1248" style="enable-background:new 0 0 1200 1248;" xml:space="preserve">
<style type="text/css">
	.st0{fill:#FFFFFF;}
</style>
<g transform="translate(0.000000,1248.000000) scale(0.100000,-0.100000)">
	<path class="st0" d="M2440,12467c-19-7-557-314-1195-681c-773-445-1170-679-1191-701c-17-19-36-52-42-73c-16-54-17-7948-1-8005
		c6-22,25-54,42-72c42-44,4657-2700,4713-2713c26-6,55-5,84,3c63,16,4666,2666,4707,2709c17,19,36,51,42,73c8,26,11,439,11,1308
		v1270l1122,645c1058,609,1123,647,1150,689l28,45v1368c0,1489,3,1405-56,1459c-16,14-555,329-1199,700l-1170,674h-65h-65l-1145-658
		c-630-363-1166-673-1192-690s-57-49-70-72l-23-40l-5-1289l-5-1289l-945-545c-520-299-953-547-962-549c-17-5-18,118-18,2487v2493
		l-25,43c-31,52,109-31-1296,777C2491,12511,2519,12497,2440,12467z M3523,11480c493-283,896-517,896-520s-432-253-960-557l-961-552
		l-959,552c-527,304-959,554-959,557s431,253,958,556l957,551l66-36C2598,12011,3031,11763,3523,11480z M10381,10210
		c519-299,948-546,952-550c11-10-1892-1105-1918-1104S7509,9642,7510,9655c1,15,1892,1104,1911,1101
		C9430,10754,9862,10508,10381,10210z M1390,10052l915-527l5-2610l5-2610l22-35c12-19,34-44,50-56c15-11,524-301,1131-644l1102-623
		V1843c0-606-4-1103-9-1103c-4,0-957,546-2117,1214L385,3168l-3,3732l-2,3731l47-26C454,10591,887,10342,1390,10052z M4620,8215
		V5810l-37-24c-50-32-1882-1086-1888-1086c-3,0-5,1086-5,2413l1,2412l957,551c526,303,960,549,965,547
		C4617,10621,4620,9537,4620,8215z M8271,8768l959-552V7122c0-1038-1-1094-17-1088c-10,4-444,253-965,553l-948,545v1094
		c0,602,3,1094,6,1094C7310,9320,7744,9072,8271,8768z M11540,8233c0-599-4-1093-8-1098c-7-11-1904-1105-1916-1105
		c-3,0-6,492-6,1094v1094l957,551c527,303,961,551,965,551C11537,9320,11540,8831,11540,8233z M8084,6243c807-465,946-548,932-559
		c-9-6-315-182-679-390s-1307-746-2096-1196l-1434-819l-46,25c-274,150-1863,1055-1863,1062c-1,15,4205,2434,4222,2428
		C7128,6791,7562,6543,8084,6243z M9228,4264l-3-1096L7117,1954C5957,1286,5004,740,4999,740s-9,446-9,1103v1104l2113,1206
		c1161,663,2115,1206,2120,1207C9227,5360,9229,4867,9228,4264z"/>
</g>
</svg>
