<svg id="Capa_1" data-name="Capa 1" xmlns="http://www.w3.org/2000/svg" viewBox="0 0 512 512"><defs><style>.cls-1{fill:#fff;}</style></defs><title>php</title><path class="cls-1" d="M512,256a257.87,257.87,0,0,1-4,45.37C486.58,421.11,381.9,512,256,512A255.75,255.75,0,0,1,0,256C0,114.61,114.61,0,256,0,372.69,0,471.14,78.07,502,184.84A256.28,256.28,0,0,1,512,256Z"/><path d="M130.17,178.24H35.89L9,323.61a253.76,253.76,0,0,0,25.09,60.15h8.74l10.41-56.3h51.8c63.08,0,80-56.63,84.11-84.45S172.91,178.24,130.17,178.24Zm13.68,69.46c-2.31,15.77-14,47.88-49.72,47.88h-35L74.79,211h35.6C145.1,211,146.16,231.94,143.85,247.7Z"/><path d="M502,184.84a61.69,61.69,0,0,0-28.6-6.6H379.1l-38,205.52h44.95l10.41-56.3h51.8c28.06,0,47-11.2,59.71-26.09a258.07,258.07,0,0,0-6-116.53ZM487.06,247.7c-2.31,15.77-14,47.88-49.73,47.88h-35L418,211h35.6C488.3,211,489.37,231.94,487.06,247.7Z"/><path d="M309.24,178.92h-54.6l10.25-55.45H220.12L182.14,329h44.77L248.75,210.8h28.61c19,0,31.88,4.07,29.16,21.7s-18.31,95.64-18.31,95.64h45.45S351.29,241.32,354,216.9,334.33,178.92,309.24,178.92Z"/></svg>