<?xml version="1.0" encoding="utf-8"?>
<!-- Generator: Adobe Illustrator 25.4.1, SVG Export Plug-In . SVG Version: 6.00 Build 0)  -->
<svg version="1.1" id="Layer_1" xmlns="http://www.w3.org/2000/svg" xmlns:xlink="http://www.w3.org/1999/xlink" x="0px" y="0px"
	 viewBox="0 0 512 512" style="enable-background:new 0 0 512 512;" xml:space="preserve">
<style type="text/css">
	.st0{fill:#FFFFFF;}
</style>
<g transform="translate(0.000000,512.000000) scale(0.100000,-0.100000)">
	<path class="st0" d="M3495,5109c-119-9-262-33-364-61c-69-19-81-19-170-7c-146,21-455,18-561-4c-109-24-187-50-278-94l-72-36
		l-128,37c-362,103-697,130-976,76c-126-25-190-46-297-100c-286-144-466-407-536-783c-28-147-25-522,5-687c73-399,181-820,296-1155
		c142-416,271-658,437-825c188-187,415-220,604-85l49,34l44-40c147-136,504-186,746-105c39,13,73,23,75,21s5-46,7-97
		c19-424,31-525,85-708c99-335,281-484,594-485c124,0,172,8,310,52c412,132,593,447,635,1103c6,96,13,198,16,226l5,51l167,6
		c136,4,185,10,265,30c194,51,360,139,473,252c94,94,128,162,122,248c-7,109-56,182-153,228c-71,34-102,36-226,9
		c-52-11-132-23-179-27l-84-6l15,24c9,13,48,83,88,156c392,721,605,1596,488,2000c-34,116-76,181-207,313c-265,269-580,408-990,440
		C3652,5121,3641,5121,3495,5109z M3990,4951c186-40,349-107,495-202c109-71,302-265,339-341c103-211,59-681-112-1203
		c-112-341-297-734-490-1042l-51-82l47-18c71-27,258-25,437,6c130,22,143,23,177,8c65-28,89-98,55-164c-21-40-91-108-157-153
		c-181-123-396-178-651-167c-68,3-133,8-145,12c-19,6-21,1-33-107c-49-442-101-793-133-898c-72-236-211-362-478-435
		c-328-90-563,0-694,265c-76,156-95,296-105,793l-6,327l-50-36c-119-87-251-128-410-128c-291,1-489,119-432,257c24,56,77,84,238,123
		c79,20,164,47,189,60c25,14,68,53,98,89l52,64l-37,6c-97,16-142,27-196,49l-58,24l-97-107c-53-59-149-168-213-242
		c-138-160-175-193-249-228c-188-88-381,35-559,357c-191,346-405,1048-506,1662c-56,343-19,713,93,935c140,279,395,438,763,475
		c235,24,566-23,865-121l91-30l52,30c226,134,543,173,854,106c57-12,73-12,105-1c60,21,219,56,327,71C3550,4986,3864,4978,3990,4951
		z"/>
	<path class="st0" d="M3535,4833c-56-4-195-23-223-30c-20-5-8-14,70-55c136-73,249-158,369-278c160-160,276-329,366-532
		c83-188,86-232,42-557c-23-175-24-232-2-414c21-188,21-390,0-486c-9-41-33-109-53-152c-27-58-34-81-26-94c8-15,23,4,87,111
		c142,239,297,574,393,854c133,387,202,779,173,992c-17,132-42,181-153,292c-105,106-229,191-358,247C4031,4813,3765,4852,3535,4833
		z"/>
	<path class="st0" d="M2475,4770c-369-66-625-341-740-795c-32-127-63-321-52-331c3-3,28,6,56,21c82,41,219,83,310,94
		c198,25,347-44,424-196c52-101,92-357,91-578c-1-223-34-368-129-580c-33-74-90-229-99-271c-7-31-7-31,44-37c121-14,224-110,244-227
		c3-19,8-233,10-475c6-613,22-772,91-904c52-99,95-145,173-183c62-31,73-33,162-31c180,3,367,69,460,164c93,94,124,193,175,564
		c30,216,47,369,95,827c13,134,64,211,165,254c19,8,35,17,35,19c0,3-25,39-56,80c-98,130-385,689-448,873c-65,188-81,355-46,474
		c50,169,245,269,498,256l83-4l-6,25c-11,48-103,226-162,313c-228,340-530,552-903,633C2863,4774,2552,4784,2475,4770z"/>
	<path class="st0" d="M1040,4758c-84-12-229-61-300-100c-70-40-195-166-239-241c-80-136-119-300-128-537c-6-187,9-316,73-620
		c161-760,393-1368,601-1578c58-58,104-82,158-82c65,0,107,33,241,187c71,82,171,194,222,250l94,103l-53,57c-88,97-144,198-180,328
		c-18,63-18,254-1,435c8,93,10,217,6,395c-7,273-1,360,37,550c54,271,158,506,299,674c71,84,85,72-131,125
		C1494,4765,1229,4785,1040,4758z"/>
	<path class="st0" d="M3735,3626c-68-21-104-45-130-84c-84-127-41-351,135-707c146-294,232-449,241-433c4,8,17,48,28,88
		c26,91,28,244,6,435c-20,178-19,332,5,510c11,83,20,162,20,178v27l-132-1C3830,3639,3758,3633,3735,3626z M3880,3567
		c38-19,37-50-4-90c-56-56-126-61-179-11c-15,14-27,34-27,44C3670,3560,3816,3599,3880,3567z"/>
	<path class="st0" d="M2035,3614c-114-24-231-70-316-124l-46-30l4-213c4-154,1-254-11-363c-20-184-20-220-1-309
		c45-215,220-396,421-435c34-7,69-10,78-9c11,3,28,38,52,107c19,57,62,167,96,245c103,243,129,395,108,627c-12,136-41,297-65,370
		c-19,57-66,104-124,125C2191,3619,2084,3624,2035,3614z M2247,3521c76-35,76-85,0-131c-61-38-133-20-183,45c-30,40-27,75,8,93
		C2109,3545,2200,3542,2247,3521z"/>
	<path class="st0" d="M4011,1952c-52-26-74-63-79-132c-4-57-3-60,23-70c48-18,168-23,275-11c139,16,220,37,305,76
		c68,32,171,103,162,111c-2,3-46-2-98-11c-189-30-391-15-477,36C4082,1974,4056,1974,4011,1952z"/>
	<path class="st0" d="M2339,1945c-13-7-56-52-94-100c-105-130-150-159-316-199c-156-39-179-46-179-56c0-19,136-52,235-57
		c204-11,345,47,463,190c27,34,42,62,42,80C2490,1890,2399,1976,2339,1945z"/>
</g>
</svg>
