<?xml version="1.0" encoding="utf-8"?>
<!-- Generator: Adobe Illustrator 23.0.1, SVG Export Plug-In . SVG Version: 6.00 Build 0)  -->
<svg version="1.1" id="Calque_1" xmlns="http://www.w3.org/2000/svg" xmlns:xlink="http://www.w3.org/1999/xlink" x="0px" y="0px"
	 viewBox="0 0 60 60" style="enable-background:new 0 0 60 60;" xml:space="preserve">
<style type="text/css">
	.st0{fill:#FFFFFF;}
</style>
<g>
	<path class="st0" d="M36.73,3.15c0.86,0.58,1.73,1.15,2.58,1.75c2.29,1.63,4.38,3.48,6.29,5.53c3.47,3.75,6.19,7.97,7.98,12.77
		c0.62,1.65,1.1,3.34,1.41,5.08c0.16,0.9,0.29,1.81,0.37,2.72c0.08,0.9,0.12,1.81,0.12,2.72c-0.02,2.2-0.34,4.36-0.97,6.47
		c-0.05,0.17-0.02,0.28,0.08,0.42c1.96,2.46,3.39,5.19,4.21,8.23c0.41,1.54,0.65,3.11,0.64,4.72c-0.01,0.72-0.05,1.45-0.27,2.15
		c-0.05,0.16-0.12,0.31-0.21,0.44c-0.11,0.16-0.24,0.16-0.34-0.01c-0.12-0.2-0.22-0.41-0.34-0.62c-0.67-1.16-1.49-2.19-2.58-2.97
		c-0.96-0.7-2.04-1.13-3.21-1.32c-1.47-0.24-2.92-0.09-4.36,0.25c-1.08,0.25-2.13,0.62-3.14,1.06c-0.44,0.19-0.86,0.45-1.29,0.67
		c-1.63,0.82-3.34,1.43-5.12,1.86c-1.09,0.26-2.19,0.45-3.3,0.58c-1.25,0.14-2.5,0.2-3.75,0.17c-1.28-0.03-2.55-0.13-3.82-0.32
		c-2.04-0.29-4.03-0.77-5.99-1.41c-2.54-0.84-4.97-1.92-7.28-3.25c-4.12-2.37-7.73-5.36-10.83-8.97c-1.24-1.44-2.36-2.96-3.38-4.56
		c-0.03-0.04-0.05-0.08-0.06-0.14c0.24,0.19,0.47,0.37,0.71,0.56c1.77,1.34,3.7,2.41,5.7,3.37c1.95,0.93,3.96,1.71,6.05,2.3
		c1.32,0.38,2.67,0.67,4.03,0.88c1.69,0.26,3.38,0.39,5.09,0.36c2.43-0.04,4.81-0.39,7.13-1.11c1.74-0.54,3.39-1.27,4.94-2.22
		c0.03-0.02,0.06-0.05,0.11-0.08c-0.24-0.19-0.47-0.37-0.71-0.55c-2.5-1.96-4.9-4.05-7.21-6.23c-2.79-2.64-5.44-5.41-8-8.27
		c-3.07-3.44-5.99-7.01-8.82-10.65c-0.28-0.37-0.62-0.69-0.92-1.05c-0.78-0.94-1.44-1.96-2.11-2.98c-0.09-0.13-0.17-0.26-0.25-0.41
		c3.73,3.34,7.63,6.48,11.62,9.51c3.99,3.02,8.03,5.98,12.31,8.59c-6.14-6.61-11.69-13.69-16.81-21.1c1.49,1.43,2.96,2.89,4.47,4.3
		c1.52,1.42,3.06,2.82,4.62,4.19c1.56,1.37,3.14,2.71,4.75,4.02c1.6,1.31,3.23,2.6,4.88,3.85c1.65,1.26,3.34,2.48,5.03,3.68
		c1.68,1.2,3.4,2.37,5.21,3.42c0.06-0.17,0.13-0.33,0.19-0.49c0.52-1.44,0.9-2.91,1.13-4.42c0.22-1.41,0.32-2.84,0.29-4.27
		c-0.02-1.09-0.11-2.17-0.26-3.25c-0.68-4.91-2.48-9.4-5.08-13.59C37.77,4.75,37.24,4,36.73,3.24c-0.01-0.02-0.02-0.03-0.03-0.05
		C36.71,3.18,36.72,3.16,36.73,3.15z"/>
</g>
</svg>
