<?xml version="1.0" encoding="utf-8"?>
<!-- Generator: Adobe Illustrator 23.0.1, SVG Export Plug-In . SVG Version: 6.00 Build 0)  -->
<svg version="1.1" id="Calque_1" xmlns="http://www.w3.org/2000/svg" xmlns:xlink="http://www.w3.org/1999/xlink" x="0px" y="0px"
	 viewBox="0 0 60 60" style="enable-background:new 0 0 60 60;" xml:space="preserve">
<style type="text/css">
	.st0{fill:#010202;}
	.st1{fill:#FFFFFF;}
</style>
<g>
	<path class="st0" d="M59.73,30c0,16.42-13.31,29.73-29.73,29.73c-15.15,0-27.65-11.33-29.49-25.98C0.35,32.52,0.27,31.27,0.27,30
		c0-2.33,0.27-4.59,0.77-6.77C4.11,10.08,15.91,0.27,30,0.27c14.06,0,25.83,9.76,28.93,22.87c0.41,1.71,0.66,3.49,0.76,5.3
		C59.72,28.96,59.73,29.48,59.73,30z"/>
	<polygon class="st1" points="28.51,32.39 28.51,24.66 21.82,20.79 15.13,24.66 15.13,32.39 21.82,36.25 	"/>
	<path class="st1" d="M54.88,31.21l4.36,2.52l-4.36,2.52l-6.69-3.86v-7.73l6.69-3.86l4.06,2.34c0.41,1.71,0.66,3.49,0.76,5.3
		l-2.48,1.43v-2.69l-2.33-1.35l-2.33,1.35v2.69L54.88,31.21z"/>
	<polygon class="st1" points="56.17,29.27 56.17,27.77 54.87,27.02 53.58,27.77 53.58,29.27 54.87,30.02 	"/>
	<path class="st1" d="M11.96,24.66v10.19L7.5,32.3v-5.22l-2.23-1.29l-2.23,1.29v5.22l-2.53,1.45C0.35,32.52,0.27,31.27,0.27,30
		c0-2.33,0.27-4.59,0.77-6.77l4.23-2.44L11.96,24.66z"/>
	<rect x="17.95" y="21.83" transform="matrix(0.866 -0.5 0.5 0.866 -11.3381 14.731)" class="st1" width="7.73" height="13.39"/>
	<polygon class="st1" points="15.13,32.39 17.42,28.64 15.13,24.66 	"/>
	<polygon class="st1" points="26.28,28.52 28.51,24.66 21.82,20.79 	"/>
	<path class="st1" d="M40.52,11.84v10.25l-2.24-1.3l-6.69,3.86v7.73l6.69,3.86l6.69-3.86V14.22L40.52,11.84z M40.5,29.81l-2.23,1.29
		l-2.23-1.29v-2.58l2.23-1.29l2.23,1.29V29.81z"/>
	<g>
		<path class="st1" d="M33.04,41.93c0,0-0.13-1.13-1.34-1.13c-1.21,0-2.04,0.16-2.04,0.83c0,0.67,2.35,0.67,3.24,0.93
			c0.89,0.26,1.68,0.95,1.29,2.15c-0.39,1.21-1.6,1.34-3.47,1.34s-2.29-1.55-2.29-2.15h1.05c0,0-0.13,0.95,1.1,1.1
			c1.23,0.16,2.42,0.25,2.57-0.71c0.21-1.26-3.99-0.63-4.36-1.87c-0.31-1.04-0.13-2.42,1.97-2.63s3.26,0.72,3.26,2.1L33.04,41.93z"
			/>
		<path class="st1" d="M22.88,46.85l2.32,1.34c1.17,0.67,2.63-0.17,2.63-1.52v-2.35V40h-0.95v6.41c0,0.74-0.8,1.2-1.43,0.83
			l-1.62-0.94v-6.84l5.93-3.42l5.93,3.42v6.84l-5.93,3.42l-1.71-0.99l-1.12,0.45l2.82,1.63l6.87-3.97v-7.94l-6.87-3.97l-6.87,3.97
			L22.88,46.85L22.88,46.85L22.88,46.85z"/>
	</g>
</g>
</svg>
